<svg width="15" height="18" viewBox="0 0 15 18" fill="none" xmlns="http://www.w3.org/2000/svg">
<path d="M15 9.37199L15 11.8309L0.540466 11.8309L0.540466 9.37199L15 9.37199Z" fill="#B59C93"/>
<path d="M6.3521 4.01865L8.66562 4.01865L15 4.01865L15 6.4776L6.02159 6.4776C5.29173 6.4776 4.60318 6.36148 3.95595 6.12925C3.30871 5.89702 2.75099 5.5555 2.28277 5.10469C1.80079 4.65388 1.42209 4.10062 1.14667 3.4449C0.871247 2.78918 0.733537 2.03783 0.733537 1.19086C0.733537 1.04059 0.747309 0.890322 0.774851 0.740053C0.788622 0.589785 0.809278 0.439516 0.83682 0.289247L3.23297 0.289247C3.20543 0.425856 3.18477 0.555632 3.171 0.678579C3.14346 0.801527 3.12969 0.931305 3.12969 1.06791C3.12969 1.62801 3.20543 2.09931 3.35691 2.48181C3.50839 2.85065 3.71495 3.15119 3.9766 3.38342C4.22448 3.61566 4.52744 3.77959 4.88549 3.87521C5.22976 3.97084 5.60158 4.01865 6.00094 4.01865L6.3521 4.01865Z" fill="#B59C93"/>
<path d="M15 15.0186L15 17.4776L0.540466 17.4776L0.540466 15.0187L15 15.0186Z" fill="#B59C93"/>
</svg>
