<svg width="14" height="14" viewBox="0 0 14 14" fill="none" xmlns="http://www.w3.org/2000/svg">
<path fill-rule="evenodd" clip-rule="evenodd" d="M7.1425 1.66683C5.72801 1.66683 4.37145 2.22873 3.37126 3.22893C2.37107 4.22912 1.80916 5.58568 1.80916 7.00016V11.0002C1.80916 11.3684 1.51069 11.6668 1.1425 11.6668C0.774307 11.6668 0.47583 11.3684 0.47583 11.0002V7.00016C0.47583 5.23205 1.17821 3.53636 2.42845 2.28612C3.67869 1.03588 5.37439 0.333496 7.1425 0.333496C8.91061 0.333496 10.6063 1.03588 11.8565 2.28612C13.1068 3.53636 13.8092 5.23205 13.8092 7.00016V11.0002C13.8092 11.3684 13.5107 11.6668 13.1425 11.6668C12.7743 11.6668 12.4758 11.3684 12.4758 11.0002V7.00016C12.4758 5.58568 11.9139 4.22912 10.9137 3.22893C9.91354 2.22873 8.55698 1.66683 7.1425 1.66683Z" fill="#0A2936"/>
<path fill-rule="evenodd" clip-rule="evenodd" d="M0.47583 8.3335C0.47583 7.96531 0.774307 7.66683 1.1425 7.66683H3.1425C3.67293 7.66683 4.18164 7.87754 4.55671 8.25262C4.93178 8.62769 5.1425 9.1364 5.1425 9.66683V11.6668C5.1425 12.1973 4.93178 12.706 4.55671 13.081C4.18164 13.4561 3.67293 13.6668 3.1425 13.6668H2.47583C1.9454 13.6668 1.43669 13.4561 1.06162 13.081C0.686544 12.706 0.47583 12.1973 0.47583 11.6668V8.3335ZM1.80916 9.00016V11.6668C1.80916 11.8436 1.8794 12.0132 2.00443 12.1382C2.12945 12.2633 2.29902 12.3335 2.47583 12.3335H3.1425C3.31931 12.3335 3.48888 12.2633 3.6139 12.1382C3.73893 12.0132 3.80916 11.8436 3.80916 11.6668V9.66683C3.80916 9.49002 3.73893 9.32045 3.6139 9.19543C3.48888 9.0704 3.31931 9.00016 3.1425 9.00016H1.80916ZM11.1425 9.00016C10.9657 9.00016 10.7961 9.0704 10.6711 9.19543C10.5461 9.32045 10.4758 9.49002 10.4758 9.66683V11.6668C10.4758 11.8436 10.5461 12.0132 10.6711 12.1382C10.7961 12.2633 10.9657 12.3335 11.1425 12.3335H11.8092C11.986 12.3335 12.1555 12.2633 12.2806 12.1382C12.4056 12.0132 12.4758 11.8436 12.4758 11.6668V9.00016H11.1425ZM9.72828 8.25262C10.1034 7.87754 10.6121 7.66683 11.1425 7.66683H13.1425C13.5107 7.66683 13.8092 7.96531 13.8092 8.3335V11.6668C13.8092 12.1973 13.5984 12.706 13.2234 13.081C12.8483 13.4561 12.3396 13.6668 11.8092 13.6668H11.1425C10.6121 13.6668 10.1034 13.4561 9.72828 13.081C9.35321 12.706 9.1425 12.1973 9.1425 11.6668V9.66683C9.1425 9.1364 9.35321 8.62769 9.72828 8.25262Z" fill="#0A2936"/>
</svg>
