<svg width="17" height="16" viewBox="0 0 17 16" fill="none" xmlns="http://www.w3.org/2000/svg">
<g clip-path="url(#clip0_1_3717)">
<path fill-rule="evenodd" clip-rule="evenodd" d="M7.02069 1.52188C7.32022 1.35324 7.65815 1.26465 8.00189 1.26465C8.34562 1.26465 8.68356 1.35324 8.98308 1.52188C9.28261 1.69051 9.53362 1.9335 9.71189 2.22739L9.71381 2.23056L15.3605 11.6572L15.3659 11.6664C15.5405 11.9689 15.6329 12.3117 15.6339 12.661C15.6349 13.0102 15.5444 13.3536 15.3715 13.657C15.1985 13.9604 14.9492 14.2132 14.6482 14.3903C14.3472 14.5674 14.0051 14.6626 13.6559 14.6664L13.6486 14.6665L2.34789 14.6665C1.99869 14.6626 1.65658 14.5674 1.3556 14.3903C1.05462 14.2132 0.805254 13.9604 0.632318 13.657C0.459383 13.3536 0.368903 13.0102 0.369881 12.661C0.370859 12.3117 0.46326 11.9689 0.637892 11.6664L0.643307 11.6572L6.28997 2.23056L6.86187 2.57314L6.29189 2.22739C6.47016 1.9335 6.72116 1.69051 7.02069 1.52188ZM7.43269 2.91757L1.79034 12.337C1.73356 12.4369 1.70353 12.5498 1.70321 12.6647C1.70288 12.7811 1.73304 12.8956 1.79069 12.9967C1.84833 13.0978 1.93146 13.1821 2.03178 13.2411C2.13123 13.2997 2.24415 13.3313 2.35948 13.3331H13.6443C13.7596 13.3313 13.8725 13.2997 13.972 13.2411C14.0723 13.1821 14.1554 13.0978 14.2131 12.9967C14.2707 12.8956 14.3009 12.7811 14.3006 12.6647C14.3002 12.5498 14.2702 12.4369 14.2134 12.3371L8.57189 2.9189C8.57162 2.91845 8.57135 2.91801 8.57108 2.91757C8.51171 2.8202 8.42834 2.73968 8.32895 2.68372C8.22911 2.62751 8.11646 2.59798 8.00189 2.59798C7.88731 2.59798 7.77466 2.62751 7.67482 2.68372C7.57543 2.73968 7.49207 2.8202 7.43269 2.91757Z" fill="#0A2936"/>
</g>
<defs>
<clipPath id="clip0_1_3717">
<rect width="16" height="16" fill="white" transform="translate(0.00195312)"/>
</clipPath>
</defs>
</svg>
