<svg width="15" height="14" viewBox="0 0 15 14" fill="none" xmlns="http://www.w3.org/2000/svg">
<path fill-rule="evenodd" clip-rule="evenodd" d="M7.64266 1.16667C6.40498 1.16667 5.218 1.65833 4.34283 2.5335C3.46766 3.40867 2.97599 4.59566 2.97599 5.83333C2.97599 7.64053 4.15184 9.39415 5.44113 10.7551C6.07385 11.4229 6.70855 11.9697 7.18572 12.3497C7.36331 12.4911 7.51842 12.6089 7.64266 12.7007C7.7669 12.6089 7.92201 12.4911 8.0996 12.3497C8.57677 11.9697 9.21147 11.4229 9.84419 10.7551C11.1335 9.39415 12.3093 7.64053 12.3093 5.83333C12.3093 4.59566 11.8177 3.40867 10.9425 2.5335C10.0673 1.65833 8.88034 1.16667 7.64266 1.16667ZM7.64266 13.4167C7.31909 13.902 7.31894 13.9019 7.31877 13.9018L7.3171 13.9007L7.31321 13.8981L7.29985 13.8891C7.28849 13.8813 7.27229 13.8703 7.25157 13.8559C7.21014 13.8272 7.1506 13.7854 7.07554 13.7312C6.92548 13.6228 6.71304 13.4646 6.45897 13.2623C5.95177 12.8584 5.27397 12.275 4.59419 11.5574C3.25848 10.1475 1.80933 8.10947 1.80933 5.83333C1.80933 4.28624 2.42391 2.80251 3.51787 1.70854C4.61183 0.614582 6.09556 0 7.64266 0C9.18976 0 10.6735 0.614582 11.7674 1.70854C12.8614 2.80251 13.476 4.28624 13.476 5.83333C13.476 8.10947 12.0268 10.1475 10.6911 11.5574C10.0114 12.275 9.33355 12.8584 8.82635 13.2623C8.57228 13.4646 8.35984 13.6228 8.20978 13.7312C8.13472 13.7854 8.07518 13.8272 8.03375 13.8559C8.01303 13.8703 7.99683 13.8813 7.98547 13.8891L7.97211 13.8981L7.96822 13.9007L7.96699 13.9015C7.96682 13.9016 7.96623 13.902 7.64266 13.4167ZM7.64266 13.4167L7.96623 13.902C7.77029 14.0327 7.51471 14.0324 7.31877 13.9018L7.64266 13.4167Z" fill="#0A2936"/>
<path fill-rule="evenodd" clip-rule="evenodd" d="M7.64266 4.66667C6.99833 4.66667 6.47599 5.189 6.47599 5.83333C6.47599 6.47767 6.99833 7 7.64266 7C8.28699 7 8.80933 6.47767 8.80933 5.83333C8.80933 5.189 8.28699 4.66667 7.64266 4.66667ZM5.30933 5.83333C5.30933 4.54467 6.354 3.5 7.64266 3.5C8.93132 3.5 9.97599 4.54467 9.97599 5.83333C9.97599 7.122 8.93132 8.16667 7.64266 8.16667C6.354 8.16667 5.30933 7.122 5.30933 5.83333Z" fill="#0A2936"/>
</svg>
