<svg width="17" height="16" viewBox="0 0 17 16" fill="none" xmlns="http://www.w3.org/2000/svg">
<g clip-path="url(#clip0_1_3700)">
<path fill-rule="evenodd" clip-rule="evenodd" d="M8.02411 0.736886C8.21179 0.643043 8.43271 0.643043 8.62039 0.736886L15.2871 4.07022C15.5129 4.18315 15.6556 4.41399 15.6556 4.6665C15.6556 4.91902 15.5129 5.14986 15.2871 5.26279L8.62039 8.59612C8.43271 8.68996 8.21179 8.68996 8.02411 8.59612L1.35744 5.26279C1.13158 5.14986 0.988916 4.91902 0.988916 4.6665C0.988916 4.41399 1.13158 4.18315 1.35744 4.07022L8.02411 0.736886ZM3.14629 4.6665L8.32225 7.25448L13.4982 4.6665L8.32225 2.07853L3.14629 4.6665Z" fill="#0A2936"/>
<path fill-rule="evenodd" clip-rule="evenodd" d="M1.0593 11.035C1.22396 10.7057 1.62441 10.5722 1.95372 10.7369L8.32225 13.9211L14.6908 10.7369C15.0201 10.5722 15.4205 10.7057 15.5852 11.035C15.7499 11.3643 15.6164 11.7648 15.2871 11.9295L8.62039 15.2628C8.43271 15.3566 8.21179 15.3566 8.02411 15.2628L1.35744 11.9295C1.02812 11.7648 0.894638 11.3643 1.0593 11.035Z" fill="#0A2936"/>
<path fill-rule="evenodd" clip-rule="evenodd" d="M1.0593 7.70169C1.22396 7.37238 1.62441 7.23889 1.95372 7.40355L8.32225 10.5878L14.6908 7.40355C15.0201 7.23889 15.4205 7.37238 15.5852 7.70169C15.7499 8.03101 15.6164 8.43146 15.2871 8.59612L8.62039 11.9295C8.43271 12.0233 8.21179 12.0233 8.02411 11.9295L1.35744 8.59612C1.02812 8.43146 0.894638 8.03101 1.0593 7.70169Z" fill="#0A2936"/>
</g>
<defs>
<clipPath id="clip0_1_3700">
<rect width="16" height="16" fill="white" transform="translate(0.322266)"/>
</clipPath>
</defs>
</svg>
