<svg width="18" height="18" viewBox="0 0 18 18" fill="none" xmlns="http://www.w3.org/2000/svg">
<path fill-rule="evenodd" clip-rule="evenodd" d="M3.16428 11.4538C3.82847 10.7896 4.72931 10.4165 5.66862 10.4165H11.3353C12.2746 10.4165 13.1754 10.7896 13.8396 11.4538C14.5038 12.118 14.877 13.0189 14.877 13.9582V15.3748C14.877 15.766 14.5598 16.0832 14.1686 16.0832C13.7774 16.0832 13.4603 15.766 13.4603 15.3748V13.9582C13.4603 13.3946 13.2364 12.8541 12.8379 12.4556C12.4394 12.0571 11.8989 11.8332 11.3353 11.8332H5.66862C5.10504 11.8332 4.56453 12.0571 4.16602 12.4556C3.7675 12.8541 3.54362 13.3946 3.54362 13.9582V15.3748C3.54362 15.766 3.22649 16.0832 2.83529 16.0832C2.44408 16.0832 2.12695 15.766 2.12695 15.3748V13.9582C2.12695 13.0189 2.50009 12.118 3.16428 11.4538Z" fill="#0A2936"/>
<path fill-rule="evenodd" clip-rule="evenodd" d="M8.50187 3.33317C7.32827 3.33317 6.37687 4.28457 6.37687 5.45817C6.37687 6.63178 7.32827 7.58317 8.50187 7.58317C9.67548 7.58317 10.6269 6.63178 10.6269 5.45817C10.6269 4.28457 9.67548 3.33317 8.50187 3.33317ZM4.96021 5.45817C4.96021 3.50216 6.54586 1.9165 8.50187 1.9165C10.4579 1.9165 12.0435 3.50216 12.0435 5.45817C12.0435 7.41418 10.4579 8.99984 8.50187 8.99984C6.54586 8.99984 4.96021 7.41418 4.96021 5.45817Z" fill="#0A2936"/>
</svg>
