<svg width="122" height="183" viewBox="0 0 122 183" fill="none" xmlns="http://www.w3.org/2000/svg">
<path d="M0 58.2337C0 26.4773 25.7436 0.733765 57.5 0.733765H64.5C96.2564 0.733765 122 26.4774 122 58.2338V125.016C122 156.772 96.2564 182.516 64.5 182.516H57.5C25.7436 182.516 0 156.772 0 125.016V58.2337Z" fill="#B59C93"/>
<path d="M5 61.3761C5 30.172 30.2959 4.8761 61.5 4.8761C92.7041 4.8761 118 30.172 118 61.3761V121.517C118 152.721 92.7041 178.017 61.5 178.017C30.2959 178.017 5 152.721 5 121.517V61.3761Z" stroke="white" stroke-width="2"/>
<path d="M33.5449 147.749L34.7898 151.713H38.8185L35.5592 154.163L36.8041 158.128L33.5449 155.678L30.2857 158.128L31.5306 154.163L28.2714 151.713H32.3L33.5449 147.749Z" fill="white"/>
<path d="M61.5449 147.749L62.7898 151.713H66.8185L63.5592 154.163L64.8041 158.128L61.5449 155.678L58.2857 158.128L59.5306 154.163L56.2714 151.713H60.3L61.5449 147.749Z" fill="white"/>
<path d="M47.5449 147.749L48.7898 151.713H52.8185L49.5592 154.163L50.8041 158.128L47.5449 155.678L44.2857 158.128L45.5306 154.163L42.2714 151.713H46.3L47.5449 147.749Z" fill="white"/>
<path d="M75.5449 147.749L76.7898 151.713H80.8185L77.5592 154.163L78.8041 158.128L75.5449 155.678L72.2857 158.128L73.5306 154.163L70.2714 151.713H74.3L75.5449 147.749Z" fill="white"/>
<path d="M89.5449 147.749L90.7898 151.713H94.8185L91.5592 154.163L92.8041 158.128L89.5449 155.678L86.2857 158.128L87.5306 154.163L84.2714 151.713H88.3L89.5449 147.749Z" fill="white"/>
<path fill-rule="evenodd" clip-rule="evenodd" d="M57.6055 50.0359C57.6276 50.0188 57.6726 49.9844 57.7337 49.9375C57.9817 49.7455 58.2271 49.5799 58.4675 49.4457C58.714 49.3066 58.9701 49.1879 59.2326 49.0975C60.3911 48.6947 61.5417 48.8321 62.5865 49.6346C62.833 49.4097 63.1295 49.2099 63.4466 49.0412C65.6874 48.3619 66.6364 49.5753 67.0112 49.9095C65.8995 49.7205 64.2507 49.886 63.3638 50.6668C63.2764 50.7433 63.5043 50.9557 63.428 51.0557C63.3016 51.2242 63.3031 51.5116 63.1734 51.727C62.8315 51.3883 62.677 51.1416 62.1896 51.0666C61.8355 51.0119 61.3936 50.9808 61.2856 50.9088C60.9125 50.6654 60.925 50.1719 60.3881 50.1469C59.3124 50.0937 58.672 50.7136 57.6055 50.0359Z" fill="white"/>
<path fill-rule="evenodd" clip-rule="evenodd" d="M53.8203 53.5505C53.8358 53.5384 53.8674 53.5143 53.9103 53.4815C54.0844 53.347 54.2566 53.2309 54.4253 53.1369C54.5984 53.0394 54.7781 52.9562 54.9623 52.8929C55.7755 52.6106 56.583 52.7069 57.3163 53.2693C57.4893 53.1116 57.6974 52.9716 57.92 52.8534C59.4927 52.3774 60.1588 53.2277 60.4218 53.4618C59.6416 53.3295 58.4843 53.4454 57.8619 53.9925C57.8006 54.0462 57.9605 54.195 57.9069 54.2651C57.8182 54.3831 57.8193 54.5845 57.7283 54.7355C57.4883 54.4981 57.3798 54.3252 57.0378 54.2727C56.7892 54.2343 56.4791 54.2125 56.4033 54.1621C56.1414 53.9915 56.1502 53.6457 55.7734 53.6282C55.0183 53.591 54.5689 54.0253 53.8203 53.5505Z" fill="white"/>
<path fill-rule="evenodd" clip-rule="evenodd" d="M93.8563 74.3526C93.1847 74.1902 92.5039 74.098 91.8075 74.098C88.7131 74.098 85.9652 75.861 83.2187 77.6225C79.0887 79.8336 77.0185 80.2958 73.6913 79.0247C72.759 78.6719 71.7284 78.1769 70.5279 77.5491C63.4877 73.0909 60.7367 73.1424 53.6854 77.5819C51.8865 78.4579 50.5082 79.0809 49.3275 79.4495C46.3152 80.3957 44.609 79.6992 40.5255 77.4258C37.776 75.7361 35.1201 74.1028 32.5061 74.098H32.4992C31.82 74.098 31.151 74.2058 30.489 74.3933C29.2625 74.7399 28.6069 73.5437 28.2585 72.2259C27.951 71.0624 27.801 69.8241 28.8473 69.19C30.2665 68.3314 31.5491 67.6739 32.4992 67.6739H32.5061C33.8871 67.6755 36.0302 68.9933 38.2443 70.355C41.1765 72.157 44.2228 74.0293 47.323 74.0293H47.3313C49.0356 74.0278 50.6791 73.4625 52.2887 72.6536C61.9826 67.7941 62.0574 67.5941 71.7878 72.5723C73.4554 73.4249 75.1711 74.0293 76.981 74.0293C80.0739 74.0293 82.8234 72.2648 85.5682 70.5017C87.7682 69.0887 89.9746 67.6739 91.8074 67.6739C93.0598 67.6739 94.4836 68.35 95.9638 69.2306C96.9147 69.7976 96.5087 71.0843 95.9344 72.3412C95.427 73.4532 94.8664 74.5992 93.8563 74.3526ZM91.8701 80.0679C90.8054 81.5514 89.6296 82.9535 88.3601 84.2637C86.1414 86.5498 83.7042 88.2269 80.9624 89.8056C79.5477 90.6238 78.1831 91.2328 76.9811 91.2328C75.1059 91.2328 72.7995 89.7713 70.5279 88.33C67.7925 86.5967 65.0866 84.8804 62.1589 84.8804H62.1513C59.2191 84.8804 56.4601 86.6154 53.6855 88.3627C51.4176 89.7899 49.1295 91.2297 47.3314 91.2327H47.3231C46.0958 91.2327 44.5919 90.5675 43.0213 89.6932C40.1017 88.0629 37.7689 86.228 35.445 83.7374C34.3379 82.5507 33.3099 81.292 32.3658 79.9694C31.7484 79.1027 30.9169 78.4578 32.4994 78.4578H32.5063C32.5913 78.4578 32.6822 78.4657 32.7741 78.4735C34.1544 78.6249 36.1692 79.8616 38.2444 81.1359C44.6984 84.815 47.7913 85.5893 53.3818 82.6506C61.7922 78.2251 62.6009 78.4094 70.7729 82.5724C75.9944 85.2317 79.626 84.6291 85.5683 81.2826C87.7683 79.8711 89.9731 78.4578 91.8075 78.4578C93.4846 78.4579 92.557 79.1075 91.8701 80.0679ZM69.9924 94.5308C67.4567 95.0447 64.8431 95.3851 62.1513 95.3851C59.656 95.3851 57.2202 95.1179 54.8635 94.6464C53.2539 94.3279 53.6855 93.4971 56.001 92.0401C58.2323 90.6362 60.4524 89.2388 62.1513 89.2388H62.1589C63.8265 89.2403 65.9982 90.616 68.1951 92.0073C69.9642 93.1286 71.2445 94.278 69.9924 94.5308Z" fill="white"/>
<path d="M80.0953 71.5484C83.7922 70.6682 90.3057 67.3528 92.1981 67.7196C94.0906 68.0863 92.1101 69.3039 92.1101 69.3039L84.4083 74.8492L72.0855 74.4531L63.4155 71.1523L50.8726 75.9495L36.3492 73.1768L30.0117 68.8198C30.3345 68.5264 31.024 67.8868 32.2562 67.6755C34.5888 67.2757 36.6573 70.0961 41.3223 70.3161C45.9874 70.5362 49.0241 68.3797 62.4912 68.8198C67.7568 68.9919 75.4743 72.6487 80.0953 71.5484Z" fill="white"/>
<path fill-rule="evenodd" clip-rule="evenodd" d="M64.8633 44.9728C65.4708 45.0384 65.4799 45.068 66.0672 45.1821C67.0884 45.3788 67.3117 45.4569 67.6207 44.445L74.9933 20.3856C75.5852 18.4516 74.6888 18.5117 73.1559 18.0339C71.0853 17.3882 68.9308 16.9197 66.7198 16.6503C65.2613 16.4739 65.235 17.1601 65.1583 18.6077L63.8749 44.0828C63.8436 44.7073 63.9639 44.8745 64.8633 44.9728ZM71.2009 46.7904C71.7146 47.0278 72.2126 47.2838 72.7029 47.5556C73.6272 48.074 73.6897 47.6993 74.3423 46.8343L87.6671 29.1919C88.6317 27.9067 88.5321 27.5304 87.3579 26.3998C85.6651 24.7703 84.4177 23.8217 82.499 22.5896C81.1001 21.6926 80.7784 21.7145 80.1476 23.201L70.9293 44.8104C70.4485 45.9362 70.1081 46.2861 71.2009 46.7904ZM76.5468 50.3133C77.1058 50.8177 77.4321 51.1816 77.9366 51.742C78.5235 52.3948 78.6204 52.5026 79.3684 52.0153L95.2663 41.7278C96.3825 41.0033 96.7683 40.7004 96.2703 39.4528C95.4128 37.3087 94.3558 35.2584 93.1255 33.3299C92.2512 31.9588 91.8482 32.899 90.7992 34.0234L76.8937 48.8517C76.2942 49.4936 75.8973 49.7293 76.5468 50.3133ZM81.0092 55.9333C81.3607 56.5704 81.5698 57.003 81.8556 57.6776C82.1991 58.4926 82.2552 58.5863 83.1264 58.3834L97.5818 55.037C99.1288 54.6809 98.8621 54.5513 98.8621 52.9492C98.8621 51.1909 98.7339 49.4623 98.4904 47.7679C98.25 46.0862 97.3616 46.514 95.8329 47.2901L81.7683 54.4045C80.7753 54.912 80.48 54.9729 81.0092 55.9333ZM59.7594 44.9728C59.1533 45.0384 59.1442 45.068 58.5539 45.1821C57.5327 45.3788 57.311 45.4569 57.0019 44.445L49.6274 20.3856C49.0382 18.4516 49.9312 18.5117 51.4652 18.0339C53.5366 17.3882 55.6903 16.9197 57.9013 16.6503C59.3594 16.4739 59.3862 17.1601 59.464 18.6077L60.7461 44.0828C60.7771 44.7073 60.6569 44.8745 59.7594 44.9728ZM53.421 46.7904C52.9081 47.0278 52.4075 47.2838 51.9198 47.5556C50.9943 48.074 50.9322 47.6993 50.2792 46.8343L36.9556 29.1919C35.9898 27.9067 36.0898 27.5304 37.2647 26.3998C38.9564 24.7703 40.2046 23.8217 42.1221 22.5896C43.5203 21.6926 43.8428 21.7145 44.4735 23.201L53.6927 44.8104C54.1727 45.9362 54.5131 46.2861 53.421 46.7904ZM48.074 50.3133C47.5142 50.8177 47.1886 51.1816 46.6853 51.742C46.0965 52.3948 46.0011 52.5026 45.2528 52.0153L29.3549 41.7278C28.2391 41.0033 27.8529 40.7004 28.3524 39.4528C29.208 37.3087 30.2673 35.2584 31.4945 33.3299C32.3699 31.9588 32.7733 32.899 33.8227 34.0234L47.729 48.8517C48.327 49.4936 48.7235 49.7293 48.074 50.3133ZM43.6107 55.9333C43.2604 56.5704 43.0509 57.003 42.7662 57.6776C42.4217 58.4926 42.3679 58.5863 41.4951 58.3834L27.0408 55.037C25.4926 54.6809 25.7598 54.5513 25.7598 52.9492C25.7598 51.1909 25.8876 49.4623 26.1299 47.7679C26.3703 46.0862 27.2602 46.514 28.7889 47.2901L42.8528 54.4045C43.8466 54.912 44.1408 54.9729 43.6107 55.9333Z" fill="white"/>
<path fill-rule="evenodd" clip-rule="evenodd" d="M73.7138 50.8633C73.7138 50.8633 74.1132 52.6899 74.5529 53.1173C74.5529 53.1173 74.0928 52.884 74.2725 53.3114C74.4525 53.7388 74.7122 55.119 75.5109 55.7401C75.5109 55.7401 74.7718 55.4485 74.9115 55.7015C75.0512 55.9538 74.1925 55.0793 74.3725 55.4682C74.5518 55.857 74.9817 56.8312 75.5407 57.3168C75.5407 57.3168 74.9417 57.2396 75.3014 57.7057C75.6607 58.1717 76.3099 59.3129 76.7096 59.6238C77.109 59.9351 76.0201 59.3599 76.1801 59.8063C76.3398 60.2534 75.394 59.1164 75.5137 59.4269C75.6334 59.7379 75.1315 59.4582 75.3112 59.7884C75.4909 60.119 74.5525 59.276 74.5725 59.587C74.5922 59.8979 75.6709 60.7864 76.1503 61.4276C76.1503 61.4276 75.2712 61.3107 75.9706 61.9132C76.6696 62.5158 76.7897 63.4731 77.8484 64.056C77.8484 64.056 77.149 63.6482 77.329 64.2114C77.5087 64.7754 76.6503 64.0953 76.69 64.3476C76.73 64.5999 76.2906 63.9202 76.2703 64.2893C76.2503 64.6585 75.5316 63.4731 75.5316 63.8809C75.5316 64.2894 75.1923 63.6482 75.1923 63.9788C75.1923 64.3087 76.0113 65.4565 76.9497 66.1952C77.8888 66.9336 75.6116 65.6165 76.91 66.7549C78.2084 67.894 78.5081 68.2306 79.2072 68.6973C79.9062 69.164 77.8287 68.3797 77.9691 68.884C78.1088 69.3879 77.03 68.6784 77.1501 68.9777C77.2697 69.2763 76.4707 68.4173 76.451 68.884C76.431 69.3507 75.652 68.399 75.712 68.7156C75.772 69.0331 75.2926 68.5289 75.2726 68.8465C75.2526 69.164 74.6736 68.6591 74.7336 68.8093C74.7933 68.9584 74.7132 70.8074 75.2526 71.8156H73.7149H72.1771C72.7165 70.8074 72.6365 68.9584 72.6961 68.8093C72.7561 68.6594 72.1771 69.164 72.1571 68.8465C72.1371 68.5289 71.6577 69.0331 71.7178 68.7156C71.7774 68.3987 70.9987 69.3507 70.9787 68.884C70.9591 68.4173 70.1596 69.2763 70.2797 68.9777C70.3997 68.6784 69.3209 69.3883 69.4606 68.884C69.6006 68.3801 67.5228 69.164 68.2225 68.6973C68.9212 68.2306 69.2213 67.894 70.5197 66.7549C71.8178 65.6165 69.541 66.9332 70.4797 66.1952C71.4184 65.4565 72.2375 64.3083 72.2375 63.9788C72.2375 63.6482 71.8981 64.2894 71.8981 63.8809C71.8981 63.4731 71.1791 64.6585 71.1591 64.2893C71.1391 63.9202 70.6994 64.6003 70.7394 64.3476C70.779 64.0953 69.9207 64.775 70.1003 64.2114C70.2804 63.6482 69.581 64.056 69.581 64.056C70.6397 63.4731 70.7594 62.5158 71.4584 61.9132C72.1578 61.3107 71.2791 61.4276 71.2791 61.4276C71.7585 60.7864 72.8372 59.8975 72.8569 59.587C72.8769 59.2764 71.9381 60.119 72.1182 59.7884C72.2978 59.4582 71.7957 59.7375 71.9153 59.4269C72.0353 59.116 71.0896 60.2534 71.2493 59.8063C71.4089 59.3599 70.32 59.9351 70.7197 59.6238C71.1194 59.3129 71.7686 58.172 72.128 57.7057C72.4877 57.2396 71.8883 57.3168 71.8883 57.3168C72.4473 56.8312 72.8769 55.8566 73.0565 55.4682C73.2362 55.0793 72.3775 55.9538 72.5175 55.7015C72.6572 55.4485 71.9181 55.7401 71.9181 55.7401C72.7172 55.1186 72.9765 53.7385 73.1569 53.3114C73.3366 52.884 72.8769 53.1173 72.8769 53.1173C73.3145 52.6899 73.7138 50.8633 73.7138 50.8633Z" fill="white"/>
<path fill-rule="evenodd" clip-rule="evenodd" d="M81.4972 63.627C81.4972 63.627 81.6495 64.3239 81.8173 64.4868C81.8173 64.4868 81.6418 64.398 81.7106 64.5608C81.7794 64.7244 81.8783 65.2507 82.1833 65.4876C82.1833 65.4876 81.9015 65.3771 81.9545 65.4732C82.0082 65.569 81.6804 65.2357 81.7488 65.3837C81.8173 65.5322 81.9811 65.9042 82.1945 66.0894C82.1945 66.0894 81.9657 66.0603 82.1029 66.2379C82.2401 66.4158 82.4879 66.8513 82.6402 66.9699C82.7928 67.0885 82.3773 66.8689 82.4384 67.0398C82.4991 67.2099 82.1387 66.7759 82.1843 66.8945C82.2296 67.0131 82.0383 66.9068 82.1068 67.0324C82.1752 67.1587 81.8169 66.8369 81.8246 66.9555C81.8323 67.0741 82.244 67.4135 82.4272 67.6577C82.4272 67.6577 82.0917 67.6135 82.3584 67.8437C82.6254 68.0732 82.6707 68.4389 83.075 68.6614C83.075 68.6614 82.8079 68.5052 82.877 68.7203C82.9455 68.9354 82.6177 68.6761 82.6332 68.7726C82.6482 68.8691 82.4809 68.6091 82.4731 68.7502C82.4658 68.8912 82.1913 68.4389 82.1913 68.594C82.1913 68.7502 82.0619 68.5052 82.0619 68.6312C82.0619 68.7575 82.3742 69.1951 82.7325 69.4773C83.0908 69.7587 82.2219 69.2562 82.717 69.691C83.2125 70.1258 83.3269 70.2535 83.5936 70.4318C83.8607 70.6104 83.0679 70.3111 83.1209 70.503C83.1743 70.6957 82.7626 70.4251 82.8086 70.5392C82.8542 70.6532 82.5493 70.3255 82.5416 70.503C82.5342 70.6813 82.237 70.3177 82.2598 70.4392C82.2829 70.5599 82.1001 70.3679 82.0924 70.4886C82.0847 70.6101 81.8636 70.4174 81.8864 70.4742C81.9095 70.5311 81.879 71.2368 82.0847 71.6214H81.4983H80.9115C81.1175 71.2368 81.0866 70.5311 81.1098 70.4742C81.1326 70.4174 80.9115 70.6101 80.9038 70.4886C80.8964 70.3679 80.7136 70.5599 80.7364 70.4392C80.7592 70.3177 80.462 70.6813 80.4546 70.503C80.4469 70.3255 80.1423 70.6529 80.1876 70.5392C80.2332 70.4251 79.8219 70.6957 79.8752 70.503C79.9286 70.3111 79.1362 70.6101 79.4025 70.4318C79.6692 70.2535 79.7836 70.1258 80.2792 69.691C80.7743 69.2562 79.9058 69.7587 80.2641 69.4773C80.6224 69.1951 80.9347 68.7575 80.9347 68.6312C80.9347 68.5049 80.8052 68.7498 80.8052 68.594C80.8052 68.4385 80.5311 68.8912 80.5234 68.7502C80.516 68.6091 80.3479 68.8688 80.3634 68.7726C80.3788 68.6761 80.0511 68.9354 80.1195 68.7203C80.1883 68.5052 79.9216 68.6614 79.9216 68.6614C80.3255 68.4389 80.3714 68.0732 80.6381 67.8437C80.9052 67.6139 80.5697 67.6577 80.5697 67.6577C80.7526 67.4135 81.1645 67.0741 81.1719 66.9555C81.1793 66.8369 80.8213 67.1584 80.8901 67.0324C80.9585 66.9068 80.7669 67.0134 80.8129 66.8945C80.8582 66.7759 80.4978 67.2099 80.5585 67.0398C80.6196 66.8689 80.2044 67.0885 80.3567 66.9699C80.509 66.8513 80.7568 66.4155 80.894 66.2379C81.0312 66.0603 80.8024 66.0894 80.8024 66.0894C81.0157 65.9042 81.1796 65.5325 81.2484 65.3837C81.3168 65.2357 80.9894 65.569 81.0424 65.4732C81.0958 65.3767 80.814 65.4876 80.814 65.4876C81.1189 65.2507 81.2179 64.7244 81.2867 64.5608C81.3551 64.398 81.1796 64.4868 81.1796 64.4868C81.3446 64.3239 81.4972 63.627 81.4972 63.627Z" fill="white"/>
<path fill-rule="evenodd" clip-rule="evenodd" d="M42.775 63.9784C42.775 63.9784 42.8967 64.5388 43.0304 64.6696C43.0304 64.6696 42.8901 64.5983 42.9453 64.7295C43.0001 64.8603 43.079 65.2837 43.3224 65.4744C43.3224 65.4744 43.0977 65.3851 43.14 65.4623C43.1824 65.5394 42.9208 65.2716 42.976 65.3902C43.0308 65.5097 43.1614 65.8089 43.3317 65.9573C43.3317 65.9573 43.1494 65.9338 43.2586 66.0768C43.3679 66.2197 43.5658 66.5698 43.6875 66.665C43.8088 66.7605 43.4771 66.5839 43.5257 66.721C43.5747 66.8581 43.2866 66.5091 43.3232 66.6043C43.3597 66.6998 43.2065 66.6141 43.2614 66.7147C43.3162 66.8162 43.0308 66.5581 43.0366 66.6532C43.0429 66.7488 43.371 67.0214 43.5172 67.2172C43.5172 67.2172 43.2497 67.1815 43.4624 67.3664C43.6754 67.5512 43.712 67.845 44.0343 68.0235C44.0343 68.0235 43.8212 67.8986 43.876 68.0713C43.9308 68.244 43.6692 68.0357 43.6812 68.1128C43.6937 68.1908 43.5599 67.982 43.5533 68.0956C43.5475 68.2084 43.3286 67.845 43.3286 67.9699C43.3286 68.0956 43.2252 67.8986 43.2252 68.0004C43.2252 68.1011 43.4744 68.4532 43.7606 68.6803C44.0463 68.9067 43.3531 68.5025 43.7485 68.8515C44.1435 69.2012 44.2349 69.3042 44.4475 69.4475C44.6602 69.5905 44.028 69.3496 44.0704 69.5051C44.1128 69.6594 43.7843 69.4416 43.8212 69.5337C43.8574 69.6253 43.614 69.3618 43.6081 69.5051C43.6023 69.648 43.3652 69.3559 43.383 69.4538C43.4013 69.5505 43.2555 69.3962 43.2493 69.4937C43.2435 69.5909 43.067 69.4362 43.0856 69.4816C43.1035 69.5278 43.079 70.0949 43.2435 70.4039H42.775H42.3069C42.4713 70.0949 42.4472 69.5278 42.4651 69.4816C42.4834 69.4362 42.3069 69.5909 42.3007 69.4937C42.2948 69.3958 42.149 69.5505 42.1669 69.4538C42.1852 69.3559 41.948 69.6484 41.9422 69.5051C41.9364 69.3621 41.6926 69.6253 41.7295 69.5337C41.7657 69.4413 41.4372 69.6594 41.4799 69.5051C41.5223 69.35 40.8898 69.5905 41.1024 69.4475C41.3155 69.3046 41.4068 69.2016 41.8022 68.8515C42.1972 68.5025 41.504 68.9067 41.7902 68.6803C42.0759 68.4532 42.3252 68.1011 42.3252 68.0004C42.3252 67.899 42.2217 68.0956 42.2217 67.9699C42.2217 67.845 42.0029 68.2084 41.997 68.0956C41.9912 67.982 41.8567 68.1912 41.8691 68.1128C41.8812 68.0357 41.6195 68.244 41.6743 68.0713C41.7291 67.8986 41.5161 68.0235 41.5161 68.0235C41.8384 67.845 41.8749 67.5512 42.0876 67.3664C42.3007 67.1815 42.0332 67.2172 42.0332 67.2172C42.179 67.021 42.5075 66.7484 42.5133 66.6532C42.5192 66.5577 42.2338 66.8162 42.2882 66.7147C42.343 66.6141 42.1902 66.6994 42.2268 66.6043C42.2633 66.5087 41.9752 66.8581 42.0238 66.721C42.0728 66.5839 41.7412 66.7605 41.8629 66.665C41.9842 66.5694 42.1821 66.2197 42.2913 66.0768C42.401 65.9338 42.2182 65.9573 42.2182 65.9573C42.3885 65.8089 42.5192 65.5097 42.5744 65.3902C42.6288 65.2712 42.3671 65.5394 42.4103 65.4623C42.4527 65.3851 42.2276 65.4744 42.2276 65.4744C42.4713 65.2837 42.5499 64.8603 42.6051 64.7295C42.6599 64.5983 42.5195 64.6696 42.5195 64.6696C42.6537 64.5384 42.775 63.9784 42.775 63.9784Z" fill="white"/>
<path d="M46.25 62.8077C46.3012 62.4501 46.3398 62.0902 46.4053 61.7348C46.5831 60.7735 46.9093 59.8707 47.481 59.0637C47.9988 58.3323 48.6872 57.8292 49.5083 57.4932C50.6156 57.0399 51.7776 56.8186 52.96 56.68C54.3649 56.5155 55.775 56.4744 57.1868 56.506C58.7452 56.5406 60.3002 56.6342 61.8174 57.0334C62.5552 57.2273 63.2648 57.4902 63.8664 57.9833C64.3188 58.354 64.6199 58.8242 64.8033 59.375C65.1521 60.4232 65.3763 61.5014 65.5615 62.5873C65.6747 63.2524 65.771 63.9209 65.853 64.5908C65.9102 65.0623 65.8716 65.5342 65.7341 65.991C65.473 66.8605 64.8697 67.3502 63.9901 67.5065C63.7146 67.555 63.4314 67.5745 63.1516 67.5753C61.5615 67.5818 59.9714 67.5749 58.3809 67.5827C58.1809 67.5836 58.1189 67.513 58.0942 67.3268C57.9715 66.4019 57.2033 65.6875 56.2326 65.5793C55.3703 65.4836 54.4551 66.0556 54.148 66.8878C54.0955 67.0298 54.0452 67.1787 54.0296 67.3277C54.0096 67.5169 53.9389 67.5836 53.7403 67.5818C52.3927 67.5732 51.045 67.5775 49.6978 67.5775C49.3209 67.5775 48.9427 67.5559 48.5679 67.5818C47.7924 67.636 47.304 67.2355 46.9527 66.6081C46.5367 65.8655 46.371 65.0506 46.2895 64.2141C46.2821 64.1396 46.2639 64.0664 46.2509 63.9924C46.25 63.5988 46.25 63.203 46.25 62.8077ZM59.3495 62.3496C59.3495 63.4204 59.349 64.4912 59.3499 65.5619C59.3503 65.8382 59.4249 65.9122 59.703 65.9127C60.501 65.9135 61.2991 65.914 62.0972 65.9127C62.3648 65.9122 62.4485 65.8291 62.4485 65.555C62.4494 63.4195 62.4494 61.2845 62.4485 59.1494C62.4485 58.8679 62.3644 58.7887 62.0799 58.7887C61.3009 58.7878 60.5219 58.7883 59.7433 58.7887C59.4132 58.7887 59.3499 58.8511 59.3495 59.1767C59.349 60.2332 59.3495 61.2909 59.3495 62.3496ZM51.8179 58.7831C51.2376 58.7831 50.6564 58.7822 50.076 58.7835C49.8184 58.7839 49.7607 58.8407 49.7603 59.0987C49.7581 59.6846 49.7581 60.2708 49.7603 60.8575C49.7611 61.1251 49.8171 61.181 50.0904 61.181C51.2389 61.1823 52.3879 61.1823 53.5364 61.181C53.8028 61.1805 53.8639 61.1178 53.8648 60.8532C53.8661 60.2739 53.8661 59.6937 53.8648 59.1143C53.8643 58.8411 53.8045 58.7844 53.5226 58.7839C52.9539 58.7826 52.3862 58.7831 51.8179 58.7831ZM58.2178 59.9959C58.2178 59.6841 58.2209 59.3719 58.217 59.0602C58.2143 58.8524 58.1484 58.7891 57.9376 58.7883C57.3191 58.7861 56.7002 58.7861 56.0816 58.7883C55.8691 58.7887 55.7975 58.861 55.7967 59.0775C55.7941 59.6885 55.7941 60.2994 55.7967 60.9112C55.7975 61.129 55.8687 61.2022 56.0799 61.2026C56.6984 61.2048 57.3174 61.2048 57.9359 61.2026C58.1519 61.2022 58.2152 61.1359 58.217 60.9129C58.2204 60.6068 58.2182 60.3011 58.2178 59.9959Z" fill="white"/>
<path d="M56.0207 66.2676C56.7915 66.2668 57.4207 66.8918 57.4298 67.6679C57.439 68.4344 56.7815 69.0916 56.0129 69.0842C55.2455 69.0768 54.6072 68.4318 54.6133 67.6701C54.6198 66.8957 55.249 66.2685 56.0207 66.2676Z" fill="white"/>
<path d="M27.5312 122.745C27.5312 121.397 27.7498 120.126 28.187 118.934C28.6242 117.715 29.2671 116.666 30.1157 115.784C30.9643 114.877 32.0058 114.164 33.2402 113.646C34.4746 113.127 35.8761 112.868 37.4448 112.868C38.9106 112.868 40.235 113.101 41.4179 113.568C42.6008 114.034 43.6038 114.695 44.4267 115.551C45.2753 116.406 45.9311 117.456 46.394 118.701C46.8826 119.919 47.1526 121.28 47.204 122.784C47.2297 123.276 47.2426 123.885 47.2426 124.611C47.2426 125.311 47.2812 126.089 47.3583 126.944C47.4355 127.8 47.5769 128.707 47.7826 129.666C47.9884 130.599 48.3098 131.546 48.747 132.505H44.1181C43.6809 131.546 43.3595 130.548 43.1537 129.511C42.4851 130.496 41.6365 131.273 40.6079 131.844C39.5792 132.414 38.3448 132.699 36.9047 132.699C35.5418 132.699 34.2817 132.44 33.1245 131.922C31.9673 131.403 30.9772 130.703 30.1543 129.822C29.3314 128.914 28.6885 127.864 28.2256 126.672C27.7627 125.454 27.5312 124.144 27.5312 122.745ZM37.4448 117.223C36.4933 117.223 35.6832 117.366 35.0146 117.651C34.346 117.936 33.7931 118.338 33.3559 118.856C32.9445 119.349 32.6359 119.932 32.4302 120.606C32.2501 121.28 32.1601 122.006 32.1601 122.784C32.1601 123.561 32.2501 124.287 32.4302 124.961C32.6359 125.635 32.9445 126.231 33.3559 126.75C33.7931 127.242 34.346 127.631 35.0146 127.916C35.6832 128.201 36.4933 128.344 37.4448 128.344C39.0392 128.344 40.2864 127.903 41.1865 127.022C42.1122 126.115 42.5751 124.702 42.5751 122.784C42.498 121.073 42.0608 119.725 41.2636 118.739C40.4664 117.728 39.1935 117.223 37.4448 117.223Z" fill="white"/>
<path d="M56.4458 132.505H51.8169V105.285H56.4458V132.505Z" fill="white"/>
<path d="M65.7126 113.723H71.0359V118.078H65.7126V132.505H61.0838V113.101C61.0838 111.727 61.3023 110.431 61.7395 109.213C62.1767 107.994 62.8196 106.944 63.6682 106.063C64.5168 105.156 65.5583 104.443 66.7927 103.924C68.0271 103.406 69.4415 103.147 71.0359 103.147C71.3187 103.147 71.6016 103.172 71.8845 103.224C72.1674 103.25 72.4502 103.289 72.7331 103.341V107.852C72.476 107.8 72.2317 107.761 72.0002 107.735C71.7688 107.683 71.5245 107.657 71.2673 107.657C70.2129 107.657 69.3257 107.8 68.6057 108.085C67.9114 108.37 67.3456 108.759 66.9084 109.252C66.4713 109.718 66.1627 110.288 65.9827 110.962C65.8026 111.611 65.7126 112.31 65.7126 113.062V113.723Z" fill="white"/>
<path d="M73.4886 122.745C73.4886 121.397 73.7072 120.126 74.1444 118.934C74.5816 117.715 75.2245 116.666 76.0731 115.784C76.9217 114.877 77.9632 114.164 79.1976 113.646C80.432 113.127 81.8335 112.868 83.4022 112.868C84.868 112.868 86.1923 113.101 87.3753 113.568C88.5582 114.034 89.5611 114.695 90.3841 115.551C91.2327 116.406 91.8885 117.456 92.3513 118.701C92.84 119.919 93.11 121.28 93.1614 122.784C93.1871 123.276 93.2 123.885 93.2 124.611C93.2 125.311 93.2385 126.089 93.3157 126.944C93.3928 127.8 93.5343 128.707 93.74 129.666C93.9457 130.599 94.2672 131.546 94.7044 132.505H90.0755C89.6383 131.546 89.3168 130.548 89.1111 129.511C88.4425 130.496 87.5939 131.273 86.5652 131.844C85.5366 132.414 84.3022 132.699 82.8621 132.699C81.4992 132.699 80.2391 132.44 79.0819 131.922C77.9246 131.403 76.9346 130.703 76.1117 129.822C75.2887 128.914 74.6458 127.864 74.183 126.672C73.7201 125.454 73.4886 124.144 73.4886 122.745ZM83.4022 117.223C82.4507 117.223 81.6406 117.366 80.972 117.651C80.3034 117.936 79.7505 118.338 79.3133 118.856C78.9019 119.349 78.5933 119.932 78.3875 120.606C78.2075 121.28 78.1175 122.006 78.1175 122.784C78.1175 123.561 78.2075 124.287 78.3875 124.961C78.5933 125.635 78.9019 126.231 79.3133 126.75C79.7505 127.242 80.3034 127.631 80.972 127.916C81.6406 128.201 82.4507 128.344 83.4022 128.344C84.9966 128.344 86.2438 127.903 87.1438 127.022C88.0696 126.115 88.5325 124.702 88.5325 122.784C88.4554 121.073 88.0182 119.725 87.221 118.739C86.4238 117.728 85.1509 117.223 83.4022 117.223Z" fill="white"/>
<path d="M31.4281 141.522H34.1489V145.18C33.7668 145.306 33.3715 145.404 32.9629 145.474C32.5543 145.543 32.0958 145.578 31.5875 145.578C30.8467 145.578 30.2188 145.432 29.7039 145.14C29.1923 144.844 28.8036 144.417 28.5378 143.859C28.272 143.298 28.1392 142.622 28.1392 141.831C28.1392 141.07 28.287 140.411 28.5827 139.853C28.8783 139.291 29.3086 138.858 29.8733 138.552C30.4381 138.243 31.1224 138.089 31.9264 138.089C32.3217 138.089 32.7038 138.128 33.0725 138.208C33.4446 138.285 33.7851 138.391 34.0941 138.527L33.6755 139.514C33.4297 139.397 33.1539 139.299 32.8483 139.22C32.5426 139.14 32.2254 139.1 31.8965 139.1C31.3749 139.1 30.9248 139.213 30.546 139.439C30.1706 139.665 29.8816 139.984 29.679 140.396C29.4763 140.804 29.375 141.288 29.375 141.846C29.375 142.387 29.4564 142.862 29.6192 143.271C29.782 143.68 30.0361 143.999 30.3816 144.228C30.7304 144.454 31.1806 144.567 31.732 144.567C32.0078 144.567 32.242 144.552 32.4347 144.522C32.6274 144.492 32.8051 144.459 32.9679 144.422V142.543H31.4281V141.522Z" fill="white"/>
<path d="M37.8321 145.479V138.193H39.028V144.462H42.1226V145.479H37.8321Z" fill="white"/>
<path d="M49.8372 145.479L49.1246 143.455H46.339L45.6264 145.479H44.3656L47.0765 138.163H48.402L51.1079 145.479H49.8372ZM48.8156 142.429L48.123 140.436C48.0964 140.349 48.0582 140.228 48.0084 140.072C47.9585 139.912 47.9087 139.751 47.8589 139.588C47.809 139.422 47.7675 139.283 47.7343 139.17C47.7011 139.306 47.6595 139.459 47.6097 139.628C47.5632 139.794 47.5167 139.951 47.4702 140.097C47.427 140.243 47.3938 140.356 47.3705 140.436L46.6729 142.429H48.8156Z" fill="white"/>
<path d="M57.1531 145.479L55.0552 139.394H55.0103C55.0203 139.53 55.0319 139.716 55.0452 139.952C55.0585 140.188 55.0701 140.441 55.0801 140.71C55.0901 140.979 55.0951 141.236 55.0951 141.482V145.479H54.0087V138.193H55.6881L57.7063 144.009H57.7362L59.8241 138.193H61.4985V145.479H60.3573V141.422C60.3573 141.2 60.3606 140.959 60.3673 140.7C60.3773 140.441 60.3872 140.195 60.3972 139.962C60.4105 139.73 60.4204 139.544 60.4271 139.404H60.3872L58.2096 145.479H57.1531Z" fill="white"/>
<path d="M67.4739 138.193C68.4141 138.193 69.1001 138.386 69.532 138.771C69.9639 139.157 70.1798 139.696 70.1798 140.391C70.1798 140.706 70.13 141.007 70.0303 141.293C69.934 141.575 69.7745 141.826 69.5519 142.045C69.3293 142.261 69.0353 142.432 68.6699 142.558C68.3078 142.685 67.861 142.748 67.3294 142.748H66.552V145.479H65.3561V138.193H67.4739ZM67.3942 139.185H66.552V141.751H67.2048C67.5802 141.751 67.8992 141.708 68.1616 141.622C68.4241 141.532 68.6234 141.391 68.7596 141.198C68.8958 141.005 68.9639 140.751 68.9639 140.436C68.9639 140.014 68.836 139.7 68.5802 139.494C68.3277 139.288 67.9324 139.185 67.3942 139.185Z" fill="white"/>
<path d="M73.574 145.479V138.193H74.7699V145.479H73.574Z" fill="white"/>
<path d="M84.712 145.479H83.242L79.674 139.663H79.6291C79.6424 139.859 79.6541 140.067 79.664 140.286C79.6773 140.505 79.6873 140.731 79.6939 140.964C79.7039 141.196 79.7122 141.432 79.7188 141.671V145.479H78.6325V138.193H80.0926L83.6556 143.969H83.6904C83.6838 143.799 83.6755 143.605 83.6655 143.386C83.6556 143.166 83.6456 142.94 83.6356 142.708C83.629 142.472 83.624 142.244 83.6207 142.025V138.193H84.712V145.479Z" fill="white"/>
<path d="M91.5047 141.522H94.2255V145.18C93.8435 145.306 93.4481 145.404 93.0395 145.474C92.6309 145.543 92.1724 145.578 91.6642 145.578C90.9233 145.578 90.2954 145.432 89.7805 145.14C89.2689 144.844 88.8802 144.417 88.6144 143.859C88.3487 143.298 88.2158 142.622 88.2158 141.831C88.2158 141.07 88.3636 140.411 88.6593 139.853C88.955 139.291 89.3852 138.858 89.9499 138.552C90.5147 138.243 91.1991 138.089 92.003 138.089C92.3983 138.089 92.7804 138.128 93.1491 138.208C93.5212 138.285 93.8617 138.391 94.1707 138.527L93.7521 139.514C93.5063 139.397 93.2305 139.299 92.9249 139.22C92.6193 139.14 92.302 139.1 91.9731 139.1C91.4515 139.1 91.0014 139.213 90.6227 139.439C90.2473 139.665 89.9582 139.984 89.7556 140.396C89.5529 140.804 89.4516 141.288 89.4516 141.846C89.4516 142.387 89.533 142.862 89.6958 143.271C89.8586 143.68 90.1127 143.999 90.4582 144.228C90.807 144.454 91.2572 144.567 91.8087 144.567C92.0844 144.567 92.3186 144.552 92.5113 144.522C92.704 144.492 92.8817 144.459 93.0445 144.422V142.543H91.5047V141.522Z" fill="white"/>
</svg>
