<svg width="122" height="183" viewBox="0 0 122 183" fill="none" xmlns="http://www.w3.org/2000/svg">
<path d="M0 57.5C0 25.7436 25.7436 0 57.5 0H64.5C96.2564 0 122 25.7436 122 57.5V125.5C122 157.256 96.2564 183 64.5 183H57.5C25.7436 183 0 157.256 0 125.5V57.5Z" fill="#B59C93"/>
<path d="M6 59.3579C6 29.8613 29.2132 6 57.7869 6H64.2131C92.7868 6 116 29.8613 116 59.3579V123.642C116 153.139 92.7868 177 64.2131 177H57.7869C29.2132 177 6 153.139 6 123.642V59.3579Z" stroke="white" stroke-width="2"/>
<path d="M33.5449 148L34.7898 151.991L38.8185 151.991L35.5592 154.458L36.8041 158.449L33.5449 155.982L30.2857 158.449L31.5306 154.458L28.2714 151.991L32.3 151.991L33.5449 148Z" fill="white"/>
<path d="M61.5449 148L62.7898 151.991L66.8185 151.991L63.5592 154.458L64.8041 158.449L61.5449 155.982L58.2857 158.449L59.5306 154.458L56.2714 151.991L60.3 151.991L61.5449 148Z" fill="white"/>
<path d="M47.5449 148L48.7898 151.991L52.8185 151.991L49.5592 154.458L50.8041 158.449L47.5449 155.982L44.2857 158.449L45.5306 154.458L42.2714 151.991L46.3 151.991L47.5449 148Z" fill="white"/>
<path d="M75.5449 148L76.7898 151.991L80.8185 151.991L77.5592 154.458L78.8041 158.449L75.5449 155.982L72.2857 158.449L73.5306 154.458L70.2714 151.991L74.3 151.991L75.5449 148Z" fill="white"/>
<path d="M89.5449 148L90.7898 151.991L94.8185 151.991L91.5592 154.458L92.8041 158.449L89.5449 155.982L86.2857 158.449L87.5306 154.458L84.2714 151.991L88.3 151.991L89.5449 148Z" fill="white"/>
<path fill-rule="evenodd" clip-rule="evenodd" d="M57.6055 49.4128C57.6276 49.3957 57.6726 49.3613 57.7337 49.3144C57.9817 49.1224 58.2271 48.9568 58.4675 48.8226C58.714 48.6835 58.9701 48.5648 59.2326 48.4744C60.3911 48.0716 61.5417 48.209 62.5865 49.0115C62.833 48.7866 63.1295 48.5868 63.4466 48.4181C65.6874 47.7388 66.6364 48.9522 67.0112 49.2864C65.8995 49.0974 64.2507 49.2629 63.3638 50.0437C63.2764 50.1202 63.5043 50.3326 63.428 50.4326C63.3016 50.6011 63.3031 50.8885 63.1734 51.1039C62.8315 50.7652 62.677 50.5185 62.1896 50.4435C61.8355 50.3887 61.3936 50.3577 61.2856 50.2857C60.9125 50.0423 60.925 49.5488 60.3881 49.5238C59.3124 49.4706 58.672 50.0904 57.6055 49.4128Z" fill="white"/>
<path fill-rule="evenodd" clip-rule="evenodd" d="M53.8203 52.9274C53.8358 52.9153 53.8674 52.8912 53.9103 52.8584C54.0844 52.7238 54.2566 52.6078 54.4253 52.5138C54.5984 52.4163 54.7781 52.3331 54.9623 52.2697C55.7755 51.9875 56.583 52.0838 57.3163 52.6462C57.4893 52.4885 57.6974 52.3485 57.92 52.2303C59.4927 51.7543 60.1588 52.6046 60.4218 52.8387C59.6416 52.7063 58.4843 52.8223 57.8619 53.3694C57.8006 53.4231 57.9605 53.5719 57.9069 53.642C57.8182 53.76 57.8193 53.9614 57.7283 54.1124C57.4883 53.875 57.3798 53.7021 57.0378 53.6496C56.7892 53.6112 56.4791 53.5894 56.4033 53.539C56.1414 53.3684 56.1502 53.0226 55.7734 53.0051C55.0183 52.9679 54.5689 53.4022 53.8203 52.9274Z" fill="white"/>
<path fill-rule="evenodd" clip-rule="evenodd" d="M93.8563 73.7295C93.1847 73.5671 92.5039 73.4749 91.8075 73.4749C88.7131 73.4749 85.9652 75.2379 83.2187 76.9994C79.0887 79.2105 77.0185 79.6727 73.6913 78.4016C72.759 78.0488 71.7284 77.5538 70.5279 76.926C63.4877 72.4678 60.7367 72.5193 53.6854 76.9587C51.8865 77.8348 50.5082 78.4578 49.3275 78.8263C46.3152 79.7726 44.609 79.0761 40.5255 76.8027C37.776 75.113 35.1201 73.4797 32.5061 73.4749H32.4992C31.82 73.4749 31.151 73.5827 30.489 73.7701C29.2625 74.1168 28.6069 72.9206 28.2585 71.6027C27.951 70.4393 27.801 69.201 28.8473 68.5669C30.2665 67.7082 31.5491 67.0508 32.4992 67.0508H32.5061C33.8871 67.0524 36.0302 68.3702 38.2443 69.7319C41.1765 71.5339 44.2228 73.4062 47.323 73.4062H47.3313C49.0356 73.4047 50.6791 72.8394 52.2887 72.0305C61.9826 67.171 62.0574 66.971 71.7878 71.9492C73.4554 72.8018 75.1711 73.4062 76.981 73.4062C80.0739 73.4062 82.8234 71.6417 85.5682 69.8786C87.7682 68.4655 89.9746 67.0508 91.8074 67.0508C93.0598 67.0508 94.4836 67.7269 95.9638 68.6075C96.9147 69.1745 96.5087 70.4612 95.9344 71.7181C95.427 72.8301 94.8664 73.9761 93.8563 73.7295ZM91.8701 79.4448C90.8054 80.9283 89.6296 82.3304 88.3601 83.6406C86.1414 85.9267 83.7042 87.6038 80.9624 89.1825C79.5477 90.0007 78.1831 90.6097 76.9811 90.6097C75.1059 90.6097 72.7995 89.1482 70.5279 87.7068C67.7925 85.9736 65.0866 84.2573 62.1589 84.2573H62.1513C59.2191 84.2573 56.4601 85.9923 53.6855 87.7396C51.4176 89.1668 49.1295 90.6066 47.3314 90.6096H47.3231C46.0958 90.6096 44.5919 89.9444 43.0213 89.0701C40.1017 87.4398 37.7689 85.6049 35.445 83.1143C34.3379 81.9275 33.3099 80.6689 32.3658 79.3463C31.7484 78.4796 30.9169 77.8347 32.4994 77.8347H32.5063C32.5913 77.8347 32.6822 77.8426 32.7741 77.8504C34.1544 78.0018 36.1692 79.2385 38.2444 80.5128C44.6984 84.1919 47.7913 84.9662 53.3818 82.0275C61.7922 77.602 62.6009 77.7863 70.7729 81.9493C75.9944 84.6086 79.626 84.006 85.5683 80.6595C87.7683 79.248 89.9731 77.8347 91.8075 77.8347C93.4846 77.8348 92.557 78.4844 91.8701 79.4448ZM69.9924 93.9076C67.4567 94.4216 64.8431 94.762 62.1513 94.762C59.656 94.762 57.2202 94.4948 54.8635 94.0233C53.2539 93.7048 53.6855 92.874 56.001 91.417C58.2323 90.0131 60.4524 88.6157 62.1513 88.6157H62.1589C63.8265 88.6172 65.9982 89.9929 68.1951 91.3842C69.9642 92.5055 71.2445 93.6549 69.9924 93.9076Z" fill="white"/>
<path d="M80.0953 70.9253C83.7922 70.0451 90.3057 66.7297 92.1981 67.0965C94.0906 67.4632 92.1101 68.6808 92.1101 68.6808L84.4083 74.2261L72.0855 73.83L63.4155 70.5292L50.8726 75.3263L36.3492 72.5537L30.0117 68.1967C30.3345 67.9033 31.024 67.2637 32.2562 67.0524C34.5888 66.6526 36.6573 69.473 41.3223 69.693C45.9874 69.9131 49.0241 67.7566 62.4912 68.1967C67.7568 68.3688 75.4743 72.0256 80.0953 70.9253Z" fill="white"/>
<path fill-rule="evenodd" clip-rule="evenodd" d="M64.8633 44.3497C65.4708 44.4153 65.4799 44.4449 66.0672 44.559C67.0884 44.7557 67.3117 44.8338 67.6207 43.8219L74.9933 19.7625C75.5852 17.8285 74.6888 17.8886 73.1559 17.4108C71.0853 16.765 68.9308 16.2966 66.7198 16.0272C65.2613 15.8508 65.235 16.537 65.1583 17.9846L63.8749 43.4597C63.8436 44.0842 63.9639 44.2514 64.8633 44.3497ZM71.2009 46.1673C71.7146 46.4047 72.2126 46.6607 72.7029 46.9325C73.6272 47.4509 73.6897 47.0762 74.3423 46.2112L87.6671 28.5688C88.6317 27.2836 88.5321 26.9073 87.3579 25.7767C85.6651 24.1472 84.4177 23.1986 82.499 21.9665C81.1001 21.0695 80.7784 21.0914 80.1476 22.5779L70.9293 44.1873C70.4485 45.3131 70.1081 45.6629 71.2009 46.1673ZM76.5468 49.6902C77.1058 50.1946 77.4321 50.5585 77.9366 51.1189C78.5235 51.7717 78.6204 51.8795 79.3684 51.3922L95.2663 41.1047C96.3825 40.3802 96.7683 40.0773 96.2703 38.8297C95.4128 36.6856 94.3558 34.6353 93.1255 32.7068C92.2512 31.3357 91.8482 32.2759 90.7992 33.4003L76.8937 48.2286C76.2942 48.8704 75.8973 49.1062 76.5468 49.6902ZM81.0092 55.3102C81.3607 55.9473 81.5698 56.3799 81.8556 57.0545C82.1991 57.8695 82.2552 57.9632 83.1264 57.7603L97.5818 54.4139C99.1288 54.0578 98.8621 53.9282 98.8621 52.326C98.8621 50.5678 98.7339 48.8392 98.4904 47.1448C98.25 45.4631 97.3616 45.8909 95.8329 46.667L81.7683 53.7814C80.7753 54.2889 80.48 54.3497 81.0092 55.3102ZM59.7594 44.3497C59.1533 44.4153 59.1442 44.4449 58.5539 44.559C57.5327 44.7557 57.311 44.8338 57.0019 43.8219L49.6274 19.7625C49.0382 17.8285 49.9312 17.8886 51.4652 17.4108C53.5366 16.765 55.6903 16.2966 57.9013 16.0272C59.3594 15.8508 59.3862 16.537 59.464 17.9846L60.7461 43.4597C60.7771 44.0842 60.6569 44.2514 59.7594 44.3497ZM53.421 46.1673C52.9081 46.4047 52.4075 46.6607 51.9198 46.9325C50.9943 47.4509 50.9322 47.0762 50.2792 46.2112L36.9556 28.5688C35.9898 27.2836 36.0898 26.9073 37.2647 25.7767C38.9564 24.1472 40.2046 23.1986 42.1221 21.9665C43.5203 21.0695 43.8428 21.0914 44.4735 22.5779L53.6927 44.1873C54.1727 45.3131 54.5131 45.6629 53.421 46.1673ZM48.074 49.6902C47.5142 50.1946 47.1886 50.5585 46.6853 51.1189C46.0965 51.7717 46.0011 51.8795 45.2528 51.3922L29.3549 41.1047C28.2391 40.3802 27.8529 40.0773 28.3524 38.8297C29.208 36.6856 30.2673 34.6353 31.4945 32.7068C32.3699 31.3357 32.7733 32.2759 33.8227 33.4003L47.729 48.2286C48.327 48.8704 48.7235 49.1062 48.074 49.6902ZM43.6107 55.3102C43.2604 55.9473 43.0509 56.3799 42.7662 57.0545C42.4217 57.8695 42.3679 57.9632 41.4951 57.7603L27.0408 54.4139C25.4926 54.0578 25.7598 53.9282 25.7598 52.326C25.7598 50.5678 25.8876 48.8392 26.1299 47.1448C26.3703 45.4631 27.2602 45.8909 28.7889 46.667L42.8528 53.7814C43.8466 54.2889 44.1408 54.3497 43.6107 55.3102Z" fill="white"/>
<path fill-rule="evenodd" clip-rule="evenodd" d="M73.7138 50.2402C73.7138 50.2402 74.1132 52.0668 74.5529 52.4942C74.5529 52.4942 74.0928 52.2609 74.2725 52.6883C74.4525 53.1157 74.7122 54.4959 75.5109 55.117C75.5109 55.117 74.7718 54.8254 74.9115 55.0784C75.0512 55.3307 74.1925 54.4562 74.3725 54.8451C74.5518 55.2339 74.9817 56.2081 75.5407 56.6937C75.5407 56.6937 74.9417 56.6165 75.3014 57.0826C75.6607 57.5486 76.3099 58.6898 76.7096 59.0007C77.109 59.312 76.0201 58.7368 76.1801 59.1832C76.3398 59.6303 75.394 58.4933 75.5137 58.8038C75.6334 59.1148 75.1315 58.8351 75.3112 59.1653C75.4909 59.4959 74.5525 58.6529 74.5725 58.9639C74.5922 59.2748 75.6709 60.1633 76.1503 60.8045C76.1503 60.8045 75.2712 60.6876 75.9706 61.2901C76.6696 61.8927 76.7897 62.85 77.8484 63.4329C77.8484 63.4329 77.149 63.0251 77.329 63.5883C77.5087 64.1523 76.6503 63.4722 76.69 63.7245C76.73 63.9768 76.2906 63.2971 76.2703 63.6662C76.2503 64.0354 75.5316 62.85 75.5316 63.2578C75.5316 63.6662 75.1923 63.0251 75.1923 63.3557C75.1923 63.6855 76.0113 64.8334 76.9497 65.5721C77.8888 66.3105 75.6116 64.9934 76.91 66.1318C78.2084 67.2709 78.5081 67.6075 79.2072 68.0742C79.9062 68.5409 77.8287 67.7566 77.9691 68.2609C78.1088 68.7648 77.03 68.0553 77.1501 68.3546C77.2697 68.6532 76.4707 67.7942 76.451 68.2609C76.431 68.7276 75.652 67.7759 75.712 68.0924C75.772 68.41 75.2926 67.9058 75.2726 68.2233C75.2526 68.5409 74.6736 68.0359 74.7336 68.1861C74.7933 68.3353 74.7132 70.1843 75.2526 71.1925H73.7149H72.1771C72.7165 70.1843 72.6365 68.3353 72.6961 68.1861C72.7561 68.0363 72.1771 68.5409 72.1571 68.2233C72.1371 67.9058 71.6577 68.41 71.7178 68.0924C71.7774 67.7756 70.9987 68.7276 70.9787 68.2609C70.9591 67.7942 70.1596 68.6532 70.2797 68.3546C70.3997 68.0553 69.3209 68.7652 69.4606 68.2609C69.6006 67.757 67.5228 68.5409 68.2225 68.0742C68.9212 67.6075 69.2213 67.2709 70.5197 66.1318C71.8178 64.9934 69.541 66.3101 70.4797 65.5721C71.4184 64.8334 72.2375 63.6852 72.2375 63.3557C72.2375 63.0251 71.8981 63.6662 71.8981 63.2578C71.8981 62.85 71.1791 64.0354 71.1591 63.6662C71.1391 63.2971 70.6994 63.9772 70.7394 63.7245C70.779 63.4722 69.9207 64.1519 70.1003 63.5883C70.2804 63.0251 69.581 63.4329 69.581 63.4329C70.6397 62.85 70.7594 61.8927 71.4584 61.2901C72.1578 60.6876 71.2791 60.8045 71.2791 60.8045C71.7585 60.1633 72.8372 59.2744 72.8569 58.9639C72.8769 58.6533 71.9381 59.4959 72.1182 59.1653C72.2978 58.8351 71.7957 59.1144 71.9153 58.8038C72.0353 58.4929 71.0896 59.6303 71.2493 59.1832C71.4089 58.7368 70.32 59.312 70.7197 59.0007C71.1194 58.6898 71.7686 57.5489 72.128 57.0826C72.4877 56.6165 71.8883 56.6937 71.8883 56.6937C72.4473 56.2081 72.8769 55.2335 73.0565 54.8451C73.2362 54.4562 72.3775 55.3307 72.5175 55.0784C72.6572 54.8254 71.9181 55.117 71.9181 55.117C72.7172 54.4955 72.9765 53.1154 73.1569 52.6883C73.3366 52.2609 72.8769 52.4942 72.8769 52.4942C73.3145 52.0668 73.7138 50.2402 73.7138 50.2402Z" fill="white"/>
<path fill-rule="evenodd" clip-rule="evenodd" d="M81.4972 63.0039C81.4972 63.0039 81.6495 63.7008 81.8173 63.8637C81.8173 63.8637 81.6418 63.7749 81.7106 63.9377C81.7794 64.1012 81.8783 64.6276 82.1833 64.8645C82.1833 64.8645 81.9015 64.754 81.9545 64.8501C82.0082 64.9459 81.6804 64.6125 81.7488 64.7606C81.8173 64.9091 81.9811 65.2811 82.1945 65.4663C82.1945 65.4663 81.9657 65.4372 82.1029 65.6148C82.2401 65.7927 82.4879 66.2282 82.6402 66.3468C82.7928 66.4654 82.3773 66.2457 82.4384 66.4166C82.4991 66.5868 82.1387 66.1527 82.1843 66.2714C82.2296 66.39 82.0383 66.2836 82.1068 66.4093C82.1752 66.5356 81.8169 66.2138 81.8246 66.3324C81.8323 66.451 82.244 66.7904 82.4272 67.0346C82.4272 67.0346 82.0917 66.9904 82.3584 67.2206C82.6254 67.4501 82.6707 67.8158 83.075 68.0383C83.075 68.0383 82.8079 67.8821 82.877 68.0972C82.9455 68.3123 82.6177 68.053 82.6332 68.1495C82.6482 68.246 82.4809 67.986 82.4731 68.127C82.4658 68.2681 82.1913 67.8158 82.1913 67.9709C82.1913 68.127 82.0619 67.8821 82.0619 68.0081C82.0619 68.1344 82.3742 68.572 82.7325 68.8542C83.0908 69.1356 82.2219 68.6331 82.717 69.0679C83.2125 69.5027 83.3269 69.6304 83.5936 69.8087C83.8607 69.9873 83.0679 69.688 83.1209 69.8799C83.1743 70.0726 82.7626 69.802 82.8086 69.9161C82.8542 70.0301 82.5493 69.7023 82.5416 69.8799C82.5342 70.0582 82.237 69.6946 82.2598 69.816C82.2829 69.9368 82.1001 69.7448 82.0924 69.8655C82.0847 69.9869 81.8636 69.7943 81.8864 69.8511C81.9095 69.908 81.879 70.6137 82.0847 70.9983H81.4983H80.9115C81.1175 70.6137 81.0866 69.908 81.1098 69.8511C81.1326 69.7943 80.9115 69.9869 80.9038 69.8655C80.8964 69.7448 80.7136 69.9368 80.7364 69.816C80.7592 69.6946 80.462 70.0582 80.4546 69.8799C80.4469 69.7023 80.1423 70.0298 80.1876 69.9161C80.2332 69.802 79.8219 70.0726 79.8752 69.8799C79.9286 69.688 79.1362 69.9869 79.4025 69.8087C79.6692 69.6304 79.7836 69.5027 80.2792 69.0679C80.7743 68.6331 79.9058 69.1356 80.2641 68.8542C80.6224 68.572 80.9347 68.1344 80.9347 68.0081C80.9347 67.8818 80.8052 68.1267 80.8052 67.9709C80.8052 67.8154 80.5311 68.2681 80.5234 68.127C80.516 67.986 80.3479 68.2457 80.3634 68.1495C80.3788 68.053 80.0511 68.3123 80.1195 68.0972C80.1883 67.8821 79.9216 68.0383 79.9216 68.0383C80.3255 67.8158 80.3714 67.4501 80.6381 67.2206C80.9052 66.9908 80.5697 67.0346 80.5697 67.0346C80.7526 66.7904 81.1645 66.451 81.1719 66.3324C81.1793 66.2138 80.8213 66.5353 80.8901 66.4093C80.9585 66.2836 80.7669 66.3903 80.8129 66.2714C80.8582 66.1527 80.4978 66.5868 80.5585 66.4166C80.6196 66.2457 80.2044 66.4654 80.3567 66.3468C80.509 66.2282 80.7568 65.7923 80.894 65.6148C81.0312 65.4372 80.8024 65.4663 80.8024 65.4663C81.0157 65.2811 81.1796 64.9094 81.2484 64.7606C81.3168 64.6125 80.9894 64.9459 81.0424 64.8501C81.0958 64.7536 80.814 64.8645 80.814 64.8645C81.1189 64.6276 81.2179 64.1012 81.2867 63.9377C81.3551 63.7749 81.1796 63.8637 81.1796 63.8637C81.3446 63.7008 81.4972 63.0039 81.4972 63.0039Z" fill="white"/>
<path fill-rule="evenodd" clip-rule="evenodd" d="M42.775 63.3552C42.775 63.3552 42.8967 63.9156 43.0304 64.0465C43.0304 64.0465 42.8901 63.9752 42.9453 64.1064C43.0001 64.2372 43.079 64.6605 43.3224 64.8513C43.3224 64.8513 43.0977 64.762 43.14 64.8391C43.1824 64.9163 42.9208 64.6484 42.976 64.7671C43.0308 64.8865 43.1614 65.1857 43.3317 65.3341C43.3317 65.3341 43.1494 65.3106 43.2586 65.4536C43.3679 65.5965 43.5658 65.9466 43.6875 66.0418C43.8088 66.1374 43.4771 65.9607 43.5257 66.0978C43.5747 66.2349 43.2866 65.8859 43.3232 65.9811C43.3597 66.0767 43.2065 65.9909 43.2614 66.0915C43.3162 66.193 43.0308 65.9349 43.0366 66.0301C43.0429 66.1256 43.371 66.3982 43.5172 66.594C43.5172 66.594 43.2497 66.5584 43.4624 66.7432C43.6754 66.9281 43.712 67.2218 44.0343 67.4004C44.0343 67.4004 43.8212 67.2755 43.876 67.4482C43.9308 67.6209 43.6692 67.4125 43.6812 67.4897C43.6937 67.5676 43.5599 67.3589 43.5533 67.4724C43.5475 67.5852 43.3286 67.2218 43.3286 67.3467C43.3286 67.4724 43.2252 67.2755 43.2252 67.3773C43.2252 67.4779 43.4744 67.83 43.7606 68.0571C44.0463 68.2835 43.3531 67.8793 43.7485 68.2283C44.1435 68.578 44.2349 68.681 44.4475 68.8244C44.6602 68.9673 44.028 68.7264 44.0704 68.8819C44.1128 69.0362 43.7843 68.8185 43.8212 68.9105C43.8574 69.0022 43.614 68.7386 43.6081 68.8819C43.6023 69.0249 43.3652 68.7327 43.383 68.8306C43.4013 68.9273 43.2555 68.773 43.2493 68.8706C43.2435 68.9677 43.067 68.813 43.0856 68.8584C43.1035 68.9046 43.079 69.4717 43.2435 69.7807H42.775H42.3069C42.4713 69.4717 42.4472 68.9046 42.4651 68.8584C42.4834 68.813 42.3069 68.9677 42.3007 68.8706C42.2948 68.7727 42.149 68.9273 42.1669 68.8306C42.1852 68.7327 41.948 69.0253 41.9422 68.8819C41.9364 68.739 41.6926 69.0022 41.7295 68.9105C41.7657 68.8181 41.4372 69.0362 41.4799 68.8819C41.5223 68.7268 40.8898 68.9673 41.1024 68.8244C41.3155 68.6814 41.4068 68.5784 41.8022 68.2283C42.1972 67.8793 41.504 68.2835 41.7902 68.0571C42.0759 67.83 42.3252 67.4779 42.3252 67.3773C42.3252 67.2758 42.2217 67.4724 42.2217 67.3467C42.2217 67.2218 42.0029 67.5852 41.997 67.4724C41.9912 67.3589 41.8567 67.568 41.8691 67.4897C41.8812 67.4125 41.6195 67.6209 41.6743 67.4482C41.7291 67.2755 41.5161 67.4004 41.5161 67.4004C41.8384 67.2218 41.8749 66.9281 42.0876 66.7432C42.3007 66.5584 42.0332 66.594 42.0332 66.594C42.179 66.3978 42.5075 66.1252 42.5133 66.0301C42.5192 65.9345 42.2338 66.193 42.2882 66.0915C42.343 65.9909 42.1902 66.0763 42.2268 65.9811C42.2633 65.8856 41.9752 66.2349 42.0238 66.0978C42.0728 65.9607 41.7412 66.1374 41.8629 66.0418C41.9842 65.9463 42.1821 65.5965 42.2913 65.4536C42.401 65.3106 42.2182 65.3341 42.2182 65.3341C42.3885 65.1857 42.5192 64.8865 42.5744 64.7671C42.6288 64.648 42.3671 64.9163 42.4103 64.8391C42.4527 64.762 42.2276 64.8513 42.2276 64.8513C42.4713 64.6605 42.5499 64.2372 42.6051 64.1064C42.6599 63.9752 42.5195 64.0465 42.5195 64.0465C42.6537 63.9153 42.775 63.3552 42.775 63.3552Z" fill="white"/>
<path d="M46.25 62.1846C46.3012 61.827 46.3398 61.4671 46.4053 61.1117C46.5831 60.1504 46.9093 59.2476 47.481 58.4405C47.9988 57.7092 48.6872 57.2061 49.5083 56.8701C50.6156 56.4168 51.7776 56.1955 52.96 56.0569C54.3649 55.8924 55.775 55.8513 57.1868 55.8829C58.7452 55.9175 60.3002 56.011 61.8174 56.4103C62.5552 56.6042 63.2648 56.8671 63.8664 57.3602C64.3188 57.7309 64.6199 58.2011 64.8033 58.7519C65.1521 59.8001 65.3763 60.8783 65.5615 61.9642C65.6747 62.6293 65.771 63.2978 65.853 63.9676C65.9102 64.4392 65.8716 64.9111 65.7341 65.3679C65.473 66.2374 64.8697 66.7271 63.9901 66.8834C63.7146 66.9319 63.4314 66.9514 63.1516 66.9522C61.5615 66.9587 59.9714 66.9518 58.3809 66.9596C58.1809 66.9605 58.1189 66.8899 58.0942 66.7037C57.9715 65.7788 57.2033 65.0644 56.2326 64.9562C55.3703 64.8605 54.4551 65.4325 54.148 66.2647C54.0955 66.4067 54.0452 66.5556 54.0296 66.7046C54.0096 66.8938 53.9389 66.9605 53.7403 66.9587C52.3927 66.9501 51.045 66.9544 49.6978 66.9544C49.3209 66.9544 48.9427 66.9328 48.5679 66.9587C47.7924 67.0129 47.304 66.6123 46.9527 65.9849C46.5367 65.2424 46.371 64.4275 46.2895 63.5909C46.2821 63.5165 46.2639 63.4433 46.2509 63.3693C46.25 62.9757 46.25 62.5799 46.25 62.1846ZM59.3495 61.7265C59.3495 62.7973 59.349 63.8681 59.3499 64.9388C59.3503 65.2151 59.4249 65.2891 59.703 65.2896C60.501 65.2904 61.2991 65.2909 62.0972 65.2896C62.3648 65.2891 62.4485 65.206 62.4485 64.9319C62.4494 62.7964 62.4494 60.6613 62.4485 58.5263C62.4485 58.2448 62.3644 58.1656 62.0799 58.1656C61.3009 58.1647 60.5219 58.1652 59.7433 58.1656C59.4132 58.1656 59.3499 58.2279 59.3495 58.5536C59.349 59.61 59.3495 60.6678 59.3495 61.7265ZM51.8179 58.16C51.2376 58.16 50.6564 58.1591 50.076 58.1604C49.8184 58.1608 49.7607 58.2176 49.7603 58.4756C49.7581 59.0615 49.7581 59.6477 49.7603 60.2344C49.7611 60.502 49.8171 60.5579 50.0904 60.5579C51.2389 60.5592 52.3879 60.5592 53.5364 60.5579C53.8028 60.5574 53.8639 60.4946 53.8648 60.2301C53.8661 59.6507 53.8661 59.0705 53.8648 58.4912C53.8643 58.218 53.8045 58.1613 53.5226 58.1608C52.9539 58.1595 52.3862 58.16 51.8179 58.16ZM58.2178 59.3728C58.2178 59.061 58.2209 58.7488 58.217 58.4371C58.2143 58.2292 58.1484 58.166 57.9376 58.1652C57.3191 58.163 56.7002 58.163 56.0816 58.1652C55.8691 58.1656 55.7975 58.2379 55.7967 58.4544C55.7941 59.0653 55.7941 59.6763 55.7967 60.2881C55.7975 60.5059 55.8687 60.5791 56.0799 60.5795C56.6984 60.5817 57.3174 60.5817 57.9359 60.5795C58.1519 60.5791 58.2152 60.5128 58.217 60.2898C58.2204 59.9837 58.2182 59.678 58.2178 59.3728Z" fill="white"/>
<path d="M56.0207 65.6445C56.7915 65.6437 57.4207 66.2687 57.4298 67.0448C57.439 67.8113 56.7815 68.4685 56.0129 68.4611C55.2455 68.4537 54.6072 67.8087 54.6133 67.047C54.6198 66.2726 55.249 65.6454 56.0207 65.6445Z" fill="white"/>
<path d="M27.5312 122.122C27.5312 120.774 27.7498 119.503 28.187 118.311C28.6242 117.092 29.2671 116.042 30.1157 115.161C30.9643 114.254 32.0058 113.541 33.2402 113.022C34.4746 112.504 35.8761 112.245 37.4448 112.245C38.9106 112.245 40.235 112.478 41.4179 112.945C42.6008 113.411 43.6038 114.072 44.4267 114.928C45.2753 115.783 45.9311 116.833 46.394 118.077C46.8826 119.296 47.1526 120.657 47.204 122.16C47.2297 122.653 47.2426 123.262 47.2426 123.988C47.2426 124.688 47.2812 125.466 47.3583 126.321C47.4355 127.177 47.5769 128.084 47.7826 129.043C47.9884 129.976 48.3098 130.923 48.747 131.882H44.1181C43.6809 130.923 43.3595 129.924 43.1537 128.888C42.4851 129.873 41.6365 130.65 40.6079 131.221C39.5792 131.791 38.3448 132.076 36.9047 132.076C35.5418 132.076 34.2817 131.817 33.1245 131.298C31.9673 130.78 30.9772 130.08 30.1543 129.199C29.3314 128.291 28.6885 127.241 28.2256 126.049C27.7627 124.831 27.5312 123.521 27.5312 122.122ZM37.4448 116.6C36.4933 116.6 35.6832 116.742 35.0146 117.028C34.346 117.313 33.7931 117.715 33.3559 118.233C32.9445 118.726 32.6359 119.309 32.4302 119.983C32.2501 120.657 32.1601 121.383 32.1601 122.16C32.1601 122.938 32.2501 123.664 32.4302 124.338C32.6359 125.012 32.9445 125.608 33.3559 126.127C33.7931 126.619 34.346 127.008 35.0146 127.293C35.6832 127.578 36.4933 127.721 37.4448 127.721C39.0392 127.721 40.2864 127.28 41.1865 126.399C42.1122 125.492 42.5751 124.079 42.5751 122.16C42.498 120.449 42.0608 119.101 41.2636 118.116C40.4664 117.105 39.1935 116.6 37.4448 116.6Z" fill="white"/>
<path d="M56.4458 131.882H51.8169V104.662H56.4458V131.882Z" fill="white"/>
<path d="M65.7126 113.1H71.0359V117.455H65.7126V131.882H61.0838V112.478C61.0838 111.104 61.3023 109.808 61.7395 108.59C62.1767 107.371 62.8196 106.321 63.6682 105.44C64.5168 104.533 65.5583 103.82 66.7927 103.301C68.0271 102.783 69.4415 102.523 71.0359 102.523C71.3187 102.523 71.6016 102.549 71.8845 102.601C72.1674 102.627 72.4502 102.666 72.7331 102.718V107.229C72.476 107.177 72.2317 107.138 72.0002 107.112C71.7688 107.06 71.5245 107.034 71.2673 107.034C70.2129 107.034 69.3257 107.177 68.6057 107.462C67.9114 107.747 67.3456 108.136 66.9084 108.628C66.4713 109.095 66.1627 109.665 65.9827 110.339C65.8026 110.987 65.7126 111.687 65.7126 112.439V113.1Z" fill="white"/>
<path d="M73.4886 122.122C73.4886 120.774 73.7072 119.503 74.1444 118.311C74.5816 117.092 75.2245 116.042 76.0731 115.161C76.9217 114.254 77.9632 113.541 79.1976 113.022C80.432 112.504 81.8335 112.245 83.4022 112.245C84.868 112.245 86.1923 112.478 87.3753 112.945C88.5582 113.411 89.5611 114.072 90.3841 114.928C91.2327 115.783 91.8885 116.833 92.3513 118.077C92.84 119.296 93.11 120.657 93.1614 122.16C93.1871 122.653 93.2 123.262 93.2 123.988C93.2 124.688 93.2385 125.466 93.3157 126.321C93.3928 127.177 93.5343 128.084 93.74 129.043C93.9457 129.976 94.2672 130.923 94.7044 131.882H90.0755C89.6383 130.923 89.3168 129.924 89.1111 128.888C88.4425 129.873 87.5939 130.65 86.5652 131.221C85.5366 131.791 84.3022 132.076 82.8621 132.076C81.4992 132.076 80.2391 131.817 79.0819 131.298C77.9246 130.78 76.9346 130.08 76.1117 129.199C75.2887 128.291 74.6458 127.241 74.183 126.049C73.7201 124.831 73.4886 123.521 73.4886 122.122ZM83.4022 116.6C82.4507 116.6 81.6406 116.742 80.972 117.028C80.3034 117.313 79.7505 117.715 79.3133 118.233C78.9019 118.726 78.5933 119.309 78.3875 119.983C78.2075 120.657 78.1175 121.383 78.1175 122.16C78.1175 122.938 78.2075 123.664 78.3875 124.338C78.5933 125.012 78.9019 125.608 79.3133 126.127C79.7505 126.619 80.3034 127.008 80.972 127.293C81.6406 127.578 82.4507 127.721 83.4022 127.721C84.9966 127.721 86.2438 127.28 87.1438 126.399C88.0696 125.492 88.5325 124.079 88.5325 122.16C88.4554 120.449 88.0182 119.101 87.221 118.116C86.4238 117.105 85.1509 116.6 83.4022 116.6Z" fill="white"/>
<path d="M31.4281 140.899H34.149V144.556C33.7669 144.683 33.3716 144.781 32.963 144.85C32.5543 144.92 32.0959 144.955 31.5876 144.955C30.8468 144.955 30.2189 144.809 29.7039 144.517C29.1923 144.221 28.8036 143.794 28.5379 143.236C28.2721 142.674 28.1392 141.998 28.1392 141.208C28.1392 140.447 28.2871 139.788 28.5827 139.229C28.8784 138.668 29.3086 138.234 29.8734 137.929C30.4381 137.62 31.1225 137.465 31.9265 137.465C32.3218 137.465 32.7038 137.505 33.0726 137.585C33.4447 137.661 33.7852 137.768 34.0941 137.904L33.6756 138.891C33.4297 138.774 33.154 138.676 32.8483 138.597C32.5427 138.517 32.2254 138.477 31.8966 138.477C31.375 138.477 30.9248 138.59 30.5461 138.816C30.1707 139.042 29.8817 139.361 29.679 139.773C29.4764 140.181 29.3751 140.665 29.3751 141.223C29.3751 141.764 29.4564 142.239 29.6192 142.648C29.782 143.056 30.0362 143.375 30.3817 143.605C30.7305 143.831 31.1806 143.943 31.7321 143.943C32.0078 143.943 32.2421 143.929 32.4347 143.899C32.6274 143.869 32.8052 143.836 32.9679 143.799V141.92H31.4281V140.899Z" fill="white"/>
<path d="M37.8321 144.855V137.57H39.0281V143.839H42.1227V144.855H37.8321Z" fill="white"/>
<path d="M49.8373 144.855L49.1247 142.832H46.3391L45.6265 144.855H44.3657L47.0766 137.54H48.4021L51.108 144.855H49.8373ZM48.8157 141.806L48.123 139.812C48.0965 139.726 48.0583 139.605 48.0084 139.449C47.9586 139.289 47.9088 139.128 47.8589 138.965C47.8091 138.799 47.7676 138.66 47.7343 138.547C47.7011 138.683 47.6596 138.836 47.6098 139.005C47.5633 139.171 47.5167 139.327 47.4702 139.474C47.427 139.62 47.3938 139.733 47.3706 139.812L46.6729 141.806H48.8157Z" fill="white"/>
<path d="M57.1532 144.855L55.0553 138.771H55.0104C55.0204 138.907 55.032 139.093 55.0453 139.329C55.0586 139.565 55.0702 139.817 55.0802 140.086C55.0901 140.356 55.0951 140.613 55.0951 140.859V144.855H54.0088V137.57H55.6881L57.7063 143.385H57.7362L59.8242 137.57H61.4985V144.855H60.3574V140.799C60.3574 140.577 60.3607 140.336 60.3673 140.077C60.3773 139.817 60.3873 139.572 60.3972 139.339C60.4105 139.106 60.4205 138.92 60.4271 138.781H60.3873L58.2096 144.855H57.1532Z" fill="white"/>
<path d="M67.474 137.57C68.4141 137.57 69.1002 137.763 69.532 138.148C69.9639 138.533 70.1799 139.073 70.1799 139.768C70.1799 140.083 70.13 140.384 70.0304 140.67C69.934 140.952 69.7746 141.203 69.552 141.422C69.3294 141.638 69.0354 141.809 68.67 141.935C68.3078 142.062 67.861 142.125 67.3295 142.125H66.5521V144.855H65.3561V137.57H67.474ZM67.3943 138.562H66.5521V141.128H67.2049C67.5803 141.128 67.8992 141.085 68.1617 140.998C68.4241 140.909 68.6234 140.768 68.7597 140.575C68.8959 140.382 68.964 140.128 68.964 139.812C68.964 139.391 68.8361 139.077 68.5803 138.871C68.3278 138.665 67.9324 138.562 67.3943 138.562Z" fill="white"/>
<path d="M73.574 144.855V137.57H74.77V144.855H73.574Z" fill="white"/>
<path d="M84.7121 144.855H83.242L79.674 139.04H79.6292C79.6425 139.236 79.6541 139.444 79.6641 139.663C79.6774 139.882 79.6873 140.108 79.694 140.341C79.7039 140.573 79.7122 140.809 79.7189 141.048V144.855H78.6326V137.57H80.0926L83.6556 143.346H83.6905C83.6839 143.176 83.6756 142.982 83.6656 142.762C83.6556 142.543 83.6457 142.317 83.6357 142.085C83.629 141.849 83.6241 141.621 83.6207 141.402V137.57H84.7121V144.855Z" fill="white"/>
<path d="M91.5047 140.899H94.2256V144.556C93.8435 144.683 93.4482 144.781 93.0396 144.85C92.631 144.92 92.1725 144.955 91.6642 144.955C90.9234 144.955 90.2955 144.809 89.7806 144.517C89.269 144.221 88.8803 143.794 88.6145 143.236C88.3487 142.674 88.2158 141.998 88.2158 141.208C88.2158 140.447 88.3637 139.788 88.6593 139.229C88.955 138.668 89.3852 138.234 89.95 137.929C90.5148 137.62 91.1991 137.465 92.0031 137.465C92.3984 137.465 92.7804 137.505 93.1492 137.585C93.5213 137.661 93.8618 137.768 94.1708 137.904L93.7522 138.891C93.5063 138.774 93.2306 138.676 92.925 138.597C92.6193 138.517 92.3021 138.477 91.9732 138.477C91.4516 138.477 91.0014 138.59 90.6227 138.816C90.2473 139.042 89.9583 139.361 89.7556 139.773C89.553 140.181 89.4517 140.665 89.4517 141.223C89.4517 141.764 89.5331 142.239 89.6959 142.648C89.8586 143.056 90.1128 143.375 90.4583 143.605C90.8071 143.831 91.2572 143.943 91.8087 143.943C92.0845 143.943 92.3187 143.929 92.5114 143.899C92.704 143.869 92.8818 143.836 93.0446 143.799V141.92H91.5047V140.899Z" fill="white"/>
</svg>
