<svg width="76" height="34" viewBox="0 0 76 34" fill="none" xmlns="http://www.w3.org/2000/svg">
<path d="M0 15.5471C0 7.06981 6.87216 0.197632 15.3494 0.197632C23.8267 0.197632 30.6988 7.0698 30.6988 15.547V18.1739C30.6988 26.6512 23.8267 33.5233 15.3494 33.5233C6.87216 33.5233 0 26.6512 0 18.1739V15.5471Z" fill="#B59C93"/>
<path d="M1.15334 15.1321C1.15334 7.29182 7.50915 0.935995 15.3495 0.935995C23.1897 0.935995 29.5456 7.29181 29.5456 15.1321V18.5875C29.5456 26.4277 23.1897 32.7836 15.3495 32.7836C7.50915 32.7836 1.15334 26.4278 1.15334 18.5875V15.1321Z" stroke="white" stroke-width="0.601115"/>
<path fill-rule="evenodd" clip-rule="evenodd" d="M13.8383 14.3162C13.8449 14.311 13.8584 14.3007 13.8768 14.2866C13.9513 14.2289 14.0251 14.1791 14.0973 14.1388C14.1714 14.097 14.2484 14.0613 14.3273 14.0341C14.6755 13.9131 15.0213 13.9543 15.3353 14.1956C15.4094 14.128 15.4985 14.0679 15.5939 14.0172C16.2673 13.813 16.5526 14.1777 16.6652 14.2782C16.3311 14.2214 15.8355 14.2711 15.569 14.5058C15.5427 14.5288 15.6112 14.5926 15.5883 14.6227C15.5503 14.6733 15.5507 14.7597 15.5117 14.8245C15.409 14.7226 15.3625 14.6485 15.2161 14.626C15.1096 14.6095 14.9768 14.6002 14.9444 14.5785C14.8322 14.5054 14.836 14.357 14.6746 14.3495C14.3513 14.3336 14.1588 14.5198 13.8383 14.3162Z" fill="white"/>
<path fill-rule="evenodd" clip-rule="evenodd" d="M12.7007 15.3725C12.7053 15.3689 12.7148 15.3617 12.7277 15.3518C12.78 15.3114 12.8318 15.2765 12.8825 15.2482C12.9345 15.2189 12.9885 15.1939 13.0439 15.1749C13.2883 15.0901 13.531 15.119 13.7514 15.288C13.8034 15.2407 13.866 15.1986 13.9329 15.163C14.4056 15.02 14.6058 15.2755 14.6848 15.3459C14.4503 15.3061 14.1025 15.341 13.9154 15.5054C13.897 15.5215 13.945 15.5663 13.9289 15.5873C13.9023 15.6228 13.9026 15.6833 13.8752 15.7287C13.8031 15.6574 13.7705 15.6054 13.6677 15.5896C13.593 15.5781 13.4998 15.5715 13.477 15.5564C13.3983 15.5051 13.401 15.4012 13.2877 15.3959C13.0608 15.3847 12.9257 15.5153 12.7007 15.3725Z" fill="white"/>
<path fill-rule="evenodd" clip-rule="evenodd" d="M24.7336 21.6245C24.5318 21.5757 24.3271 21.548 24.1178 21.548C23.1878 21.548 22.3619 22.0779 21.5364 22.6073C20.2951 23.2719 19.6729 23.4108 18.6729 23.0288C18.3927 22.9227 18.0829 22.7739 17.7221 22.5852C15.6061 21.2453 14.7793 21.2608 12.66 22.5951C12.1193 22.8584 11.705 23.0457 11.3502 23.1564C10.4448 23.4408 9.93198 23.2315 8.70464 22.5482C7.87827 22.0403 7.08002 21.5494 6.29435 21.548H6.29229C6.08814 21.548 5.88707 21.5804 5.68809 21.6367C5.31946 21.7409 5.12242 21.3814 5.0177 20.9853C4.92527 20.6356 4.88018 20.2635 5.19467 20.0729C5.62123 19.8148 6.0067 19.6172 6.29229 19.6172H6.29435C6.70943 19.6177 7.35355 20.0137 8.019 20.423C8.90031 20.9646 9.81591 21.5273 10.7477 21.5273H10.7502C11.2624 21.5269 11.7564 21.357 12.2402 21.1139C15.1537 19.6533 15.1762 19.5932 18.1008 21.0895C18.602 21.3457 19.1177 21.5273 19.6616 21.5273C20.5912 21.5273 21.4176 20.997 22.2426 20.4671C22.9038 20.0424 23.567 19.6172 24.1178 19.6172C24.4942 19.6172 24.9222 19.8204 25.367 20.0851C25.6529 20.2555 25.5308 20.6422 25.3582 21.02C25.2057 21.3542 25.0372 21.6987 24.7336 21.6245ZM24.1367 23.3423C23.8167 23.7882 23.4633 24.2096 23.0817 24.6034C22.4149 25.2905 21.6823 25.7946 20.8583 26.269C20.4331 26.515 20.0229 26.698 19.6617 26.698C19.0981 26.698 18.4048 26.2587 17.7221 25.8255C16.8999 25.3046 16.0867 24.7887 15.2067 24.7887H15.2044C14.3231 24.7887 13.4939 25.3102 12.66 25.8354C11.9784 26.2643 11.2907 26.6971 10.7502 26.698H10.7477C10.3789 26.698 9.92685 26.498 9.45477 26.2353C8.57726 25.7453 7.87614 25.1938 7.17765 24.4452C6.84493 24.0885 6.53594 23.7102 6.25219 23.3127C6.06662 23.0522 5.8167 22.8584 6.29234 22.8584H6.2944C6.31997 22.8584 6.34728 22.8607 6.37491 22.8631C6.78976 22.9086 7.39533 23.2803 8.01903 23.6633C9.95884 24.7691 10.8884 25.0018 12.5687 24.1186C15.0965 22.7884 15.3396 22.8438 17.7957 24.0951C19.3651 24.8943 20.4566 24.7132 22.2426 23.7074C22.9038 23.2832 23.5665 22.8584 24.1178 22.8584C24.6219 22.8584 24.3431 23.0536 24.1367 23.3423ZM17.5612 27.6892C16.799 27.8437 16.0135 27.946 15.2044 27.946C14.4545 27.946 13.7224 27.8657 13.014 27.724C12.5303 27.6282 12.66 27.3785 13.3559 26.9406C14.0266 26.5187 14.6938 26.0987 15.2044 26.0987H15.2067C15.708 26.0992 16.3607 26.5126 17.021 26.9308C17.5527 27.2678 17.9375 27.6133 17.5612 27.6892Z" fill="white"/>
<path d="M20.597 20.782C21.7081 20.5174 23.6658 19.521 24.2346 19.6312C24.8034 19.7414 24.2082 20.1074 24.2082 20.1074L21.8933 21.7741L18.1896 21.655L15.5838 20.663L11.8139 22.1048L7.44878 21.2714L5.54401 19.9619C5.64101 19.8737 5.84824 19.6815 6.21861 19.618C6.91968 19.4978 7.54137 20.3455 8.9435 20.4116C10.3456 20.4778 11.2583 19.8296 15.306 19.9619C16.8886 20.0136 19.2081 21.1127 20.597 20.782Z" fill="white"/>
<path fill-rule="evenodd" clip-rule="evenodd" d="M16.0197 12.7943C16.2023 12.814 16.205 12.8229 16.3815 12.8572C16.6885 12.9163 16.7556 12.9398 16.8485 12.6356L19.0643 5.40441C19.2422 4.82313 18.9728 4.8412 18.5121 4.69758C17.8898 4.5035 17.2422 4.36269 16.5777 4.28172C16.1393 4.22872 16.1314 4.43496 16.1083 4.87005L15.7226 12.5268C15.7132 12.7145 15.7494 12.7647 16.0197 12.7943ZM17.9245 13.3406C18.0789 13.4119 18.2286 13.4889 18.3759 13.5705C18.6537 13.7264 18.6725 13.6137 18.8687 13.3538L22.8735 8.05121C23.1635 7.66493 23.1335 7.55183 22.7806 7.21201C22.2718 6.72226 21.8969 6.43715 21.3202 6.06684C20.8998 5.79722 20.8031 5.80381 20.6135 6.2506L17.8429 12.7455C17.6984 13.0838 17.596 13.189 17.9245 13.3406ZM19.5312 14.3994C19.6993 14.551 19.7973 14.6604 19.949 14.8288C20.1254 15.025 20.1545 15.0574 20.3793 14.9109L25.1575 11.819C25.493 11.6012 25.609 11.5102 25.4593 11.1352C25.2016 10.4908 24.8839 9.87453 24.5141 9.29491C24.2513 8.88283 24.1302 9.16541 23.8149 9.50334L19.6355 13.9601C19.4553 14.153 19.336 14.2239 19.5312 14.3994ZM20.8725 16.0885C20.9781 16.28 21.041 16.4101 21.1269 16.6128C21.2301 16.8578 21.247 16.8859 21.5088 16.8249L25.8535 15.8191C26.3184 15.7121 26.2383 15.6732 26.2383 15.1916C26.2383 14.6632 26.1998 14.1436 26.1266 13.6344C26.0543 13.1289 25.7873 13.2575 25.3279 13.4908L21.1006 15.6291C20.8022 15.7816 20.7134 15.7999 20.8725 16.0885ZM14.4857 12.7943C14.3035 12.814 14.3008 12.8229 14.1234 12.8572C13.8164 12.9163 13.7498 12.9398 13.6569 12.6356L11.4404 5.40441C11.2633 4.82313 11.5317 4.8412 11.9928 4.69758C12.6153 4.5035 13.2627 4.36269 13.9272 4.28172C14.3655 4.22872 14.3735 4.43496 14.3969 4.87005L14.7822 12.5268C14.7915 12.7145 14.7554 12.7647 14.4857 12.7943ZM12.5806 13.3406C12.4265 13.4119 12.276 13.4889 12.1294 13.5705C11.8513 13.7264 11.8326 13.6137 11.6363 13.3538L7.63182 8.05121C7.34154 7.66493 7.37158 7.55183 7.72472 7.21201C8.23316 6.72226 8.60832 6.43715 9.18466 6.06684C9.6049 5.79722 9.70181 5.80381 9.89139 6.2506L12.6623 12.7455C12.8066 13.0838 12.9089 13.189 12.5806 13.3406ZM10.9735 14.3994C10.8053 14.551 10.7074 14.6604 10.5562 14.8288C10.3792 15.025 10.3505 15.0574 10.1256 14.9109L5.34737 11.819C5.01201 11.6012 4.89593 11.5102 5.04606 11.1352C5.3032 10.4908 5.62159 9.87453 5.99044 9.29491C6.25355 8.88283 6.37478 9.16541 6.6902 9.50334L10.8699 13.9601C11.0496 14.153 11.1687 14.2239 10.9735 14.3994ZM9.63207 16.0885C9.52678 16.28 9.46381 16.4101 9.37825 16.6128C9.27468 16.8578 9.25851 16.8859 8.9962 16.8249L4.65185 15.8191C4.18653 15.7121 4.26682 15.6732 4.26682 15.1916C4.26682 14.6632 4.30524 14.1436 4.37807 13.6344C4.45033 13.1289 4.71779 13.2575 5.17725 13.4908L9.40427 15.6291C9.70295 15.7816 9.79137 15.7999 9.63207 16.0885Z" fill="white"/>
<path fill-rule="evenodd" clip-rule="evenodd" d="M18.6806 14.5651C18.6806 14.5651 18.8006 15.1141 18.9328 15.2426C18.9328 15.2426 18.7945 15.1724 18.8485 15.3009C18.9026 15.4294 18.9807 15.8442 19.2207 16.0309C19.2207 16.0309 18.9986 15.9432 19.0406 16.0193C19.0826 16.0951 18.8245 15.8323 18.8786 15.9491C18.9325 16.066 19.0617 16.3588 19.2297 16.5048C19.2297 16.5048 19.0497 16.4816 19.1578 16.6216C19.2658 16.7617 19.4609 17.1047 19.581 17.1982C19.7011 17.2917 19.3738 17.1188 19.4219 17.253C19.4699 17.3874 19.1856 17.0456 19.2216 17.139C19.2575 17.2324 19.1067 17.1484 19.1607 17.2476C19.2147 17.347 18.9327 17.0936 18.9387 17.1871C18.9446 17.2805 19.2688 17.5476 19.4129 17.7403C19.4129 17.7403 19.1487 17.7052 19.3589 17.8863C19.569 18.0674 19.6051 18.3551 19.9233 18.5303C19.9233 18.5303 19.7131 18.4077 19.7672 18.577C19.8212 18.7465 19.5632 18.5421 19.5751 18.6179C19.5871 18.6938 19.4551 18.4895 19.449 18.6004C19.443 18.7114 19.227 18.3551 19.227 18.4776C19.227 18.6004 19.125 18.4077 19.125 18.5071C19.125 18.6062 19.3711 18.9512 19.6532 19.1732C19.9354 19.3952 19.251 18.9993 19.6413 19.3415C20.0315 19.6838 20.1216 19.785 20.3317 19.9253C20.5418 20.0655 19.9174 19.8298 19.9596 19.9814C20.0015 20.1328 19.6773 19.9196 19.7134 20.0095C19.7494 20.0993 19.5092 19.8411 19.5033 19.9814C19.4973 20.1217 19.2631 19.8356 19.2812 19.9307C19.2992 20.0262 19.1551 19.8746 19.1491 19.9701C19.1431 20.0655 18.9691 19.9138 18.9871 19.9589C19.005 20.0037 18.981 20.5595 19.1431 20.8625H18.6809H18.2187C18.3808 20.5595 18.3568 20.0037 18.3747 19.9589C18.3928 19.9139 18.2187 20.0655 18.2127 19.9701C18.2067 19.8746 18.0626 20.0262 18.0807 19.9307C18.0986 19.8355 17.8646 20.1217 17.8585 19.9814C17.8526 19.8411 17.6124 20.0993 17.6484 20.0095C17.6845 19.9196 17.3603 20.1329 17.4023 19.9814C17.4444 19.8299 16.8198 20.0655 17.0302 19.9253C17.2402 19.785 17.3303 19.6838 17.7206 19.3415C18.1107 18.9993 17.4264 19.395 17.7086 19.1732C17.9907 18.9512 18.2369 18.6061 18.2369 18.5071C18.2369 18.4077 18.1349 18.6004 18.1349 18.4776C18.1349 18.3551 17.9188 18.7114 17.9128 18.6004C17.9067 18.4895 17.7746 18.6939 17.7866 18.6179C17.7985 18.5421 17.5405 18.7464 17.5945 18.577C17.6487 18.4077 17.4384 18.5303 17.4384 18.5303C17.7567 18.3551 17.7926 18.0674 18.0027 17.8863C18.2129 17.7052 17.9488 17.7403 17.9488 17.7403C18.0929 17.5476 18.4171 17.2804 18.423 17.1871C18.4291 17.0937 18.1469 17.347 18.201 17.2476C18.255 17.1484 18.1041 17.2323 18.1401 17.139C18.1761 17.0455 17.8919 17.3874 17.9399 17.253C17.9879 17.1188 17.6606 17.2917 17.7807 17.1982C17.9008 17.1047 18.096 16.7618 18.204 16.6216C18.3121 16.4816 18.1319 16.5048 18.1319 16.5048C18.3 16.3588 18.4291 16.0659 18.4831 15.9491C18.5371 15.8323 18.279 16.0951 18.321 16.0193C18.363 15.9432 18.1409 16.0309 18.1409 16.0309C18.3811 15.8441 18.459 15.4293 18.5132 15.3009C18.5672 15.1724 18.4291 15.2426 18.4291 15.2426C18.5606 15.1141 18.6806 14.5651 18.6806 14.5651Z" fill="white"/>
<path fill-rule="evenodd" clip-rule="evenodd" d="M21.0205 18.4012C21.0205 18.4012 21.0663 18.6107 21.1167 18.6597C21.1167 18.6597 21.064 18.633 21.0846 18.6819C21.1053 18.7311 21.1351 18.8893 21.2267 18.9605C21.2267 18.9605 21.142 18.9272 21.1579 18.9561C21.1741 18.9849 21.0756 18.8847 21.0961 18.9292C21.1167 18.9739 21.166 19.0857 21.2301 19.1413C21.2301 19.1413 21.1613 19.1326 21.2026 19.186C21.2438 19.2394 21.3183 19.3703 21.364 19.406C21.4099 19.4416 21.285 19.3756 21.3034 19.427C21.3216 19.4781 21.2133 19.3477 21.227 19.3833C21.2406 19.419 21.1832 19.387 21.2037 19.4248C21.2243 19.4627 21.1166 19.366 21.1189 19.4017C21.1212 19.4373 21.245 19.5393 21.3 19.6127C21.3 19.6127 21.1992 19.5994 21.2793 19.6686C21.3596 19.7376 21.3732 19.8475 21.4947 19.9144C21.4947 19.9144 21.4145 19.8674 21.4352 19.9321C21.4558 19.9967 21.3573 19.9188 21.3619 19.9478C21.3665 19.9768 21.3162 19.8986 21.3138 19.941C21.3116 19.9834 21.2291 19.8475 21.2291 19.8941C21.2291 19.941 21.1902 19.8674 21.1902 19.9053C21.1902 19.9433 21.2841 20.0748 21.3918 20.1596C21.4995 20.2442 21.2383 20.0931 21.3871 20.2238C21.5361 20.3545 21.5705 20.3929 21.6506 20.4465C21.7309 20.5002 21.4926 20.4102 21.5085 20.4679C21.5246 20.5258 21.4009 20.4445 21.4147 20.4787C21.4284 20.513 21.3367 20.4145 21.3344 20.4679C21.3322 20.5215 21.2429 20.4122 21.2497 20.4487C21.2567 20.485 21.2017 20.4273 21.1994 20.4636C21.1971 20.5001 21.1306 20.4421 21.1375 20.4592C21.1444 20.4763 21.1353 20.6884 21.1971 20.804H21.0208H20.8445C20.9064 20.6884 20.8971 20.4763 20.9041 20.4592C20.9109 20.4421 20.8445 20.5001 20.8422 20.4636C20.8399 20.4273 20.785 20.485 20.7919 20.4487C20.7987 20.4122 20.7094 20.5215 20.7072 20.4679C20.7048 20.4145 20.6133 20.5129 20.6269 20.4787C20.6406 20.4445 20.517 20.5258 20.533 20.4679C20.5491 20.4102 20.3109 20.5001 20.3909 20.4465C20.4711 20.3929 20.5055 20.3545 20.6544 20.2238C20.8032 20.0931 20.5422 20.2442 20.6499 20.1596C20.7576 20.0748 20.8514 19.9433 20.8514 19.9053C20.8514 19.8673 20.8125 19.9409 20.8125 19.8941C20.8125 19.8474 20.7301 19.9834 20.7278 19.941C20.7256 19.8986 20.6751 19.9767 20.6797 19.9478C20.6844 19.9188 20.5859 19.9967 20.6064 19.9321C20.6271 19.8674 20.5469 19.9144 20.5469 19.9144C20.6683 19.8475 20.6822 19.7376 20.7623 19.6686C20.8426 19.5995 20.7418 19.6127 20.7418 19.6127C20.7967 19.5393 20.9205 19.4373 20.9227 19.4017C20.925 19.366 20.8174 19.4626 20.838 19.4248C20.8586 19.387 20.801 19.4191 20.8148 19.3833C20.8285 19.3477 20.7201 19.4781 20.7384 19.427C20.7567 19.3756 20.632 19.4416 20.6777 19.406C20.7235 19.3703 20.798 19.2393 20.8392 19.186C20.8804 19.1326 20.8117 19.1413 20.8117 19.1413C20.8758 19.0857 20.9251 18.974 20.9457 18.9292C20.9663 18.8847 20.8679 18.9849 20.8838 18.9561C20.8999 18.9271 20.8152 18.9605 20.8152 18.9605C20.9068 18.8893 20.9366 18.7311 20.9572 18.6819C20.9778 18.633 20.9251 18.6597 20.9251 18.6597C20.9746 18.6107 21.0205 18.4012 21.0205 18.4012Z" fill="white"/>
<path fill-rule="evenodd" clip-rule="evenodd" d="M9.3816 18.507C9.3816 18.507 9.41817 18.6754 9.45837 18.7147C9.45837 18.7147 9.41618 18.6933 9.43278 18.7328C9.44925 18.7721 9.47297 18.8993 9.54612 18.9566C9.54612 18.9566 9.47858 18.9298 9.49132 18.953C9.50406 18.9762 9.42542 18.8957 9.44201 18.9313C9.45848 18.9672 9.49775 19.0572 9.54893 19.1018C9.54893 19.1018 9.49412 19.0947 9.52696 19.1377C9.5598 19.1806 9.61927 19.2859 9.65585 19.3145C9.69231 19.3432 9.59263 19.2901 9.60724 19.3313C9.62196 19.3725 9.53537 19.2676 9.54636 19.2962C9.55734 19.3249 9.5113 19.2992 9.52778 19.3294C9.54425 19.3599 9.45848 19.2823 9.46024 19.3109C9.46211 19.3397 9.56073 19.4216 9.60467 19.4804C9.60467 19.4804 9.52427 19.4697 9.58819 19.5253C9.65223 19.5808 9.66321 19.6691 9.76008 19.7228C9.76008 19.7228 9.69605 19.6852 9.71252 19.7372C9.729 19.7891 9.65036 19.7264 9.65398 19.7496C9.65772 19.7731 9.61752 19.7103 9.61553 19.7444C9.61378 19.7783 9.54799 19.6691 9.54799 19.7067C9.54799 19.7444 9.51691 19.6852 9.51691 19.7158C9.51691 19.7461 9.59181 19.8519 9.67782 19.9202C9.7637 19.9882 9.55536 19.8667 9.67419 19.9716C9.79292 20.0767 9.82038 20.1077 9.8843 20.1508C9.94821 20.1937 9.75821 20.1213 9.77095 20.1681C9.78369 20.2145 9.68494 20.149 9.69605 20.1767C9.70691 20.2042 9.63376 20.125 9.63201 20.1681C9.63026 20.211 9.55898 20.1232 9.56435 20.1527C9.56985 20.1817 9.52603 20.1354 9.52416 20.1647C9.5224 20.1939 9.46935 20.1474 9.47496 20.161C9.48034 20.1749 9.47297 20.3453 9.5224 20.4382H9.3816H9.24091C9.29033 20.3453 9.28309 20.1749 9.28846 20.161C9.29396 20.1474 9.24091 20.1939 9.23904 20.1647C9.23728 20.1352 9.19346 20.1817 9.19884 20.1527C9.20433 20.1232 9.13305 20.2112 9.1313 20.1681C9.12955 20.1251 9.05628 20.2042 9.06738 20.1767C9.07825 20.1489 8.97951 20.2145 8.99236 20.1681C9.0051 20.1215 8.81498 20.1937 8.8789 20.1508C8.94293 20.1078 8.97039 20.0769 9.08923 19.9716C9.20795 19.8667 8.99961 19.9882 9.08561 19.9202C9.1715 19.8519 9.2464 19.7461 9.2464 19.7158C9.2464 19.6854 9.21532 19.7444 9.21532 19.7067C9.21532 19.6691 9.14953 19.7783 9.14777 19.7444C9.14602 19.7103 9.10559 19.7732 9.10933 19.7496C9.11295 19.7264 9.03431 19.7891 9.05079 19.7372C9.06726 19.6852 9.00323 19.7228 9.00323 19.7228C9.1001 19.6691 9.11108 19.5808 9.175 19.5253C9.23904 19.4697 9.15864 19.4804 9.15864 19.4804C9.20246 19.4215 9.3012 19.3395 9.30295 19.3109C9.30471 19.2822 9.21894 19.3599 9.2353 19.3294C9.25177 19.2992 9.20585 19.3248 9.21683 19.2962C9.22782 19.2675 9.14123 19.3725 9.15584 19.3313C9.17056 19.2901 9.07089 19.3432 9.10746 19.3145C9.14392 19.2857 9.2034 19.1806 9.23623 19.1377C9.26918 19.0947 9.21426 19.1018 9.21426 19.1018C9.26544 19.0572 9.30471 18.9672 9.3213 18.9313C9.33766 18.8955 9.25902 18.9762 9.27199 18.953C9.28473 18.9298 9.21707 18.9566 9.21707 18.9566C9.29033 18.8993 9.31394 18.7721 9.33053 18.7328C9.34701 18.6933 9.30482 18.7147 9.30482 18.7147C9.34514 18.6753 9.3816 18.507 9.3816 18.507Z" fill="white"/>
<path d="M10.4263 18.1551C10.4417 18.0476 10.4533 17.9395 10.473 17.8326C10.5265 17.5437 10.6245 17.2724 10.7963 17.0298C10.952 16.81 11.1588 16.6588 11.4056 16.5578C11.7384 16.4215 12.0877 16.355 12.4431 16.3134C12.8653 16.2639 13.2891 16.2516 13.7135 16.2611C14.1819 16.2715 14.6492 16.2996 15.1052 16.4196C15.327 16.4779 15.5403 16.5569 15.7211 16.7051C15.8571 16.8165 15.9475 16.9578 16.0027 17.1234C16.1075 17.4384 16.1749 17.7625 16.2306 18.0889C16.2646 18.2888 16.2935 18.4897 16.3182 18.691C16.3354 18.8327 16.3238 18.9746 16.2824 19.1119C16.204 19.3732 16.0226 19.5204 15.7582 19.5674C15.6755 19.5819 15.5903 19.5878 15.5062 19.5881C15.0283 19.59 14.5504 19.5879 14.0724 19.5903C14.0123 19.5905 13.9936 19.5693 13.9862 19.5134C13.9493 19.2354 13.7184 19.0207 13.4267 18.9881C13.1675 18.9594 12.8924 19.1313 12.8001 19.3814C12.7844 19.4241 12.7692 19.4688 12.7645 19.5136C12.7586 19.5705 12.7373 19.5905 12.6776 19.59C12.2726 19.5874 11.8675 19.5887 11.4626 19.5887C11.3493 19.5887 11.2356 19.5822 11.123 19.59C10.8899 19.6063 10.7431 19.4859 10.6375 19.2973C10.5125 19.0741 10.4627 18.8292 10.4382 18.5778C10.436 18.5554 10.4305 18.5334 10.4266 18.5112C10.4263 18.3929 10.4263 18.2739 10.4263 18.1551ZM14.3635 18.0174C14.3635 18.3392 14.3633 18.6611 14.3636 18.9829C14.3637 19.0659 14.3862 19.0882 14.4697 19.0883C14.7096 19.0886 14.9495 19.0887 15.1893 19.0883C15.2698 19.0882 15.2949 19.0632 15.2949 18.9808C15.2952 18.339 15.2952 17.6973 15.2949 17.0556C15.2949 16.971 15.2696 16.9472 15.1841 16.9472C14.95 16.9469 14.7158 16.947 14.4818 16.9472C14.3826 16.9472 14.3636 16.9659 14.3635 17.0638C14.3633 17.3813 14.3635 17.6992 14.3635 18.0174ZM12.0998 16.9455C11.9254 16.9455 11.7507 16.9452 11.5763 16.9456C11.4988 16.9457 11.4815 16.9628 11.4814 17.0403C11.4807 17.2164 11.4807 17.3926 11.4814 17.569C11.4816 17.6494 11.4984 17.6662 11.5806 17.6662C11.9258 17.6666 12.2711 17.6666 12.6163 17.6662C12.6964 17.666 12.7148 17.6472 12.715 17.5677C12.7154 17.3935 12.7154 17.2191 12.715 17.045C12.7149 16.9629 12.6969 16.9459 12.6122 16.9457C12.4412 16.9453 12.2706 16.9455 12.0998 16.9455ZM14.0233 17.31C14.0233 17.2163 14.0243 17.1225 14.0231 17.0288C14.0223 16.9663 14.0025 16.9473 13.9391 16.947C13.7532 16.9464 13.5672 16.9464 13.3813 16.947C13.3174 16.9472 13.2959 16.9689 13.2957 17.034C13.2949 17.2176 13.2949 17.4012 13.2957 17.5851C13.2959 17.6506 13.3173 17.6726 13.3808 17.6727C13.5667 17.6733 13.7527 17.6733 13.9386 17.6727C14.0035 17.6726 14.0226 17.6526 14.0231 17.5856C14.0241 17.4936 14.0235 17.4017 14.0233 17.31Z" fill="white"/>
<path d="M13.3626 19.1949C13.5943 19.1946 13.7834 19.3825 13.7861 19.6157C13.7889 19.8461 13.5913 20.0436 13.3602 20.0414C13.1296 20.0392 12.9378 19.8453 12.9396 19.6164C12.9415 19.3836 13.1307 19.1951 13.3626 19.1949Z" fill="white"/>
<path d="M42.8583 26.292L43.5197 28.4725H45.6597L43.9284 29.82L44.5897 32.0005L42.8583 30.6529L41.127 32.0005L41.7883 29.82L40.0569 28.4725H42.197L42.8583 26.292Z" fill="#B59C93"/>
<path d="M57.7329 26.292L58.3942 28.4725H60.5343L58.803 29.82L59.4643 32.0005L57.7329 30.6529L56.0016 32.0005L56.6629 29.82L54.9315 28.4725H57.0716L57.7329 26.292Z" fill="#B59C93"/>
<path d="M50.2941 26.292L50.9555 28.4725H53.0955L51.3642 29.82L52.0255 32.0005L50.2941 30.6529L48.5628 32.0005L49.2241 29.82L47.4927 28.4725H49.6328L50.2941 26.292Z" fill="#B59C93"/>
<path d="M65.1686 26.292L65.83 28.4725H67.97L66.2387 29.82L66.9 32.0005L65.1686 30.6529L63.4373 32.0005L64.0986 29.82L62.3672 28.4725H64.5073L65.1686 26.292Z" fill="#B59C93"/>
<path d="M72.6075 26.292L73.2688 28.4725H75.4089L73.6775 29.82L74.3388 32.0005L72.6075 30.6529L70.8761 32.0005L71.5375 29.82L69.8061 28.4725H71.9462L72.6075 26.292Z" fill="#B59C93"/>
<path d="M39.6626 11.6349C39.6626 10.9188 39.7787 10.244 40.0109 9.61055C40.2432 8.96332 40.5847 8.40559 41.0355 7.93738C41.4863 7.4554 42.0396 7.07669 42.6953 6.80128C43.351 6.52586 44.0955 6.38815 44.9288 6.38815C45.7075 6.38815 46.411 6.51208 47.0394 6.75996C47.6678 7.00784 48.2006 7.359 48.6378 7.81344C49.0886 8.26788 49.4369 8.82561 49.6828 9.48662C49.9424 10.1339 50.0858 10.8568 50.1131 11.6555C50.1268 11.9172 50.1336 12.2408 50.1336 12.6264C50.1336 12.9982 50.1541 13.4113 50.1951 13.8658C50.2361 14.3202 50.3112 14.8022 50.4205 15.3117C50.5298 15.8075 50.7005 16.3101 50.9328 16.8197H48.4738C48.2416 16.3101 48.0708 15.78 47.9616 15.2291C47.6064 15.7524 47.1556 16.1655 46.6091 16.4685C46.0627 16.7715 45.407 16.9229 44.642 16.9229C43.9179 16.9229 43.2486 16.7852 42.6338 16.5098C42.0191 16.2344 41.4931 15.8626 41.056 15.3944C40.6189 14.9124 40.2773 14.3547 40.0314 13.7212C39.7855 13.074 39.6626 12.3785 39.6626 11.6349ZM44.9288 8.70167C44.4234 8.70167 43.9931 8.77741 43.6379 8.92889C43.2827 9.08037 42.989 9.29382 42.7568 9.56924C42.5382 9.83089 42.3743 10.1407 42.265 10.4988C42.1694 10.8568 42.1215 11.2424 42.1215 11.6555C42.1215 12.0687 42.1694 12.4543 42.265 12.8123C42.3743 13.1704 42.5382 13.4871 42.7568 13.7625C42.989 14.0242 43.2827 14.2307 43.6379 14.3822C43.9931 14.5337 44.4234 14.6094 44.9288 14.6094C45.7758 14.6094 46.4384 14.3753 46.9165 13.9071C47.4083 13.4251 47.6542 12.6746 47.6542 11.6555C47.6132 10.7467 47.381 10.0306 46.9575 9.50727C46.534 8.9702 45.8578 8.70167 44.9288 8.70167Z" fill="#B59C93"/>
<path d="M55.0225 16.8197H52.5636V2.36014H55.0225V16.8197Z" fill="#B59C93"/>
<path d="M59.9452 6.84259H62.773V9.15611H59.9452V16.8197H57.4863V6.51208C57.4863 5.78222 57.6024 5.09367 57.8346 4.44644C58.0669 3.7992 58.4084 3.24148 58.8592 2.77327C59.31 2.29128 59.8633 1.91258 60.519 1.63716C61.1747 1.36174 61.9261 1.22403 62.773 1.22403C62.9233 1.22403 63.0736 1.2378 63.2238 1.26534C63.3741 1.27911 63.5244 1.29977 63.6747 1.32731V3.72346C63.538 3.69592 63.4083 3.67526 63.2853 3.66149C63.1624 3.63395 63.0326 3.62018 62.896 3.62018C62.3359 3.62018 61.8646 3.69592 61.4821 3.8474C61.1132 3.99888 60.8127 4.20545 60.5805 4.46709C60.3482 4.71497 60.1843 5.01793 60.0887 5.37598C59.9931 5.72025 59.9452 6.09207 59.9452 6.49143V6.84259Z" fill="#B59C93"/>
<path d="M64.076 11.6349C64.076 10.9188 64.1921 10.244 64.4243 9.61055C64.6566 8.96332 64.9981 8.40559 65.4489 7.93738C65.8997 7.4554 66.453 7.07669 67.1087 6.80128C67.7644 6.52586 68.5089 6.38815 69.3422 6.38815C70.1209 6.38815 70.8244 6.51208 71.4528 6.75996C72.0812 7.00784 72.614 7.359 73.0512 7.81344C73.502 8.26788 73.8503 8.82561 74.0962 9.48662C74.3558 10.1339 74.4992 10.8568 74.5265 11.6555C74.5402 11.9172 74.547 12.2408 74.547 12.6264C74.547 12.9982 74.5675 13.4113 74.6085 13.8658C74.6495 14.3202 74.7246 14.8022 74.8339 15.3117C74.9432 15.8075 75.1139 16.3101 75.3462 16.8197H72.8872C72.655 16.3101 72.4842 15.78 72.3749 15.2291C72.0198 15.7524 71.569 16.1655 71.0225 16.4685C70.4761 16.7715 69.8204 16.9229 69.0554 16.9229C68.3313 16.9229 67.662 16.7852 67.0472 16.5098C66.4325 16.2344 65.9065 15.8626 65.4694 15.3944C65.0323 14.9124 64.6907 14.3547 64.4448 13.7212C64.1989 13.074 64.076 12.3785 64.076 11.6349ZM69.3422 8.70167C68.8368 8.70167 68.4065 8.77741 68.0513 8.92889C67.6961 9.08037 67.4024 9.29382 67.1702 9.56924C66.9516 9.83089 66.7877 10.1407 66.6784 10.4988C66.5828 10.8568 66.5349 11.2424 66.5349 11.6555C66.5349 12.0687 66.5828 12.4543 66.6784 12.8123C66.7877 13.1704 66.9516 13.4871 67.1702 13.7625C67.4024 14.0242 67.6961 14.2307 68.0513 14.3822C68.4065 14.5337 68.8368 14.6094 69.3422 14.6094C70.1892 14.6094 70.8518 14.3753 71.3299 13.9071C71.8217 13.4251 72.0676 12.6746 72.0676 11.6555C72.0266 10.7467 71.7944 10.0306 71.3709 9.50727C70.9474 8.9702 70.2712 8.70167 69.3422 8.70167Z" fill="#B59C93"/>
<path d="M41.7335 21.6102H43.1789V23.5532C42.9759 23.6203 42.7659 23.6723 42.5488 23.7094C42.3318 23.7464 42.0882 23.765 41.8182 23.765C41.4247 23.765 41.0911 23.6873 40.8176 23.532C40.5458 23.375 40.3393 23.1482 40.1982 22.8517C40.057 22.5535 39.9864 22.1943 39.9864 21.7743C39.9864 21.3702 40.0649 21.0199 40.222 20.7234C40.3791 20.4251 40.6076 20.1948 40.9076 20.0325C41.2076 19.8683 41.5712 19.7863 41.9982 19.7863C42.2082 19.7863 42.4112 19.8075 42.6071 19.8498C42.8047 19.8904 42.9856 19.9469 43.1498 20.0192L42.9274 20.5434C42.7968 20.4816 42.6503 20.4295 42.488 20.3872C42.3256 20.3448 42.1571 20.3237 41.9824 20.3237C41.7053 20.3237 41.4662 20.3837 41.265 20.5037C41.0656 20.6237 40.912 20.7931 40.8044 21.0119C40.6967 21.229 40.6429 21.4858 40.6429 21.7822C40.6429 22.0699 40.6861 22.3223 40.7726 22.5393C40.8591 22.7564 40.9941 22.9258 41.1776 23.0476C41.3629 23.1676 41.602 23.2276 41.895 23.2276C42.0415 23.2276 42.1659 23.2197 42.2682 23.2038C42.3706 23.1879 42.465 23.1702 42.5515 23.1508V22.1529H41.7335V21.6102Z" fill="#B59C93"/>
<path d="M45.1354 23.712V19.8419H45.7708V23.172H47.4147V23.712H45.1354Z" fill="#B59C93"/>
<path d="M51.5128 23.712L51.1342 22.6373H49.6545L49.2759 23.712H48.6062L50.0463 19.826H50.7504L52.1878 23.712H51.5128ZM50.9701 22.092L50.6022 21.0331C50.588 20.9872 50.5677 20.9228 50.5413 20.8399C50.5148 20.7551 50.4883 20.6696 50.4619 20.5831C50.4354 20.4948 50.4133 20.4207 50.3957 20.3607C50.378 20.4331 50.356 20.5143 50.3295 20.6043C50.3048 20.6925 50.2801 20.7754 50.2554 20.8531C50.2324 20.9307 50.2148 20.9907 50.2024 21.0331L49.8318 22.092H50.9701Z" fill="#B59C93"/>
<path d="M55.3991 23.712L54.2847 20.4798H54.2609C54.2662 20.5522 54.2723 20.651 54.2794 20.7763C54.2864 20.9016 54.2926 21.0357 54.2979 21.1787C54.3032 21.3216 54.3059 21.4584 54.3059 21.589V23.712H53.7288V19.8419H54.6209L55.693 22.9311H55.7089L56.818 19.8419H57.7075V23.712H57.1013V21.5572C57.1013 21.439 57.103 21.3111 57.1066 21.1734C57.1119 21.0357 57.1171 20.9052 57.1224 20.7816C57.1295 20.6581 57.1348 20.5593 57.1383 20.4851H57.1171L55.9603 23.712H55.3991Z" fill="#B59C93"/>
<path d="M60.8817 19.8419C61.3812 19.8419 61.7456 19.9442 61.975 20.1489C62.2044 20.3537 62.3191 20.6404 62.3191 21.0093C62.3191 21.1769 62.2927 21.3366 62.2397 21.4884C62.1886 21.6384 62.1038 21.7717 61.9856 21.8881C61.8674 22.0028 61.7112 22.0937 61.5171 22.1608C61.3247 22.2279 61.0873 22.2614 60.805 22.2614H60.392V23.712H59.7567V19.8419H60.8817ZM60.8394 20.3687H60.392V21.732H60.7388C60.9382 21.732 61.1076 21.709 61.247 21.6631C61.3865 21.6155 61.4923 21.5405 61.5647 21.4381C61.6371 21.3358 61.6732 21.2008 61.6732 21.0331C61.6732 20.809 61.6053 20.6422 61.4694 20.5328C61.3353 20.4234 61.1253 20.3687 60.8394 20.3687Z" fill="#B59C93"/>
<path d="M64.1222 23.712V19.8419H64.7575V23.712H64.1222Z" fill="#B59C93"/>
<path d="M70.0389 23.712H69.258L67.3626 20.6228H67.3388C67.3459 20.7269 67.352 20.8372 67.3573 20.9537C67.3644 21.0702 67.3697 21.1902 67.3732 21.3137C67.3785 21.4372 67.3829 21.5625 67.3865 21.6896V23.712H66.8094V19.8419H67.585L69.4777 22.9099H69.4962C69.4927 22.8199 69.4883 22.7167 69.483 22.6002C69.4777 22.4837 69.4724 22.3637 69.4671 22.2402C69.4636 22.1149 69.461 21.994 69.4592 21.8775V19.8419H70.0389V23.712Z" fill="#B59C93"/>
<path d="M73.6473 21.6102H75.0927V23.5532C74.8897 23.6203 74.6797 23.6723 74.4626 23.7094C74.2456 23.7464 74.002 23.765 73.732 23.765C73.3385 23.765 73.0049 23.6873 72.7314 23.532C72.4596 23.375 72.2531 23.1482 72.112 22.8517C71.9708 22.5535 71.9002 22.1943 71.9002 21.7743C71.9002 21.3702 71.9787 21.0199 72.1358 20.7234C72.2929 20.4251 72.5214 20.1948 72.8214 20.0325C73.1214 19.8683 73.485 19.7863 73.912 19.7863C74.122 19.7863 74.325 19.8075 74.5209 19.8498C74.7185 19.8904 74.8994 19.9469 75.0635 20.0192L74.8412 20.5434C74.7106 20.4816 74.5641 20.4295 74.4018 20.3872C74.2394 20.3448 74.0709 20.3237 73.8961 20.3237C73.6191 20.3237 73.38 20.3837 73.1788 20.5037C72.9794 20.6237 72.8258 20.7931 72.7182 21.0119C72.6105 21.229 72.5567 21.4858 72.5567 21.7822C72.5567 22.0699 72.5999 22.3223 72.6864 22.5393C72.7729 22.7564 72.9079 22.9258 73.0914 23.0476C73.2767 23.1676 73.5158 23.2276 73.8088 23.2276C73.9553 23.2276 74.0797 23.2197 74.182 23.2038C74.2844 23.1879 74.3788 23.1702 74.4653 23.1508V22.1529H73.6473V21.6102Z" fill="#B59C93"/>
</svg>
