<svg aria-hidden="true" xmlns="http://www.w3.org/2000/svg" overflow="hidden">version="1.1" xmlns="http://www.w3.org/2000/svg" xmlns:xlink="http://www.w3.org/1999/xlink">
<defs>

<symbol id="burger-close">
<svg width="16" height="16" viewBox="0 0 16 16" fill="none" xmlns="http://www.w3.org/2000/svg">
<path d="M15.5304 1.53033C15.8232 1.23744 15.8232 0.762563 15.5304 0.46967C15.2375 0.176777 14.7626 0.176777 14.4697 0.46967L8.00001 6.93935L1.53033 0.469673C1.23744 0.17678 0.762563 0.17678 0.46967 0.469673C0.176777 0.762566 0.176777 1.23744 0.46967 1.53033L6.93935 8.00001L0.469697 14.4697C0.176804 14.7626 0.176804 15.2374 0.469697 15.5303C0.76259 15.8232 1.23746 15.8232 1.53036 15.5303L8.00001 9.06067L14.4697 15.5303C14.7626 15.8232 15.2374 15.8232 15.5303 15.5303C15.8232 15.2374 15.8232 14.7626 15.5303 14.4697L9.06067 8.00002L15.5304 1.53033Z" fill="#B59C93"/>
</svg>
</symbol>

<symbol id="header__burger">
<svg width="15" height="18" viewBox="0 0 15 18" fill="none" xmlns="http://www.w3.org/2000/svg">
<path d="M15 9.37199L15 11.8309L0.540466 11.8309L0.540466 9.37199L15 9.37199Z" fill="#B59C93"/>
<path d="M6.3521 4.01865L8.66562 4.01865L15 4.01865L15 6.4776L6.02159 6.4776C5.29173 6.4776 4.60318 6.36148 3.95595 6.12925C3.30871 5.89702 2.75099 5.5555 2.28277 5.10469C1.80079 4.65388 1.42209 4.10062 1.14667 3.4449C0.871247 2.78918 0.733537 2.03783 0.733537 1.19086C0.733537 1.04059 0.747309 0.890322 0.774851 0.740053C0.788622 0.589785 0.809278 0.439516 0.83682 0.289247L3.23297 0.289247C3.20543 0.425856 3.18477 0.555632 3.171 0.678579C3.14346 0.801527 3.12969 0.931305 3.12969 1.06791C3.12969 1.62801 3.20543 2.09931 3.35691 2.48181C3.50839 2.85065 3.71495 3.15119 3.9766 3.38342C4.22448 3.61566 4.52744 3.77959 4.88549 3.87521C5.22976 3.97084 5.60158 4.01865 6.00094 4.01865L6.3521 4.01865Z" fill="#B59C93"/>
<path d="M15 15.0186L15 17.4776L0.540466 17.4776L0.540466 15.0187L15 15.0186Z" fill="#B59C93"/>
</svg>
</symbol>

<symbol id="logo--burger">
<svg width="54" height="54" viewBox="0 0 54 54" fill="none" xmlns="http://www.w3.org/2000/svg">
<circle cx="27" cy="27" r="27" fill="#B59C93"/>
<circle cx="27" cy="26.9999" r="25.3469" stroke="white" stroke-width="1.10204"/>
<path fill-rule="evenodd" clip-rule="evenodd" d="M24.2348 23.743C24.2478 23.7336 24.2743 23.7149 24.3102 23.6893C24.4559 23.5845 24.6001 23.4941 24.7414 23.4209C24.8863 23.345 25.0367 23.2802 25.191 23.2309C25.8718 23.0111 26.5479 23.0861 27.162 23.524C27.3068 23.4013 27.481 23.2922 27.6674 23.2002C28.9842 22.8295 29.5419 23.4916 29.7621 23.674C29.1089 23.5709 28.1399 23.6612 27.6188 24.0873C27.5674 24.129 27.7013 24.2449 27.6564 24.2995C27.5822 24.3914 27.5831 24.5483 27.5069 24.6658C27.3059 24.481 27.2151 24.3463 26.9287 24.3054C26.7206 24.2755 26.4609 24.2586 26.3975 24.2193C26.1782 24.0865 26.1856 23.8172 25.8701 23.8035C25.2379 23.7745 24.8616 24.1128 24.2348 23.743Z" fill="white"/>
<path fill-rule="evenodd" clip-rule="evenodd" d="M22.0105 25.661C22.0196 25.6545 22.0382 25.6413 22.0634 25.6234C22.1657 25.55 22.2669 25.4866 22.366 25.4353C22.4677 25.3821 22.5733 25.3367 22.6816 25.3022C23.1595 25.1482 23.634 25.2007 24.065 25.5076C24.1666 25.4216 24.2889 25.3452 24.4197 25.2807C25.3439 25.0209 25.7354 25.4849 25.8899 25.6127C25.4314 25.5404 24.7513 25.6037 24.3856 25.9023C24.3495 25.9315 24.4435 26.0127 24.412 26.051C24.3599 26.1154 24.3605 26.2253 24.307 26.3077C24.166 26.1782 24.1023 26.0838 23.9013 26.0551C23.7552 26.0342 23.5729 26.0223 23.5284 25.9948C23.3745 25.9017 23.3797 25.713 23.1582 25.7035C22.7145 25.6831 22.4504 25.9201 22.0105 25.661Z" fill="white"/>
<path fill-rule="evenodd" clip-rule="evenodd" d="M45.5378 37.0127C45.1431 36.924 44.743 36.8737 44.3338 36.8737C42.5154 36.8737 40.9006 37.8358 39.2866 38.797C36.8595 40.0036 35.643 40.2558 33.6877 39.5622C33.1399 39.3697 32.5342 39.0995 31.8287 38.7569C27.6915 36.3241 26.0749 36.3523 21.9312 38.7748C20.874 39.2529 20.064 39.5929 19.3702 39.794C17.6 40.3103 16.5974 39.9303 14.1977 38.6897C12.5819 37.7676 11.0212 36.8763 9.48503 36.8737H9.481C9.08183 36.8737 8.68871 36.9326 8.29965 37.0349C7.5789 37.224 7.19364 36.5713 6.98891 35.8521C6.80818 35.2172 6.72003 34.5415 7.33492 34.1955C8.16893 33.7269 8.92262 33.3682 9.481 33.3682H9.48503C10.2966 33.369 11.556 34.0881 12.8571 34.8312C14.5802 35.8145 16.3704 36.8362 18.1922 36.8362H18.1972C19.1987 36.8354 20.1645 36.527 21.1104 36.0856C26.8071 33.4338 26.851 33.3246 32.5691 36.0412C33.5491 36.5064 34.5573 36.8362 35.621 36.8362C37.4385 36.8362 39.0542 35.8734 40.6673 34.9113C41.9601 34.1402 43.2567 33.3682 44.3337 33.3682C45.0697 33.3682 45.9064 33.7371 46.7763 34.2176C47.3351 34.527 47.0965 35.2292 46.759 35.9151C46.4608 36.5219 46.1314 37.1473 45.5378 37.0127ZM44.3706 40.1315C43.7449 40.941 43.054 41.7061 42.3079 42.4211C41.0041 43.6686 39.5718 44.5837 37.9606 45.4452C37.1293 45.8917 36.3274 46.224 35.621 46.224C34.519 46.224 33.1636 45.4265 31.8287 44.64C30.2212 43.6942 28.6311 42.7576 26.9106 42.7576H26.9062C25.1831 42.7576 23.5617 43.7043 21.9312 44.6579C20.5985 45.4366 19.2539 46.2223 18.1972 46.224H18.1923C17.4711 46.224 16.5873 45.861 15.6643 45.3839C13.9486 44.4943 12.5778 43.493 11.2121 42.1338C10.5615 41.4863 9.95738 40.7994 9.4026 40.0777C9.03976 39.6047 8.55112 39.2529 9.48109 39.2529H9.48512C9.53512 39.2529 9.58851 39.2571 9.64254 39.2614C10.4537 39.344 11.6377 40.0189 12.8572 40.7142C16.6499 42.7219 18.4675 43.1444 21.7527 41.5408C26.6952 39.1258 27.1704 39.2264 31.9727 41.4981C35.0411 42.9493 37.1753 42.6204 40.6673 40.7943C41.9601 40.0241 43.2558 39.2529 44.3338 39.2529C45.3194 39.2529 44.7742 39.6074 44.3706 40.1315ZM31.5141 48.0237C30.0239 48.3041 28.488 48.4899 26.9062 48.4899C25.4398 48.4899 24.0084 48.3441 22.6235 48.0868C21.6776 47.913 21.9312 47.4596 23.292 46.6646C24.6031 45.8985 25.9078 45.1359 26.9062 45.1359H26.9106C27.8906 45.1368 29.1669 45.8874 30.4579 46.6467C31.4975 47.2585 32.2498 47.8857 31.5141 48.0237Z" fill="white"/>
<path d="M37.4512 35.4823C39.6237 35.002 43.4514 33.1928 44.5635 33.393C45.6756 33.5931 44.5117 34.2575 44.5117 34.2575L39.9857 37.2835L32.7442 37.0674L27.6492 35.2662L20.2783 37.8839L11.7435 36.3709L8.0193 33.9933C8.20896 33.8332 8.61415 33.4842 9.33831 33.3689C10.709 33.1507 11.9246 34.6898 14.666 34.8099C17.4075 34.93 19.192 33.7532 27.1061 33.9933C30.2004 34.0872 34.7356 36.0827 37.4512 35.4823Z" fill="white"/>
<path fill-rule="evenodd" clip-rule="evenodd" d="M28.4999 20.9804C28.8569 21.0162 28.8622 21.0323 29.2074 21.0946C29.8075 21.202 29.9387 21.2446 30.1203 20.6924L34.4528 7.56341C34.8007 6.50805 34.2739 6.54086 33.3731 6.2801C32.1563 5.92773 30.8902 5.67209 29.5909 5.52507C28.7338 5.42884 28.7183 5.80329 28.6732 6.59323L27.9191 20.4947C27.9007 20.8355 27.9713 20.9267 28.4999 20.9804ZM32.2242 21.9722C32.5261 22.1018 32.8187 22.2415 33.1069 22.3898C33.65 22.6727 33.6868 22.4682 34.0702 21.9962L41.9006 12.3689C42.4675 11.6676 42.409 11.4622 41.719 10.8453C40.7242 9.95609 39.9911 9.43846 38.8636 8.76611C38.0415 8.27661 37.8525 8.28856 37.4818 9.09974L32.0646 20.8918C31.782 21.5061 31.582 21.697 32.2242 21.9722ZM35.3657 23.8947C35.6942 24.1699 35.886 24.3685 36.1825 24.6743C36.5274 25.0305 36.5843 25.0893 37.0239 24.8234L46.3664 19.2096C47.0223 18.8143 47.249 18.649 46.9563 17.9682C46.4524 16.7982 45.8313 15.6793 45.1083 14.627C44.5945 13.8788 44.3577 14.3919 43.7413 15.0054L35.5696 23.0971C35.2173 23.4473 34.9841 23.5759 35.3657 23.8947ZM37.9881 26.9614C38.1947 27.3091 38.3176 27.5452 38.4855 27.9133C38.6873 28.358 38.7203 28.4091 39.2323 28.2984L47.7271 26.4723C48.6362 26.278 48.4794 26.2073 48.4794 25.333C48.4794 24.3736 48.4041 23.4302 48.261 22.5057C48.1198 21.588 47.5977 21.8214 46.6993 22.2449L38.4342 26.1272C37.8507 26.4041 37.6771 26.4373 37.9881 26.9614ZM25.5005 20.9804C25.1444 21.0162 25.139 21.0323 24.7921 21.0946C24.192 21.202 24.0617 21.2446 23.8801 20.6924L19.5464 7.56341C19.2002 6.50805 19.7249 6.54086 20.6264 6.2801C21.8437 5.92773 23.1093 5.67209 24.4086 5.52507C25.2655 5.42884 25.2812 5.80329 25.3269 6.59323L26.0804 20.4947C26.0986 20.8355 26.0279 20.9267 25.5005 20.9804ZM21.7757 21.9722C21.4744 22.1018 21.1801 22.2415 20.8935 22.3898C20.3497 22.6727 20.3132 22.4682 19.9295 21.9962L12.0998 12.3689C11.5322 11.6676 11.591 11.4622 12.2814 10.8453C13.2755 9.95609 14.009 9.43846 15.1359 8.76611C15.9576 8.27661 16.1471 8.28856 16.5177 9.09974L21.9354 20.8918C22.2175 21.5061 22.4175 21.697 21.7757 21.9722ZM18.6335 23.8947C18.3046 24.1699 18.1133 24.3685 17.8175 24.6743C17.4715 25.0305 17.4154 25.0893 16.9757 24.8234L7.63318 19.2096C6.97748 18.8143 6.75053 18.649 7.04407 17.9682C7.54682 16.7982 8.16934 15.6793 8.89054 14.627C9.40496 13.8788 9.64199 14.3919 10.2587 15.0054L18.4308 23.0971C18.7822 23.4473 19.0152 23.5759 18.6335 23.8947ZM16.0107 26.9614C15.8048 27.3091 15.6817 27.5452 15.5144 27.9133C15.3119 28.358 15.2803 28.4091 14.7674 28.2984L6.27329 26.4723C5.3635 26.278 5.52048 26.2073 5.52048 25.333C5.52048 24.3736 5.59561 23.4302 5.738 22.5057C5.87928 21.588 6.40222 21.8214 7.30057 22.2449L15.5653 26.1272C16.1493 26.4041 16.3222 26.4373 16.0107 26.9614Z" fill="white"/>
<path fill-rule="evenodd" clip-rule="evenodd" d="M33.701 24.1947C33.701 24.1947 33.9356 25.1914 34.194 25.4247C34.194 25.4247 33.9237 25.2973 34.0293 25.5306C34.1351 25.7638 34.2877 26.517 34.757 26.8559C34.757 26.8559 34.3227 26.6968 34.4048 26.8349C34.4869 26.9725 33.9822 26.4953 34.088 26.7075C34.1934 26.9197 34.446 27.4513 34.7745 27.7163C34.7745 27.7163 34.4225 27.6742 34.6339 27.9285C34.8451 28.1828 35.2266 28.8055 35.4615 28.9752C35.6962 29.1451 35.0562 28.8312 35.1503 29.0748C35.2441 29.3187 34.6883 28.6983 34.7587 28.8678C34.829 29.0374 34.5341 28.8848 34.6397 29.065C34.7453 29.2454 34.1938 28.7854 34.2056 28.9551C34.2171 29.1248 34.8511 29.6096 35.1328 29.9595C35.1328 29.9595 34.6162 29.8957 35.0272 30.2245C35.438 30.5533 35.5085 31.0757 36.1307 31.3938C36.1307 31.3938 35.7197 31.1713 35.8255 31.4786C35.931 31.7864 35.4266 31.4152 35.4499 31.5529C35.4734 31.6906 35.2152 31.3197 35.2033 31.5211C35.1915 31.7226 34.7692 31.0757 34.7692 31.2982C34.7692 31.5211 34.5698 31.1713 34.5698 31.3517C34.5698 31.5317 35.0511 32.1581 35.6025 32.5611C36.1544 32.9641 34.8162 32.2454 35.5792 32.8666C36.3423 33.4882 36.5184 33.6718 36.9292 33.9265C37.34 34.1812 36.1191 33.7532 36.2016 34.0284C36.2837 34.3034 35.6498 33.9162 35.7203 34.0795C35.7906 34.2425 35.321 33.7737 35.3095 34.0284C35.2977 34.2831 34.8399 33.7637 34.8752 33.9365C34.9104 34.1098 34.6287 33.8346 34.617 34.0079C34.6052 34.1812 34.265 33.9056 34.3002 33.9876C34.3353 34.069 34.2883 35.078 34.6052 35.6281H33.7016H32.7979C33.1149 35.078 33.0679 34.069 33.1029 33.9876C33.1382 33.9058 32.7979 34.1812 32.7862 34.0079C32.7744 33.8346 32.4927 34.1098 32.528 33.9365C32.563 33.7636 32.1054 34.2831 32.0937 34.0284C32.0821 33.7737 31.6123 34.2425 31.6829 34.0795C31.7534 33.9162 31.1195 34.3036 31.2015 34.0284C31.2838 33.7534 30.0628 34.1812 30.474 33.9265C30.8846 33.6718 31.0609 33.4882 31.8239 32.8666C32.5867 32.2454 31.2488 32.9639 31.8004 32.5611C32.3521 32.1581 32.8334 31.5315 32.8334 31.3517C32.8334 31.1713 32.634 31.5211 32.634 31.2982C32.634 31.0757 32.2114 31.7226 32.1997 31.5211C32.1879 31.3197 31.9295 31.6908 31.953 31.5529C31.9763 31.4152 31.4719 31.7862 31.5775 31.4786C31.6833 31.1713 31.2723 31.3938 31.2723 31.3938C31.8944 31.0757 31.9648 30.5533 32.3756 30.2245C32.7866 29.8957 32.2702 29.9595 32.2702 29.9595C32.5519 29.6096 33.1858 29.1246 33.1974 28.9551C33.2091 28.7856 32.6575 29.2454 32.7633 29.065C32.8688 28.8848 32.5737 29.0372 32.6441 28.8678C32.7146 28.6981 32.1588 29.3187 32.2527 29.0748C32.3465 28.8312 31.7066 29.1451 31.9415 28.9752C32.1764 28.8055 32.5579 28.183 32.769 27.9285C32.9804 27.6742 32.6282 27.7163 32.6282 27.7163C32.9567 27.4513 33.2091 26.9195 33.3147 26.7075C33.4203 26.4953 32.9157 26.9725 32.9979 26.8349C33.08 26.6968 32.6457 26.8559 32.6457 26.8559C33.1153 26.5168 33.2677 25.7636 33.3737 25.5306C33.4793 25.2973 33.2091 25.4247 33.2091 25.4247C33.4663 25.1914 33.701 24.1947 33.701 24.1947Z" fill="white"/>
<path fill-rule="evenodd" clip-rule="evenodd" d="M38.275 31.1597C38.275 31.1597 38.3645 31.54 38.4631 31.6289C38.4631 31.6289 38.3599 31.5804 38.4004 31.6693C38.4408 31.7585 38.4989 32.0458 38.6781 32.175C38.6781 32.175 38.5125 32.1147 38.5437 32.1672C38.5752 32.2195 38.3826 32.0375 38.4228 32.1184C38.4631 32.1994 38.5594 32.4023 38.6847 32.5035C38.6847 32.5035 38.5503 32.4876 38.6309 32.5845C38.7116 32.6815 38.8571 32.9192 38.9466 32.9839C39.0364 33.0486 38.7922 32.9288 38.8281 33.022C38.8637 33.1149 38.652 32.878 38.6788 32.9427C38.7054 33.0075 38.593 32.9494 38.6332 33.018C38.6734 33.0869 38.4628 32.9113 38.4674 32.9761C38.4719 33.0408 38.7138 33.226 38.8215 33.3592C38.8215 33.3592 38.6243 33.3351 38.781 33.4607C38.938 33.586 38.9646 33.7855 39.2022 33.9069C39.2022 33.9069 39.0452 33.8217 39.0858 33.9391C39.1261 34.0565 38.9334 33.915 38.9425 33.9676C38.9514 34.0203 38.853 33.8784 38.8485 33.9554C38.8442 34.0324 38.6829 33.7855 38.6829 33.8702C38.6829 33.9554 38.6068 33.8217 38.6068 33.8905C38.6068 33.9594 38.7903 34.1982 39.0009 34.3522C39.2114 34.5057 38.7008 34.2315 38.9918 34.4688C39.283 34.706 39.3502 34.7757 39.507 34.873C39.6639 34.9705 39.198 34.8071 39.2292 34.9119C39.2605 35.017 39.0186 34.8694 39.0456 34.9316C39.0724 34.9939 38.8932 34.815 38.8887 34.9119C38.8844 35.0092 38.7097 34.8108 38.7231 34.877C38.7367 34.9429 38.6293 34.8382 38.6247 34.904C38.6202 34.9703 38.4903 34.8652 38.5037 34.8962C38.5173 34.9272 38.4993 35.3123 38.6202 35.5222H38.2756H37.9308C38.0518 35.3123 38.0337 34.9272 38.0473 34.8962C38.0607 34.8652 37.9308 34.9703 37.9263 34.904C37.9219 34.8382 37.8145 34.9429 37.8279 34.877C37.8413 34.8108 37.6666 35.0092 37.6623 34.9119C37.6578 34.815 37.4788 34.9937 37.5054 34.9316C37.5322 34.8694 37.2905 35.017 37.3218 34.9119C37.3532 34.8071 36.8875 34.9703 37.044 34.873C37.2008 34.7757 37.268 34.706 37.5592 34.4688C37.8502 34.2315 37.3398 34.5057 37.5503 34.3522C37.7609 34.1982 37.9444 33.9594 37.9444 33.8905C37.9444 33.8215 37.8683 33.9552 37.8683 33.8702C37.8683 33.7853 37.7072 34.0324 37.7027 33.9554C37.6984 33.8784 37.5996 34.0201 37.6087 33.9676C37.6177 33.915 37.4251 34.0565 37.4653 33.9391C37.5058 33.8217 37.349 33.9069 37.349 33.9069C37.5864 33.7855 37.6134 33.586 37.7701 33.4607C37.9271 33.3353 37.7299 33.3592 37.7299 33.3592C37.8374 33.226 38.0795 33.0408 38.0838 32.9761C38.0881 32.9113 37.8778 33.0868 37.9182 33.018C37.9584 32.9494 37.8458 33.0077 37.8728 32.9427C37.8994 32.878 37.6877 33.1149 37.7233 33.022C37.7592 32.9288 37.5153 33.0486 37.6048 32.9839C37.6943 32.9192 37.8398 32.6814 37.9205 32.5845C38.0011 32.4876 37.8667 32.5035 37.8667 32.5035C37.992 32.4023 38.0883 32.1996 38.1288 32.1184C38.169 32.0375 37.9766 32.2195 38.0077 32.1672C38.0391 32.1145 37.8735 32.175 37.8735 32.175C38.0527 32.0458 38.1108 31.7585 38.1512 31.6693C38.1915 31.5804 38.0883 31.6289 38.0883 31.6289C38.1853 31.54 38.275 31.1597 38.275 31.1597Z" fill="white"/>
<path fill-rule="evenodd" clip-rule="evenodd" d="M15.5196 31.3513C15.5196 31.3513 15.5911 31.6571 15.6697 31.7285C15.6697 31.7285 15.5872 31.6896 15.6197 31.7612C15.6519 31.8325 15.6983 32.0635 15.8413 32.1676C15.8413 32.1676 15.7092 32.1189 15.7341 32.161C15.7591 32.2031 15.6053 32.0569 15.6377 32.1217C15.6699 32.1869 15.7467 32.3501 15.8468 32.4311C15.8468 32.4311 15.7396 32.4183 15.8038 32.4963C15.868 32.5743 15.9843 32.7654 16.0558 32.8173C16.1271 32.8694 15.9322 32.7731 15.9608 32.8479C15.9896 32.9227 15.8203 32.7322 15.8418 32.7842C15.8632 32.8363 15.7732 32.7895 15.8054 32.8444C15.8376 32.8998 15.6699 32.759 15.6734 32.8109C15.677 32.863 15.8699 33.0118 15.9558 33.1186C15.9558 33.1186 15.7986 33.0992 15.9236 33.2001C16.0488 33.3009 16.0702 33.4612 16.2596 33.5587C16.2596 33.5587 16.1344 33.4905 16.1666 33.5847C16.1989 33.679 16.0451 33.5653 16.0522 33.6074C16.0595 33.6499 15.9809 33.536 15.977 33.598C15.9736 33.6595 15.845 33.4612 15.845 33.5294C15.845 33.598 15.7842 33.4905 15.7842 33.546C15.7842 33.601 15.9306 33.7931 16.0988 33.917C16.2667 34.0406 15.8594 33.82 16.0917 34.0104C16.3238 34.2013 16.3775 34.2575 16.5025 34.3357C16.6275 34.4137 16.256 34.2823 16.2809 34.3671C16.3058 34.4513 16.1127 34.3325 16.1344 34.3827C16.1557 34.4327 16.0127 34.2889 16.0092 34.3671C16.0058 34.4451 15.8664 34.2857 15.8769 34.3391C15.8877 34.3919 15.802 34.3077 15.7984 34.3609C15.7949 34.4139 15.6912 34.3295 15.7022 34.3543C15.7127 34.3795 15.6983 34.689 15.7949 34.8576H15.5196H15.2445C15.3412 34.689 15.327 34.3795 15.3375 34.3543C15.3483 34.3295 15.2445 34.4139 15.2409 34.3609C15.2375 34.3075 15.1518 34.3919 15.1623 34.3391C15.173 34.2857 15.0337 34.4453 15.0302 34.3671C15.0268 34.2891 14.8835 34.4327 14.9053 34.3827C14.9265 34.3323 14.7334 34.4513 14.7586 34.3671C14.7835 34.2825 14.4118 34.4137 14.5367 34.3357C14.6619 34.2577 14.7156 34.2015 14.948 34.0104C15.1801 33.82 14.7727 34.0406 14.9409 33.917C15.1088 33.7931 15.2553 33.601 15.2553 33.546C15.2553 33.4907 15.1945 33.598 15.1945 33.5294C15.1945 33.4612 15.0659 33.6595 15.0624 33.598C15.059 33.536 14.98 33.6501 14.9873 33.6074C14.9944 33.5653 14.8406 33.679 14.8728 33.5847C14.905 33.4905 14.7798 33.5587 14.7798 33.5587C14.9692 33.4612 14.9907 33.3009 15.1157 33.2001C15.2409 33.0992 15.0837 33.1186 15.0837 33.1186C15.1694 33.0116 15.3624 32.8628 15.3659 32.8109C15.3693 32.7587 15.2016 32.8998 15.2336 32.8444C15.2658 32.7895 15.176 32.8361 15.1975 32.7842C15.2189 32.732 15.0496 32.9227 15.0782 32.8479C15.107 32.7731 14.9121 32.8694 14.9836 32.8173C15.0549 32.7652 15.1712 32.5743 15.2354 32.4963C15.2998 32.4183 15.1924 32.4311 15.1924 32.4311C15.2925 32.3501 15.3693 32.1869 15.4017 32.1217C15.4337 32.0567 15.2799 32.2031 15.3053 32.161C15.3302 32.1189 15.1979 32.1676 15.1979 32.1676C15.3412 32.0635 15.3873 31.8325 15.4198 31.7612C15.452 31.6896 15.3695 31.7285 15.3695 31.7285C15.4483 31.6569 15.5196 31.3513 15.5196 31.3513Z" fill="white"/>
<path d="M17.5618 30.7126C17.5919 30.5174 17.6145 30.321 17.653 30.1271C17.7575 29.6025 17.9492 29.1099 18.2852 28.6695C18.5895 28.2704 18.994 27.9958 19.4765 27.8125C20.1273 27.5651 20.8101 27.4444 21.5049 27.3688C22.3305 27.279 23.1592 27.2565 23.9889 27.2738C24.9047 27.2927 25.8185 27.3437 26.7101 27.5616C27.1436 27.6674 27.5606 27.8108 27.9142 28.0799C28.18 28.2822 28.3569 28.5388 28.4647 28.8393C28.6697 29.4114 28.8015 29.9997 28.9103 30.5923C28.9768 30.9552 29.0334 31.32 29.0816 31.6855C29.1152 31.9428 29.0925 32.2004 29.0117 32.4497C28.8583 32.9241 28.5037 33.1913 27.9868 33.2766C27.825 33.3031 27.6585 33.3137 27.4941 33.3142C26.5597 33.3177 25.6253 33.314 24.6906 33.3182C24.5731 33.3187 24.5366 33.2802 24.5221 33.1786C24.45 32.6739 23.9985 32.284 23.4281 32.225C22.9214 32.1727 22.3836 32.4849 22.2031 32.939C22.1723 33.0165 22.1427 33.0978 22.1335 33.1791C22.1218 33.2823 22.0802 33.3187 21.9635 33.3177C21.1715 33.313 20.3796 33.3154 19.5879 33.3154C19.3664 33.3154 19.1441 33.3036 18.9239 33.3177C18.4682 33.3473 18.1812 33.1287 17.9747 32.7864C17.7303 32.3811 17.6329 31.9365 17.585 31.48C17.5806 31.4393 17.5699 31.3994 17.5623 31.359C17.5618 31.1442 17.5618 30.9283 17.5618 30.7126ZM25.2597 30.4626C25.2597 31.0469 25.2595 31.6312 25.26 32.2155C25.2603 32.3663 25.3041 32.4067 25.4675 32.4069C25.9365 32.4074 26.4055 32.4076 26.8745 32.4069C27.0317 32.4067 27.0809 32.3613 27.0809 32.2117C27.0814 31.0464 27.0814 29.8813 27.0809 28.7162C27.0809 28.5627 27.0315 28.5194 26.8643 28.5194C26.4065 28.519 25.9487 28.5192 25.4912 28.5194C25.2972 28.5194 25.26 28.5534 25.2597 28.7311C25.2595 29.3076 25.2597 29.8849 25.2597 30.4626ZM20.8338 28.5164C20.4928 28.5164 20.1512 28.5159 19.8102 28.5166C19.6588 28.5168 19.6249 28.5478 19.6246 28.6886C19.6233 29.0083 19.6233 29.3282 19.6246 29.6484C19.6251 29.7944 19.658 29.8249 19.8186 29.8249C20.4935 29.8256 21.1687 29.8256 21.8437 29.8249C22.0002 29.8246 22.0361 29.7904 22.0366 29.646C22.0374 29.3299 22.0374 29.0132 22.0366 28.6971C22.0364 28.548 22.0012 28.5171 21.8355 28.5168C21.5014 28.5161 21.1677 28.5164 20.8338 28.5164ZM24.5947 29.1782C24.5947 29.008 24.5965 28.8377 24.5942 28.6676C24.5927 28.5542 24.554 28.5197 24.4301 28.5192C24.0666 28.518 23.7029 28.518 23.3394 28.5192C23.2145 28.5194 23.1724 28.5589 23.1719 28.677C23.1704 29.0104 23.1704 29.3438 23.1719 29.6777C23.1724 29.7965 23.2142 29.8364 23.3384 29.8367C23.7019 29.8379 24.0656 29.8379 24.4291 29.8367C24.556 29.8364 24.5932 29.8003 24.5942 29.6786C24.5963 29.5116 24.595 29.3447 24.5947 29.1782Z" fill="white"/>
<path d="M23.3036 32.6006C23.7566 32.6001 24.1263 32.9412 24.1317 33.3647C24.137 33.7829 23.7507 34.1416 23.299 34.1375C22.8481 34.1335 22.473 33.7815 22.4765 33.3658C22.4804 32.9433 22.8501 32.601 23.3036 32.6006Z" fill="white"/>
</svg>
</symbol>

<symbol id="logo-small">
<svg width="76" height="34" viewBox="0 0 76 34" fill="none" xmlns="http://www.w3.org/2000/svg">
<path d="M0 15.5471C0 7.06981 6.87216 0.197632 15.3494 0.197632C23.8267 0.197632 30.6988 7.0698 30.6988 15.547V18.1739C30.6988 26.6512 23.8267 33.5233 15.3494 33.5233C6.87216 33.5233 0 26.6512 0 18.1739V15.5471Z" fill="#B59C93"/>
<path d="M1.15334 15.1321C1.15334 7.29182 7.50915 0.935995 15.3495 0.935995C23.1897 0.935995 29.5456 7.29181 29.5456 15.1321V18.5875C29.5456 26.4277 23.1897 32.7836 15.3495 32.7836C7.50915 32.7836 1.15334 26.4278 1.15334 18.5875V15.1321Z" stroke="white" stroke-width="0.601115"/>
<path fill-rule="evenodd" clip-rule="evenodd" d="M13.8383 14.3162C13.8449 14.311 13.8584 14.3007 13.8768 14.2866C13.9513 14.2289 14.0251 14.1791 14.0973 14.1388C14.1714 14.097 14.2484 14.0613 14.3273 14.0341C14.6755 13.9131 15.0213 13.9543 15.3353 14.1956C15.4094 14.128 15.4985 14.0679 15.5939 14.0172C16.2673 13.813 16.5526 14.1777 16.6652 14.2782C16.3311 14.2214 15.8355 14.2711 15.569 14.5058C15.5427 14.5288 15.6112 14.5926 15.5883 14.6227C15.5503 14.6733 15.5507 14.7597 15.5117 14.8245C15.409 14.7226 15.3625 14.6485 15.2161 14.626C15.1096 14.6095 14.9768 14.6002 14.9444 14.5785C14.8322 14.5054 14.836 14.357 14.6746 14.3495C14.3513 14.3336 14.1588 14.5198 13.8383 14.3162Z" fill="white"/>
<path fill-rule="evenodd" clip-rule="evenodd" d="M12.7007 15.3725C12.7053 15.3689 12.7148 15.3617 12.7277 15.3518C12.78 15.3114 12.8318 15.2765 12.8825 15.2482C12.9345 15.2189 12.9885 15.1939 13.0439 15.1749C13.2883 15.0901 13.531 15.119 13.7514 15.288C13.8034 15.2407 13.866 15.1986 13.9329 15.163C14.4056 15.02 14.6058 15.2755 14.6848 15.3459C14.4503 15.3061 14.1025 15.341 13.9154 15.5054C13.897 15.5215 13.945 15.5663 13.9289 15.5873C13.9023 15.6228 13.9026 15.6833 13.8752 15.7287C13.8031 15.6574 13.7705 15.6054 13.6677 15.5896C13.593 15.5781 13.4998 15.5715 13.477 15.5564C13.3983 15.5051 13.401 15.4012 13.2877 15.3959C13.0608 15.3847 12.9257 15.5153 12.7007 15.3725Z" fill="white"/>
<path fill-rule="evenodd" clip-rule="evenodd" d="M24.7336 21.6245C24.5318 21.5757 24.3271 21.548 24.1178 21.548C23.1878 21.548 22.3619 22.0779 21.5364 22.6073C20.2951 23.2719 19.6729 23.4108 18.6729 23.0288C18.3927 22.9227 18.0829 22.7739 17.7221 22.5852C15.6061 21.2453 14.7793 21.2608 12.66 22.5951C12.1193 22.8584 11.705 23.0457 11.3502 23.1564C10.4448 23.4408 9.93198 23.2315 8.70464 22.5482C7.87827 22.0403 7.08002 21.5494 6.29435 21.548H6.29229C6.08814 21.548 5.88707 21.5804 5.68809 21.6367C5.31946 21.7409 5.12242 21.3814 5.0177 20.9853C4.92527 20.6356 4.88018 20.2635 5.19467 20.0729C5.62123 19.8148 6.0067 19.6172 6.29229 19.6172H6.29435C6.70943 19.6177 7.35355 20.0137 8.019 20.423C8.90031 20.9646 9.81591 21.5273 10.7477 21.5273H10.7502C11.2624 21.5269 11.7564 21.357 12.2402 21.1139C15.1537 19.6533 15.1762 19.5932 18.1008 21.0895C18.602 21.3457 19.1177 21.5273 19.6616 21.5273C20.5912 21.5273 21.4176 20.997 22.2426 20.4671C22.9038 20.0424 23.567 19.6172 24.1178 19.6172C24.4942 19.6172 24.9222 19.8204 25.367 20.0851C25.6529 20.2555 25.5308 20.6422 25.3582 21.02C25.2057 21.3542 25.0372 21.6987 24.7336 21.6245ZM24.1367 23.3423C23.8167 23.7882 23.4633 24.2096 23.0817 24.6034C22.4149 25.2905 21.6823 25.7946 20.8583 26.269C20.4331 26.515 20.0229 26.698 19.6617 26.698C19.0981 26.698 18.4048 26.2587 17.7221 25.8255C16.8999 25.3046 16.0867 24.7887 15.2067 24.7887H15.2044C14.3231 24.7887 13.4939 25.3102 12.66 25.8354C11.9784 26.2643 11.2907 26.6971 10.7502 26.698H10.7477C10.3789 26.698 9.92685 26.498 9.45477 26.2353C8.57726 25.7453 7.87614 25.1938 7.17765 24.4452C6.84493 24.0885 6.53594 23.7102 6.25219 23.3127C6.06662 23.0522 5.8167 22.8584 6.29234 22.8584H6.2944C6.31997 22.8584 6.34728 22.8607 6.37491 22.8631C6.78976 22.9086 7.39533 23.2803 8.01903 23.6633C9.95884 24.7691 10.8884 25.0018 12.5687 24.1186C15.0965 22.7884 15.3396 22.8438 17.7957 24.0951C19.3651 24.8943 20.4566 24.7132 22.2426 23.7074C22.9038 23.2832 23.5665 22.8584 24.1178 22.8584C24.6219 22.8584 24.3431 23.0536 24.1367 23.3423ZM17.5612 27.6892C16.799 27.8437 16.0135 27.946 15.2044 27.946C14.4545 27.946 13.7224 27.8657 13.014 27.724C12.5303 27.6282 12.66 27.3785 13.3559 26.9406C14.0266 26.5187 14.6938 26.0987 15.2044 26.0987H15.2067C15.708 26.0992 16.3607 26.5126 17.021 26.9308C17.5527 27.2678 17.9375 27.6133 17.5612 27.6892Z" fill="white"/>
<path d="M20.597 20.782C21.7081 20.5174 23.6658 19.521 24.2346 19.6312C24.8034 19.7414 24.2082 20.1074 24.2082 20.1074L21.8933 21.7741L18.1896 21.655L15.5838 20.663L11.8139 22.1048L7.44878 21.2714L5.54401 19.9619C5.64101 19.8737 5.84824 19.6815 6.21861 19.618C6.91968 19.4978 7.54137 20.3455 8.9435 20.4116C10.3456 20.4778 11.2583 19.8296 15.306 19.9619C16.8886 20.0136 19.2081 21.1127 20.597 20.782Z" fill="white"/>
<path fill-rule="evenodd" clip-rule="evenodd" d="M16.0197 12.7943C16.2023 12.814 16.205 12.8229 16.3815 12.8572C16.6885 12.9163 16.7556 12.9398 16.8485 12.6356L19.0643 5.40441C19.2422 4.82313 18.9728 4.8412 18.5121 4.69758C17.8898 4.5035 17.2422 4.36269 16.5777 4.28172C16.1393 4.22872 16.1314 4.43496 16.1083 4.87005L15.7226 12.5268C15.7132 12.7145 15.7494 12.7647 16.0197 12.7943ZM17.9245 13.3406C18.0789 13.4119 18.2286 13.4889 18.3759 13.5705C18.6537 13.7264 18.6725 13.6137 18.8687 13.3538L22.8735 8.05121C23.1635 7.66493 23.1335 7.55183 22.7806 7.21201C22.2718 6.72226 21.8969 6.43715 21.3202 6.06684C20.8998 5.79722 20.8031 5.80381 20.6135 6.2506L17.8429 12.7455C17.6984 13.0838 17.596 13.189 17.9245 13.3406ZM19.5312 14.3994C19.6993 14.551 19.7973 14.6604 19.949 14.8288C20.1254 15.025 20.1545 15.0574 20.3793 14.9109L25.1575 11.819C25.493 11.6012 25.609 11.5102 25.4593 11.1352C25.2016 10.4908 24.8839 9.87453 24.5141 9.29491C24.2513 8.88283 24.1302 9.16541 23.8149 9.50334L19.6355 13.9601C19.4553 14.153 19.336 14.2239 19.5312 14.3994ZM20.8725 16.0885C20.9781 16.28 21.041 16.4101 21.1269 16.6128C21.2301 16.8578 21.247 16.8859 21.5088 16.8249L25.8535 15.8191C26.3184 15.7121 26.2383 15.6732 26.2383 15.1916C26.2383 14.6632 26.1998 14.1436 26.1266 13.6344C26.0543 13.1289 25.7873 13.2575 25.3279 13.4908L21.1006 15.6291C20.8022 15.7816 20.7134 15.7999 20.8725 16.0885ZM14.4857 12.7943C14.3035 12.814 14.3008 12.8229 14.1234 12.8572C13.8164 12.9163 13.7498 12.9398 13.6569 12.6356L11.4404 5.40441C11.2633 4.82313 11.5317 4.8412 11.9928 4.69758C12.6153 4.5035 13.2627 4.36269 13.9272 4.28172C14.3655 4.22872 14.3735 4.43496 14.3969 4.87005L14.7822 12.5268C14.7915 12.7145 14.7554 12.7647 14.4857 12.7943ZM12.5806 13.3406C12.4265 13.4119 12.276 13.4889 12.1294 13.5705C11.8513 13.7264 11.8326 13.6137 11.6363 13.3538L7.63182 8.05121C7.34154 7.66493 7.37158 7.55183 7.72472 7.21201C8.23316 6.72226 8.60832 6.43715 9.18466 6.06684C9.6049 5.79722 9.70181 5.80381 9.89139 6.2506L12.6623 12.7455C12.8066 13.0838 12.9089 13.189 12.5806 13.3406ZM10.9735 14.3994C10.8053 14.551 10.7074 14.6604 10.5562 14.8288C10.3792 15.025 10.3505 15.0574 10.1256 14.9109L5.34737 11.819C5.01201 11.6012 4.89593 11.5102 5.04606 11.1352C5.3032 10.4908 5.62159 9.87453 5.99044 9.29491C6.25355 8.88283 6.37478 9.16541 6.6902 9.50334L10.8699 13.9601C11.0496 14.153 11.1687 14.2239 10.9735 14.3994ZM9.63207 16.0885C9.52678 16.28 9.46381 16.4101 9.37825 16.6128C9.27468 16.8578 9.25851 16.8859 8.9962 16.8249L4.65185 15.8191C4.18653 15.7121 4.26682 15.6732 4.26682 15.1916C4.26682 14.6632 4.30524 14.1436 4.37807 13.6344C4.45033 13.1289 4.71779 13.2575 5.17725 13.4908L9.40427 15.6291C9.70295 15.7816 9.79137 15.7999 9.63207 16.0885Z" fill="white"/>
<path fill-rule="evenodd" clip-rule="evenodd" d="M18.6806 14.5651C18.6806 14.5651 18.8006 15.1141 18.9328 15.2426C18.9328 15.2426 18.7945 15.1724 18.8485 15.3009C18.9026 15.4294 18.9807 15.8442 19.2207 16.0309C19.2207 16.0309 18.9986 15.9432 19.0406 16.0193C19.0826 16.0951 18.8245 15.8323 18.8786 15.9491C18.9325 16.066 19.0617 16.3588 19.2297 16.5048C19.2297 16.5048 19.0497 16.4816 19.1578 16.6216C19.2658 16.7617 19.4609 17.1047 19.581 17.1982C19.7011 17.2917 19.3738 17.1188 19.4219 17.253C19.4699 17.3874 19.1856 17.0456 19.2216 17.139C19.2575 17.2324 19.1067 17.1484 19.1607 17.2476C19.2147 17.347 18.9327 17.0936 18.9387 17.1871C18.9446 17.2805 19.2688 17.5476 19.4129 17.7403C19.4129 17.7403 19.1487 17.7052 19.3589 17.8863C19.569 18.0674 19.6051 18.3551 19.9233 18.5303C19.9233 18.5303 19.7131 18.4077 19.7672 18.577C19.8212 18.7465 19.5632 18.5421 19.5751 18.6179C19.5871 18.6938 19.4551 18.4895 19.449 18.6004C19.443 18.7114 19.227 18.3551 19.227 18.4776C19.227 18.6004 19.125 18.4077 19.125 18.5071C19.125 18.6062 19.3711 18.9512 19.6532 19.1732C19.9354 19.3952 19.251 18.9993 19.6413 19.3415C20.0315 19.6838 20.1216 19.785 20.3317 19.9253C20.5418 20.0655 19.9174 19.8298 19.9596 19.9814C20.0015 20.1328 19.6773 19.9196 19.7134 20.0095C19.7494 20.0993 19.5092 19.8411 19.5033 19.9814C19.4973 20.1217 19.2631 19.8356 19.2812 19.9307C19.2992 20.0262 19.1551 19.8746 19.1491 19.9701C19.1431 20.0655 18.9691 19.9138 18.9871 19.9589C19.005 20.0037 18.981 20.5595 19.1431 20.8625H18.6809H18.2187C18.3808 20.5595 18.3568 20.0037 18.3747 19.9589C18.3928 19.9139 18.2187 20.0655 18.2127 19.9701C18.2067 19.8746 18.0626 20.0262 18.0807 19.9307C18.0986 19.8355 17.8646 20.1217 17.8585 19.9814C17.8526 19.8411 17.6124 20.0993 17.6484 20.0095C17.6845 19.9196 17.3603 20.1329 17.4023 19.9814C17.4444 19.8299 16.8198 20.0655 17.0302 19.9253C17.2402 19.785 17.3303 19.6838 17.7206 19.3415C18.1107 18.9993 17.4264 19.395 17.7086 19.1732C17.9907 18.9512 18.2369 18.6061 18.2369 18.5071C18.2369 18.4077 18.1349 18.6004 18.1349 18.4776C18.1349 18.3551 17.9188 18.7114 17.9128 18.6004C17.9067 18.4895 17.7746 18.6939 17.7866 18.6179C17.7985 18.5421 17.5405 18.7464 17.5945 18.577C17.6487 18.4077 17.4384 18.5303 17.4384 18.5303C17.7567 18.3551 17.7926 18.0674 18.0027 17.8863C18.2129 17.7052 17.9488 17.7403 17.9488 17.7403C18.0929 17.5476 18.4171 17.2804 18.423 17.1871C18.4291 17.0937 18.1469 17.347 18.201 17.2476C18.255 17.1484 18.1041 17.2323 18.1401 17.139C18.1761 17.0455 17.8919 17.3874 17.9399 17.253C17.9879 17.1188 17.6606 17.2917 17.7807 17.1982C17.9008 17.1047 18.096 16.7618 18.204 16.6216C18.3121 16.4816 18.1319 16.5048 18.1319 16.5048C18.3 16.3588 18.4291 16.0659 18.4831 15.9491C18.5371 15.8323 18.279 16.0951 18.321 16.0193C18.363 15.9432 18.1409 16.0309 18.1409 16.0309C18.3811 15.8441 18.459 15.4293 18.5132 15.3009C18.5672 15.1724 18.4291 15.2426 18.4291 15.2426C18.5606 15.1141 18.6806 14.5651 18.6806 14.5651Z" fill="white"/>
<path fill-rule="evenodd" clip-rule="evenodd" d="M21.0205 18.4012C21.0205 18.4012 21.0663 18.6107 21.1167 18.6597C21.1167 18.6597 21.064 18.633 21.0846 18.6819C21.1053 18.7311 21.1351 18.8893 21.2267 18.9605C21.2267 18.9605 21.142 18.9272 21.1579 18.9561C21.1741 18.9849 21.0756 18.8847 21.0961 18.9292C21.1167 18.9739 21.166 19.0857 21.2301 19.1413C21.2301 19.1413 21.1613 19.1326 21.2026 19.186C21.2438 19.2394 21.3183 19.3703 21.364 19.406C21.4099 19.4416 21.285 19.3756 21.3034 19.427C21.3216 19.4781 21.2133 19.3477 21.227 19.3833C21.2406 19.419 21.1832 19.387 21.2037 19.4248C21.2243 19.4627 21.1166 19.366 21.1189 19.4017C21.1212 19.4373 21.245 19.5393 21.3 19.6127C21.3 19.6127 21.1992 19.5994 21.2793 19.6686C21.3596 19.7376 21.3732 19.8475 21.4947 19.9144C21.4947 19.9144 21.4145 19.8674 21.4352 19.9321C21.4558 19.9967 21.3573 19.9188 21.3619 19.9478C21.3665 19.9768 21.3162 19.8986 21.3138 19.941C21.3116 19.9834 21.2291 19.8475 21.2291 19.8941C21.2291 19.941 21.1902 19.8674 21.1902 19.9053C21.1902 19.9433 21.2841 20.0748 21.3918 20.1596C21.4995 20.2442 21.2383 20.0931 21.3871 20.2238C21.5361 20.3545 21.5705 20.3929 21.6506 20.4465C21.7309 20.5002 21.4926 20.4102 21.5085 20.4679C21.5246 20.5258 21.4009 20.4445 21.4147 20.4787C21.4284 20.513 21.3367 20.4145 21.3344 20.4679C21.3322 20.5215 21.2429 20.4122 21.2497 20.4487C21.2567 20.485 21.2017 20.4273 21.1994 20.4636C21.1971 20.5001 21.1306 20.4421 21.1375 20.4592C21.1444 20.4763 21.1353 20.6884 21.1971 20.804H21.0208H20.8445C20.9064 20.6884 20.8971 20.4763 20.9041 20.4592C20.9109 20.4421 20.8445 20.5001 20.8422 20.4636C20.8399 20.4273 20.785 20.485 20.7919 20.4487C20.7987 20.4122 20.7094 20.5215 20.7072 20.4679C20.7048 20.4145 20.6133 20.5129 20.6269 20.4787C20.6406 20.4445 20.517 20.5258 20.533 20.4679C20.5491 20.4102 20.3109 20.5001 20.3909 20.4465C20.4711 20.3929 20.5055 20.3545 20.6544 20.2238C20.8032 20.0931 20.5422 20.2442 20.6499 20.1596C20.7576 20.0748 20.8514 19.9433 20.8514 19.9053C20.8514 19.8673 20.8125 19.9409 20.8125 19.8941C20.8125 19.8474 20.7301 19.9834 20.7278 19.941C20.7256 19.8986 20.6751 19.9767 20.6797 19.9478C20.6844 19.9188 20.5859 19.9967 20.6064 19.9321C20.6271 19.8674 20.5469 19.9144 20.5469 19.9144C20.6683 19.8475 20.6822 19.7376 20.7623 19.6686C20.8426 19.5995 20.7418 19.6127 20.7418 19.6127C20.7967 19.5393 20.9205 19.4373 20.9227 19.4017C20.925 19.366 20.8174 19.4626 20.838 19.4248C20.8586 19.387 20.801 19.4191 20.8148 19.3833C20.8285 19.3477 20.7201 19.4781 20.7384 19.427C20.7567 19.3756 20.632 19.4416 20.6777 19.406C20.7235 19.3703 20.798 19.2393 20.8392 19.186C20.8804 19.1326 20.8117 19.1413 20.8117 19.1413C20.8758 19.0857 20.9251 18.974 20.9457 18.9292C20.9663 18.8847 20.8679 18.9849 20.8838 18.9561C20.8999 18.9271 20.8152 18.9605 20.8152 18.9605C20.9068 18.8893 20.9366 18.7311 20.9572 18.6819C20.9778 18.633 20.9251 18.6597 20.9251 18.6597C20.9746 18.6107 21.0205 18.4012 21.0205 18.4012Z" fill="white"/>
<path fill-rule="evenodd" clip-rule="evenodd" d="M9.3816 18.507C9.3816 18.507 9.41817 18.6754 9.45837 18.7147C9.45837 18.7147 9.41618 18.6933 9.43278 18.7328C9.44925 18.7721 9.47297 18.8993 9.54612 18.9566C9.54612 18.9566 9.47858 18.9298 9.49132 18.953C9.50406 18.9762 9.42542 18.8957 9.44201 18.9313C9.45848 18.9672 9.49775 19.0572 9.54893 19.1018C9.54893 19.1018 9.49412 19.0947 9.52696 19.1377C9.5598 19.1806 9.61927 19.2859 9.65585 19.3145C9.69231 19.3432 9.59263 19.2901 9.60724 19.3313C9.62196 19.3725 9.53537 19.2676 9.54636 19.2962C9.55734 19.3249 9.5113 19.2992 9.52778 19.3294C9.54425 19.3599 9.45848 19.2823 9.46024 19.3109C9.46211 19.3397 9.56073 19.4216 9.60467 19.4804C9.60467 19.4804 9.52427 19.4697 9.58819 19.5253C9.65223 19.5808 9.66321 19.6691 9.76008 19.7228C9.76008 19.7228 9.69605 19.6852 9.71252 19.7372C9.729 19.7891 9.65036 19.7264 9.65398 19.7496C9.65772 19.7731 9.61752 19.7103 9.61553 19.7444C9.61378 19.7783 9.54799 19.6691 9.54799 19.7067C9.54799 19.7444 9.51691 19.6852 9.51691 19.7158C9.51691 19.7461 9.59181 19.8519 9.67782 19.9202C9.7637 19.9882 9.55536 19.8667 9.67419 19.9716C9.79292 20.0767 9.82038 20.1077 9.8843 20.1508C9.94821 20.1937 9.75821 20.1213 9.77095 20.1681C9.78369 20.2145 9.68494 20.149 9.69605 20.1767C9.70691 20.2042 9.63376 20.125 9.63201 20.1681C9.63026 20.211 9.55898 20.1232 9.56435 20.1527C9.56985 20.1817 9.52603 20.1354 9.52416 20.1647C9.5224 20.1939 9.46935 20.1474 9.47496 20.161C9.48034 20.1749 9.47297 20.3453 9.5224 20.4382H9.3816H9.24091C9.29033 20.3453 9.28309 20.1749 9.28846 20.161C9.29396 20.1474 9.24091 20.1939 9.23904 20.1647C9.23728 20.1352 9.19346 20.1817 9.19884 20.1527C9.20433 20.1232 9.13305 20.2112 9.1313 20.1681C9.12955 20.1251 9.05628 20.2042 9.06738 20.1767C9.07825 20.1489 8.97951 20.2145 8.99236 20.1681C9.0051 20.1215 8.81498 20.1937 8.8789 20.1508C8.94293 20.1078 8.97039 20.0769 9.08923 19.9716C9.20795 19.8667 8.99961 19.9882 9.08561 19.9202C9.1715 19.8519 9.2464 19.7461 9.2464 19.7158C9.2464 19.6854 9.21532 19.7444 9.21532 19.7067C9.21532 19.6691 9.14953 19.7783 9.14777 19.7444C9.14602 19.7103 9.10559 19.7732 9.10933 19.7496C9.11295 19.7264 9.03431 19.7891 9.05079 19.7372C9.06726 19.6852 9.00323 19.7228 9.00323 19.7228C9.1001 19.6691 9.11108 19.5808 9.175 19.5253C9.23904 19.4697 9.15864 19.4804 9.15864 19.4804C9.20246 19.4215 9.3012 19.3395 9.30295 19.3109C9.30471 19.2822 9.21894 19.3599 9.2353 19.3294C9.25177 19.2992 9.20585 19.3248 9.21683 19.2962C9.22782 19.2675 9.14123 19.3725 9.15584 19.3313C9.17056 19.2901 9.07089 19.3432 9.10746 19.3145C9.14392 19.2857 9.2034 19.1806 9.23623 19.1377C9.26918 19.0947 9.21426 19.1018 9.21426 19.1018C9.26544 19.0572 9.30471 18.9672 9.3213 18.9313C9.33766 18.8955 9.25902 18.9762 9.27199 18.953C9.28473 18.9298 9.21707 18.9566 9.21707 18.9566C9.29033 18.8993 9.31394 18.7721 9.33053 18.7328C9.34701 18.6933 9.30482 18.7147 9.30482 18.7147C9.34514 18.6753 9.3816 18.507 9.3816 18.507Z" fill="white"/>
<path d="M10.4263 18.1551C10.4417 18.0476 10.4533 17.9395 10.473 17.8326C10.5265 17.5437 10.6245 17.2724 10.7963 17.0298C10.952 16.81 11.1588 16.6588 11.4056 16.5578C11.7384 16.4215 12.0877 16.355 12.4431 16.3134C12.8653 16.2639 13.2891 16.2516 13.7135 16.2611C14.1819 16.2715 14.6492 16.2996 15.1052 16.4196C15.327 16.4779 15.5403 16.5569 15.7211 16.7051C15.8571 16.8165 15.9475 16.9578 16.0027 17.1234C16.1075 17.4384 16.1749 17.7625 16.2306 18.0889C16.2646 18.2888 16.2935 18.4897 16.3182 18.691C16.3354 18.8327 16.3238 18.9746 16.2824 19.1119C16.204 19.3732 16.0226 19.5204 15.7582 19.5674C15.6755 19.5819 15.5903 19.5878 15.5062 19.5881C15.0283 19.59 14.5504 19.5879 14.0724 19.5903C14.0123 19.5905 13.9936 19.5693 13.9862 19.5134C13.9493 19.2354 13.7184 19.0207 13.4267 18.9881C13.1675 18.9594 12.8924 19.1313 12.8001 19.3814C12.7844 19.4241 12.7692 19.4688 12.7645 19.5136C12.7586 19.5705 12.7373 19.5905 12.6776 19.59C12.2726 19.5874 11.8675 19.5887 11.4626 19.5887C11.3493 19.5887 11.2356 19.5822 11.123 19.59C10.8899 19.6063 10.7431 19.4859 10.6375 19.2973C10.5125 19.0741 10.4627 18.8292 10.4382 18.5778C10.436 18.5554 10.4305 18.5334 10.4266 18.5112C10.4263 18.3929 10.4263 18.2739 10.4263 18.1551ZM14.3635 18.0174C14.3635 18.3392 14.3633 18.6611 14.3636 18.9829C14.3637 19.0659 14.3862 19.0882 14.4697 19.0883C14.7096 19.0886 14.9495 19.0887 15.1893 19.0883C15.2698 19.0882 15.2949 19.0632 15.2949 18.9808C15.2952 18.339 15.2952 17.6973 15.2949 17.0556C15.2949 16.971 15.2696 16.9472 15.1841 16.9472C14.95 16.9469 14.7158 16.947 14.4818 16.9472C14.3826 16.9472 14.3636 16.9659 14.3635 17.0638C14.3633 17.3813 14.3635 17.6992 14.3635 18.0174ZM12.0998 16.9455C11.9254 16.9455 11.7507 16.9452 11.5763 16.9456C11.4988 16.9457 11.4815 16.9628 11.4814 17.0403C11.4807 17.2164 11.4807 17.3926 11.4814 17.569C11.4816 17.6494 11.4984 17.6662 11.5806 17.6662C11.9258 17.6666 12.2711 17.6666 12.6163 17.6662C12.6964 17.666 12.7148 17.6472 12.715 17.5677C12.7154 17.3935 12.7154 17.2191 12.715 17.045C12.7149 16.9629 12.6969 16.9459 12.6122 16.9457C12.4412 16.9453 12.2706 16.9455 12.0998 16.9455ZM14.0233 17.31C14.0233 17.2163 14.0243 17.1225 14.0231 17.0288C14.0223 16.9663 14.0025 16.9473 13.9391 16.947C13.7532 16.9464 13.5672 16.9464 13.3813 16.947C13.3174 16.9472 13.2959 16.9689 13.2957 17.034C13.2949 17.2176 13.2949 17.4012 13.2957 17.5851C13.2959 17.6506 13.3173 17.6726 13.3808 17.6727C13.5667 17.6733 13.7527 17.6733 13.9386 17.6727C14.0035 17.6726 14.0226 17.6526 14.0231 17.5856C14.0241 17.4936 14.0235 17.4017 14.0233 17.31Z" fill="white"/>
<path d="M13.3626 19.1949C13.5943 19.1946 13.7834 19.3825 13.7861 19.6157C13.7889 19.8461 13.5913 20.0436 13.3602 20.0414C13.1296 20.0392 12.9378 19.8453 12.9396 19.6164C12.9415 19.3836 13.1307 19.1951 13.3626 19.1949Z" fill="white"/>
<path d="M42.8583 26.292L43.5197 28.4725H45.6597L43.9284 29.82L44.5897 32.0005L42.8583 30.6529L41.127 32.0005L41.7883 29.82L40.0569 28.4725H42.197L42.8583 26.292Z" fill="#B59C93"/>
<path d="M57.7329 26.292L58.3942 28.4725H60.5343L58.803 29.82L59.4643 32.0005L57.7329 30.6529L56.0016 32.0005L56.6629 29.82L54.9315 28.4725H57.0716L57.7329 26.292Z" fill="#B59C93"/>
<path d="M50.2941 26.292L50.9555 28.4725H53.0955L51.3642 29.82L52.0255 32.0005L50.2941 30.6529L48.5628 32.0005L49.2241 29.82L47.4927 28.4725H49.6328L50.2941 26.292Z" fill="#B59C93"/>
<path d="M65.1686 26.292L65.83 28.4725H67.97L66.2387 29.82L66.9 32.0005L65.1686 30.6529L63.4373 32.0005L64.0986 29.82L62.3672 28.4725H64.5073L65.1686 26.292Z" fill="#B59C93"/>
<path d="M72.6075 26.292L73.2688 28.4725H75.4089L73.6775 29.82L74.3388 32.0005L72.6075 30.6529L70.8761 32.0005L71.5375 29.82L69.8061 28.4725H71.9462L72.6075 26.292Z" fill="#B59C93"/>
<path d="M39.6626 11.6349C39.6626 10.9188 39.7787 10.244 40.0109 9.61055C40.2432 8.96332 40.5847 8.40559 41.0355 7.93738C41.4863 7.4554 42.0396 7.07669 42.6953 6.80128C43.351 6.52586 44.0955 6.38815 44.9288 6.38815C45.7075 6.38815 46.411 6.51208 47.0394 6.75996C47.6678 7.00784 48.2006 7.359 48.6378 7.81344C49.0886 8.26788 49.4369 8.82561 49.6828 9.48662C49.9424 10.1339 50.0858 10.8568 50.1131 11.6555C50.1268 11.9172 50.1336 12.2408 50.1336 12.6264C50.1336 12.9982 50.1541 13.4113 50.1951 13.8658C50.2361 14.3202 50.3112 14.8022 50.4205 15.3117C50.5298 15.8075 50.7005 16.3101 50.9328 16.8197H48.4738C48.2416 16.3101 48.0708 15.78 47.9616 15.2291C47.6064 15.7524 47.1556 16.1655 46.6091 16.4685C46.0627 16.7715 45.407 16.9229 44.642 16.9229C43.9179 16.9229 43.2486 16.7852 42.6338 16.5098C42.0191 16.2344 41.4931 15.8626 41.056 15.3944C40.6189 14.9124 40.2773 14.3547 40.0314 13.7212C39.7855 13.074 39.6626 12.3785 39.6626 11.6349ZM44.9288 8.70167C44.4234 8.70167 43.9931 8.77741 43.6379 8.92889C43.2827 9.08037 42.989 9.29382 42.7568 9.56924C42.5382 9.83089 42.3743 10.1407 42.265 10.4988C42.1694 10.8568 42.1215 11.2424 42.1215 11.6555C42.1215 12.0687 42.1694 12.4543 42.265 12.8123C42.3743 13.1704 42.5382 13.4871 42.7568 13.7625C42.989 14.0242 43.2827 14.2307 43.6379 14.3822C43.9931 14.5337 44.4234 14.6094 44.9288 14.6094C45.7758 14.6094 46.4384 14.3753 46.9165 13.9071C47.4083 13.4251 47.6542 12.6746 47.6542 11.6555C47.6132 10.7467 47.381 10.0306 46.9575 9.50727C46.534 8.9702 45.8578 8.70167 44.9288 8.70167Z" fill="#B59C93"/>
<path d="M55.0225 16.8197H52.5636V2.36014H55.0225V16.8197Z" fill="#B59C93"/>
<path d="M59.9452 6.84259H62.773V9.15611H59.9452V16.8197H57.4863V6.51208C57.4863 5.78222 57.6024 5.09367 57.8346 4.44644C58.0669 3.7992 58.4084 3.24148 58.8592 2.77327C59.31 2.29128 59.8633 1.91258 60.519 1.63716C61.1747 1.36174 61.9261 1.22403 62.773 1.22403C62.9233 1.22403 63.0736 1.2378 63.2238 1.26534C63.3741 1.27911 63.5244 1.29977 63.6747 1.32731V3.72346C63.538 3.69592 63.4083 3.67526 63.2853 3.66149C63.1624 3.63395 63.0326 3.62018 62.896 3.62018C62.3359 3.62018 61.8646 3.69592 61.4821 3.8474C61.1132 3.99888 60.8127 4.20545 60.5805 4.46709C60.3482 4.71497 60.1843 5.01793 60.0887 5.37598C59.9931 5.72025 59.9452 6.09207 59.9452 6.49143V6.84259Z" fill="#B59C93"/>
<path d="M64.076 11.6349C64.076 10.9188 64.1921 10.244 64.4243 9.61055C64.6566 8.96332 64.9981 8.40559 65.4489 7.93738C65.8997 7.4554 66.453 7.07669 67.1087 6.80128C67.7644 6.52586 68.5089 6.38815 69.3422 6.38815C70.1209 6.38815 70.8244 6.51208 71.4528 6.75996C72.0812 7.00784 72.614 7.359 73.0512 7.81344C73.502 8.26788 73.8503 8.82561 74.0962 9.48662C74.3558 10.1339 74.4992 10.8568 74.5265 11.6555C74.5402 11.9172 74.547 12.2408 74.547 12.6264C74.547 12.9982 74.5675 13.4113 74.6085 13.8658C74.6495 14.3202 74.7246 14.8022 74.8339 15.3117C74.9432 15.8075 75.1139 16.3101 75.3462 16.8197H72.8872C72.655 16.3101 72.4842 15.78 72.3749 15.2291C72.0198 15.7524 71.569 16.1655 71.0225 16.4685C70.4761 16.7715 69.8204 16.9229 69.0554 16.9229C68.3313 16.9229 67.662 16.7852 67.0472 16.5098C66.4325 16.2344 65.9065 15.8626 65.4694 15.3944C65.0323 14.9124 64.6907 14.3547 64.4448 13.7212C64.1989 13.074 64.076 12.3785 64.076 11.6349ZM69.3422 8.70167C68.8368 8.70167 68.4065 8.77741 68.0513 8.92889C67.6961 9.08037 67.4024 9.29382 67.1702 9.56924C66.9516 9.83089 66.7877 10.1407 66.6784 10.4988C66.5828 10.8568 66.5349 11.2424 66.5349 11.6555C66.5349 12.0687 66.5828 12.4543 66.6784 12.8123C66.7877 13.1704 66.9516 13.4871 67.1702 13.7625C67.4024 14.0242 67.6961 14.2307 68.0513 14.3822C68.4065 14.5337 68.8368 14.6094 69.3422 14.6094C70.1892 14.6094 70.8518 14.3753 71.3299 13.9071C71.8217 13.4251 72.0676 12.6746 72.0676 11.6555C72.0266 10.7467 71.7944 10.0306 71.3709 9.50727C70.9474 8.9702 70.2712 8.70167 69.3422 8.70167Z" fill="#B59C93"/>
<path d="M41.7335 21.6102H43.1789V23.5532C42.9759 23.6203 42.7659 23.6723 42.5488 23.7094C42.3318 23.7464 42.0882 23.765 41.8182 23.765C41.4247 23.765 41.0911 23.6873 40.8176 23.532C40.5458 23.375 40.3393 23.1482 40.1982 22.8517C40.057 22.5535 39.9864 22.1943 39.9864 21.7743C39.9864 21.3702 40.0649 21.0199 40.222 20.7234C40.3791 20.4251 40.6076 20.1948 40.9076 20.0325C41.2076 19.8683 41.5712 19.7863 41.9982 19.7863C42.2082 19.7863 42.4112 19.8075 42.6071 19.8498C42.8047 19.8904 42.9856 19.9469 43.1498 20.0192L42.9274 20.5434C42.7968 20.4816 42.6503 20.4295 42.488 20.3872C42.3256 20.3448 42.1571 20.3237 41.9824 20.3237C41.7053 20.3237 41.4662 20.3837 41.265 20.5037C41.0656 20.6237 40.912 20.7931 40.8044 21.0119C40.6967 21.229 40.6429 21.4858 40.6429 21.7822C40.6429 22.0699 40.6861 22.3223 40.7726 22.5393C40.8591 22.7564 40.9941 22.9258 41.1776 23.0476C41.3629 23.1676 41.602 23.2276 41.895 23.2276C42.0415 23.2276 42.1659 23.2197 42.2682 23.2038C42.3706 23.1879 42.465 23.1702 42.5515 23.1508V22.1529H41.7335V21.6102Z" fill="#B59C93"/>
<path d="M45.1354 23.712V19.8419H45.7708V23.172H47.4147V23.712H45.1354Z" fill="#B59C93"/>
<path d="M51.5128 23.712L51.1342 22.6373H49.6545L49.2759 23.712H48.6062L50.0463 19.826H50.7504L52.1878 23.712H51.5128ZM50.9701 22.092L50.6022 21.0331C50.588 20.9872 50.5677 20.9228 50.5413 20.8399C50.5148 20.7551 50.4883 20.6696 50.4619 20.5831C50.4354 20.4948 50.4133 20.4207 50.3957 20.3607C50.378 20.4331 50.356 20.5143 50.3295 20.6043C50.3048 20.6925 50.2801 20.7754 50.2554 20.8531C50.2324 20.9307 50.2148 20.9907 50.2024 21.0331L49.8318 22.092H50.9701Z" fill="#B59C93"/>
<path d="M55.3991 23.712L54.2847 20.4798H54.2609C54.2662 20.5522 54.2723 20.651 54.2794 20.7763C54.2864 20.9016 54.2926 21.0357 54.2979 21.1787C54.3032 21.3216 54.3059 21.4584 54.3059 21.589V23.712H53.7288V19.8419H54.6209L55.693 22.9311H55.7089L56.818 19.8419H57.7075V23.712H57.1013V21.5572C57.1013 21.439 57.103 21.3111 57.1066 21.1734C57.1119 21.0357 57.1171 20.9052 57.1224 20.7816C57.1295 20.6581 57.1348 20.5593 57.1383 20.4851H57.1171L55.9603 23.712H55.3991Z" fill="#B59C93"/>
<path d="M60.8817 19.8419C61.3812 19.8419 61.7456 19.9442 61.975 20.1489C62.2044 20.3537 62.3191 20.6404 62.3191 21.0093C62.3191 21.1769 62.2927 21.3366 62.2397 21.4884C62.1886 21.6384 62.1038 21.7717 61.9856 21.8881C61.8674 22.0028 61.7112 22.0937 61.5171 22.1608C61.3247 22.2279 61.0873 22.2614 60.805 22.2614H60.392V23.712H59.7567V19.8419H60.8817ZM60.8394 20.3687H60.392V21.732H60.7388C60.9382 21.732 61.1076 21.709 61.247 21.6631C61.3865 21.6155 61.4923 21.5405 61.5647 21.4381C61.6371 21.3358 61.6732 21.2008 61.6732 21.0331C61.6732 20.809 61.6053 20.6422 61.4694 20.5328C61.3353 20.4234 61.1253 20.3687 60.8394 20.3687Z" fill="#B59C93"/>
<path d="M64.1222 23.712V19.8419H64.7575V23.712H64.1222Z" fill="#B59C93"/>
<path d="M70.0389 23.712H69.258L67.3626 20.6228H67.3388C67.3459 20.7269 67.352 20.8372 67.3573 20.9537C67.3644 21.0702 67.3697 21.1902 67.3732 21.3137C67.3785 21.4372 67.3829 21.5625 67.3865 21.6896V23.712H66.8094V19.8419H67.585L69.4777 22.9099H69.4962C69.4927 22.8199 69.4883 22.7167 69.483 22.6002C69.4777 22.4837 69.4724 22.3637 69.4671 22.2402C69.4636 22.1149 69.461 21.994 69.4592 21.8775V19.8419H70.0389V23.712Z" fill="#B59C93"/>
<path d="M73.6473 21.6102H75.0927V23.5532C74.8897 23.6203 74.6797 23.6723 74.4626 23.7094C74.2456 23.7464 74.002 23.765 73.732 23.765C73.3385 23.765 73.0049 23.6873 72.7314 23.532C72.4596 23.375 72.2531 23.1482 72.112 22.8517C71.9708 22.5535 71.9002 22.1943 71.9002 21.7743C71.9002 21.3702 71.9787 21.0199 72.1358 20.7234C72.2929 20.4251 72.5214 20.1948 72.8214 20.0325C73.1214 19.8683 73.485 19.7863 73.912 19.7863C74.122 19.7863 74.325 19.8075 74.5209 19.8498C74.7185 19.8904 74.8994 19.9469 75.0635 20.0192L74.8412 20.5434C74.7106 20.4816 74.5641 20.4295 74.4018 20.3872C74.2394 20.3448 74.0709 20.3237 73.8961 20.3237C73.6191 20.3237 73.38 20.3837 73.1788 20.5037C72.9794 20.6237 72.8258 20.7931 72.7182 21.0119C72.6105 21.229 72.5567 21.4858 72.5567 21.7822C72.5567 22.0699 72.5999 22.3223 72.6864 22.5393C72.7729 22.7564 72.9079 22.9258 73.0914 23.0476C73.2767 23.1676 73.5158 23.2276 73.8088 23.2276C73.9553 23.2276 74.0797 23.2197 74.182 23.2038C74.2844 23.1879 74.3788 23.1702 74.4653 23.1508V22.1529H73.6473V21.6102Z" fill="#B59C93"/>
</svg>
</symbol>

<symbol id="icon-footer-open">
<path fill-rule="evenodd" clip-rule="evenodd" d="M23.5545 1.37519C24.198 2.01868 24.198 3.06199 23.5545 3.70547L13.668 13.592C13.0245 14.2355 11.9812 14.2355 11.3377 13.592L1.45118 3.70547C0.807688 3.06198 0.807688 2.01868 1.45118 1.37519C2.09467 0.731705 3.13797 0.731705 3.78146 1.37519L12.5029 10.0966L21.2243 1.37519C21.8677 0.731706 22.911 0.731706 23.5545 1.37519Z"/>
</symbol>

<symbol id="icon-caravan">
<path d="M388.5 98.5933L298.928 1.23242H0.787334" stroke="#B59C93" stroke-linecap="round"/>
</symbol>

<symbol id="icon-move">
<path d="M10.6333 5.5V12.8333C10.6333 15.6684 8.33506 17.9667 5.5 17.9667C2.66494 17.9667 0.366667 15.6684 0.366667 12.8333V5.5C0.366667 2.66494 2.66494 0.366667 5.5 0.366667C8.33506 0.366667 10.6333 2.66494 10.6333 5.5Z" stroke="#767676" stroke-width="0.733333"/>
<path d="M4.40002 4.76669C4.40002 4.15917 4.89251 3.66669 5.50002 3.66669V3.66669C6.10754 3.66669 6.60002 4.15917 6.60002 4.76669V7.70002C6.60002 8.30753 6.10754 8.80002 5.50002 8.80002V8.80002C4.89251 8.80002 4.40002 8.30753 4.40002 7.70002V4.76669Z" fill="#767676"/>
<path d="M0.981979 21.7306C0.833178 21.5932 0.601203 21.6025 0.463848 21.7513C0.326494 21.9001 0.335773 22.1321 0.484574 22.2694L0.981979 21.7306ZM5.49994 26.4L5.25124 26.6694C5.3917 26.7991 5.60819 26.7991 5.74865 26.6694L5.49994 26.4ZM10.5153 22.2694C10.6641 22.1321 10.6734 21.9001 10.536 21.7513C10.3987 21.6025 10.1667 21.5932 10.0179 21.7306L10.5153 22.2694ZM0.484574 22.2694L5.25124 26.6694L5.74865 26.1306L0.981979 21.7306L0.484574 22.2694ZM5.74865 26.6694L10.5153 22.2694L10.0179 21.7306L5.25124 26.1306L5.74865 26.6694Z" fill="#767676"/>
</symbol>

<symbol id="icon-spinner-desk">
<path fill-rule="evenodd" clip-rule="evenodd" d="M28.4501 34.8826C28.516 34.2596 28.5457 34.2503 28.6602 33.648C28.8576 32.6008 28.936 32.3719 27.9205 32.055L3.77583 24.4946C1.83499 23.8876 1.89532 24.8069 1.41577 26.3788C0.767753 28.5021 0.297614 30.7115 0.0272449 32.9788C-0.14973 34.4745 0.5389 34.5014 1.99164 34.5801L27.557 35.8961C28.1837 35.9282 28.3515 35.8049 28.4501 34.8826ZM30.2742 28.3836C30.5124 27.8569 30.7694 27.3462 31.0421 26.8433C31.5624 25.8955 31.1863 25.8314 30.3182 25.1622L12.6133 11.4981C11.3236 10.5089 10.9459 10.611 9.81131 11.8151C8.17606 13.551 7.22411 14.8302 5.98765 16.7978C5.08742 18.2323 5.10941 18.5622 6.6012 19.209L28.2872 28.6621C29.417 29.1552 29.7681 29.5042 30.2742 28.3836ZM33.8096 22.9016C34.3158 22.3283 34.681 21.9938 35.2434 21.4764C35.8985 20.8745 36.0067 20.7751 35.5176 20.0081L25.1937 3.70534C24.4666 2.56068 24.1626 2.16511 22.9106 2.6758C20.7589 3.55511 18.7013 4.63905 16.766 5.90068C15.3901 6.79723 16.3336 7.21044 17.4619 8.28616L32.3428 22.5458C32.9869 23.1606 33.2235 23.5676 33.8096 22.9016ZM39.4495 18.3255C40.0889 17.9651 40.523 17.7506 41.2 17.4575C42.0179 17.1053 42.1119 17.0478 41.9083 16.1544L38.55 1.33082C38.1926 -0.255541 38.0626 0.0179808 36.4548 0.0179809C34.6903 0.017981 32.9555 0.149451 31.2552 0.399115C29.5675 0.645636 29.9968 1.55668 30.7757 3.12427L37.9153 17.5471C38.4246 18.5654 38.4857 18.8682 39.4495 18.3255ZM28.4501 40.1165C28.516 40.738 28.5457 40.7473 28.6602 41.3527C28.8576 42.3999 28.936 42.6272 27.9205 42.9442L3.77583 50.5065C1.83499 51.1107 1.89532 50.195 1.41578 48.6219C0.767754 46.4978 0.297615 44.2892 0.0272453 42.0219C-0.14973 40.5266 0.5389 40.4992 1.99164 40.4194L27.557 39.1046C28.1837 39.0729 28.3515 39.1962 28.4501 40.1165ZM30.2742 46.6163C30.5124 47.1422 30.7694 47.6556 31.0421 48.1558C31.5624 49.1048 31.1863 49.1685 30.3182 49.8381L12.6133 63.501C11.3236 64.4914 10.9459 64.3889 9.81132 63.184C8.17607 61.4493 7.22411 60.1693 5.98765 58.2029C5.08742 56.7691 5.10941 56.4385 6.6012 55.7916L28.2872 46.3377C29.417 45.8454 29.7681 45.4964 30.2742 46.6163ZM33.8096 52.0995C34.3158 52.6736 34.681 53.0074 35.2434 53.5235C35.8985 54.1273 36.0067 54.2252 35.5176 54.9925L25.1937 71.2953C24.4666 72.4395 24.1626 72.8355 22.9106 72.3233C20.7589 71.446 18.7013 70.3597 16.766 69.1012C15.3901 68.2035 16.3336 67.7899 17.4619 66.7137L32.3428 52.4532C32.9869 51.84 33.2235 51.4335 33.8096 52.0995ZM39.4495 56.6764C40.0889 57.0356 40.523 57.2505 41.2 57.5424C42.0179 57.8958 42.1119 57.9509 41.9083 58.8459L38.55 73.6683C38.1926 75.2559 38.0626 74.982 36.4548 74.982C34.6903 74.982 32.9555 74.8509 31.2552 74.6024C29.5675 74.3559 29.9968 73.4433 30.7757 71.8757L37.9153 57.4536C38.4246 56.4345 38.4857 56.1329 39.4495 56.6764Z"/>
</symbol>

<symbol id="icon-spinner-mob">
<path fill-rule="evenodd" clip-rule="evenodd" d="M16.5145 20.312C16.5527 19.9504 16.5699 19.9449 16.6364 19.5953C16.751 18.9875 16.7965 18.8546 16.207 18.6706L2.19176 14.282C1.06516 13.9297 1.10018 14.4633 0.821815 15.3758C0.445658 16.6083 0.172756 17.8908 0.0158149 19.2069C-0.086914 20.0751 0.312815 20.0907 1.15609 20.1364L15.996 20.9003C16.3598 20.9189 16.4572 20.8474 16.5145 20.312ZM17.5733 16.5395C17.7115 16.2337 17.8607 15.9373 18.019 15.6454C18.321 15.0953 18.1027 15.058 17.5988 14.6696L7.32166 6.73798C6.573 6.16378 6.35378 6.22305 5.69517 6.92199C4.74596 7.92964 4.19338 8.67219 3.47565 9.81428C2.9531 10.647 2.96586 10.8385 3.8318 11.214L16.4198 16.7012C17.0757 16.9874 17.2795 17.19 17.5733 16.5395ZM19.6255 13.3574C19.9193 13.0246 20.1313 12.8304 20.4577 12.5301C20.838 12.1807 20.9008 12.123 20.6169 11.6778L14.6242 2.21451C14.2021 1.55007 14.0257 1.32045 13.2989 1.61689C12.0499 2.12731 10.8555 2.7565 9.73216 3.48884C8.93349 4.00926 9.48116 4.24912 10.1361 4.87354L18.774 13.1509C19.1479 13.5077 19.2852 13.744 19.6255 13.3574ZM22.8992 10.7011C23.2704 10.4919 23.5224 10.3674 23.9154 10.1972C24.3901 9.99281 24.4447 9.95941 24.3265 9.44081L22.3771 0.836169C22.1697 -0.0846605 22.0942 0.074111 21.1609 0.074111C20.1367 0.0741111 19.1297 0.150424 18.1427 0.295345C17.163 0.438445 17.4123 0.967277 17.8644 1.87722L22.0087 10.2493C22.3043 10.8403 22.3398 11.0161 22.8992 10.7011ZM16.5145 23.3501C16.5527 23.7109 16.5699 23.7163 16.6364 24.0677C16.751 24.6755 16.7965 24.8075 16.207 24.9915L2.19176 29.3812C1.06516 29.7319 1.10018 29.2004 0.821815 28.2872C0.445658 27.0543 0.172756 25.7722 0.0158151 24.4561C-0.0869139 23.5882 0.312815 23.5723 1.15609 23.5259L15.996 22.7627C16.3598 22.7443 16.4572 22.8159 16.5145 23.3501ZM17.5733 27.1231C17.7115 27.4283 17.8607 27.7263 18.019 28.0167C18.321 28.5675 18.1027 28.6045 17.5988 28.9932L7.32166 36.9241C6.573 37.499 6.35379 37.4395 5.69518 36.7401C4.74596 35.7332 4.19338 34.9902 3.47565 33.8487C2.9531 33.0164 2.96586 32.8245 3.8318 32.449L16.4198 26.9613C17.0757 26.6756 17.2795 26.473 17.5733 27.1231ZM19.6255 30.3059C19.9193 30.6391 20.1313 30.8329 20.4577 31.1325C20.838 31.483 20.9008 31.5398 20.6169 31.9852L14.6242 41.4485C14.2021 42.1126 14.0257 42.3425 13.2989 42.0452C12.0499 41.5359 10.8555 40.9054 9.73216 40.1748C8.93349 39.6538 9.48116 39.4137 10.1361 38.789L18.774 30.5112C19.1479 30.1553 19.2852 29.9193 19.6255 30.3059ZM22.8992 32.9626C23.2704 33.1711 23.5224 33.2959 23.9154 33.4653C24.3901 33.6704 24.4447 33.7025 24.3265 34.222L22.3771 42.8259C22.1697 43.7475 22.0942 43.5885 21.1609 43.5885C20.1367 43.5885 19.1297 43.5124 18.1427 43.3681C17.163 43.225 17.4123 42.6953 17.8644 41.7854L22.0087 33.4138C22.3043 32.8222 22.3398 32.6471 22.8992 32.9626Z"/>
</symbol>

<symbol id="icon-count-desk">
<path d="M0 20.5C0 9.17816 9.17816 0 20.5 0C31.8218 0 41 9.17816 41 20.5V38.5C41 49.8218 31.8218 59 20.5 59C9.17816 59 0 49.8218 0 38.5V20.5Z"/>
</symbol>

<symbol id="icon-count-mob">
<path d="M9.05078 9.42737C9.05078 4.22078 13.2716 0 18.4782 0C23.6847 0 27.9055 4.22078 27.9055 9.42737V18.4777C27.9055 23.6842 23.6847 27.905 18.4782 27.905C13.2716 27.905 9.05078 23.6842 9.05078 18.4777V9.42737Z"/>
<path d="M7.27513 21.7354C6.08825 21.7354 5.03325 21.4277 4.11012 20.8123C3.18699 20.1822 2.46168 19.2884 1.93417 18.1308C1.40667 16.9586 1.14292 15.5519 1.14292 13.9108C1.14292 12.2697 1.40667 10.8703 1.93417 9.71274C2.46168 8.54051 3.18699 7.64669 4.11012 7.03127C5.03325 6.4012 6.08825 6.08616 7.27513 6.08616C8.46201 6.08616 9.51702 6.4012 10.4401 7.03127C11.3633 7.64669 12.0886 8.54051 12.6161 9.71274C13.1582 10.8703 13.4293 12.2697 13.4293 13.9108C13.4293 15.5519 13.1582 16.9586 12.6161 18.1308C12.0886 19.2884 11.3633 20.1822 10.4401 20.8123C9.51702 21.4277 8.46201 21.7354 7.27513 21.7354ZM7.27513 20.2848C8.18361 20.2848 8.97486 20.043 9.64889 19.5594C10.3229 19.0612 10.8504 18.3433 11.2314 17.4055C11.6124 16.453 11.8029 15.2881 11.8029 13.9108C11.8029 12.5334 11.6124 11.3758 11.2314 10.4381C10.8504 9.48562 10.3229 8.76763 9.64889 8.28409C8.97486 7.78589 8.18361 7.53679 7.27513 7.53679C6.39596 7.53679 5.61204 7.78589 4.92335 8.28409C4.23467 8.76763 3.69984 9.48562 3.31887 10.4381C2.93789 11.3758 2.74741 12.5334 2.74741 13.9108C2.74741 15.2881 2.93789 16.453 3.31887 17.4055C3.69984 18.3433 4.23467 19.0612 4.92335 19.5594C5.61204 20.043 6.39596 20.2848 7.27513 20.2848ZM18.3771 21.6035V6.87742L19.0804 7.62471H14.7505V6.21804H19.9596V21.6035H18.3771Z" fill="white"/>
</symbol>

<symbol id="icon-facebook">
<path fill-rule="evenodd" clip-rule="evenodd" d="M10.7574 3.25736C11.8826 2.13214 13.4087 1.5 15 1.5H18C18.5523 1.5 19 1.94772 19 2.5V6.5C19 7.05228 18.5523 7.5 18 7.5H15V9.5H18C18.3079 9.5 18.5987 9.64187 18.7882 9.88459C18.9777 10.1273 19.0448 10.4438 18.9701 10.7425L17.9701 14.7425C17.8589 15.1877 17.4589 15.5 17 15.5H15V22.5C15 23.0523 14.5523 23.5 14 23.5H10C9.44772 23.5 9 23.0523 9 22.5V15.5H7C6.44772 15.5 6 15.0523 6 14.5V10.5C6 9.94772 6.44772 9.5 7 9.5H9V7.5C9 5.9087 9.63214 4.38258 10.7574 3.25736ZM15 3.5C13.9391 3.5 12.9217 3.92143 12.1716 4.67157C11.4214 5.42172 11 6.43913 11 7.5V10.5C11 11.0523 10.5523 11.5 10 11.5H8V13.5H10C10.5523 13.5 11 13.9477 11 14.5V21.5H13V14.5C13 13.9477 13.4477 13.5 14 13.5H16.2192L16.7192 11.5H14C13.4477 11.5 13 11.0523 13 10.5V7.5C13 6.96957 13.2107 6.46086 13.5858 6.08579C13.9609 5.71071 14.4696 5.5 15 5.5H17V3.5H15Z"/>
</symbol>
<symbol id="icon-instagram">
<path fill-rule="evenodd" clip-rule="evenodd" d="M7 3.5C4.79086 3.5 3 5.29086 3 7.5V17.5C3 19.7091 4.79086 21.5 7 21.5H17C19.2091 21.5 21 19.7091 21 17.5V7.5C21 5.29086 19.2091 3.5 17 3.5H7ZM1 7.5C1 4.18629 3.68629 1.5 7 1.5H17C20.3137 1.5 23 4.18629 23 7.5V17.5C23 20.8137 20.3137 23.5 17 23.5H7C3.68629 23.5 1 20.8137 1 17.5V7.5Z"/>
<path fill-rule="evenodd" clip-rule="evenodd" d="M12.4833 9.48918C11.8591 9.39662 11.2216 9.50324 10.6615 9.79386C10.1014 10.0845 9.64721 10.5443 9.36351 11.108C9.07982 11.6716 8.98107 12.3103 9.08132 12.9333C9.18157 13.5563 9.47571 14.1319 9.9219 14.5781C10.3681 15.0242 10.9436 15.3184 11.5666 15.4186C12.1896 15.5189 12.8283 15.4201 13.392 15.1364C13.9556 14.8527 14.4155 14.3985 14.7061 13.8384C14.9967 13.2783 15.1033 12.6409 15.0108 12.0167C14.9164 11.38 14.6197 10.7905 14.1645 10.3354C13.7094 9.88028 13.12 9.58359 12.4833 9.48918ZM9.74037 8.01862C10.6739 7.53424 11.7363 7.35655 12.7766 7.51081C13.8378 7.66817 14.8202 8.16264 15.5788 8.9212C16.3373 9.67975 16.8318 10.6622 16.9891 11.7233C17.1434 12.7636 16.9657 13.8261 16.4813 14.7596C15.997 15.6931 15.2306 16.4501 14.2912 16.9229C13.3518 17.3957 12.2872 17.5603 11.2489 17.3932C10.2105 17.2261 9.25134 16.7359 8.50768 15.9923C7.76403 15.2486 7.2738 14.2894 7.10672 13.2511C6.93964 12.2128 7.10422 11.1482 7.57704 10.2088C8.04987 9.26938 8.80687 8.50299 9.74037 8.01862Z"/>
</symbol>
<symbol id="icon-youtube">
<path fill-rule="evenodd" clip-rule="evenodd" d="M11.9999 3.5C12 3.5 12.0001 3.5 12.0001 4.5L12.0001 5.5L11.9246 5.50011C11.8746 5.50022 11.8007 5.50044 11.7058 5.50089C11.516 5.50178 11.2426 5.50356 10.9089 5.50713C10.2411 5.51427 9.33406 5.52855 8.37479 5.55706C7.41391 5.58561 6.40869 5.62821 5.5422 5.69141C4.65409 5.75619 3.99421 5.83761 3.66544 5.92419C3.36674 6.01 3.09566 6.17253 2.87922 6.39566C2.66809 6.61333 2.51618 6.88119 2.43769 7.17375C2.13815 8.84737 1.99167 10.5448 2.00007 12.2451L2.00013 12.2563C1.98941 13.9635 2.13479 15.6681 2.43456 17.3487C2.52119 17.6264 2.67461 17.8788 2.88166 18.0837C3.09857 18.2984 3.36702 18.4537 3.66122 18.5347C3.98854 18.6217 4.65028 18.7035 5.5422 18.7686C6.40869 18.8318 7.41391 18.8744 8.37479 18.9029C9.33406 18.9314 10.2411 18.9457 10.9089 18.9529C11.2426 18.9564 11.516 18.9582 11.7058 18.9591C11.8007 18.9596 11.8746 18.9598 11.9246 18.9599H12.0756C12.1256 18.9598 12.1995 18.9596 12.2944 18.9591C12.4841 18.9582 12.7576 18.9564 13.0913 18.9529C13.759 18.9457 14.6661 18.9314 15.6254 18.9029C16.5863 18.8744 17.5915 18.8318 18.458 18.7686C19.3461 18.7038 20.006 18.6224 20.3347 18.5358C20.6334 18.45 20.9045 18.2875 21.1209 18.0643C21.3321 17.8467 21.484 17.5788 21.5625 17.2863C21.8597 15.6253 22.0062 13.9409 22.0001 12.2536L22.0001 12.2437C22.0108 10.5306 21.8644 8.82008 21.5625 7.13377C21.484 6.8412 21.3321 6.57333 21.1209 6.35566C20.907 6.13509 20.6396 5.97373 20.345 5.88717C20.005 5.8072 19.3427 5.73348 18.4643 5.67498C17.596 5.61716 16.5894 5.57822 15.628 5.55213C14.668 5.52609 13.7603 5.51304 13.0922 5.50651C12.7583 5.50325 12.4847 5.50162 12.2948 5.50081L12.0758 5.5001L12.0001 5.5L12.0001 4.5C12.0001 3.5 12 3.5 11.9999 3.5L12.0798 3.5001C12.1313 3.50021 12.2068 3.50042 12.3034 3.50083C12.4964 3.50166 12.7737 3.50331 13.1117 3.50661C13.7874 3.51321 14.7072 3.52641 15.6822 3.55287C16.6558 3.57928 17.6916 3.61909 18.5972 3.6794C19.4768 3.73798 20.3116 3.82017 20.8373 3.94854C20.849 3.95141 20.8607 3.95448 20.8723 3.95777C21.5124 4.13886 22.0934 4.48566 22.5565 4.96315C23.0197 5.44063 23.3486 6.03189 23.5102 6.67719L22.5401 6.92L23.5242 6.74249C23.8521 8.56021 24.0114 10.4043 24.0001 12.2513C24.0063 14.0707 23.8471 15.8869 23.5242 17.6774C23.5203 17.6994 23.5156 17.7212 23.5102 17.7428C23.3486 18.3881 23.0197 18.9794 22.5565 19.4569C22.0934 19.9343 21.5124 20.2811 20.8723 20.4622L20.8584 20.466C20.3248 20.6088 19.4828 20.6992 18.6035 20.7633C17.6962 20.8295 16.6589 20.8731 15.6848 20.9021C14.7091 20.9311 13.7886 20.9455 13.1127 20.9528C12.7745 20.9564 12.497 20.9582 12.3038 20.9591C12.2071 20.9595 12.1316 20.9598 12.08 20.9599L12.0005 20.96L11.9202 20.9599C11.8686 20.9598 11.793 20.9595 11.6964 20.9591C11.5032 20.9582 11.2257 20.9564 10.8875 20.9528C10.2115 20.9455 9.29111 20.9311 8.31538 20.9021C7.34126 20.8731 6.30398 20.8295 5.39671 20.7633C4.51741 20.6992 3.67537 20.6088 3.14172 20.466L3.13616 20.4646C2.50909 20.293 1.93687 19.9626 1.47479 19.5052C1.01271 19.0479 0.676391 18.4792 0.498325 17.8539C0.489286 17.8222 0.481823 17.79 0.475965 17.7575C0.148126 15.94 -0.0111821 14.0961 6.83708e-05 12.2493C-0.00864589 10.4164 0.150649 8.58643 0.475958 6.78253C0.479912 6.7606 0.484598 6.73881 0.490009 6.71719C0.651527 6.07189 0.980479 5.48063 1.44364 5.00315C1.9068 4.52566 2.48776 4.17886 3.12785 3.99777L3.14172 3.99395C3.67537 3.85123 4.51741 3.76085 5.39671 3.69671C6.30398 3.63054 7.34125 3.58689 8.31538 3.55794C9.29111 3.52895 10.2115 3.51448 10.8875 3.50724C11.2257 3.50363 11.5032 3.50182 11.6964 3.50091C11.793 3.50046 11.8686 3.50023 11.9202 3.50011L11.9999 3.5Z"/>
<path fill-rule="evenodd" clip-rule="evenodd" d="M9.24718 8.11562C9.55499 7.93656 9.9348 7.93471 10.2443 8.11075L15.9943 11.3807C16.3069 11.5585 16.5 11.8904 16.5 12.25C16.5 12.6096 16.3069 12.9415 15.9943 13.1193L10.2443 16.3893C9.9348 16.5653 9.55499 16.5635 9.24718 16.3844C8.93937 16.2053 8.75 15.8761 8.75 15.52V8.98001C8.75 8.62391 8.93937 8.29467 9.24718 8.11562ZM10.75 10.6991V13.8009L13.4771 12.25L10.75 10.6991Z" stroke-linecap="round" stroke-linejoin="round"/>
</symbol>

<symbol id="icon-tiktok">
<svg width="24" height="25" viewBox="0 0 24 25" fill="none" xmlns="http://www.w3.org/2000/svg">
<path d="M21.1666 10.7072C19.2928 10.7072 17.5556 10.1324 16.1382 9.15597V16.202C16.1382 19.7212 13.1536 22.5833 9.48574 22.5833C8.06834 22.5833 6.75344 22.1548 5.67331 21.4271C3.95806 20.2716 2.83325 18.3608 2.83325 16.202C2.83325 12.6828 5.67331 9.81981 8.56995 9.81981C8.87481 9.81981 9.17265 9.84418 9.46612 9.882V10.703V13.4214C9.36063 13.3884 8.89207 13.2507 8.56995 13.2869C7.41659 13.4167 6.44858 14.5945 6.44858 16.202C6.44858 17.3213 7.11086 18.2935 8.07798 18.7817C8.49935 18.9943 8.97853 19.1162 9.4875 19.1162C11.1239 19.1162 12.459 17.8675 12.5203 16.3112L12.5229 2.41666H16.1374C16.1374 2.71749 16.168 3.01076 16.2223 3.29646C16.4773 4.61744 17.2946 5.75102 18.4273 6.4594C19.2157 6.95267 20.1565 7.24089 21.1657 7.24089L21.1666 10.7072Z" stroke="#0A2936" stroke-width="2" stroke-linejoin="round"/>
</svg>
</symbol>

<symbol id="icon-question">
<path d="M11 17C11.5523 17 12 16.5523 12 16C12 15.4477 11.5523 15 11 15C10.4477 15 10 15.4477 10 16C10 16.5523 10.4477 17 11 17Z"/>
<path fill-rule="evenodd" clip-rule="evenodd" d="M11.3561 7.5601C10.8705 7.58141 10.6116 7.77678 10.5219 7.96723C10.2867 8.46693 9.691 8.68137 9.19129 8.44618C8.69158 8.211 8.47715 7.61525 8.71233 7.11554C9.23451 6.00604 10.3595 5.60191 11.2684 5.56202C12.1427 5.52365 13.2308 5.80214 13.8327 6.5871C14.2959 7.19115 14.5562 7.95686 14.4511 8.76195C14.3445 9.57831 13.8789 10.3106 13.1233 10.8664C12.1144 11.6087 12.1162 11.9874 12.1165 12.0425C12.1165 12.0433 12.1165 12.0441 12.1165 12.0447C12.1165 12.597 11.6688 13.0447 11.1165 13.0447C10.5642 13.0447 10.1165 12.597 10.1165 12.0447C10.1165 11.088 10.6729 10.1862 11.9382 9.25541C12.3271 8.96932 12.4428 8.69557 12.4679 8.50308C12.4945 8.29933 12.4368 8.05335 12.2457 7.80415C12.2322 7.78663 12.1592 7.71368 11.9763 7.64796C11.8017 7.5852 11.5821 7.55018 11.3561 7.5601Z"/>
<path d="M11 22C4.9 22 0 17.1 0 11C0 4.9 4.9 0 11 0C17.1 0 22 4.9 22 11C22 17.1 17.1 22 11 22ZM11 2C6 2 2 6 2 11C2 16 6 20 11 20C16 20 20 16 20 11C20 6 16 2 11 2Z"/>
</symbol>

<symbol id="icon-open">
<path fill-rule="evenodd" clip-rule="evenodd" d="M15.4272 0.329644C15.8667 0.76917 15.8667 1.48178 15.4272 1.92131L8.67437 8.67416C8.23484 9.11369 7.52223 9.11369 7.0827 8.67416L0.329851 1.92131C-0.109675 1.48178 -0.109675 0.769169 0.329851 0.329644C0.769377 -0.109882 1.48199 -0.109882 1.92151 0.329644L7.87854 6.28667L13.8356 0.329644C14.2751 -0.109881 14.9877 -0.109881 15.4272 0.329644Z"/>
</symbol>

<symbol id="logo-big">
<svg width="122" height="183" viewBox="0 0 122 183" fill="none" xmlns="http://www.w3.org/2000/svg">
<path d="M0 57.5C0 25.7436 25.7436 0 57.5 0H64.5C96.2564 0 122 25.7436 122 57.5V125.5C122 157.256 96.2564 183 64.5 183H57.5C25.7436 183 0 157.256 0 125.5V57.5Z" fill="#B59C93"/>
<path d="M6 59.3579C6 29.8613 29.2132 6 57.7869 6H64.2131C92.7868 6 116 29.8613 116 59.3579V123.642C116 153.139 92.7868 177 64.2131 177H57.7869C29.2132 177 6 153.139 6 123.642V59.3579Z" stroke="white" stroke-width="2"/>
<path d="M33.5449 148L34.7898 151.991L38.8185 151.991L35.5592 154.458L36.8041 158.449L33.5449 155.982L30.2857 158.449L31.5306 154.458L28.2714 151.991L32.3 151.991L33.5449 148Z" fill="white"/>
<path d="M61.5449 148L62.7898 151.991L66.8185 151.991L63.5592 154.458L64.8041 158.449L61.5449 155.982L58.2857 158.449L59.5306 154.458L56.2714 151.991L60.3 151.991L61.5449 148Z" fill="white"/>
<path d="M47.5449 148L48.7898 151.991L52.8185 151.991L49.5592 154.458L50.8041 158.449L47.5449 155.982L44.2857 158.449L45.5306 154.458L42.2714 151.991L46.3 151.991L47.5449 148Z" fill="white"/>
<path d="M75.5449 148L76.7898 151.991L80.8185 151.991L77.5592 154.458L78.8041 158.449L75.5449 155.982L72.2857 158.449L73.5306 154.458L70.2714 151.991L74.3 151.991L75.5449 148Z" fill="white"/>
<path d="M89.5449 148L90.7898 151.991L94.8185 151.991L91.5592 154.458L92.8041 158.449L89.5449 155.982L86.2857 158.449L87.5306 154.458L84.2714 151.991L88.3 151.991L89.5449 148Z" fill="white"/>
<path fill-rule="evenodd" clip-rule="evenodd" d="M57.6055 49.4128C57.6276 49.3957 57.6726 49.3613 57.7337 49.3144C57.9817 49.1224 58.2271 48.9568 58.4675 48.8226C58.714 48.6835 58.9701 48.5648 59.2326 48.4744C60.3911 48.0716 61.5417 48.209 62.5865 49.0115C62.833 48.7866 63.1295 48.5868 63.4466 48.4181C65.6874 47.7388 66.6364 48.9522 67.0112 49.2864C65.8995 49.0974 64.2507 49.2629 63.3638 50.0437C63.2764 50.1202 63.5043 50.3326 63.428 50.4326C63.3016 50.6011 63.3031 50.8885 63.1734 51.1039C62.8315 50.7652 62.677 50.5185 62.1896 50.4435C61.8355 50.3887 61.3936 50.3577 61.2856 50.2857C60.9125 50.0423 60.925 49.5488 60.3881 49.5238C59.3124 49.4706 58.672 50.0904 57.6055 49.4128Z" fill="white"/>
<path fill-rule="evenodd" clip-rule="evenodd" d="M53.8203 52.9274C53.8358 52.9153 53.8674 52.8912 53.9103 52.8584C54.0844 52.7238 54.2566 52.6078 54.4253 52.5138C54.5984 52.4163 54.7781 52.3331 54.9623 52.2697C55.7755 51.9875 56.583 52.0838 57.3163 52.6462C57.4893 52.4885 57.6974 52.3485 57.92 52.2303C59.4927 51.7543 60.1588 52.6046 60.4218 52.8387C59.6416 52.7063 58.4843 52.8223 57.8619 53.3694C57.8006 53.4231 57.9605 53.5719 57.9069 53.642C57.8182 53.76 57.8193 53.9614 57.7283 54.1124C57.4883 53.875 57.3798 53.7021 57.0378 53.6496C56.7892 53.6112 56.4791 53.5894 56.4033 53.539C56.1414 53.3684 56.1502 53.0226 55.7734 53.0051C55.0183 52.9679 54.5689 53.4022 53.8203 52.9274Z" fill="white"/>
<path fill-rule="evenodd" clip-rule="evenodd" d="M93.8563 73.7295C93.1847 73.5671 92.5039 73.4749 91.8075 73.4749C88.7131 73.4749 85.9652 75.2379 83.2187 76.9994C79.0887 79.2105 77.0185 79.6727 73.6913 78.4016C72.759 78.0488 71.7284 77.5538 70.5279 76.926C63.4877 72.4678 60.7367 72.5193 53.6854 76.9587C51.8865 77.8348 50.5082 78.4578 49.3275 78.8263C46.3152 79.7726 44.609 79.0761 40.5255 76.8027C37.776 75.113 35.1201 73.4797 32.5061 73.4749H32.4992C31.82 73.4749 31.151 73.5827 30.489 73.7701C29.2625 74.1168 28.6069 72.9206 28.2585 71.6027C27.951 70.4393 27.801 69.201 28.8473 68.5669C30.2665 67.7082 31.5491 67.0508 32.4992 67.0508H32.5061C33.8871 67.0524 36.0302 68.3702 38.2443 69.7319C41.1765 71.5339 44.2228 73.4062 47.323 73.4062H47.3313C49.0356 73.4047 50.6791 72.8394 52.2887 72.0305C61.9826 67.171 62.0574 66.971 71.7878 71.9492C73.4554 72.8018 75.1711 73.4062 76.981 73.4062C80.0739 73.4062 82.8234 71.6417 85.5682 69.8786C87.7682 68.4655 89.9746 67.0508 91.8074 67.0508C93.0598 67.0508 94.4836 67.7269 95.9638 68.6075C96.9147 69.1745 96.5087 70.4612 95.9344 71.7181C95.427 72.8301 94.8664 73.9761 93.8563 73.7295ZM91.8701 79.4448C90.8054 80.9283 89.6296 82.3304 88.3601 83.6406C86.1414 85.9267 83.7042 87.6038 80.9624 89.1825C79.5477 90.0007 78.1831 90.6097 76.9811 90.6097C75.1059 90.6097 72.7995 89.1482 70.5279 87.7068C67.7925 85.9736 65.0866 84.2573 62.1589 84.2573H62.1513C59.2191 84.2573 56.4601 85.9923 53.6855 87.7396C51.4176 89.1668 49.1295 90.6066 47.3314 90.6096H47.3231C46.0958 90.6096 44.5919 89.9444 43.0213 89.0701C40.1017 87.4398 37.7689 85.6049 35.445 83.1143C34.3379 81.9275 33.3099 80.6689 32.3658 79.3463C31.7484 78.4796 30.9169 77.8347 32.4994 77.8347H32.5063C32.5913 77.8347 32.6822 77.8426 32.7741 77.8504C34.1544 78.0018 36.1692 79.2385 38.2444 80.5128C44.6984 84.1919 47.7913 84.9662 53.3818 82.0275C61.7922 77.602 62.6009 77.7863 70.7729 81.9493C75.9944 84.6086 79.626 84.006 85.5683 80.6595C87.7683 79.248 89.9731 77.8347 91.8075 77.8347C93.4846 77.8348 92.557 78.4844 91.8701 79.4448ZM69.9924 93.9076C67.4567 94.4216 64.8431 94.762 62.1513 94.762C59.656 94.762 57.2202 94.4948 54.8635 94.0233C53.2539 93.7048 53.6855 92.874 56.001 91.417C58.2323 90.0131 60.4524 88.6157 62.1513 88.6157H62.1589C63.8265 88.6172 65.9982 89.9929 68.1951 91.3842C69.9642 92.5055 71.2445 93.6549 69.9924 93.9076Z" fill="white"/>
<path d="M80.0953 70.9253C83.7922 70.0451 90.3057 66.7297 92.1981 67.0965C94.0906 67.4632 92.1101 68.6808 92.1101 68.6808L84.4083 74.2261L72.0855 73.83L63.4155 70.5292L50.8726 75.3263L36.3492 72.5537L30.0117 68.1967C30.3345 67.9033 31.024 67.2637 32.2562 67.0524C34.5888 66.6526 36.6573 69.473 41.3223 69.693C45.9874 69.9131 49.0241 67.7566 62.4912 68.1967C67.7568 68.3688 75.4743 72.0256 80.0953 70.9253Z" fill="white"/>
<path fill-rule="evenodd" clip-rule="evenodd" d="M64.8633 44.3497C65.4708 44.4153 65.4799 44.4449 66.0672 44.559C67.0884 44.7557 67.3117 44.8338 67.6207 43.8219L74.9933 19.7625C75.5852 17.8285 74.6888 17.8886 73.1559 17.4108C71.0853 16.765 68.9308 16.2966 66.7198 16.0272C65.2613 15.8508 65.235 16.537 65.1583 17.9846L63.8749 43.4597C63.8436 44.0842 63.9639 44.2514 64.8633 44.3497ZM71.2009 46.1673C71.7146 46.4047 72.2126 46.6607 72.7029 46.9325C73.6272 47.4509 73.6897 47.0762 74.3423 46.2112L87.6671 28.5688C88.6317 27.2836 88.5321 26.9073 87.3579 25.7767C85.6651 24.1472 84.4177 23.1986 82.499 21.9665C81.1001 21.0695 80.7784 21.0914 80.1476 22.5779L70.9293 44.1873C70.4485 45.3131 70.1081 45.6629 71.2009 46.1673ZM76.5468 49.6902C77.1058 50.1946 77.4321 50.5585 77.9366 51.1189C78.5235 51.7717 78.6204 51.8795 79.3684 51.3922L95.2663 41.1047C96.3825 40.3802 96.7683 40.0773 96.2703 38.8297C95.4128 36.6856 94.3558 34.6353 93.1255 32.7068C92.2512 31.3357 91.8482 32.2759 90.7992 33.4003L76.8937 48.2286C76.2942 48.8704 75.8973 49.1062 76.5468 49.6902ZM81.0092 55.3102C81.3607 55.9473 81.5698 56.3799 81.8556 57.0545C82.1991 57.8695 82.2552 57.9632 83.1264 57.7603L97.5818 54.4139C99.1288 54.0578 98.8621 53.9282 98.8621 52.326C98.8621 50.5678 98.7339 48.8392 98.4904 47.1448C98.25 45.4631 97.3616 45.8909 95.8329 46.667L81.7683 53.7814C80.7753 54.2889 80.48 54.3497 81.0092 55.3102ZM59.7594 44.3497C59.1533 44.4153 59.1442 44.4449 58.5539 44.559C57.5327 44.7557 57.311 44.8338 57.0019 43.8219L49.6274 19.7625C49.0382 17.8285 49.9312 17.8886 51.4652 17.4108C53.5366 16.765 55.6903 16.2966 57.9013 16.0272C59.3594 15.8508 59.3862 16.537 59.464 17.9846L60.7461 43.4597C60.7771 44.0842 60.6569 44.2514 59.7594 44.3497ZM53.421 46.1673C52.9081 46.4047 52.4075 46.6607 51.9198 46.9325C50.9943 47.4509 50.9322 47.0762 50.2792 46.2112L36.9556 28.5688C35.9898 27.2836 36.0898 26.9073 37.2647 25.7767C38.9564 24.1472 40.2046 23.1986 42.1221 21.9665C43.5203 21.0695 43.8428 21.0914 44.4735 22.5779L53.6927 44.1873C54.1727 45.3131 54.5131 45.6629 53.421 46.1673ZM48.074 49.6902C47.5142 50.1946 47.1886 50.5585 46.6853 51.1189C46.0965 51.7717 46.0011 51.8795 45.2528 51.3922L29.3549 41.1047C28.2391 40.3802 27.8529 40.0773 28.3524 38.8297C29.208 36.6856 30.2673 34.6353 31.4945 32.7068C32.3699 31.3357 32.7733 32.2759 33.8227 33.4003L47.729 48.2286C48.327 48.8704 48.7235 49.1062 48.074 49.6902ZM43.6107 55.3102C43.2604 55.9473 43.0509 56.3799 42.7662 57.0545C42.4217 57.8695 42.3679 57.9632 41.4951 57.7603L27.0408 54.4139C25.4926 54.0578 25.7598 53.9282 25.7598 52.326C25.7598 50.5678 25.8876 48.8392 26.1299 47.1448C26.3703 45.4631 27.2602 45.8909 28.7889 46.667L42.8528 53.7814C43.8466 54.2889 44.1408 54.3497 43.6107 55.3102Z" fill="white"/>
<path fill-rule="evenodd" clip-rule="evenodd" d="M73.7138 50.2402C73.7138 50.2402 74.1132 52.0668 74.5529 52.4942C74.5529 52.4942 74.0928 52.2609 74.2725 52.6883C74.4525 53.1157 74.7122 54.4959 75.5109 55.117C75.5109 55.117 74.7718 54.8254 74.9115 55.0784C75.0512 55.3307 74.1925 54.4562 74.3725 54.8451C74.5518 55.2339 74.9817 56.2081 75.5407 56.6937C75.5407 56.6937 74.9417 56.6165 75.3014 57.0826C75.6607 57.5486 76.3099 58.6898 76.7096 59.0007C77.109 59.312 76.0201 58.7368 76.1801 59.1832C76.3398 59.6303 75.394 58.4933 75.5137 58.8038C75.6334 59.1148 75.1315 58.8351 75.3112 59.1653C75.4909 59.4959 74.5525 58.6529 74.5725 58.9639C74.5922 59.2748 75.6709 60.1633 76.1503 60.8045C76.1503 60.8045 75.2712 60.6876 75.9706 61.2901C76.6696 61.8927 76.7897 62.85 77.8484 63.4329C77.8484 63.4329 77.149 63.0251 77.329 63.5883C77.5087 64.1523 76.6503 63.4722 76.69 63.7245C76.73 63.9768 76.2906 63.2971 76.2703 63.6662C76.2503 64.0354 75.5316 62.85 75.5316 63.2578C75.5316 63.6662 75.1923 63.0251 75.1923 63.3557C75.1923 63.6855 76.0113 64.8334 76.9497 65.5721C77.8888 66.3105 75.6116 64.9934 76.91 66.1318C78.2084 67.2709 78.5081 67.6075 79.2072 68.0742C79.9062 68.5409 77.8287 67.7566 77.9691 68.2609C78.1088 68.7648 77.03 68.0553 77.1501 68.3546C77.2697 68.6532 76.4707 67.7942 76.451 68.2609C76.431 68.7276 75.652 67.7759 75.712 68.0924C75.772 68.41 75.2926 67.9058 75.2726 68.2233C75.2526 68.5409 74.6736 68.0359 74.7336 68.1861C74.7933 68.3353 74.7132 70.1843 75.2526 71.1925H73.7149H72.1771C72.7165 70.1843 72.6365 68.3353 72.6961 68.1861C72.7561 68.0363 72.1771 68.5409 72.1571 68.2233C72.1371 67.9058 71.6577 68.41 71.7178 68.0924C71.7774 67.7756 70.9987 68.7276 70.9787 68.2609C70.9591 67.7942 70.1596 68.6532 70.2797 68.3546C70.3997 68.0553 69.3209 68.7652 69.4606 68.2609C69.6006 67.757 67.5228 68.5409 68.2225 68.0742C68.9212 67.6075 69.2213 67.2709 70.5197 66.1318C71.8178 64.9934 69.541 66.3101 70.4797 65.5721C71.4184 64.8334 72.2375 63.6852 72.2375 63.3557C72.2375 63.0251 71.8981 63.6662 71.8981 63.2578C71.8981 62.85 71.1791 64.0354 71.1591 63.6662C71.1391 63.2971 70.6994 63.9772 70.7394 63.7245C70.779 63.4722 69.9207 64.1519 70.1003 63.5883C70.2804 63.0251 69.581 63.4329 69.581 63.4329C70.6397 62.85 70.7594 61.8927 71.4584 61.2901C72.1578 60.6876 71.2791 60.8045 71.2791 60.8045C71.7585 60.1633 72.8372 59.2744 72.8569 58.9639C72.8769 58.6533 71.9381 59.4959 72.1182 59.1653C72.2978 58.8351 71.7957 59.1144 71.9153 58.8038C72.0353 58.4929 71.0896 59.6303 71.2493 59.1832C71.4089 58.7368 70.32 59.312 70.7197 59.0007C71.1194 58.6898 71.7686 57.5489 72.128 57.0826C72.4877 56.6165 71.8883 56.6937 71.8883 56.6937C72.4473 56.2081 72.8769 55.2335 73.0565 54.8451C73.2362 54.4562 72.3775 55.3307 72.5175 55.0784C72.6572 54.8254 71.9181 55.117 71.9181 55.117C72.7172 54.4955 72.9765 53.1154 73.1569 52.6883C73.3366 52.2609 72.8769 52.4942 72.8769 52.4942C73.3145 52.0668 73.7138 50.2402 73.7138 50.2402Z" fill="white"/>
<path fill-rule="evenodd" clip-rule="evenodd" d="M81.4972 63.0039C81.4972 63.0039 81.6495 63.7008 81.8173 63.8637C81.8173 63.8637 81.6418 63.7749 81.7106 63.9377C81.7794 64.1012 81.8783 64.6276 82.1833 64.8645C82.1833 64.8645 81.9015 64.754 81.9545 64.8501C82.0082 64.9459 81.6804 64.6125 81.7488 64.7606C81.8173 64.9091 81.9811 65.2811 82.1945 65.4663C82.1945 65.4663 81.9657 65.4372 82.1029 65.6148C82.2401 65.7927 82.4879 66.2282 82.6402 66.3468C82.7928 66.4654 82.3773 66.2457 82.4384 66.4166C82.4991 66.5868 82.1387 66.1527 82.1843 66.2714C82.2296 66.39 82.0383 66.2836 82.1068 66.4093C82.1752 66.5356 81.8169 66.2138 81.8246 66.3324C81.8323 66.451 82.244 66.7904 82.4272 67.0346C82.4272 67.0346 82.0917 66.9904 82.3584 67.2206C82.6254 67.4501 82.6707 67.8158 83.075 68.0383C83.075 68.0383 82.8079 67.8821 82.877 68.0972C82.9455 68.3123 82.6177 68.053 82.6332 68.1495C82.6482 68.246 82.4809 67.986 82.4731 68.127C82.4658 68.2681 82.1913 67.8158 82.1913 67.9709C82.1913 68.127 82.0619 67.8821 82.0619 68.0081C82.0619 68.1344 82.3742 68.572 82.7325 68.8542C83.0908 69.1356 82.2219 68.6331 82.717 69.0679C83.2125 69.5027 83.3269 69.6304 83.5936 69.8087C83.8607 69.9873 83.0679 69.688 83.1209 69.8799C83.1743 70.0726 82.7626 69.802 82.8086 69.9161C82.8542 70.0301 82.5493 69.7023 82.5416 69.8799C82.5342 70.0582 82.237 69.6946 82.2598 69.816C82.2829 69.9368 82.1001 69.7448 82.0924 69.8655C82.0847 69.9869 81.8636 69.7943 81.8864 69.8511C81.9095 69.908 81.879 70.6137 82.0847 70.9983H81.4983H80.9115C81.1175 70.6137 81.0866 69.908 81.1098 69.8511C81.1326 69.7943 80.9115 69.9869 80.9038 69.8655C80.8964 69.7448 80.7136 69.9368 80.7364 69.816C80.7592 69.6946 80.462 70.0582 80.4546 69.8799C80.4469 69.7023 80.1423 70.0298 80.1876 69.9161C80.2332 69.802 79.8219 70.0726 79.8752 69.8799C79.9286 69.688 79.1362 69.9869 79.4025 69.8087C79.6692 69.6304 79.7836 69.5027 80.2792 69.0679C80.7743 68.6331 79.9058 69.1356 80.2641 68.8542C80.6224 68.572 80.9347 68.1344 80.9347 68.0081C80.9347 67.8818 80.8052 68.1267 80.8052 67.9709C80.8052 67.8154 80.5311 68.2681 80.5234 68.127C80.516 67.986 80.3479 68.2457 80.3634 68.1495C80.3788 68.053 80.0511 68.3123 80.1195 68.0972C80.1883 67.8821 79.9216 68.0383 79.9216 68.0383C80.3255 67.8158 80.3714 67.4501 80.6381 67.2206C80.9052 66.9908 80.5697 67.0346 80.5697 67.0346C80.7526 66.7904 81.1645 66.451 81.1719 66.3324C81.1793 66.2138 80.8213 66.5353 80.8901 66.4093C80.9585 66.2836 80.7669 66.3903 80.8129 66.2714C80.8582 66.1527 80.4978 66.5868 80.5585 66.4166C80.6196 66.2457 80.2044 66.4654 80.3567 66.3468C80.509 66.2282 80.7568 65.7923 80.894 65.6148C81.0312 65.4372 80.8024 65.4663 80.8024 65.4663C81.0157 65.2811 81.1796 64.9094 81.2484 64.7606C81.3168 64.6125 80.9894 64.9459 81.0424 64.8501C81.0958 64.7536 80.814 64.8645 80.814 64.8645C81.1189 64.6276 81.2179 64.1012 81.2867 63.9377C81.3551 63.7749 81.1796 63.8637 81.1796 63.8637C81.3446 63.7008 81.4972 63.0039 81.4972 63.0039Z" fill="white"/>
<path fill-rule="evenodd" clip-rule="evenodd" d="M42.775 63.3552C42.775 63.3552 42.8967 63.9156 43.0304 64.0465C43.0304 64.0465 42.8901 63.9752 42.9453 64.1064C43.0001 64.2372 43.079 64.6605 43.3224 64.8513C43.3224 64.8513 43.0977 64.762 43.14 64.8391C43.1824 64.9163 42.9208 64.6484 42.976 64.7671C43.0308 64.8865 43.1614 65.1857 43.3317 65.3341C43.3317 65.3341 43.1494 65.3106 43.2586 65.4536C43.3679 65.5965 43.5658 65.9466 43.6875 66.0418C43.8088 66.1374 43.4771 65.9607 43.5257 66.0978C43.5747 66.2349 43.2866 65.8859 43.3232 65.9811C43.3597 66.0767 43.2065 65.9909 43.2614 66.0915C43.3162 66.193 43.0308 65.9349 43.0366 66.0301C43.0429 66.1256 43.371 66.3982 43.5172 66.594C43.5172 66.594 43.2497 66.5584 43.4624 66.7432C43.6754 66.9281 43.712 67.2218 44.0343 67.4004C44.0343 67.4004 43.8212 67.2755 43.876 67.4482C43.9308 67.6209 43.6692 67.4125 43.6812 67.4897C43.6937 67.5676 43.5599 67.3589 43.5533 67.4724C43.5475 67.5852 43.3286 67.2218 43.3286 67.3467C43.3286 67.4724 43.2252 67.2755 43.2252 67.3773C43.2252 67.4779 43.4744 67.83 43.7606 68.0571C44.0463 68.2835 43.3531 67.8793 43.7485 68.2283C44.1435 68.578 44.2349 68.681 44.4475 68.8244C44.6602 68.9673 44.028 68.7264 44.0704 68.8819C44.1128 69.0362 43.7843 68.8185 43.8212 68.9105C43.8574 69.0022 43.614 68.7386 43.6081 68.8819C43.6023 69.0249 43.3652 68.7327 43.383 68.8306C43.4013 68.9273 43.2555 68.773 43.2493 68.8706C43.2435 68.9677 43.067 68.813 43.0856 68.8584C43.1035 68.9046 43.079 69.4717 43.2435 69.7807H42.775H42.3069C42.4713 69.4717 42.4472 68.9046 42.4651 68.8584C42.4834 68.813 42.3069 68.9677 42.3007 68.8706C42.2948 68.7727 42.149 68.9273 42.1669 68.8306C42.1852 68.7327 41.948 69.0253 41.9422 68.8819C41.9364 68.739 41.6926 69.0022 41.7295 68.9105C41.7657 68.8181 41.4372 69.0362 41.4799 68.8819C41.5223 68.7268 40.8898 68.9673 41.1024 68.8244C41.3155 68.6814 41.4068 68.5784 41.8022 68.2283C42.1972 67.8793 41.504 68.2835 41.7902 68.0571C42.0759 67.83 42.3252 67.4779 42.3252 67.3773C42.3252 67.2758 42.2217 67.4724 42.2217 67.3467C42.2217 67.2218 42.0029 67.5852 41.997 67.4724C41.9912 67.3589 41.8567 67.568 41.8691 67.4897C41.8812 67.4125 41.6195 67.6209 41.6743 67.4482C41.7291 67.2755 41.5161 67.4004 41.5161 67.4004C41.8384 67.2218 41.8749 66.9281 42.0876 66.7432C42.3007 66.5584 42.0332 66.594 42.0332 66.594C42.179 66.3978 42.5075 66.1252 42.5133 66.0301C42.5192 65.9345 42.2338 66.193 42.2882 66.0915C42.343 65.9909 42.1902 66.0763 42.2268 65.9811C42.2633 65.8856 41.9752 66.2349 42.0238 66.0978C42.0728 65.9607 41.7412 66.1374 41.8629 66.0418C41.9842 65.9463 42.1821 65.5965 42.2913 65.4536C42.401 65.3106 42.2182 65.3341 42.2182 65.3341C42.3885 65.1857 42.5192 64.8865 42.5744 64.7671C42.6288 64.648 42.3671 64.9163 42.4103 64.8391C42.4527 64.762 42.2276 64.8513 42.2276 64.8513C42.4713 64.6605 42.5499 64.2372 42.6051 64.1064C42.6599 63.9752 42.5195 64.0465 42.5195 64.0465C42.6537 63.9153 42.775 63.3552 42.775 63.3552Z" fill="white"/>
<path d="M46.25 62.1846C46.3012 61.827 46.3398 61.4671 46.4053 61.1117C46.5831 60.1504 46.9093 59.2476 47.481 58.4405C47.9988 57.7092 48.6872 57.2061 49.5083 56.8701C50.6156 56.4168 51.7776 56.1955 52.96 56.0569C54.3649 55.8924 55.775 55.8513 57.1868 55.8829C58.7452 55.9175 60.3002 56.011 61.8174 56.4103C62.5552 56.6042 63.2648 56.8671 63.8664 57.3602C64.3188 57.7309 64.6199 58.2011 64.8033 58.7519C65.1521 59.8001 65.3763 60.8783 65.5615 61.9642C65.6747 62.6293 65.771 63.2978 65.853 63.9676C65.9102 64.4392 65.8716 64.9111 65.7341 65.3679C65.473 66.2374 64.8697 66.7271 63.9901 66.8834C63.7146 66.9319 63.4314 66.9514 63.1516 66.9522C61.5615 66.9587 59.9714 66.9518 58.3809 66.9596C58.1809 66.9605 58.1189 66.8899 58.0942 66.7037C57.9715 65.7788 57.2033 65.0644 56.2326 64.9562C55.3703 64.8605 54.4551 65.4325 54.148 66.2647C54.0955 66.4067 54.0452 66.5556 54.0296 66.7046C54.0096 66.8938 53.9389 66.9605 53.7403 66.9587C52.3927 66.9501 51.045 66.9544 49.6978 66.9544C49.3209 66.9544 48.9427 66.9328 48.5679 66.9587C47.7924 67.0129 47.304 66.6123 46.9527 65.9849C46.5367 65.2424 46.371 64.4275 46.2895 63.5909C46.2821 63.5165 46.2639 63.4433 46.2509 63.3693C46.25 62.9757 46.25 62.5799 46.25 62.1846ZM59.3495 61.7265C59.3495 62.7973 59.349 63.8681 59.3499 64.9388C59.3503 65.2151 59.4249 65.2891 59.703 65.2896C60.501 65.2904 61.2991 65.2909 62.0972 65.2896C62.3648 65.2891 62.4485 65.206 62.4485 64.9319C62.4494 62.7964 62.4494 60.6613 62.4485 58.5263C62.4485 58.2448 62.3644 58.1656 62.0799 58.1656C61.3009 58.1647 60.5219 58.1652 59.7433 58.1656C59.4132 58.1656 59.3499 58.2279 59.3495 58.5536C59.349 59.61 59.3495 60.6678 59.3495 61.7265ZM51.8179 58.16C51.2376 58.16 50.6564 58.1591 50.076 58.1604C49.8184 58.1608 49.7607 58.2176 49.7603 58.4756C49.7581 59.0615 49.7581 59.6477 49.7603 60.2344C49.7611 60.502 49.8171 60.5579 50.0904 60.5579C51.2389 60.5592 52.3879 60.5592 53.5364 60.5579C53.8028 60.5574 53.8639 60.4946 53.8648 60.2301C53.8661 59.6507 53.8661 59.0705 53.8648 58.4912C53.8643 58.218 53.8045 58.1613 53.5226 58.1608C52.9539 58.1595 52.3862 58.16 51.8179 58.16ZM58.2178 59.3728C58.2178 59.061 58.2209 58.7488 58.217 58.4371C58.2143 58.2292 58.1484 58.166 57.9376 58.1652C57.3191 58.163 56.7002 58.163 56.0816 58.1652C55.8691 58.1656 55.7975 58.2379 55.7967 58.4544C55.7941 59.0653 55.7941 59.6763 55.7967 60.2881C55.7975 60.5059 55.8687 60.5791 56.0799 60.5795C56.6984 60.5817 57.3174 60.5817 57.9359 60.5795C58.1519 60.5791 58.2152 60.5128 58.217 60.2898C58.2204 59.9837 58.2182 59.678 58.2178 59.3728Z" fill="white"/>
<path d="M56.0207 65.6445C56.7915 65.6437 57.4207 66.2687 57.4298 67.0448C57.439 67.8113 56.7815 68.4685 56.0129 68.4611C55.2455 68.4537 54.6072 67.8087 54.6133 67.047C54.6198 66.2726 55.249 65.6454 56.0207 65.6445Z" fill="white"/>
<path d="M27.5312 122.122C27.5312 120.774 27.7498 119.503 28.187 118.311C28.6242 117.092 29.2671 116.042 30.1157 115.161C30.9643 114.254 32.0058 113.541 33.2402 113.022C34.4746 112.504 35.8761 112.245 37.4448 112.245C38.9106 112.245 40.235 112.478 41.4179 112.945C42.6008 113.411 43.6038 114.072 44.4267 114.928C45.2753 115.783 45.9311 116.833 46.394 118.077C46.8826 119.296 47.1526 120.657 47.204 122.16C47.2297 122.653 47.2426 123.262 47.2426 123.988C47.2426 124.688 47.2812 125.466 47.3583 126.321C47.4355 127.177 47.5769 128.084 47.7826 129.043C47.9884 129.976 48.3098 130.923 48.747 131.882H44.1181C43.6809 130.923 43.3595 129.924 43.1537 128.888C42.4851 129.873 41.6365 130.65 40.6079 131.221C39.5792 131.791 38.3448 132.076 36.9047 132.076C35.5418 132.076 34.2817 131.817 33.1245 131.298C31.9673 130.78 30.9772 130.08 30.1543 129.199C29.3314 128.291 28.6885 127.241 28.2256 126.049C27.7627 124.831 27.5312 123.521 27.5312 122.122ZM37.4448 116.6C36.4933 116.6 35.6832 116.742 35.0146 117.028C34.346 117.313 33.7931 117.715 33.3559 118.233C32.9445 118.726 32.6359 119.309 32.4302 119.983C32.2501 120.657 32.1601 121.383 32.1601 122.16C32.1601 122.938 32.2501 123.664 32.4302 124.338C32.6359 125.012 32.9445 125.608 33.3559 126.127C33.7931 126.619 34.346 127.008 35.0146 127.293C35.6832 127.578 36.4933 127.721 37.4448 127.721C39.0392 127.721 40.2864 127.28 41.1865 126.399C42.1122 125.492 42.5751 124.079 42.5751 122.16C42.498 120.449 42.0608 119.101 41.2636 118.116C40.4664 117.105 39.1935 116.6 37.4448 116.6Z" fill="white"/>
<path d="M56.4458 131.882H51.8169V104.662H56.4458V131.882Z" fill="white"/>
<path d="M65.7126 113.1H71.0359V117.455H65.7126V131.882H61.0838V112.478C61.0838 111.104 61.3023 109.808 61.7395 108.59C62.1767 107.371 62.8196 106.321 63.6682 105.44C64.5168 104.533 65.5583 103.82 66.7927 103.301C68.0271 102.783 69.4415 102.523 71.0359 102.523C71.3187 102.523 71.6016 102.549 71.8845 102.601C72.1674 102.627 72.4502 102.666 72.7331 102.718V107.229C72.476 107.177 72.2317 107.138 72.0002 107.112C71.7688 107.06 71.5245 107.034 71.2673 107.034C70.2129 107.034 69.3257 107.177 68.6057 107.462C67.9114 107.747 67.3456 108.136 66.9084 108.628C66.4713 109.095 66.1627 109.665 65.9827 110.339C65.8026 110.987 65.7126 111.687 65.7126 112.439V113.1Z" fill="white"/>
<path d="M73.4886 122.122C73.4886 120.774 73.7072 119.503 74.1444 118.311C74.5816 117.092 75.2245 116.042 76.0731 115.161C76.9217 114.254 77.9632 113.541 79.1976 113.022C80.432 112.504 81.8335 112.245 83.4022 112.245C84.868 112.245 86.1923 112.478 87.3753 112.945C88.5582 113.411 89.5611 114.072 90.3841 114.928C91.2327 115.783 91.8885 116.833 92.3513 118.077C92.84 119.296 93.11 120.657 93.1614 122.16C93.1871 122.653 93.2 123.262 93.2 123.988C93.2 124.688 93.2385 125.466 93.3157 126.321C93.3928 127.177 93.5343 128.084 93.74 129.043C93.9457 129.976 94.2672 130.923 94.7044 131.882H90.0755C89.6383 130.923 89.3168 129.924 89.1111 128.888C88.4425 129.873 87.5939 130.65 86.5652 131.221C85.5366 131.791 84.3022 132.076 82.8621 132.076C81.4992 132.076 80.2391 131.817 79.0819 131.298C77.9246 130.78 76.9346 130.08 76.1117 129.199C75.2887 128.291 74.6458 127.241 74.183 126.049C73.7201 124.831 73.4886 123.521 73.4886 122.122ZM83.4022 116.6C82.4507 116.6 81.6406 116.742 80.972 117.028C80.3034 117.313 79.7505 117.715 79.3133 118.233C78.9019 118.726 78.5933 119.309 78.3875 119.983C78.2075 120.657 78.1175 121.383 78.1175 122.16C78.1175 122.938 78.2075 123.664 78.3875 124.338C78.5933 125.012 78.9019 125.608 79.3133 126.127C79.7505 126.619 80.3034 127.008 80.972 127.293C81.6406 127.578 82.4507 127.721 83.4022 127.721C84.9966 127.721 86.2438 127.28 87.1438 126.399C88.0696 125.492 88.5325 124.079 88.5325 122.16C88.4554 120.449 88.0182 119.101 87.221 118.116C86.4238 117.105 85.1509 116.6 83.4022 116.6Z" fill="white"/>
<path d="M31.4281 140.899H34.149V144.556C33.7669 144.683 33.3716 144.781 32.963 144.85C32.5543 144.92 32.0959 144.955 31.5876 144.955C30.8468 144.955 30.2189 144.809 29.7039 144.517C29.1923 144.221 28.8036 143.794 28.5379 143.236C28.2721 142.674 28.1392 141.998 28.1392 141.208C28.1392 140.447 28.2871 139.788 28.5827 139.229C28.8784 138.668 29.3086 138.234 29.8734 137.929C30.4381 137.62 31.1225 137.465 31.9265 137.465C32.3218 137.465 32.7038 137.505 33.0726 137.585C33.4447 137.661 33.7852 137.768 34.0941 137.904L33.6756 138.891C33.4297 138.774 33.154 138.676 32.8483 138.597C32.5427 138.517 32.2254 138.477 31.8966 138.477C31.375 138.477 30.9248 138.59 30.5461 138.816C30.1707 139.042 29.8817 139.361 29.679 139.773C29.4764 140.181 29.3751 140.665 29.3751 141.223C29.3751 141.764 29.4564 142.239 29.6192 142.648C29.782 143.056 30.0362 143.375 30.3817 143.605C30.7305 143.831 31.1806 143.943 31.7321 143.943C32.0078 143.943 32.2421 143.929 32.4347 143.899C32.6274 143.869 32.8052 143.836 32.9679 143.799V141.92H31.4281V140.899Z" fill="white"/>
<path d="M37.8321 144.855V137.57H39.0281V143.839H42.1227V144.855H37.8321Z" fill="white"/>
<path d="M49.8373 144.855L49.1247 142.832H46.3391L45.6265 144.855H44.3657L47.0766 137.54H48.4021L51.108 144.855H49.8373ZM48.8157 141.806L48.123 139.812C48.0965 139.726 48.0583 139.605 48.0084 139.449C47.9586 139.289 47.9088 139.128 47.8589 138.965C47.8091 138.799 47.7676 138.66 47.7343 138.547C47.7011 138.683 47.6596 138.836 47.6098 139.005C47.5633 139.171 47.5167 139.327 47.4702 139.474C47.427 139.62 47.3938 139.733 47.3706 139.812L46.6729 141.806H48.8157Z" fill="white"/>
<path d="M57.1532 144.855L55.0553 138.771H55.0104C55.0204 138.907 55.032 139.093 55.0453 139.329C55.0586 139.565 55.0702 139.817 55.0802 140.086C55.0901 140.356 55.0951 140.613 55.0951 140.859V144.855H54.0088V137.57H55.6881L57.7063 143.385H57.7362L59.8242 137.57H61.4985V144.855H60.3574V140.799C60.3574 140.577 60.3607 140.336 60.3673 140.077C60.3773 139.817 60.3873 139.572 60.3972 139.339C60.4105 139.106 60.4205 138.92 60.4271 138.781H60.3873L58.2096 144.855H57.1532Z" fill="white"/>
<path d="M67.474 137.57C68.4141 137.57 69.1002 137.763 69.532 138.148C69.9639 138.533 70.1799 139.073 70.1799 139.768C70.1799 140.083 70.13 140.384 70.0304 140.67C69.934 140.952 69.7746 141.203 69.552 141.422C69.3294 141.638 69.0354 141.809 68.67 141.935C68.3078 142.062 67.861 142.125 67.3295 142.125H66.5521V144.855H65.3561V137.57H67.474ZM67.3943 138.562H66.5521V141.128H67.2049C67.5803 141.128 67.8992 141.085 68.1617 140.998C68.4241 140.909 68.6234 140.768 68.7597 140.575C68.8959 140.382 68.964 140.128 68.964 139.812C68.964 139.391 68.8361 139.077 68.5803 138.871C68.3278 138.665 67.9324 138.562 67.3943 138.562Z" fill="white"/>
<path d="M73.574 144.855V137.57H74.77V144.855H73.574Z" fill="white"/>
<path d="M84.7121 144.855H83.242L79.674 139.04H79.6292C79.6425 139.236 79.6541 139.444 79.6641 139.663C79.6774 139.882 79.6873 140.108 79.694 140.341C79.7039 140.573 79.7122 140.809 79.7189 141.048V144.855H78.6326V137.57H80.0926L83.6556 143.346H83.6905C83.6839 143.176 83.6756 142.982 83.6656 142.762C83.6556 142.543 83.6457 142.317 83.6357 142.085C83.629 141.849 83.6241 141.621 83.6207 141.402V137.57H84.7121V144.855Z" fill="white"/>
<path d="M91.5047 140.899H94.2256V144.556C93.8435 144.683 93.4482 144.781 93.0396 144.85C92.631 144.92 92.1725 144.955 91.6642 144.955C90.9234 144.955 90.2955 144.809 89.7806 144.517C89.269 144.221 88.8803 143.794 88.6145 143.236C88.3487 142.674 88.2158 141.998 88.2158 141.208C88.2158 140.447 88.3637 139.788 88.6593 139.229C88.955 138.668 89.3852 138.234 89.95 137.929C90.5148 137.62 91.1991 137.465 92.0031 137.465C92.3984 137.465 92.7804 137.505 93.1492 137.585C93.5213 137.661 93.8618 137.768 94.1708 137.904L93.7522 138.891C93.5063 138.774 93.2306 138.676 92.925 138.597C92.6193 138.517 92.3021 138.477 91.9732 138.477C91.4516 138.477 91.0014 138.59 90.6227 138.816C90.2473 139.042 89.9583 139.361 89.7556 139.773C89.553 140.181 89.4517 140.665 89.4517 141.223C89.4517 141.764 89.5331 142.239 89.6959 142.648C89.8586 143.056 90.1128 143.375 90.4583 143.605C90.8071 143.831 91.2572 143.943 91.8087 143.943C92.0845 143.943 92.3187 143.929 92.5114 143.899C92.704 143.869 92.8818 143.836 93.0446 143.799V141.92H91.5047V140.899Z" fill="white"/>
</svg>
</symbol>

</defs>
</svg>
