<svg aria-hidden="true" xmlns="http://www.w3.org/2000/svg" overflow="hidden">version="1.1" xmlns="http://www.w3.org/2000/svg" xmlns:xlink="http://www.w3.org/1999/xlink">
<defs>

<symbol id="icon-facebook">
<path fill-rule="evenodd" clip-rule="evenodd" d="M10.7574 3.25736C11.8826 2.13214 13.4087 1.5 15 1.5H18C18.5523 1.5 19 1.94772 19 2.5V6.5C19 7.05228 18.5523 7.5 18 7.5H15V9.5H18C18.3079 9.5 18.5987 9.64187 18.7882 9.88459C18.9777 10.1273 19.0448 10.4438 18.9701 10.7425L17.9701 14.7425C17.8589 15.1877 17.4589 15.5 17 15.5H15V22.5C15 23.0523 14.5523 23.5 14 23.5H10C9.44772 23.5 9 23.0523 9 22.5V15.5H7C6.44772 15.5 6 15.0523 6 14.5V10.5C6 9.94772 6.44772 9.5 7 9.5H9V7.5C9 5.9087 9.63214 4.38258 10.7574 3.25736ZM15 3.5C13.9391 3.5 12.9217 3.92143 12.1716 4.67157C11.4214 5.42172 11 6.43913 11 7.5V10.5C11 11.0523 10.5523 11.5 10 11.5H8V13.5H10C10.5523 13.5 11 13.9477 11 14.5V21.5H13V14.5C13 13.9477 13.4477 13.5 14 13.5H16.2192L16.7192 11.5H14C13.4477 11.5 13 11.0523 13 10.5V7.5C13 6.96957 13.2107 6.46086 13.5858 6.08579C13.9609 5.71071 14.4696 5.5 15 5.5H17V3.5H15Z"/>
</symbol>
<symbol id="icon-instagram">
<path fill-rule="evenodd" clip-rule="evenodd" d="M7 3.5C4.79086 3.5 3 5.29086 3 7.5V17.5C3 19.7091 4.79086 21.5 7 21.5H17C19.2091 21.5 21 19.7091 21 17.5V7.5C21 5.29086 19.2091 3.5 17 3.5H7ZM1 7.5C1 4.18629 3.68629 1.5 7 1.5H17C20.3137 1.5 23 4.18629 23 7.5V17.5C23 20.8137 20.3137 23.5 17 23.5H7C3.68629 23.5 1 20.8137 1 17.5V7.5Z"/>
<path fill-rule="evenodd" clip-rule="evenodd" d="M12.4833 9.48918C11.8591 9.39662 11.2216 9.50324 10.6615 9.79386C10.1014 10.0845 9.64721 10.5443 9.36351 11.108C9.07982 11.6716 8.98107 12.3103 9.08132 12.9333C9.18157 13.5563 9.47571 14.1319 9.9219 14.5781C10.3681 15.0242 10.9436 15.3184 11.5666 15.4186C12.1896 15.5189 12.8283 15.4201 13.392 15.1364C13.9556 14.8527 14.4155 14.3985 14.7061 13.8384C14.9967 13.2783 15.1033 12.6409 15.0108 12.0167C14.9164 11.38 14.6197 10.7905 14.1645 10.3354C13.7094 9.88028 13.12 9.58359 12.4833 9.48918ZM9.74037 8.01862C10.6739 7.53424 11.7363 7.35655 12.7766 7.51081C13.8378 7.66817 14.8202 8.16264 15.5788 8.9212C16.3373 9.67975 16.8318 10.6622 16.9891 11.7233C17.1434 12.7636 16.9657 13.8261 16.4813 14.7596C15.997 15.6931 15.2306 16.4501 14.2912 16.9229C13.3518 17.3957 12.2872 17.5603 11.2489 17.3932C10.2105 17.2261 9.25134 16.7359 8.50768 15.9923C7.76403 15.2486 7.2738 14.2894 7.10672 13.2511C6.93964 12.2128 7.10422 11.1482 7.57704 10.2088C8.04987 9.26938 8.80687 8.50299 9.74037 8.01862Z"/>
</symbol>
<symbol id="icon-youtube">
<path fill-rule="evenodd" clip-rule="evenodd" d="M11.9999 3.5C12 3.5 12.0001 3.5 12.0001 4.5L12.0001 5.5L11.9246 5.50011C11.8746 5.50022 11.8007 5.50044 11.7058 5.50089C11.516 5.50178 11.2426 5.50356 10.9089 5.50713C10.2411 5.51427 9.33406 5.52855 8.37479 5.55706C7.41391 5.58561 6.40869 5.62821 5.5422 5.69141C4.65409 5.75619 3.99421 5.83761 3.66544 5.92419C3.36674 6.01 3.09566 6.17253 2.87922 6.39566C2.66809 6.61333 2.51618 6.88119 2.43769 7.17375C2.13815 8.84737 1.99167 10.5448 2.00007 12.2451L2.00013 12.2563C1.98941 13.9635 2.13479 15.6681 2.43456 17.3487C2.52119 17.6264 2.67461 17.8788 2.88166 18.0837C3.09857 18.2984 3.36702 18.4537 3.66122 18.5347C3.98854 18.6217 4.65028 18.7035 5.5422 18.7686C6.40869 18.8318 7.41391 18.8744 8.37479 18.9029C9.33406 18.9314 10.2411 18.9457 10.9089 18.9529C11.2426 18.9564 11.516 18.9582 11.7058 18.9591C11.8007 18.9596 11.8746 18.9598 11.9246 18.9599H12.0756C12.1256 18.9598 12.1995 18.9596 12.2944 18.9591C12.4841 18.9582 12.7576 18.9564 13.0913 18.9529C13.759 18.9457 14.6661 18.9314 15.6254 18.9029C16.5863 18.8744 17.5915 18.8318 18.458 18.7686C19.3461 18.7038 20.006 18.6224 20.3347 18.5358C20.6334 18.45 20.9045 18.2875 21.1209 18.0643C21.3321 17.8467 21.484 17.5788 21.5625 17.2863C21.8597 15.6253 22.0062 13.9409 22.0001 12.2536L22.0001 12.2437C22.0108 10.5306 21.8644 8.82008 21.5625 7.13377C21.484 6.8412 21.3321 6.57333 21.1209 6.35566C20.907 6.13509 20.6396 5.97373 20.345 5.88717C20.005 5.8072 19.3427 5.73348 18.4643 5.67498C17.596 5.61716 16.5894 5.57822 15.628 5.55213C14.668 5.52609 13.7603 5.51304 13.0922 5.50651C12.7583 5.50325 12.4847 5.50162 12.2948 5.50081L12.0758 5.5001L12.0001 5.5L12.0001 4.5C12.0001 3.5 12 3.5 11.9999 3.5L12.0798 3.5001C12.1313 3.50021 12.2068 3.50042 12.3034 3.50083C12.4964 3.50166 12.7737 3.50331 13.1117 3.50661C13.7874 3.51321 14.7072 3.52641 15.6822 3.55287C16.6558 3.57928 17.6916 3.61909 18.5972 3.6794C19.4768 3.73798 20.3116 3.82017 20.8373 3.94854C20.849 3.95141 20.8607 3.95448 20.8723 3.95777C21.5124 4.13886 22.0934 4.48566 22.5565 4.96315C23.0197 5.44063 23.3486 6.03189 23.5102 6.67719L22.5401 6.92L23.5242 6.74249C23.8521 8.56021 24.0114 10.4043 24.0001 12.2513C24.0063 14.0707 23.8471 15.8869 23.5242 17.6774C23.5203 17.6994 23.5156 17.7212 23.5102 17.7428C23.3486 18.3881 23.0197 18.9794 22.5565 19.4569C22.0934 19.9343 21.5124 20.2811 20.8723 20.4622L20.8584 20.466C20.3248 20.6088 19.4828 20.6992 18.6035 20.7633C17.6962 20.8295 16.6589 20.8731 15.6848 20.9021C14.7091 20.9311 13.7886 20.9455 13.1127 20.9528C12.7745 20.9564 12.497 20.9582 12.3038 20.9591C12.2071 20.9595 12.1316 20.9598 12.08 20.9599L12.0005 20.96L11.9202 20.9599C11.8686 20.9598 11.793 20.9595 11.6964 20.9591C11.5032 20.9582 11.2257 20.9564 10.8875 20.9528C10.2115 20.9455 9.29111 20.9311 8.31538 20.9021C7.34126 20.8731 6.30398 20.8295 5.39671 20.7633C4.51741 20.6992 3.67537 20.6088 3.14172 20.466L3.13616 20.4646C2.50909 20.293 1.93687 19.9626 1.47479 19.5052C1.01271 19.0479 0.676391 18.4792 0.498325 17.8539C0.489286 17.8222 0.481823 17.79 0.475965 17.7575C0.148126 15.94 -0.0111821 14.0961 6.83708e-05 12.2493C-0.00864589 10.4164 0.150649 8.58643 0.475958 6.78253C0.479912 6.7606 0.484598 6.73881 0.490009 6.71719C0.651527 6.07189 0.980479 5.48063 1.44364 5.00315C1.9068 4.52566 2.48776 4.17886 3.12785 3.99777L3.14172 3.99395C3.67537 3.85123 4.51741 3.76085 5.39671 3.69671C6.30398 3.63054 7.34125 3.58689 8.31538 3.55794C9.29111 3.52895 10.2115 3.51448 10.8875 3.50724C11.2257 3.50363 11.5032 3.50182 11.6964 3.50091C11.793 3.50046 11.8686 3.50023 11.9202 3.50011L11.9999 3.5Z"/>
<path fill-rule="evenodd" clip-rule="evenodd" d="M9.24718 8.11562C9.55499 7.93656 9.9348 7.93471 10.2443 8.11075L15.9943 11.3807C16.3069 11.5585 16.5 11.8904 16.5 12.25C16.5 12.6096 16.3069 12.9415 15.9943 13.1193L10.2443 16.3893C9.9348 16.5653 9.55499 16.5635 9.24718 16.3844C8.93937 16.2053 8.75 15.8761 8.75 15.52V8.98001C8.75 8.62391 8.93937 8.29467 9.24718 8.11562ZM10.75 10.6991V13.8009L13.4771 12.25L10.75 10.6991Z" stroke-linecap="round" stroke-linejoin="round"/>
</symbol>
<symbol id="icon-tiktok">
<path d="M22 10.5442C19.9558 10.5442 18.0608 9.91718 16.5145 8.85197V16.5385C16.5145 20.3777 13.2586 23.5 9.25726 23.5C7.71101 23.5 6.27657 23.0325 5.09824 22.2386C3.22706 20.9781 2 18.8936 2 16.5385C2 12.6994 5.25593 9.57617 9.25822 9.57617C9.59079 9.57617 9.91571 9.60275 10.2359 9.64401V10.5396V13.5052C9.92622 13.4126 9.59939 13.3585 9.25822 13.3585C7.431 13.3585 5.944 14.7849 5.944 16.5385C5.944 17.7596 6.66648 18.8202 7.72152 19.3528C8.18119 19.5848 8.70394 19.7177 9.25918 19.7177C11.0443 19.7177 12.5008 18.3555 12.5677 16.6577L12.5705 1.5H16.5136C16.5136 1.82818 16.547 2.14811 16.6063 2.45979C16.8844 3.90085 17.776 5.13748 19.0117 5.91027C19.8717 6.44837 20.8981 6.7628 21.999 6.7628V10.5442H22Z"/>
</symbol>

<symbol id="icon-question">
<path d="M11 17C11.5523 17 12 16.5523 12 16C12 15.4477 11.5523 15 11 15C10.4477 15 10 15.4477 10 16C10 16.5523 10.4477 17 11 17Z"/>
<path fill-rule="evenodd" clip-rule="evenodd" d="M11.3561 7.5601C10.8705 7.58141 10.6116 7.77678 10.5219 7.96723C10.2867 8.46693 9.691 8.68137 9.19129 8.44618C8.69158 8.211 8.47715 7.61525 8.71233 7.11554C9.23451 6.00604 10.3595 5.60191 11.2684 5.56202C12.1427 5.52365 13.2308 5.80214 13.8327 6.5871C14.2959 7.19115 14.5562 7.95686 14.4511 8.76195C14.3445 9.57831 13.8789 10.3106 13.1233 10.8664C12.1144 11.6087 12.1162 11.9874 12.1165 12.0425C12.1165 12.0433 12.1165 12.0441 12.1165 12.0447C12.1165 12.597 11.6688 13.0447 11.1165 13.0447C10.5642 13.0447 10.1165 12.597 10.1165 12.0447C10.1165 11.088 10.6729 10.1862 11.9382 9.25541C12.3271 8.96932 12.4428 8.69557 12.4679 8.50308C12.4945 8.29933 12.4368 8.05335 12.2457 7.80415C12.2322 7.78663 12.1592 7.71368 11.9763 7.64796C11.8017 7.5852 11.5821 7.55018 11.3561 7.5601Z"/>
<path d="M11 22C4.9 22 0 17.1 0 11C0 4.9 4.9 0 11 0C17.1 0 22 4.9 22 11C22 17.1 17.1 22 11 22ZM11 2C6 2 2 6 2 11C2 16 6 20 11 20C16 20 20 16 20 11C20 6 16 2 11 2Z"/>
</symbol>

<symbol id="icon-open">
<path fill-rule="evenodd" clip-rule="evenodd" d="M15.4272 0.329644C15.8667 0.76917 15.8667 1.48178 15.4272 1.92131L8.67437 8.67416C8.23484 9.11369 7.52223 9.11369 7.0827 8.67416L0.329851 1.92131C-0.109675 1.48178 -0.109675 0.769169 0.329851 0.329644C0.769377 -0.109882 1.48199 -0.109882 1.92151 0.329644L7.87854 6.28667L13.8356 0.329644C14.2751 -0.109881 14.9877 -0.109881 15.4272 0.329644Z"/>
</symbol>
</defs>
</svg>
