<svg width="24" height="25" viewBox="0 0 24 25" fill="none" xmlns="http://www.w3.org/2000/svg">
<path d="M21.1666 10.7072C19.2928 10.7072 17.5556 10.1324 16.1382 9.15597V16.202C16.1382 19.7212 13.1536 22.5833 9.48574 22.5833C8.06834 22.5833 6.75344 22.1548 5.67331 21.4271C3.95806 20.2716 2.83325 18.3608 2.83325 16.202C2.83325 12.6828 5.67331 9.81981 8.56995 9.81981C8.87481 9.81981 9.17265 9.84418 9.46612 9.882V10.703V13.4214C9.36063 13.3884 8.89207 13.2507 8.56995 13.2869C7.41659 13.4167 6.44858 14.5945 6.44858 16.202C6.44858 17.3213 7.11086 18.2935 8.07798 18.7817C8.49935 18.9943 8.97853 19.1162 9.4875 19.1162C11.1239 19.1162 12.459 17.8675 12.5203 16.3112L12.5229 2.41666H16.1374C16.1374 2.71749 16.168 3.01076 16.2223 3.29646C16.4773 4.61744 17.2946 5.75102 18.4273 6.4594C19.2157 6.95267 20.1565 7.24089 21.1657 7.24089L21.1666 10.7072Z" stroke="#0A2936" stroke-width="2" stroke-linejoin="round"/>
</svg>
