<svg width="15" height="18" fill="none" xmlns="http://www.w3.org/2000/svg"><path d="M15 9.372v2.459H.54V9.372H15zM6.352 4.019H15v2.459H6.022a6.07 6.07 0 01-2.066-.349 4.636 4.636 0 01-1.673-1.024 4.764 4.764 0 01-1.136-1.66C.87 2.789.734 2.038.734 1.19c0-.15.013-.3.04-.45C.79.59.81.44.838.288h2.396a4.522 4.522 0 00-.062.39 1.777 1.777 0 00-.041.389c0 .56.075 1.031.227 1.414.151.369.358.67.62.901.247.233.55.397.908.492.345.096.717.144 1.116.144h.351zm8.648 11v2.459H.54v-2.46H15z" fill="#B59C93"/></svg>