<svg width="15" height="14" fill="none" xmlns="http://www.w3.org/2000/svg"><path fill-rule="evenodd" clip-rule="evenodd" d="M7.643 1.167a4.667 4.667 0 00-4.667 4.666c0 1.808 1.176 3.561 2.465 4.922a17.178 17.178 0 002.202 1.946 17.178 17.178 0 002.202-1.946c1.289-1.36 2.464-3.114 2.464-4.922a4.667 4.667 0 00-4.666-4.666zm0 12.25l-.324.485-.002-.001-.004-.003-.013-.009-.048-.033a16.67 16.67 0 01-.793-.594 18.328 18.328 0 01-1.865-1.705C3.258 10.147 1.81 8.11 1.81 5.833a5.833 5.833 0 0111.667 0c0 2.276-1.45 4.315-2.785 5.724a18.32 18.32 0 01-2.657 2.299l-.049.033-.013.01-.004.002h-.001l-.324-.484zm0 0l.323.485a.584.584 0 01-.647 0l.324-.485z" fill="#0A2936"/><path fill-rule="evenodd" clip-rule="evenodd" d="M7.643 4.667a1.167 1.167 0 100 2.333 1.167 1.167 0 000-2.333zM5.309 5.833a2.333 2.333 0 114.667 0 2.333 2.333 0 01-4.667 0z" fill="#0A2936"/></svg>