<svg width="116" height="197" fill="none" xmlns="http://www.w3.org/2000/svg"><path d="M2.33 57.84c0-30.479 24.708-55.186 55.186-55.186s55.186 24.707 55.186 55.186v81.32c0 30.478-24.708 55.186-55.186 55.186S2.33 169.638 2.33 139.16V57.84z" stroke="#fff" stroke-width="4.6"/><path d="M10.388 59.144c0-26.021 21.095-47.115 47.115-47.115 26.021 0 47.115 21.094 47.115 47.115v78.714c0 26.021-21.094 47.115-47.115 47.115-26.02 0-47.115-21.094-47.115-47.115V59.144z" fill="#fff"/><path d="M29.808 154.638l1.245 3.991h4.028l-3.259 2.467 1.245 3.991-3.26-2.467-3.258 2.467 1.245-3.991-3.26-2.467h4.029l1.245-3.991zm28 0l1.245 3.832h4.028l-3.259 2.368 1.245 3.831-3.26-2.368-3.258 2.368 1.245-3.831-3.26-2.368h4.029l1.245-3.832zm14 0l1.245 3.832h4.028l-3.259 2.368 1.245 3.831-3.26-2.368-3.258 2.368 1.245-3.831-3.26-2.368h4.029l1.245-3.832zm14 0l1.245 3.832h4.028l-3.259 2.368 1.245 3.831-3.26-2.368-3.258 2.368 1.245-3.831-3.26-2.368h4.029l1.245-3.832zm-42 0l1.245 3.991h4.028l-3.259 2.467 1.245 3.991-3.26-2.467-3.258 2.467 1.245-3.991-3.26-2.467h4.029l1.245-3.991z" fill="#B59C93"/><path fill-rule="evenodd" clip-rule="evenodd" d="M53.868 56.051l.129-.098c.248-.192.493-.358.733-.492a4.62 4.62 0 01.766-.349c1.158-.402 2.309-.265 3.353.538.247-.225.543-.425.86-.594 2.241-.679 3.19.534 3.565.869-1.111-.19-2.76-.024-3.647.757-.088.076.14.289.064.389-.126.168-.125.456-.255.671-.342-.339-.496-.585-.983-.66-.355-.055-.796-.086-.904-.158-.374-.244-.361-.737-.898-.762-1.076-.053-1.716.567-2.783-.111zm-3.785 3.515l.09-.07a4.17 4.17 0 01.515-.344c.173-.098.353-.18.537-.244.813-.282 1.62-.186 2.354.376.173-.157.381-.297.604-.416 1.573-.476 2.239.375 2.502.609-.78-.133-1.938-.016-2.56.53-.062.054.098.203.045.273-.089.118-.088.32-.179.47-.24-.237-.348-.41-.69-.462-.249-.039-.559-.06-.635-.11-.262-.171-.253-.517-.63-.535-.755-.037-1.204.397-1.953-.078zM90.12 80.368a8.683 8.683 0 00-2.05-.255c-3.094 0-5.842 1.763-8.588 3.525-4.13 2.21-6.2 2.673-9.528 1.402-.932-.353-1.963-.848-3.163-1.476-7.04-4.458-9.791-4.407-16.843.033-1.798.876-3.177 1.499-4.358 1.868-3.012.946-4.718.25-8.802-2.024-2.749-1.69-5.405-3.323-8.019-3.328h-.007c-.68 0-1.348.108-2.01.295-1.227.347-1.882-.85-2.23-2.167-.308-1.163-.458-2.402.588-3.036 1.42-.859 2.702-1.516 3.652-1.516h.007c1.381.002 3.524 1.32 5.738 2.681 2.932 1.802 5.979 3.674 9.079 3.674h.008c1.704-.001 3.348-.566 4.958-1.375 9.694-4.86 9.768-5.06 19.499-.082 1.667.853 3.383 1.457 5.193 1.457 3.093 0 5.842-1.764 8.587-3.527 2.2-1.413 4.406-2.828 6.24-2.828 1.252 0 2.675.676 4.156 1.557.95.567.545 1.853-.03 3.11-.507 1.112-1.068 2.258-2.078 2.012zm-1.987 5.715a37.22 37.22 0 01-3.51 4.196c-2.219 2.286-4.656 3.963-7.398 5.542-1.414.818-2.779 1.427-3.981 1.427-1.875 0-4.182-1.462-6.453-2.903-2.736-1.733-5.441-3.45-8.37-3.45h-.007c-2.932 0-5.691 1.736-8.466 3.483-2.267 1.427-4.556 2.867-6.354 2.87h-.008c-1.227 0-2.731-.665-4.302-1.54-2.92-1.63-5.252-3.465-7.576-5.956a37.232 37.232 0 01-3.08-3.767c-.617-.867-1.448-1.512.134-1.512h.007c.085 0 .176.008.268.016 1.38.15 3.395 1.388 5.47 2.662 6.454 3.68 9.547 4.453 15.138 1.515 8.41-4.426 9.219-4.242 17.39-.078 5.222 2.659 8.854 2.056 14.796-1.29 2.2-1.412 4.405-2.825 6.24-2.825 1.677 0 .749.65.062 1.61zm-21.878 14.463c-2.535.514-5.149.854-7.84.854-2.496 0-4.932-.267-7.289-.739-1.61-.318-1.178-1.149 1.138-2.606 2.231-1.404 4.451-2.801 6.15-2.801h.008c1.668.001 3.84 1.377 6.036 2.768 1.77 1.122 3.05 2.271 1.797 2.524z" fill="#B59C93"/><path d="M76.358 77.564c3.697-.88 10.21-4.196 12.103-3.83 1.892.367-.088 1.585-.088 1.585l-7.702 5.545-12.323-.396-8.67-3.3-12.542 4.796-14.524-2.772-6.337-4.357c.322-.293 1.012-.933 2.244-1.144 2.333-.4 4.401 2.42 9.066 2.64 4.665.22 7.702-1.936 21.17-1.496 5.265.172 12.982 3.829 17.603 2.729z" fill="#B59C93"/><path fill-rule="evenodd" clip-rule="evenodd" d="M61.126 50.988c.608.066.617.095 1.204.21 1.021.196 1.245.274 1.554-.738l7.372-24.06c.592-1.933-.304-1.873-1.837-2.351a36.415 36.415 0 00-6.436-1.384c-1.459-.176-1.485.51-1.562 1.958l-1.283 25.475c-.031.624.089.792.988.89zm6.338 1.818a22.76 22.76 0 011.502.765c.924.518.987.143 1.64-.722L83.93 35.207c.965-1.285.865-1.662-.31-2.792-1.692-1.63-2.94-2.578-4.858-3.81-1.399-.897-1.72-.875-2.352.611l-9.218 21.61c-.48 1.125-.821 1.475.272 1.98zm5.346 3.522c.559.505.885.869 1.39 1.43.586.652.683.76 1.431.272L91.53 47.743c1.117-.725 1.502-1.028 1.004-2.275a36.795 36.795 0 00-3.145-6.123c-.874-1.371-1.277-.43-2.326.693L73.157 54.867c-.6.642-.997.877-.347 1.461zm4.462 5.62c.352.638.56 1.07.847 1.745.343.815.4.908 1.27.706l14.456-3.347c1.547-.356 1.28-.486 1.28-2.088 0-1.758-.128-3.487-.372-5.181-.24-1.682-1.129-1.254-2.657-.478L78.03 60.42c-.993.507-1.288.568-.759 1.528zm-21.25-10.96c-.606.066-.615.095-1.205.21-1.021.196-1.243.274-1.552-.738L45.89 26.4c-.589-1.933.304-1.873 1.838-2.351a36.426 36.426 0 016.436-1.384c1.458-.176 1.485.51 1.563 1.958l1.282 25.475c.031.624-.09.792-.987.89zm-6.338 1.818c-.513.237-1.014.493-1.501.765-.926.518-.988.143-1.64-.722L33.218 35.207c-.966-1.285-.866-1.662.309-2.792 1.691-1.63 2.94-2.578 4.857-3.81 1.398-.897 1.72-.875 2.352.611l9.219 21.61c.48 1.125.82 1.475-.272 1.98zm-5.347 3.522c-.56.505-.885.869-1.389 1.43-.589.652-.684.76-1.432.272L25.618 47.743c-1.116-.725-1.502-1.028-1.003-2.275a36.858 36.858 0 013.143-6.123c.875-1.371 1.278-.43 2.328.693l13.906 14.829c.598.642.994.877.345 1.461zm-4.463 5.62c-.35.638-.56 1.07-.845 1.745-.344.815-.398.908-1.27.706l-14.455-3.347c-1.548-.356-1.281-.486-1.281-2.088 0-1.758.128-3.487.37-5.181.24-1.682 1.13-1.254 2.659-.478l14.064 7.115c.993.507 1.288.568.758 1.528zm30.103-5.07s.4 1.827.839 2.254c0 0-.46-.233-.28.195.18.427.44 1.807 1.238 2.428 0 0-.74-.291-.6-.038.14.252-.719-.623-.539-.234.18.39.61 1.363 1.169 1.849 0 0-.6-.077-.24.389s1.009 1.607 1.409 1.918c.399.311-.69-.264-.53.182.16.447-.786-.69-.666-.379.12.31-.383.031-.203.362.18.33-.758-.513-.739-.202.02.311 1.099 1.2 1.578 1.84 0 0-.879-.116-.18.486.7.603.82 1.56 1.878 2.143 0 0-.7-.408-.519.156.18.563-.679-.117-.64.136.04.252-.398-.428-.419-.059-.02.37-.739-.816-.739-.408s-.339-.233-.339.098c0 .33.82 1.478 1.758 2.216.939.739-1.338-.578-.04.56 1.298 1.14 1.598 1.476 2.297 1.942.7.467-1.378-.317-1.238.187.14.504-.939-.206-.819.094.12.298-.68-.56-.699-.094-.02.467-.8-.485-.74-.168.06.317-.418-.187-.438.13-.02.318-.6-.187-.54-.037.06.15-.02 1.999.52 3.007H68.44c.54-1.008.46-2.858.52-3.007.06-.15-.52.355-.54.038-.02-.318-.5.186-.44-.131s-.718.635-.738.168c-.02-.467-.82.392-.7.094.12-.3-.958.41-.819-.094.14-.504-1.937.28-1.237-.187.698-.466.998-.803 2.297-1.942 1.298-1.138-.98.178-.04-.56.938-.738 1.757-1.887 1.757-2.216 0-.33-.339.31-.339-.098 0-.408-.719.778-.739.408-.02-.369-.46.311-.42.059.04-.253-.818.427-.639-.136.18-.564-.52-.156-.52-.156 1.06-.583 1.18-1.54 1.878-2.143.7-.602-.179-.485-.179-.485.48-.641 1.558-1.53 1.578-1.841.02-.31-.919.532-.739.201.18-.33-.322-.05-.203-.361.12-.31-.825.826-.666.38.16-.447-.929.128-.53-.183.4-.311 1.05-1.452 1.409-1.918.36-.466-.24-.39-.24-.39.56-.485.989-1.46 1.169-1.848.18-.389-.68.486-.54.234.14-.253-.599.038-.599.038.8-.621 1.059-2.002 1.239-2.428.18-.428-.28-.195-.28-.195.437-.427.837-2.254.837-2.254zm7.783 12.764s.152.697.32.86c0 0-.175-.089-.106.074.068.163.167.69.472.927 0 0-.282-.11-.229-.015.054.096-.274-.237-.205-.09.068.15.232.521.445.707 0 0-.228-.03-.091.148s.385.613.537.732c.153.119-.263-.101-.202.07.061.17-.3-.264-.254-.146.046.12-.146.013-.077.138.068.127-.29-.195-.282-.076.007.118.419.458.602.702 0 0-.335-.044-.069.186.267.23.313.595.717.817 0 0-.267-.156-.198.06.068.215-.26-.045-.244.052.015.096-.152-.164-.16-.023-.007.141-.282-.311-.282-.156 0 .156-.13-.089-.13.037 0 .127.313.564.671.846.359.282-.51-.22-.015.214.495.435.61.563.877.74.267.18-.526-.12-.473.072.053.193-.358-.078-.312.036.045.114-.26-.213-.267-.036-.008.178-.305-.185-.282-.064.023.12-.16-.071-.168.05-.007.121-.229-.072-.206-.015.023.057-.007.763.199 1.147h-1.174c.206-.384.176-1.09.199-1.147.022-.056-.199.136-.206.015-.008-.121-.19.07-.168-.05.023-.121-.274.242-.281.064-.008-.177-.313.15-.267.036.045-.114-.366.157-.313-.036.053-.192-.739.107-.473-.071.267-.178.382-.306.877-.74.495-.436-.373.067-.015-.215.358-.282.67-.72.67-.846s-.129.119-.129-.037c0-.155-.274.297-.282.156-.007-.14-.175.119-.16.023.016-.097-.312.163-.244-.053.07-.215-.198-.059-.198-.059.404-.222.45-.588.717-.817.267-.23-.068-.186-.068-.186.183-.244.594-.584.602-.702.007-.119-.35.202-.282.076.069-.125-.123-.019-.077-.138.045-.118-.315.316-.255.146.061-.171-.354.049-.201-.07.152-.119.4-.555.537-.732.137-.178-.092-.148-.092-.148.214-.186.378-.557.446-.706.069-.148-.259.185-.206.09.054-.097-.228.014-.228.014.305-.237.404-.764.473-.927.068-.163-.107-.074-.107-.074.165-.163.317-.86.317-.86zm-38.722.352s.122.56.255.69c0 0-.14-.07-.085.06.055.132.134.555.377.746 0 0-.224-.09-.182-.012.042.077-.22-.191-.164-.072.055.119.185.418.356.567 0 0-.183-.024-.073.119.109.143.307.493.428.588.122.096-.21-.08-.161.056.049.137-.24-.212-.203-.117.037.096-.117.01-.062.111.055.101-.23-.157-.224-.062.006.096.334.369.48.564 0 0-.267-.035-.055.15.213.184.25.478.572.657 0 0-.213-.125-.158.048.055.172-.207-.036-.195.041.013.078-.121-.13-.128-.017-.006.113-.224-.25-.224-.126 0 .126-.104-.071-.104.03 0 .101.25.453.535.68.286.227-.407-.177-.012.172.395.35.487.452.7.596.212.143-.42-.098-.378.057.043.155-.286-.063-.249.029.036.092-.207-.172-.213-.029-.006.143-.243-.149-.225-.051.018.097-.127-.057-.134.04-.006.097-.182-.058-.163-.012.017.046-.007.613.157.922h-.936c.164-.309.14-.876.158-.922.018-.046-.158.11-.164.012-.006-.098-.152.057-.134-.04.018-.098-.219.195-.225.051-.006-.143-.25.12-.212.029.036-.093-.293.126-.25-.029.042-.155-.59.086-.378-.057.213-.143.305-.246.7-.596.395-.35-.298.055-.012-.171.286-.228.535-.58.535-.68 0-.102-.103.095-.103-.03 0-.126-.22.238-.225.125-.006-.114-.14.095-.128.017.012-.077-.25.131-.195-.041.055-.173-.158-.048-.158-.048.322-.179.359-.472.571-.657.214-.185-.054-.15-.054-.15.146-.196.474-.468.48-.564.006-.095-.28.163-.225.062.055-.1-.098-.015-.061-.11.036-.096-.252.253-.203.116.049-.137-.283.04-.161-.056.121-.095.319-.445.428-.588.11-.143-.073-.12-.073-.12.17-.148.301-.447.356-.566.055-.12-.207.149-.164.072.043-.078-.183.012-.183.012.244-.191.323-.614.378-.745.055-.131-.086-.06-.086-.06.135-.131.256-.691.256-.691z" fill="#B59C93"/><path d="M42.513 68.823c.051-.358.09-.718.155-1.073.178-.961.504-1.864 1.076-2.671.518-.732 1.206-1.235 2.027-1.57 1.108-.454 2.27-.675 3.452-.814a30.44 30.44 0 014.227-.174c1.558.035 3.113.128 4.63.527.738.194 1.448.457 2.05.95.452.371.753.841.936 1.392.349 1.048.573 2.126.758 3.212.114.665.21 1.334.292 2.004.057.471.019.943-.119 1.4-.261.87-.864 1.36-1.744 1.516a4.934 4.934 0 01-.838.068c-1.59.007-3.18 0-4.771.008-.2 0-.262-.07-.287-.256-.123-.925-.89-1.64-1.861-1.748-.863-.095-1.778.477-2.085 1.309a1.861 1.861 0 00-.119.44c-.02.189-.09.256-.289.254-1.347-.009-2.695-.004-4.042-.004-.377 0-.755-.022-1.13.004-.776.054-1.264-.346-1.615-.974-.416-.742-.582-1.557-.664-2.394-.007-.074-.025-.147-.038-.222l-.001-1.184zm13.1-.458v3.212c0 .276.075.35.353.35.798.002 1.596.002 2.394 0 .268 0 .352-.083.352-.357v-6.405c0-.282-.085-.361-.37-.361h-2.336c-.33 0-.393.062-.394.388v3.173zm-7.532-3.567h-1.742c-.258.001-.315.058-.316.316a257.84 257.84 0 000 1.759c.001.267.057.323.33.323H49.8c.267 0 .328-.063.329-.328V65.13c0-.273-.06-.33-.343-.33h-1.704zm6.4 1.213c0-.312.003-.624-.001-.936-.003-.208-.069-.27-.28-.272-.618-.002-1.237-.002-1.855 0-.213 0-.285.073-.285.29-.003.61-.003 1.221 0 1.833 0 .218.072.291.283.292.618.002 1.237.002 1.856 0 .216 0 .28-.067.28-.29.004-.306.002-.612.002-.917z" fill="#B59C93"/><path d="M52.284 72.283c.77-.001 1.4.624 1.409 1.4a1.425 1.425 0 01-1.417 1.416 1.424 1.424 0 01-1.4-1.414 1.413 1.413 0 011.408-1.402zm-28.49 56.477c0-1.348.219-2.619.656-3.811.437-1.218 1.08-2.268 1.929-3.15.848-.907 1.89-1.62 3.124-2.138 1.235-.519 2.636-.778 4.205-.778 1.465 0 2.79.233 3.973.7 1.183.466 2.186 1.127 3.009 1.983.848.855 1.504 1.905 1.967 3.15.489 1.218.759 2.579.81 4.083.026.492.038 1.101.038 1.827 0 .7.04 1.478.116 2.333.077.856.219 1.763.425 2.722.205.933.527 1.88.964 2.839h-4.63a13.553 13.553 0 01-.964-2.994 7.35 7.35 0 01-2.546 2.333c-1.029.57-2.263.855-3.703.855-1.363 0-2.623-.259-3.78-.777a9.118 9.118 0 01-2.97-2.1 10.06 10.06 0 01-1.93-3.15c-.462-1.218-.694-2.527-.694-3.927zm9.914-5.522c-.952 0-1.762.143-2.43.428a4.375 4.375 0 00-1.66 1.205 4.949 4.949 0 00-.925 1.75c-.18.674-.27 1.4-.27 2.178 0 .777.09 1.503.27 2.177.206.674.514 1.27.926 1.789.437.492.99.881 1.659 1.166.668.286 1.478.428 2.43.428 1.594 0 2.841-.441 3.741-1.322.926-.907 1.39-2.32 1.39-4.238-.078-1.711-.515-3.059-1.312-4.044-.798-1.011-2.07-1.517-3.82-1.517zm19.001 15.282h-4.63V111.3h4.63v27.22zm9.267-18.782h5.323v4.355h-5.323v14.427h-4.63v-19.404c0-1.374.22-2.67.656-3.888.438-1.219 1.08-2.269 1.93-3.15.848-.907 1.89-1.62 3.124-2.139 1.234-.518 2.648-.777 4.243-.777.283 0 .566.026.848.077.283.026.566.065.85.117v4.511a8.49 8.49 0 00-.734-.117 3.335 3.335 0 00-.733-.078c-1.054 0-1.941.143-2.661.428-.695.285-1.26.674-1.698 1.167-.437.466-.745 1.037-.925 1.711a7.819 7.819 0 00-.27 2.099v.661zm7.776 9.022c0-1.348.218-2.619.655-3.811.438-1.218 1.08-2.268 1.929-3.15.849-.907 1.89-1.62 3.124-2.138 1.235-.519 2.636-.778 4.205-.778 1.466 0 2.79.233 3.973.7 1.183.466 2.186 1.127 3.009 1.983.849.855 1.504 1.905 1.967 3.15.489 1.218.759 2.579.81 4.083.026.492.039 1.101.039 1.827 0 .7.038 1.478.116 2.333.077.856.218 1.763.424 2.722.206.933.527 1.88.964 2.839h-4.629a13.547 13.547 0 01-.964-2.994 7.351 7.351 0 01-2.546 2.333c-1.029.57-2.263.855-3.703.855-1.363 0-2.623-.259-3.78-.777a9.118 9.118 0 01-2.97-2.1 10.06 10.06 0 01-1.93-3.15c-.462-1.218-.693-2.527-.693-3.927zm9.913-5.522c-.951 0-1.762.143-2.43.428a4.377 4.377 0 00-1.659 1.205 4.95 4.95 0 00-.925 1.75c-.18.674-.27 1.4-.27 2.178 0 .777.09 1.503.27 2.177.205.674.514 1.27.925 1.789.437.492.99.881 1.659 1.166.668.286 1.479.428 2.43.428 1.594 0 2.842-.441 3.742-1.322.926-.907 1.388-2.32 1.388-4.238-.077-1.711-.514-3.059-1.311-4.044-.797-1.011-2.07-1.517-3.819-1.517zm-51.974 24.299h2.72v3.658a8.2 8.2 0 01-1.185.294 8.3 8.3 0 01-1.375.104c-.741 0-1.37-.146-1.884-.438a2.859 2.859 0 01-1.166-1.281c-.266-.561-.399-1.237-.399-2.028 0-.761.148-1.42.444-1.978a3.084 3.084 0 011.29-1.301c.565-.309 1.25-.463 2.053-.463.396 0 .778.039 1.146.119a5.09 5.09 0 011.022.319l-.419.987a4.603 4.603 0 00-.827-.294 3.743 3.743 0 00-.952-.12c-.521 0-.971.113-1.35.339a2.245 2.245 0 00-.867.957c-.203.408-.304.892-.304 1.45 0 .541.081 1.016.244 1.425.163.409.417.728.762.957.35.226.8.339 1.351.339.276 0 .51-.015.703-.045.192-.03.37-.063.533-.1v-1.879h-1.54v-1.021zm6.404 3.957v-7.286h1.196v6.269h3.095v1.017h-4.291zm12.005 0l-.712-2.024h-2.786l-.713 2.024h-1.26l2.71-7.316h1.326l2.706 7.316H46.1zm-1.021-3.05l-.693-1.993a96.607 96.607 0 01-.389-1.266 10.97 10.97 0 01-.124.458 69.71 69.71 0 00-.24.808l-.697 1.993h2.143zm8.337 3.05l-2.098-6.085h-.045a34.7 34.7 0 01.07 1.316c.01.269.015.526.015.772v3.997h-1.086v-7.286h1.679l2.018 5.816H54l2.088-5.816h1.674v7.286h-1.14v-4.057a28.487 28.487 0 01.04-1.46l.029-.558h-.04l-2.178 6.075h-1.056zm10.321-7.286c.94 0 1.626.193 2.058.578.432.386.648.925.648 1.62 0 .315-.05.616-.15.902a1.913 1.913 0 01-.478.752c-.223.216-.517.387-.882.513-.362.127-.81.19-1.34.19h-.778v2.731h-1.196v-7.286h2.118zm-.08.992h-.842v2.566h.653c.375 0 .694-.043.956-.129.263-.09.462-.231.598-.424.137-.193.205-.447.205-.762 0-.422-.128-.736-.384-.942-.252-.206-.648-.309-1.186-.309zm6.18 6.294v-7.286h1.196v7.286h-1.196zm11.138 0h-1.47l-3.568-5.816h-.045c.013.196.025.404.035.623.013.219.023.445.03.678.01.232.018.468.025.707v3.808h-1.087v-7.286h1.46l3.563 5.776h.035c-.006-.17-.015-.364-.025-.583l-.03-.678a51.027 51.027 0 01-.014-.683v-3.832h1.09v7.286zm6.793-3.957h2.72v3.658a8.206 8.206 0 01-1.186.294 8.303 8.303 0 01-1.375.104c-.74 0-1.369-.146-1.884-.438a2.859 2.859 0 01-1.166-1.281c-.265-.561-.398-1.237-.398-2.028 0-.761.148-1.42.443-1.978a3.084 3.084 0 011.29-1.301c.566-.309 1.25-.463 2.054-.463.395 0 .777.039 1.146.119.372.077.713.183 1.022.319l-.419.987a4.606 4.606 0 00-.827-.294 3.743 3.743 0 00-.952-.12c-.522 0-.972.113-1.35.339a2.245 2.245 0 00-.867.957c-.203.408-.304.892-.304 1.45 0 .541.08 1.016.244 1.425.162.409.417.728.762.957.349.226.8.339 1.35.339.276 0 .51-.015.703-.045.193-.03.37-.063.533-.1v-1.879h-1.54v-1.021z" fill="#B59C93"/></svg>