<svg width="14" height="14" fill="none" xmlns="http://www.w3.org/2000/svg"><path fill-rule="evenodd" clip-rule="evenodd" d="M7.143 1.667A5.333 5.333 0 001.809 7v4a.667.667 0 11-1.333 0V7a6.667 6.667 0 0113.333 0v4a.667.667 0 01-1.333 0V7a5.333 5.333 0 00-5.334-5.333z" fill="#0A2936"/><path fill-rule="evenodd" clip-rule="evenodd" d="M.476 8.334c0-.369.298-.667.667-.667h2a2 2 0 012 2v2a2 2 0 01-2 2h-.667a2 2 0 01-2-2V8.334zM1.809 9v2.667a.667.667 0 00.667.667h.667a.666.666 0 00.666-.667v-2A.667.667 0 003.142 9H1.81zm9.334 0a.667.667 0 00-.667.667v2a.667.667 0 00.666.667h.667a.667.667 0 00.667-.667V9h-1.334zm-1.415-.747a2 2 0 011.415-.586h2c.368 0 .666.298.666.667v3.333a2 2 0 01-2 2h-.666a2 2 0 01-2-2v-2a2 2 0 01.585-1.414z" fill="#0A2936"/></svg>