<svg width="17" height="16" fill="none" xmlns="http://www.w3.org/2000/svg"><g clip-path="url(#clip0_1_3700)" fill-rule="evenodd" clip-rule="evenodd" fill="#0A2936"><path d="M8.024.737a.667.667 0 01.596 0l6.667 3.333a.667.667 0 010 1.193L8.62 8.596a.667.667 0 01-.596 0L1.357 5.263a.667.667 0 010-1.193L8.024.737zm-4.878 3.93l5.176 2.587 5.176-2.587-5.176-2.588-5.176 2.587zM1.06 11.035a.667.667 0 01.894-.298l6.368 3.184 6.369-3.184a.667.667 0 11.596 1.193L8.62 15.263a.667.667 0 01-.596 0L1.357 11.93a.667.667 0 01-.298-.895z"/><path d="M1.06 7.702a.667.667 0 01.894-.298l6.368 3.184 6.369-3.184a.667.667 0 01.596 1.192L8.62 11.93a.667.667 0 01-.596 0L1.357 8.596a.667.667 0 01-.298-.894z"/></g><defs><clipPath id="clip0_1_3700"><path fill="#fff" transform="translate(.322)" d="M0 0h16v16H0z"/></clipPath></defs></svg>