<svg width="17" height="16" fill="none" xmlns="http://www.w3.org/2000/svg"><g clip-path="url(#clip0_1_3717)"><path fill-rule="evenodd" clip-rule="evenodd" d="M7.02 1.522a2 2 0 012.692.705l.002.004 5.646 9.426.006.01a2 2 0 01-1.71 3H2.348a2 2 0 01-1.71-3l.005-.01L6.29 2.231l.572.342-.57-.346a2 2 0 01.729-.705zm.413 1.396L1.79 12.337a.667.667 0 00.57.996h11.284a.666.666 0 00.57-.996L8.571 2.92v-.001a.667.667 0 00-1.14 0z" fill="#0A2936"/></g><defs><clipPath id="clip0_1_3717"><path fill="#fff" transform="translate(.002)" d="M0 0h16v16H0z"/></clipPath></defs></svg>