<svg width="18" height="18" fill="none" xmlns="http://www.w3.org/2000/svg"><path fill-rule="evenodd" clip-rule="evenodd" d="M3.164 11.454a3.542 3.542 0 012.505-1.038h5.666a3.542 3.542 0 013.542 3.542v1.417a.708.708 0 01-1.417 0v-1.417a2.125 2.125 0 00-2.125-2.125H5.67a2.125 2.125 0 00-2.125 2.125v1.417a.708.708 0 11-1.417 0v-1.417c0-.94.373-1.84 1.037-2.504zm5.338-8.121a2.125 2.125 0 100 4.25 2.125 2.125 0 000-4.25zM4.96 5.458a3.542 3.542 0 117.084 0 3.542 3.542 0 01-7.084 0z" fill="#0A2936"/></svg>