<svg width="122" height="183" fill="none" xmlns="http://www.w3.org/2000/svg"><path d="M0 57.5C0 25.744 25.744 0 57.5 0h7C96.256 0 122 25.744 122 57.5v68c0 31.756-25.744 57.5-57.5 57.5h-7C25.744 183 0 157.256 0 125.5v-68z" fill="#B59C93"/><path d="M6 59.358C6 29.86 29.213 6 57.787 6h6.426C92.787 6 116 29.861 116 59.358v64.284C116 153.139 92.787 177 64.213 177h-6.426C29.213 177 6 153.139 6 123.642V59.358z" stroke="#fff" stroke-width="2"/><path d="M33.545 148l1.245 3.991h4.029l-3.26 2.467 1.245 3.991-3.26-2.467-3.258 2.467 1.245-3.991-3.26-2.467H32.3L33.545 148zm28 0l1.245 3.991h4.029l-3.26 2.467 1.245 3.991-3.26-2.467-3.258 2.467 1.245-3.991-3.26-2.467H60.3L61.545 148zm-14 0l1.245 3.991h4.029l-3.26 2.467 1.245 3.991-3.26-2.467-3.258 2.467 1.245-3.991-3.26-2.467H46.3L47.545 148zm28 0l1.245 3.991h4.028l-3.259 2.467 1.245 3.991-3.26-2.467-3.258 2.467 1.245-3.991-3.26-2.467H74.3L75.545 148zm14 0l1.245 3.991h4.028l-3.259 2.467 1.245 3.991-3.26-2.467-3.258 2.467 1.245-3.991-3.26-2.467H88.3L89.545 148z" fill="#fff"/><path fill-rule="evenodd" clip-rule="evenodd" d="M57.605 49.413l.129-.099c.248-.192.493-.357.733-.491a4.62 4.62 0 01.766-.349c1.158-.402 2.309-.265 3.354.538a4.23 4.23 0 01.86-.594c2.24-.68 3.19.534 3.564.868-1.111-.189-2.76-.023-3.647.758-.088.076.14.289.064.389-.126.168-.125.456-.255.67-.342-.338-.496-.584-.983-.66-.354-.054-.796-.085-.904-.157-.373-.244-.361-.737-.898-.762-1.076-.053-1.716.566-2.782-.111zm-3.785 3.514l.09-.069c.174-.134.347-.25.515-.344.173-.098.353-.18.537-.244.813-.283 1.621-.186 2.354.376.173-.157.381-.297.604-.416 1.573-.476 2.239.375 2.502.609-.78-.133-1.938-.017-2.56.53-.061.054.099.203.045.273-.089.118-.088.32-.179.47-.24-.237-.348-.41-.69-.462-.249-.039-.559-.06-.635-.111-.262-.17-.253-.516-.63-.534-.755-.037-1.204.397-1.953-.078zM93.856 73.73a8.683 8.683 0 00-2.048-.255c-3.095 0-5.843 1.763-8.59 3.524-4.13 2.212-6.2 2.674-9.527 1.403-.932-.353-1.963-.848-3.163-1.476-7.04-4.458-9.791-4.407-16.843.033-1.799.876-3.177 1.499-4.358 1.867-3.012.947-4.718.25-8.801-2.023-2.75-1.69-5.406-3.323-8.02-3.328H32.5c-.679 0-1.348.108-2.01.295-1.227.347-1.882-.85-2.23-2.167-.308-1.164-.458-2.402.588-3.036 1.42-.859 2.702-1.516 3.652-1.516h.007c1.381.001 3.524 1.32 5.738 2.68 2.932 1.803 5.979 3.675 9.079 3.675h.008c1.705-.001 3.348-.567 4.958-1.376 9.694-4.859 9.768-5.059 19.499-.08 1.667.852 3.383 1.456 5.193 1.456 3.093 0 5.842-1.764 8.587-3.527 2.2-1.413 4.407-2.828 6.24-2.828 1.252 0 2.676.676 4.156 1.556.95.567.545 1.854-.03 3.111-.507 1.112-1.068 2.258-2.078 2.011zm-1.986 5.715a37.232 37.232 0 01-3.51 4.196c-2.219 2.286-4.656 3.963-7.398 5.541-1.414.819-2.779 1.428-3.98 1.428-1.876 0-4.183-1.462-6.454-2.903-2.736-1.733-5.441-3.45-8.37-3.45h-.007c-2.932 0-5.69 1.735-8.466 3.483-2.267 1.427-4.556 2.867-6.354 2.87h-.008c-1.227 0-2.731-.666-4.302-1.54-2.92-1.63-5.252-3.465-7.576-5.956a37.245 37.245 0 01-3.08-3.768c-.617-.866-1.448-1.511.134-1.511h.007c.085 0 .176.008.268.015 1.38.152 3.395 1.389 5.47 2.663 6.454 3.679 9.547 4.453 15.138 1.514 8.41-4.425 9.219-4.24 17.39-.078 5.222 2.66 8.854 2.057 14.796-1.29 2.2-1.411 4.405-2.824 6.24-2.824 1.677 0 .749.65.062 1.61zM69.992 93.908c-2.535.514-5.149.854-7.84.854-2.496 0-4.932-.267-7.288-.739-1.61-.318-1.178-1.149 1.137-2.606 2.231-1.404 4.451-2.801 6.15-2.801h.008c1.668.001 3.84 1.377 6.036 2.768 1.77 1.121 3.05 2.27 1.797 2.524z" fill="#fff"/><path d="M80.095 70.925c3.697-.88 10.21-4.195 12.103-3.828 1.893.366-.088 1.584-.088 1.584l-7.702 5.545-12.323-.396-8.67-3.3-12.542 4.796-14.524-2.772-6.337-4.357c.322-.294 1.012-.933 2.244-1.145 2.333-.4 4.401 2.421 9.066 2.641 4.665.22 7.702-1.936 21.17-1.496 5.265.172 12.982 3.829 17.603 2.728z" fill="#fff"/><path fill-rule="evenodd" clip-rule="evenodd" d="M64.863 44.35c.608.065.617.095 1.204.209 1.021.197 1.245.275 1.554-.737l7.372-24.06c.592-1.934-.304-1.873-1.837-2.351a36.415 36.415 0 00-6.436-1.384c-1.459-.176-1.485.51-1.562 1.958L63.875 43.46c-.031.624.089.791.988.89zm6.338 1.817a23.51 23.51 0 011.502.765c.924.519.987.144 1.64-.72l13.324-17.643c.965-1.285.865-1.662-.31-2.792-1.692-1.63-2.94-2.578-4.858-3.81-1.399-.897-1.72-.876-2.351.61l-9.219 21.61c-.48 1.126-.82 1.476.272 1.98zm5.346 3.523c.559.505.885.869 1.39 1.429.587.653.683.76 1.431.273l15.898-10.287c1.116-.725 1.502-1.028 1.004-2.275a36.799 36.799 0 00-3.144-6.123c-.875-1.371-1.278-.431-2.327.693L76.894 48.23c-.6.641-.997.877-.347 1.461zm4.462 5.62c.352.637.56 1.07.847 1.744.343.816.4.91 1.27.706l14.456-3.346c1.547-.356 1.28-.486 1.28-2.088 0-1.758-.128-3.487-.372-5.181-.24-1.682-1.128-1.254-2.657-.478l-14.065 7.114c-.993.508-1.288.569-.759 1.53zM59.76 44.35c-.606.065-.615.095-1.205.209-1.021.197-1.243.275-1.552-.737l-7.375-24.06c-.589-1.934.304-1.873 1.838-2.351a36.43 36.43 0 016.436-1.384c1.458-.176 1.485.51 1.563 1.958l1.282 25.475c.031.624-.09.791-.987.89zm-6.338 1.817c-.513.238-1.014.494-1.501.765-.926.519-.988.144-1.64-.72L36.955 28.568c-.966-1.285-.866-1.662.309-2.792 1.691-1.63 2.94-2.578 4.857-3.81 1.398-.897 1.72-.876 2.352.61l9.219 21.61c.48 1.126.82 1.476-.272 1.98zm-5.347 3.523c-.56.505-.885.869-1.389 1.429-.589.653-.684.76-1.432.273L29.355 41.105c-1.116-.725-1.502-1.028-1.003-2.275a36.877 36.877 0 013.142-6.123c.876-1.371 1.28-.431 2.329.693l13.906 14.83c.598.641.995.877.345 1.461zm-4.463 5.62c-.35.637-.56 1.07-.845 1.744-.344.816-.398.91-1.27.706L27.04 54.414c-1.548-.356-1.281-.486-1.281-2.088 0-1.758.128-3.487.37-5.181.24-1.682 1.13-1.254 2.659-.478l14.064 7.114c.994.508 1.288.569.758 1.53zm30.102-5.07s.4 1.827.839 2.254c0 0-.46-.233-.28.194.18.428.44 1.808 1.238 2.429 0 0-.74-.292-.6-.039s-.719-.622-.538-.233c.179.389.609 1.363 1.168 1.849 0 0-.6-.078-.24.389.36.466 1.009 1.607 1.409 1.918.399.311-.69-.264-.53.182.16.447-.786-.69-.666-.38.12.312-.382.032-.203.362.18.33-.759-.512-.739-.201.02.31 1.099 1.2 1.578 1.84 0 0-.879-.116-.18.486.7.603.82 1.56 1.878 2.143 0 0-.699-.408-.519.155.18.564-.679-.116-.639.136.04.253-.4-.427-.42-.058-.02.37-.738-.816-.738-.408s-.34-.233-.34.098c0 .33.82 1.477 1.758 2.216.939.739-1.338-.579-.04.56s1.598 1.475 2.297 1.942c.7.467-1.378-.317-1.238.187.14.504-.939-.206-.819.094.12.298-.68-.56-.699-.094-.02.467-.799-.485-.739-.169.06.318-.42-.186-.44.131-.02.318-.598-.187-.538-.037.06.15-.02 1.998.519 3.006h-3.076c.54-1.008.46-2.857.52-3.006.06-.15-.52.355-.54.037-.02-.317-.5.187-.44-.13s-.718.635-.738.168c-.02-.467-.82.392-.7.094.12-.3-.958.41-.818-.094s-1.938.28-1.239-.187c.7-.466 1-.803 2.298-1.942 1.298-1.139-.979.178-.04-.56.938-.739 1.757-1.887 1.757-2.216 0-.33-.339.31-.339-.098 0-.408-.719.777-.739.408-.02-.369-.46.311-.42.059.04-.253-.818.427-.639-.137.18-.563-.519-.155-.519-.155 1.059-.583 1.178-1.54 1.877-2.143.7-.602-.179-.486-.179-.486.48-.64 1.558-1.53 1.578-1.84.02-.31-.919.532-.739.201.18-.33-.322-.05-.203-.361.12-.311-.825.826-.666.38.16-.447-.929.128-.53-.183.4-.311 1.05-1.452 1.409-1.918.36-.466-.24-.39-.24-.39.56-.485.989-1.46 1.168-1.848.18-.389-.678.486-.538.233s-.6.039-.6.039c.8-.621 1.058-2.002 1.239-2.429.18-.427-.28-.194-.28-.194.438-.427.837-2.254.837-2.254zm7.783 12.764s.153.697.32.86c0 0-.175-.09-.106.074.068.163.167.69.472.927 0 0-.282-.111-.229-.015.054.096-.274-.237-.205-.09.068.15.232.521.446.706 0 0-.23-.029-.092.149.137.178.385.613.537.732.153.118-.263-.101-.202.07.061.17-.3-.264-.254-.146.046.119-.146.013-.077.138.068.127-.29-.195-.282-.077.007.119.419.458.602.703 0 0-.335-.045-.069.186.267.23.313.595.717.817 0 0-.267-.156-.198.06.069.214-.26-.045-.244.052.015.096-.152-.164-.16-.023-.007.141-.282-.311-.282-.156 0 .156-.13-.089-.13.037s.313.564.671.846c.359.282-.51-.22-.015.214.496.435.61.562.877.74.267.18-.526-.12-.473.072.053.193-.358-.078-.312.036.045.114-.26-.214-.267-.036-.008.178-.305-.185-.282-.064.023.12-.16-.071-.168.05-.007.12-.228-.072-.206-.015.023.057-.007.763.199 1.147H80.91c.207-.384.176-1.09.199-1.147.023-.057-.198.136-.206.014-.008-.12-.19.072-.168-.049.023-.121-.274.242-.281.064-.008-.178-.313.15-.267.036.045-.114-.366.157-.313-.036.054-.192-.739.107-.472-.071.266-.179.38-.306.876-.741.495-.435-.373.068-.015-.214.358-.282.67-.72.67-.846s-.129.119-.129-.037-.274.297-.282.156c-.007-.141-.175.119-.16.023.016-.097-.312.162-.243-.053.068-.215-.198-.059-.198-.059.404-.222.45-.588.716-.817.267-.23-.068-.186-.068-.186.183-.245.595-.584.602-.703.007-.118-.35.203-.282.077.069-.125-.123-.019-.077-.138.045-.118-.315.316-.255.146.062-.171-.354.048-.201-.07.152-.119.4-.555.537-.732.137-.178-.092-.149-.092-.149.214-.185.378-.557.446-.705.069-.148-.259.185-.206.09.054-.097-.228.014-.228.014.305-.237.404-.764.473-.927.068-.163-.107-.074-.107-.074.165-.163.317-.86.317-.86zm-38.722.351s.122.56.255.691c0 0-.14-.07-.085.06.055.131.134.555.377.745 0 0-.224-.089-.182-.012.042.077-.22-.19-.164-.072.055.12.185.419.356.567 0 0-.183-.023-.073.12.109.143.307.493.428.588.122.095-.21-.081-.161.056.049.137-.24-.212-.203-.117.037.096-.117.01-.062.11.055.102-.23-.156-.224-.06.006.095.334.367.48.563 0 0-.267-.036-.055.15.213.184.25.478.572.656 0 0-.213-.125-.158.048.055.173-.207-.035-.195.042.013.078-.121-.131-.128-.018-.005.113-.224-.25-.224-.125s-.104-.072-.104.03c0 .1.25.453.536.68.285.227-.408-.178-.013.171.396.35.487.453.7.596.212.143-.42-.098-.378.058.043.154-.286-.064-.249.028.036.092-.207-.171-.213-.028-.006.143-.243-.15-.225-.051.018.096-.128-.058-.134.04-.006.097-.182-.058-.163-.013.017.047-.007.614.157.923h-.936c.164-.31.14-.876.158-.923.018-.045-.158.11-.164.013-.006-.098-.152.056-.134-.04.018-.098-.219.194-.225.05-.006-.142-.25.121-.212.03.036-.093-.293.125-.25-.03.042-.154-.59.086-.378-.057.214-.143.305-.246.7-.596.395-.349-.298.056-.012-.17.286-.228.535-.58.535-.68 0-.102-.103.094-.103-.031s-.22.238-.225.125c-.006-.113-.14.096-.128.018.012-.078-.25.13-.195-.042.055-.172-.158-.048-.158-.048.322-.178.359-.472.572-.657.213-.185-.055-.149-.055-.149.146-.196.474-.469.48-.564.006-.096-.28.163-.225.061.055-.1-.098-.015-.061-.11.036-.095-.252.254-.203.117.049-.137-.283.04-.161-.056.121-.096.32-.445.428-.588.11-.143-.073-.12-.073-.12.17-.148.301-.448.356-.567.055-.119-.207.15-.164.072.043-.077-.182.012-.182.012.243-.19.322-.614.377-.745.055-.13-.085-.06-.085-.06.134-.13.255-.69.255-.69z" fill="#fff"/><path d="M46.25 62.185c.051-.358.09-.718.155-1.073.178-.962.504-1.864 1.076-2.672.518-.73 1.206-1.234 2.027-1.57 1.108-.453 2.27-.674 3.452-.813a30.439 30.439 0 014.227-.174c1.558.034 3.113.128 4.63.527.738.194 1.448.457 2.05.95.452.37.753.841.936 1.392.35 1.048.573 2.126.758 3.212.114.665.21 1.334.292 2.004.057.471.019.943-.119 1.4-.261.87-.864 1.36-1.744 1.515a4.935 4.935 0 01-.838.07c-1.59.006-3.18-.001-4.771.007-.2 0-.262-.07-.287-.256-.123-.925-.89-1.64-1.861-1.748-.863-.096-1.778.477-2.085 1.309-.053.142-.103.29-.118.44-.02.189-.091.255-.29.254-1.347-.009-2.695-.005-4.042-.005-.377 0-.755-.021-1.13.005-.776.054-1.264-.347-1.615-.974-.416-.743-.582-1.558-.664-2.394-.007-.075-.025-.148-.038-.222l-.001-1.184zm13.1-.459v3.213c0 .276.075.35.353.35.798.001 1.596.002 2.394 0 .268 0 .352-.083.352-.357v-6.406c0-.281-.085-.36-.37-.36h-2.336c-.33 0-.393.062-.394.388v3.172zm-7.532-3.566h-1.742c-.258 0-.315.058-.316.316-.002.586-.002 1.172 0 1.758.001.268.057.324.33.324h3.446c.267 0 .328-.063.329-.328v-1.739c0-.273-.06-.33-.342-.33-.57-.002-1.137-.001-1.705-.001zm6.4 1.213c0-.312.003-.624-.001-.936-.003-.208-.069-.271-.28-.272-.618-.002-1.237-.002-1.855 0-.213 0-.285.073-.285.29-.003.61-.003 1.221 0 1.833 0 .218.072.291.283.292.618.002 1.237.002 1.856 0 .216 0 .28-.067.281-.29.003-.306.001-.612 0-.917z" fill="#fff"/><path d="M56.02 65.644c.771 0 1.4.625 1.41 1.4a1.425 1.425 0 01-1.417 1.417 1.424 1.424 0 01-1.4-1.414 1.413 1.413 0 011.408-1.403zm-28.489 56.478c0-1.348.219-2.619.656-3.811.437-1.219 1.08-2.269 1.929-3.15.848-.907 1.89-1.62 3.124-2.139 1.235-.518 2.636-.777 4.205-.777 1.466 0 2.79.233 3.973.7 1.183.466 2.186 1.127 3.009 1.983.848.855 1.504 1.905 1.967 3.149.489 1.219.759 2.58.81 4.083.026.493.039 1.102.039 1.828 0 .7.038 1.478.115 2.333.078.856.219 1.763.425 2.722.205.933.527 1.88.964 2.839h-4.629a13.57 13.57 0 01-.964-2.994 7.35 7.35 0 01-2.546 2.333c-1.029.57-2.263.855-3.703.855-1.363 0-2.623-.259-3.78-.778a9.1 9.1 0 01-2.97-2.099 10.072 10.072 0 01-1.93-3.15c-.462-1.218-.694-2.528-.694-3.927zm9.914-5.522c-.952 0-1.762.142-2.43.428a4.377 4.377 0 00-1.66 1.205 4.95 4.95 0 00-.925 1.75 8.41 8.41 0 00-.27 2.177c0 .778.09 1.504.27 2.178.206.674.514 1.27.926 1.789.437.492.99.881 1.659 1.166.668.285 1.478.428 2.43.428 1.594 0 2.841-.441 3.742-1.322.925-.907 1.388-2.32 1.388-4.239-.077-1.711-.514-3.059-1.311-4.044-.798-1.011-2.07-1.516-3.82-1.516zm19.001 15.282h-4.63v-27.22h4.63v27.22zm9.267-18.782h5.323v4.355h-5.323v14.427h-4.63v-19.404c0-1.374.22-2.67.657-3.888.437-1.219 1.08-2.269 1.928-3.15.849-.907 1.89-1.62 3.125-2.139 1.234-.518 2.648-.778 4.243-.778.283 0 .566.026.849.078.282.026.565.065.848.117v4.511a8.482 8.482 0 00-.733-.117 3.335 3.335 0 00-.733-.078c-1.054 0-1.941.143-2.661.428-.695.285-1.26.674-1.698 1.166a3.945 3.945 0 00-.925 1.711 7.817 7.817 0 00-.27 2.1v.661zm7.776 9.022c0-1.348.218-2.619.655-3.811.438-1.219 1.08-2.269 1.93-3.15.848-.907 1.89-1.62 3.124-2.139 1.234-.518 2.636-.777 4.204-.777 1.466 0 2.79.233 3.973.7 1.183.466 2.186 1.127 3.01 1.983.848.855 1.503 1.905 1.966 3.149.489 1.219.759 2.58.81 4.083.026.493.039 1.102.039 1.828 0 .7.038 1.478.116 2.333.077.856.218 1.763.424 2.722.206.933.527 1.88.964 2.839h-4.628a13.565 13.565 0 01-.965-2.994 7.35 7.35 0 01-2.546 2.333c-1.028.57-2.263.855-3.703.855-1.363 0-2.623-.259-3.78-.778a9.1 9.1 0 01-2.97-2.099 10.068 10.068 0 01-1.929-3.15c-.463-1.218-.694-2.528-.694-3.927zm9.913-5.522c-.951 0-1.761.142-2.43.428a4.377 4.377 0 00-1.659 1.205 4.952 4.952 0 00-.925 1.75c-.18.674-.27 1.4-.27 2.177 0 .778.09 1.504.27 2.178.205.674.514 1.27.925 1.789.438.492.99.881 1.659 1.166.669.285 1.479.428 2.43.428 1.595 0 2.842-.441 3.742-1.322.926-.907 1.388-2.32 1.388-4.239-.077-1.711-.514-3.059-1.311-4.044-.797-1.011-2.07-1.516-3.819-1.516zm-51.974 24.299h2.721v3.657a7.952 7.952 0 01-1.186.294 8.19 8.19 0 01-1.375.105c-.741 0-1.37-.146-1.884-.438a2.859 2.859 0 01-1.166-1.281c-.266-.562-.399-1.238-.399-2.028 0-.761.148-1.42.444-1.979a3.082 3.082 0 011.29-1.3c.565-.309 1.25-.464 2.053-.464.396 0 .778.04 1.147.12.372.076.712.183 1.021.319l-.418.987a4.606 4.606 0 00-.828-.294 3.743 3.743 0 00-.951-.12c-.522 0-.972.113-1.35.339a2.245 2.245 0 00-.868.957c-.203.408-.304.892-.304 1.45 0 .541.081 1.016.244 1.425.163.408.417.727.763.957.348.226.799.338 1.35.338.276 0 .51-.014.703-.044.192-.03.37-.063.533-.1v-1.879h-1.54v-1.021zm6.404 3.956v-7.285h1.196v6.269h3.095v1.016h-4.29zm12.005 0l-.712-2.023h-2.786l-.712 2.023h-1.261l2.71-7.315h1.326l2.706 7.315h-1.27zm-1.021-3.049l-.693-1.994a108.294 108.294 0 01-.389-1.265 9.61 9.61 0 01-.124.458 164.296 164.296 0 00-.24.807l-.697 1.994h2.143zm8.337 3.049l-2.098-6.084h-.045a34.7 34.7 0 01.07 1.315c.01.27.015.527.015.773v3.996H54.01v-7.285h1.68l2.017 5.815h.03l2.088-5.815H61.5v7.285h-1.142v-4.056a28.487 28.487 0 01.04-1.46c.014-.233.023-.419.03-.558h-.04l-2.177 6.074h-1.057zm10.321-7.285c.94 0 1.626.193 2.058.578.432.385.648.925.648 1.62 0 .315-.05.616-.15.902a1.913 1.913 0 01-.478.752c-.223.216-.517.387-.882.513-.362.127-.809.19-1.34.19h-.778v2.73h-1.196v-7.285h2.118zm-.08.992h-.842v2.566h.653c.375 0 .694-.043.957-.13.262-.089.461-.23.598-.423.136-.193.204-.447.204-.763 0-.421-.128-.735-.384-.941-.252-.206-.648-.309-1.186-.309zm6.18 6.293v-7.285h1.196v7.285h-1.196zm11.138 0h-1.47l-3.568-5.815h-.045c.013.196.025.404.035.623.013.219.023.445.03.678.01.232.018.468.025.707v3.807h-1.086v-7.285h1.46l3.563 5.776h.034a266.815 266.815 0 01-.055-1.261 53.152 53.152 0 01-.014-.683v-3.832h1.091v7.285zm6.793-3.956h2.72v3.657a7.952 7.952 0 01-1.185.294 8.19 8.19 0 01-1.376.105c-.74 0-1.368-.146-1.883-.438a2.86 2.86 0 01-1.166-1.281c-.266-.562-.4-1.238-.4-2.028 0-.761.149-1.42.444-1.979a3.082 3.082 0 011.291-1.3c.565-.309 1.25-.464 2.053-.464.395 0 .777.04 1.146.12.372.076.713.183 1.022.319l-.419.987a4.608 4.608 0 00-.827-.294 3.744 3.744 0 00-.952-.12c-.521 0-.972.113-1.35.339a2.245 2.245 0 00-.867.957c-.203.408-.304.892-.304 1.45 0 .541.081 1.016.244 1.425.163.408.417.727.762.957.35.226.8.338 1.35.338.276 0 .51-.014.703-.044.193-.03.37-.063.534-.1v-1.879h-1.54v-1.021z" fill="#fff"/></svg>