<svg width="76" height="34" fill="none" xmlns="http://www.w3.org/2000/svg"><path d="M0 15.547C0 7.07 6.872.197 15.35.197c8.477 0 15.349 6.873 15.349 15.35v2.627c0 8.477-6.872 15.35-15.35 15.35C6.872 33.523 0 26.65 0 18.173v-2.627z" fill="#B59C93"/><path d="M1.153 15.132C1.153 7.292 7.51.936 15.35.936c7.84 0 14.196 6.356 14.196 14.196v3.455c0 7.84-6.356 14.197-14.196 14.197S1.153 26.428 1.153 18.587v-3.455z" stroke="#fff" stroke-width=".601"/><path fill-rule="evenodd" clip-rule="evenodd" d="M13.838 14.316l.039-.03c.074-.057.148-.107.22-.147.074-.042.151-.078.23-.105.348-.12.694-.08 1.008.162a1.27 1.27 0 01.259-.179c.673-.204.959.16 1.071.261-.334-.057-.83-.007-1.096.228-.026.023.042.087.02.117-.039.05-.038.137-.077.202-.103-.102-.15-.176-.296-.199-.106-.016-.24-.026-.272-.047-.112-.074-.108-.222-.27-.23-.323-.015-.515.17-.836-.033zM12.7 15.373l.028-.021c.052-.04.104-.075.155-.104a.973.973 0 01.16-.073.72.72 0 01.708.113.898.898 0 01.182-.125c.473-.143.673.112.752.183-.235-.04-.583-.005-.77.16-.018.015.03.06.014.081-.027.036-.026.096-.054.142-.072-.072-.104-.124-.207-.14-.075-.01-.168-.018-.191-.033-.079-.05-.076-.155-.19-.16-.226-.011-.361.12-.586-.024zm12.034 6.252a2.61 2.61 0 00-.616-.077c-.93 0-1.756.53-2.582 1.06-1.24.664-1.863.803-2.863.42a8.953 8.953 0 01-.95-.443c-2.117-1.34-2.944-1.324-5.063.01-.54.263-.955.45-1.31.561-.905.285-1.418.076-2.645-.608-.827-.508-1.625-.999-2.41-1h-.003c-.204 0-.405.032-.604.089-.369.104-.566-.256-.67-.652-.093-.35-.138-.721.177-.912.426-.258.812-.456 1.097-.456h.002c.415 0 1.06.397 1.725.806.881.542 1.797 1.104 2.729 1.104h.002c.512 0 1.006-.17 1.49-.413 2.914-1.46 2.936-1.52 5.86-.024.502.256 1.018.437 1.562.437.93 0 1.756-.53 2.58-1.06.662-.425 1.325-.85 1.876-.85.376 0 .804.203 1.249.468.286.17.164.557-.009.935-.152.334-.32.679-.624.605zm-.597 1.717c-.32.446-.674.868-1.055 1.261-.667.688-1.4 1.192-2.224 1.666-.425.246-.835.429-1.196.429-.564 0-1.257-.44-1.94-.872-.822-.521-1.635-1.037-2.515-1.037h-.003c-.88 0-1.71.521-2.544 1.046-.682.43-1.37.862-1.91.863h-.002c-.37 0-.821-.2-1.293-.463a8.967 8.967 0 01-2.277-1.79 11.199 11.199 0 01-.926-1.132c-.185-.26-.435-.455.04-.455h.002c.026 0 .053.003.08.005.416.046 1.021.417 1.645.8 1.94 1.106 2.87 1.339 4.55.456 2.527-1.33 2.77-1.275 5.227-.024 1.57.8 2.66.618 4.447-.388.66-.424 1.324-.849 1.875-.849.504 0 .225.196.019.484zM17.56 27.69c-.762.155-1.547.257-2.357.257-.75 0-1.482-.08-2.19-.222-.484-.096-.354-.346.342-.783.67-.422 1.338-.842 1.848-.842h.003c.501 0 1.154.414 1.814.832.532.337.916.682.54.758z" fill="#fff"/><path d="M20.597 20.782c1.111-.265 3.069-1.261 3.638-1.15.568.11-.027.475-.027.475l-2.315 1.667-3.703-.119-2.606-.992-3.77 1.442-4.365-.834-1.905-1.31c.097-.087.304-.28.675-.343.7-.12 1.322.728 2.724.794 1.403.066 2.315-.582 6.363-.45 1.583.052 3.902 1.15 5.291.82z" fill="#fff"/><path fill-rule="evenodd" clip-rule="evenodd" d="M16.02 12.794c.182.02.185.029.361.063.308.06.375.083.468-.221l2.215-7.232c.178-.58-.091-.563-.552-.706a10.946 10.946 0 00-1.934-.416c-.439-.053-.447.153-.47.588l-.385 7.657c-.01.188.026.238.297.267zm1.904.547a6.9 6.9 0 01.452.23c.278.155.296.043.493-.217l4.005-5.303c.29-.386.26-.5-.093-.839a8.474 8.474 0 00-1.46-1.145c-.421-.27-.518-.263-.708.184l-2.77 6.494c-.145.339-.247.444.081.596zm1.607 1.058c.168.152.266.261.418.43.176.196.205.228.43.082l4.778-3.092c.336-.218.452-.309.302-.684a11.057 11.057 0 00-.945-1.84c-.263-.412-.384-.13-.7.208l-4.178 4.457c-.18.193-.3.264-.105.44zm1.341 1.69c.106.191.169.321.255.524.103.245.12.273.382.212l4.345-1.006c.464-.107.384-.146.384-.627 0-.529-.038-1.048-.111-1.558-.073-.505-.34-.377-.8-.143l-4.226 2.138c-.299.153-.388.17-.229.46zm-6.386-3.295c-.183.02-.185.029-.363.063-.307.06-.373.083-.466-.221L11.44 5.404c-.177-.58.092-.563.553-.706a10.95 10.95 0 011.934-.416c.439-.053.447.153.47.588l.385 7.657c.01.188-.027.238-.296.267zm-1.905.547a6.796 6.796 0 00-.452.23c-.278.155-.296.043-.493-.217L7.632 8.05c-.29-.386-.26-.5.093-.839a8.47 8.47 0 011.46-1.145c.42-.27.517-.263.706.184l2.771 6.494c.145.339.247.444-.081.596zm-1.607 1.058a4.847 4.847 0 00-.418.43c-.177.196-.205.228-.43.082l-4.779-3.092c-.335-.218-.451-.309-.3-.684.256-.644.575-1.26.943-1.84.264-.412.385-.13.7.208l4.18 4.457c.18.193.299.264.104.44zm-1.342 1.69a5 5 0 00-.254.524c-.103.245-.12.273-.382.212l-4.344-1.006c-.465-.107-.385-.146-.385-.627 0-.529.038-1.048.111-1.558.072-.505.34-.377.8-.143l4.226 2.138c.299.153.387.17.228.46zm9.048-1.524s.12.55.253.678c0 0-.139-.07-.084.058.054.128.132.543.372.73 0 0-.222-.088-.18-.012.042.076-.216-.187-.162-.07.053.117.183.41.35.556 0 0-.18-.023-.071.117.108.14.303.483.423.576.12.094-.207-.08-.16.055.049.134-.235-.207-.2-.114.037.093-.114.01-.06.109.054.099-.228-.154-.222-.06.006.093.33.36.474.552 0 0-.264-.035-.054.146.21.181.246.47.564.644 0 0-.21-.122-.156.047.054.17-.204-.035-.192.04.012.077-.12-.128-.126-.017-.006.111-.222-.245-.222-.122 0 .122-.102-.07-.102.03 0 .098.246.443.528.665.282.222-.402-.174-.012.169.39.342.48.443.69.583.21.14-.414-.095-.371.056.041.152-.283-.061-.247.028.036.09-.204-.168-.21-.028-.006.14-.24-.145-.222-.05.018.095-.126-.056-.132.04-.006.095-.18-.057-.162-.012.018.045-.006.6.156.904h-.924c.162-.303.138-.86.156-.904.018-.045-.156.107-.162.011-.006-.095-.15.056-.132-.04.018-.095-.216.192-.223.051-.005-.14-.246.118-.21.028.037-.09-.288.124-.246-.028.042-.151-.582.084-.372-.056.21-.14.3-.241.69-.584.39-.342-.294.054-.011-.168.282-.222.528-.567.528-.666 0-.1-.102.093-.102-.03 0-.122-.216.234-.222.123-.006-.11-.138.094-.126.018.012-.076-.246.128-.192-.041.054-.17-.157-.047-.157-.047.319-.175.355-.463.565-.644.21-.18-.054-.146-.054-.146.144-.192.468-.46.474-.553.006-.093-.276.16-.222.06.054-.099-.097-.015-.06-.108.035-.093-.25.248-.201.114.048-.134-.28.039-.16-.055.12-.093.316-.436.424-.576.108-.14-.072-.117-.072-.117.168-.146.297-.44.351-.556.054-.117-.204.146-.162.07.042-.076-.18.012-.18.012.24-.187.318-.602.372-.73.054-.129-.084-.058-.084-.058.132-.129.252-.678.252-.678zm2.34 3.836s.046.21.097.259c0 0-.053-.027-.032.022.02.05.05.207.142.279 0 0-.085-.034-.07-.005.017.029-.081-.071-.06-.027.02.045.069.157.133.212 0 0-.069-.008-.027.045.04.053.115.184.161.22.046.036-.079-.03-.06.021.018.051-.09-.08-.077-.044.014.036-.044.004-.023.042.02.038-.087-.059-.085-.023.002.035.126.137.181.21 0 0-.1-.013-.02.057.08.069.093.178.215.245 0 0-.08-.047-.06.018.02.065-.078-.013-.073.016.005.029-.046-.05-.048-.007-.002.042-.085-.093-.085-.047 0 .047-.039-.027-.039.011s.094.17.202.255c.108.084-.154-.067-.005.064.15.13.183.169.264.223.08.053-.158-.037-.142.02.016.059-.108-.022-.094.012.013.034-.078-.064-.08-.011-.003.053-.092-.056-.085-.02.007.037-.048-.02-.05.016-.003.036-.07-.022-.063-.005.007.017-.002.23.06.345h-.353c.062-.116.053-.328.06-.345.007-.017-.06.041-.062.005-.002-.037-.057.021-.05-.015.007-.037-.083.072-.085.019-.002-.053-.094.045-.08.01.014-.034-.11.048-.094-.01s-.222.032-.142-.021c.08-.054.115-.092.263-.223.15-.13-.112.02-.004-.064.108-.085.201-.217.201-.255 0-.038-.038.036-.038-.01 0-.048-.083.088-.085.046-.002-.042-.053.036-.048.007.004-.03-.094.049-.074-.016.021-.065-.06-.018-.06-.018.122-.067.136-.176.216-.245.08-.07-.02-.056-.02-.056.055-.074.178-.176.18-.211.003-.036-.105.06-.084.023.02-.038-.037-.006-.023-.042.013-.035-.095.095-.077.044.019-.051-.106.015-.06-.021.046-.036.12-.167.161-.22.041-.053-.027-.045-.027-.045.064-.055.113-.167.134-.212.02-.044-.078.056-.062.027s-.069.005-.069.005c.092-.072.122-.23.142-.28.02-.048-.032-.021-.032-.021.05-.05.095-.259.095-.259zm-11.638.106s.036.168.076.208c0 0-.042-.022-.025.018.016.04.04.166.113.224 0 0-.067-.027-.055-.004.013.023-.066-.057-.049-.022.016.036.056.126.107.17 0 0-.055-.006-.022.037s.092.148.129.176c.036.03-.063-.024-.049.017.015.041-.072-.063-.06-.035.01.029-.036.003-.02.033.017.03-.069-.047-.067-.018.002.029.1.11.145.17 0 0-.08-.011-.017.044.064.056.075.144.172.198 0 0-.064-.038-.047.014.016.052-.063-.01-.059.013.004.023-.036-.04-.038-.006-.002.034-.068-.075-.068-.037 0 .037-.031-.022-.031.009 0 .03.075.136.16.204.087.068-.122-.053-.003.052s.146.136.21.179c.064.043-.126-.03-.113.017.013.047-.086-.019-.075.009.01.027-.062-.052-.064-.009-.002.043-.073-.045-.068-.015.006.029-.038-.018-.04.012-.002.029-.055-.018-.049-.004.005.014-.002.184.047.277h-.281c.05-.093.042-.263.047-.277.006-.014-.047.033-.049.004-.002-.03-.046.017-.04-.012.005-.03-.066.058-.068.015-.001-.043-.075.036-.064.009.011-.028-.087.038-.075-.009.013-.046-.177.026-.113-.017.064-.043.091-.074.21-.18.119-.104-.09.017-.003-.05.085-.07.16-.175.16-.205s-.03.028-.03-.01c0-.037-.066.072-.068.038-.002-.034-.042.03-.039.006.004-.024-.075.04-.058-.013.016-.052-.048-.014-.048-.014.097-.054.108-.142.172-.198.064-.055-.016-.045-.016-.045.043-.058.142-.14.144-.17.002-.028-.084.05-.068.02.017-.03-.03-.005-.018-.034.01-.029-.076.076-.061.035.015-.04-.085.012-.049-.017.037-.028.096-.133.13-.176.032-.043-.023-.036-.023-.036.051-.045.09-.135.107-.17.017-.037-.062.044-.049.021.013-.023-.055.004-.055.004.073-.058.097-.185.114-.224.016-.04-.026-.018-.026-.018.04-.04.077-.208.077-.208z" fill="#fff"/><path d="M10.426 18.155c.016-.107.027-.216.047-.322a1.99 1.99 0 01.323-.803 1.35 1.35 0 01.61-.472 3.908 3.908 0 011.037-.245c.422-.05.846-.061 1.27-.052.469.01.936.039 1.392.159.222.058.435.137.616.285a.89.89 0 01.282.418c.105.315.172.64.228.966.034.2.063.4.087.602a1.01 1.01 0 01-.036.42c-.078.262-.26.41-.524.456-.082.015-.168.02-.252.021-.478.002-.956 0-1.434.002-.06 0-.078-.02-.086-.077a.622.622 0 00-.56-.525.622.622 0 00-.662.526c-.005.056-.027.076-.086.076-.405-.003-.81-.001-1.215-.001-.114 0-.227-.007-.34.001-.233.016-.38-.104-.486-.293-.125-.223-.174-.468-.199-.72-.002-.022-.008-.044-.011-.066v-.356zm3.938-.138v.966c0 .083.022.105.106.105h.72c.08 0 .105-.025.105-.107v-1.925c0-.085-.025-.109-.11-.109h-.703c-.1 0-.118.019-.118.117v.953zM12.1 16.945h-.524c-.077 0-.095.018-.095.095v.529c0 .08.017.097.1.097h1.035c.08 0 .099-.019.099-.098v-.523c0-.082-.018-.1-.103-.1H12.1zm1.923.365v-.281c0-.063-.02-.082-.084-.082h-.558c-.064 0-.085.022-.085.087v.551c0 .066.021.088.085.088h.558c.065 0 .084-.02.084-.087v-.276z" fill="#fff"/><path d="M13.363 19.195c.231 0 .42.188.423.42a.428.428 0 01-.426.426.428.428 0 01-.42-.425.425.425 0 01.423-.421z" fill="#fff"/><path d="M42.858 26.292l.662 2.18h2.14l-1.732 1.348.662 2.18-1.732-1.347L41.127 32l.661-2.181-1.731-1.348h2.14l.661-2.18zm14.875 0l.661 2.18h2.14l-1.731 1.348.661 2.18-1.731-1.347L56.002 32l.66-2.181-1.73-1.348h2.14l.66-2.18zm-7.439 0l.662 2.18h2.14l-1.732 1.348.662 2.18-1.732-1.347L48.563 32l.661-2.181-1.731-1.348h2.14l.661-2.18zm14.875 0l.661 2.18h2.14l-1.731 1.348L66.9 32l-1.731-1.347L63.437 32l.662-2.181-1.732-1.348h2.14l.662-2.18zm7.439 0l.66 2.18h2.14l-1.73 1.348.66 2.18-1.73-1.347L70.876 32l.661-2.181-1.73-1.348h2.14l.66-2.18zM39.663 11.635c0-.716.116-1.391.348-2.024a4.637 4.637 0 011.024-1.674 4.764 4.764 0 011.66-1.136c.656-.275 1.4-.413 2.234-.413.779 0 1.482.124 2.11.372a4.45 4.45 0 011.599 1.053c.45.455.799 1.013 1.045 1.674.26.647.403 1.37.43 2.168.014.262.02.586.02.971 0 .372.021.785.062 1.24.041.454.116.936.225 1.446.11.495.28.998.513 1.508h-2.46a7.199 7.199 0 01-.511-1.59 3.9 3.9 0 01-1.353 1.238c-.546.303-1.202.455-1.967.455a4.855 4.855 0 01-3.586-1.529 5.343 5.343 0 01-1.025-1.673 5.825 5.825 0 01-.368-2.086zm5.266-2.933c-.506 0-.936.075-1.291.227a2.323 2.323 0 00-.881.64 2.626 2.626 0 00-.492.93 4.47 4.47 0 00-.144 1.156c0 .414.048.8.144 1.157.11.358.273.675.492.95.232.262.526.469.88.62.356.152.786.227 1.292.227.847 0 1.51-.234 1.987-.702.492-.482.738-1.232.738-2.252-.04-.908-.273-1.624-.697-2.148-.423-.537-1.1-.805-2.028-.805zm10.094 8.118h-2.46V2.36h2.46v14.46zm4.922-9.977h2.828v2.313h-2.828v7.664h-2.459V6.512c0-.73.116-1.418.349-2.066a4.637 4.637 0 011.024-1.673 4.764 4.764 0 011.66-1.136c.656-.275 1.407-.413 2.254-.413.15 0 .3.014.45.041.151.014.301.035.452.062v2.396a4.526 4.526 0 00-.39-.062 1.777 1.777 0 00-.389-.04c-.56 0-1.031.075-1.414.226a2.4 2.4 0 00-.901.62c-.233.248-.397.55-.492.909a4.155 4.155 0 00-.144 1.115v.352zm4.131 4.792c0-.716.116-1.391.348-2.024a4.637 4.637 0 011.025-1.674 4.764 4.764 0 011.66-1.136c.655-.275 1.4-.413 2.233-.413.779 0 1.482.124 2.11.372a4.45 4.45 0 011.6 1.053c.45.455.798 1.013 1.044 1.674.26.647.403 1.37.43 2.168.014.262.021.586.021.971 0 .372.02.785.062 1.24.04.454.116.936.225 1.446.11.495.28.998.512 1.508h-2.459a7.204 7.204 0 01-.512-1.59 3.9 3.9 0 01-1.353 1.238c-.546.303-1.202.455-1.967.455a4.855 4.855 0 01-3.586-1.529 5.343 5.343 0 01-1.024-1.673 5.825 5.825 0 01-.369-2.086zm5.266-2.933c-.505 0-.936.075-1.29.227a2.323 2.323 0 00-.882.64 2.626 2.626 0 00-.492.93 4.47 4.47 0 00-.143 1.156c0 .414.048.8.143 1.157.11.358.274.675.492.95.232.262.526.469.881.62.355.152.786.227 1.291.227.847 0 1.51-.234 1.988-.702.492-.482.738-1.232.738-2.252-.041-.908-.274-1.624-.697-2.148-.424-.537-1.1-.805-2.029-.805zM41.733 21.61h1.446v1.943c-.203.067-.413.12-.63.156a4.37 4.37 0 01-.73.056c-.394 0-.728-.078-1.001-.233a1.516 1.516 0 01-.62-.68c-.141-.299-.212-.658-.212-1.078 0-.404.079-.754.236-1.05.157-.299.386-.53.686-.692.3-.164.663-.246 1.09-.246.21 0 .413.021.61.064.197.04.378.097.542.17l-.223.523a2.502 2.502 0 00-.439-.156 1.993 1.993 0 00-.506-.063c-.277 0-.516.06-.717.18-.2.12-.353.29-.46.508a1.715 1.715 0 00-.162.77c0 .288.043.54.13.757.086.217.221.387.405.509.185.12.424.18.717.18.146 0 .27-.008.373-.024a4.54 4.54 0 00.283-.053v-.998h-.818v-.543zm3.402 2.102v-3.87h.636v3.33h1.644v.54h-2.28zm6.378 0l-.379-1.075h-1.48l-.378 1.075h-.67l1.44-3.886h.704l1.438 3.886h-.675zm-.543-1.62l-.368-1.059-.06-.193a40.293 40.293 0 01-.146-.48 7.49 7.49 0 01-.14.492l-.054.181-.37 1.059h1.138zm4.43 1.62l-1.115-3.232h-.024a19.291 19.291 0 01.045 1.109v2.123h-.577v-3.87h.892l1.072 3.09h.016l1.109-3.09h.89v3.87H57.1v-2.155a14.725 14.725 0 01.021-.775 12.6 12.6 0 00.016-.297h-.02l-1.158 3.227h-.56zm5.482-3.87c.5 0 .864.102 1.093.307.23.205.344.491.344.86 0 .168-.026.328-.08.48-.05.15-.135.283-.253.4a1.246 1.246 0 01-.469.272c-.192.067-.43.1-.712.1h-.413v1.451h-.635v-3.87h1.125zm-.043.527h-.447v1.363h.347c.2 0 .369-.023.508-.069a.62.62 0 00.318-.225.687.687 0 00.108-.405c0-.224-.068-.39-.204-.5-.134-.11-.344-.164-.63-.164zm3.283 3.343v-3.87h.635v3.87h-.635zm5.917 0h-.781l-1.895-3.09h-.024c.007.105.013.215.018.332a25.822 25.822 0 01.03.736v2.022h-.578v-3.87h.776l1.893 3.068h.018a47.614 47.614 0 00-.029-.67 29.084 29.084 0 01-.008-.362v-2.036h.58v3.87zm3.608-2.102h1.446v1.943c-.203.067-.413.12-.63.156a4.37 4.37 0 01-.731.056c-.394 0-.727-.078-1-.233a1.516 1.516 0 01-.62-.68c-.141-.299-.212-.658-.212-1.078 0-.404.079-.754.236-1.05.157-.299.385-.53.685-.692.3-.164.664-.246 1.091-.246.21 0 .413.021.609.064.198.04.378.097.543.17l-.223.523a2.502 2.502 0 00-.44-.156 1.993 1.993 0 00-.505-.063c-.277 0-.516.06-.717.18-.2.12-.353.29-.46.508a1.715 1.715 0 00-.162.77c0 .288.043.54.13.757.086.217.22.387.404.509.186.12.425.18.718.18.146 0 .27-.008.373-.024.102-.016.197-.034.283-.053v-.998h-.818v-.543z" fill="#B59C93"/></svg>