<svg aria-hidden="true" xmlns="http://www.w3.org/2000/svg" overflow="hidden">version=&quot;1.1&quot; xmlns=&quot;http://www.w3.org/2000/svg&quot; xmlns:xlink=&quot;http://www.w3.org/1999/xlink&quot;&gt;<defs><symbol id="icon-move"><path d="M10.633 5.5v7.333a5.133 5.133 0 11-10.266 0V5.5a5.133 5.133 0 0110.266 0z" stroke="#767676" stroke-width=".733"/><path d="M4.4 4.767a1.1 1.1 0 112.2 0V7.7a1.1 1.1 0 01-2.2 0V4.767zM.982 21.73a.367.367 0 10-.497.54l.497-.54zM5.5 26.4l-.249.27c.14.13.357.13.498 0l-.25-.27zm5.015-4.13a.367.367 0 10-.497-.54l.497.54zm-10.03 0l4.766 4.4.498-.54-4.767-4.4-.497.54zm5.264 4.4l4.766-4.4-.497-.54-4.767 4.4.498.54z" fill="#767676"/></symbol><symbol id="icon-spinner-desk"><path fill-rule="evenodd" clip-rule="evenodd" d="M28.45 34.883c.066-.623.096-.633.21-1.235.198-1.047.276-1.276-.74-1.593l-24.144-7.56c-1.941-.607-1.88.312-2.36 1.884a38.055 38.055 0 00-1.389 6.6C-.15 34.474.54 34.5 1.992 34.58l25.565 1.316c.627.032.795-.091.893-1.013zm1.824-6.5c.238-.526.495-1.037.768-1.54.52-.948.144-1.012-.724-1.68L12.613 11.497c-1.29-.99-1.667-.887-2.802.317-1.635 1.736-2.587 3.015-3.823 4.983-.9 1.434-.879 1.764.613 2.411l21.686 9.453c1.13.493 1.481.842 1.987-.278zm3.536-5.481c.506-.574.871-.908 1.433-1.426.655-.601.764-.7.275-1.468L25.194 3.705c-.727-1.144-1.031-1.54-2.283-1.03a36.64 36.64 0 00-6.145 3.226c-1.376.896-.432 1.31.696 2.385l14.88 14.26c.645.615.882 1.022 1.468.356zm5.64-4.576c.639-.36 1.073-.575 1.75-.869.818-.352.912-.41.708-1.303L38.55 1.331C38.193-.256 38.063.018 36.455.018c-1.765 0-3.5.131-5.2.381-1.688.247-1.258 1.158-.48 2.725l7.14 14.423c.51 1.018.57 1.321 1.535.779zm-11 21.79c.066.622.096.631.21 1.237.198 1.047.276 1.274-.74 1.591L3.777 50.507c-1.941.604-1.88-.312-2.36-1.885a38.07 38.07 0 01-1.389-6.6c-.177-1.495.512-1.523 1.965-1.603l25.565-1.314c.627-.032.795.091.893 1.012zm1.824 6.5c.238.526.495 1.04.768 1.54.52.949.144 1.013-.724 1.682L12.613 63.501c-1.29.99-1.667.888-2.802-.317-1.635-1.735-2.587-3.015-3.823-4.981-.9-1.434-.879-1.765.613-2.411l21.686-9.454c1.13-.493 1.481-.842 1.987.278zM33.81 52.1c.506.575.871.908 1.433 1.425.655.603.764.701.275 1.468L25.194 71.296c-.727 1.144-1.031 1.54-2.283 1.028a36.709 36.709 0 01-6.145-3.222c-1.376-.897-.432-1.311.696-2.387l14.88-14.26c.645-.614.882-1.02 1.468-.355zm5.64 4.577c.639.36 1.073.575 1.75.866.818.354.912.409.708 1.304L38.55 73.668c-.357 1.588-.487 1.314-2.095 1.314-1.765 0-3.5-.131-5.2-.38-1.688-.246-1.258-1.159-.48-2.726l7.14-14.422c.51-1.02.57-1.321 1.535-.778z"/></symbol><symbol id="icon-spinner-mob"><path fill-rule="evenodd" clip-rule="evenodd" d="M16.515 20.312c.038-.362.055-.367.121-.717.115-.607.16-.74-.429-.924L2.192 14.282c-1.127-.352-1.092.181-1.37 1.094a22.09 22.09 0 00-.806 3.83c-.103.87.297.885 1.14.93l14.84.764c.364.019.461-.053.519-.588zm1.058-3.773c.139-.305.288-.602.446-.894.302-.55.084-.587-.42-.975L7.322 6.738c-.749-.574-.968-.515-1.627.184-.949 1.008-1.502 1.75-2.22 2.892-.522.833-.51 1.024.357 1.4l12.588 5.487c.656.286.86.489 1.153-.162zm2.052-3.182c.294-.332.506-.527.833-.827.38-.35.443-.407.159-.852l-5.993-9.463c-.422-.665-.598-.895-1.325-.598a21.267 21.267 0 00-3.567 1.872c-.799.52-.25.76.404 1.385l8.638 8.277c.374.357.511.593.851.206zm3.274-2.656a9.41 9.41 0 011.016-.504c.475-.204.53-.238.412-.756L22.377.836c-.207-.92-.283-.762-1.216-.762-1.024 0-2.031.076-3.018.221-.98.143-.73.672-.279 1.582l4.145 8.372c.295.591.33.767.89.452zm-6.384 12.65c.038.36.055.365.121.717.115.607.16.74-.429.923l-14.015 4.39c-1.127.35-1.092-.18-1.37-1.094a22.097 22.097 0 01-.806-3.83c-.103-.869.297-.885 1.14-.931l14.84-.763c.364-.019.461.053.519.587zm1.058 3.772c.139.305.288.603.446.894.302.55.084.588-.42.976L7.322 36.924c-.749.575-.968.516-1.627-.184-.949-1.007-1.502-1.75-2.22-2.891-.522-.833-.51-1.024.357-1.4l12.588-5.488c.656-.285.86-.488 1.153.162zm2.052 3.183c.294.333.506.527.833.826.38.351.443.408.159.853l-5.993 9.464c-.422.664-.598.894-1.325.596a21.305 21.305 0 01-3.567-1.87c-.799-.521-.25-.761.404-1.386l8.638-8.278c.374-.356.511-.592.851-.205zm3.274 2.657a9.59 9.59 0 001.016.502c.475.205.53.237.412.757l-1.95 8.604c-.207.922-.283.763-1.216.763-1.024 0-2.031-.077-3.018-.22-.98-.144-.73-.674-.279-1.584l4.145-8.371c.295-.592.33-.767.89-.451z"/></symbol><symbol id="icon-count-desk"><path d="M0 20.5C0 9.178 9.178 0 20.5 0S41 9.178 41 20.5v18C41 49.822 31.822 59 20.5 59S0 49.822 0 38.5v-18z"/></symbol><symbol id="icon-count-mob"><path d="M9.05 9.427a9.427 9.427 0 0118.855 0v9.05a9.427 9.427 0 01-18.854 0v-9.05z"/><path d="M7.275 21.735c-1.187 0-2.242-.307-3.165-.923-.923-.63-1.648-1.524-2.176-2.681-.527-1.172-.791-2.58-.791-4.22 0-1.641.264-3.04.791-4.198C2.462 8.54 3.187 7.647 4.11 7.03c.923-.63 1.978-.945 3.165-.945s2.242.315 3.165.945c.923.616 1.649 1.51 2.176 2.682.542 1.157.813 2.557.813 4.198 0 1.64-.27 3.048-.813 4.22-.527 1.157-1.253 2.051-2.176 2.681-.923.616-1.978.923-3.165.923zm0-1.45c.909 0 1.7-.242 2.374-.726.674-.498 1.201-1.216 1.582-2.154.381-.952.572-2.117.572-3.494 0-1.378-.19-2.535-.572-3.473-.38-.952-.908-1.67-1.582-2.154-.674-.498-1.465-.747-2.374-.747-.879 0-1.663.249-2.352.747-.688.484-1.223 1.202-1.604 2.154-.381.938-.572 2.095-.572 3.473 0 1.377.19 2.542.572 3.495.38.937.916 1.655 1.604 2.153.689.484 1.473.726 2.352.726zm11.102 1.319V6.877l.703.748h-4.33V6.218h5.21v15.386h-1.583z" fill="#fff"/></symbol><symbol id="icon-facebook"><path fill-rule="evenodd" clip-rule="evenodd" d="M10.757 3.257A6 6 0 0115 1.5h3a1 1 0 011 1v4a1 1 0 01-1 1h-3v2h3a1 1 0 01.97 1.242l-1 4a1 1 0 01-.97.758h-2v7a1 1 0 01-1 1h-4a1 1 0 01-1-1v-7H7a1 1 0 01-1-1v-4a1 1 0 011-1h2v-2a6 6 0 011.757-4.243zM15 3.5a4 4 0 00-4 4v3a1 1 0 01-1 1H8v2h2a1 1 0 011 1v7h2v-7a1 1 0 011-1h2.22l.5-2H14a1 1 0 01-1-1v-3a2 2 0 012-2h2v-2h-2z"/></symbol><symbol id="icon-instagram"><path fill-rule="evenodd" clip-rule="evenodd" d="M7 3.5a4 4 0 00-4 4v10a4 4 0 004 4h10a4 4 0 004-4v-10a4 4 0 00-4-4H7zm-6 4a6 6 0 016-6h10a6 6 0 016 6v10a6 6 0 01-6 6H7a6 6 0 01-6-6v-10z"/><path fill-rule="evenodd" clip-rule="evenodd" d="M12.483 9.49a3 3 0 10-.88 5.935 3 3 0 00.88-5.936zM9.74 8.018a5 5 0 114.606 8.876A5 5 0 019.74 8.019z"/></symbol><symbol id="icon-youtube"><path fill-rule="evenodd" clip-rule="evenodd" d="M12 3.5v2h-.075a86.587 86.587 0 00-1.016.007c-.668.007-1.575.022-2.534.05-.961.029-1.966.071-2.833.134-.888.065-1.548.147-1.877.233a1.78 1.78 0 00-1.227 1.25A28 28 0 002 12.245v.011a28 28 0 00.435 5.093 1.78 1.78 0 001.226 1.186c.328.087.99.168 1.881.234.867.063 1.872.105 2.833.134a136.722 136.722 0 003.55.057h.37a140.447 140.447 0 003.33-.057 69.785 69.785 0 002.833-.134c.888-.065 1.548-.147 1.877-.233a1.78 1.78 0 001.227-1.25c.298-1.66.444-3.345.438-5.032v-.01a28.004 28.004 0 00-.438-5.11 1.78 1.78 0 00-1.217-1.247c-.34-.08-1.002-.154-1.88-.212a75.155 75.155 0 00-2.837-.123 149.278 149.278 0 00-3.333-.051h-.22L12 5.5v-2h.08a106.602 106.602 0 011.032.007c.675.006 1.595.02 2.57.046.974.026 2.01.066 2.915.126.88.059 1.715.141 2.24.27a3.78 3.78 0 012.673 2.729l-.97.242.984-.178c.328 1.818.487 3.662.476 5.51a29.997 29.997 0 01-.49 5.49 3.78 3.78 0 01-2.638 2.72l-.014.004c-.533.143-1.375.233-2.255.297-.907.066-1.944.11-2.918.14a138.67 138.67 0 01-3.605.057h-.16a117.262 117.262 0 01-1.033-.007 138.66 138.66 0 01-2.572-.05 70.549 70.549 0 01-2.918-.14c-.88-.064-1.722-.154-2.255-.297l-.006-.001a3.78 3.78 0 01-2.638-2.611.996.996 0 01-.022-.096A30 30 0 010 12.248a30 30 0 01.49-5.532 3.78 3.78 0 012.638-2.72l.014-.003c.533-.143 1.375-.233 2.255-.297.907-.066 1.944-.11 2.918-.14A138.223 138.223 0 0111.92 3.5H12z"/><path fill-rule="evenodd" clip-rule="evenodd" d="M9.247 8.116a1 1 0 01.997-.005l5.75 3.27a1 1 0 010 1.738l-5.75 3.27a1 1 0 01-1.494-.869V8.98a1 1 0 01.497-.864zm1.503 2.583v3.102l2.727-1.551-2.727-1.55z" stroke-linecap="round" stroke-linejoin="round"/></symbol><symbol id="icon-tiktok"><path d="M22 10.544a9.646 9.646 0 01-5.485-1.692v7.686c0 3.84-3.256 6.962-7.258 6.962a7.426 7.426 0 01-4.159-1.261C3.228 20.979 2 18.894 2 16.539c0-3.84 3.256-6.963 7.258-6.963.333 0 .658.027.978.068v3.861a3.402 3.402 0 00-.978-.147c-1.827 0-3.314 1.427-3.314 3.18 0 1.222.722 2.282 1.778 2.815.46.232.982.365 1.537.365 1.785 0 3.242-1.363 3.309-3.06L12.57 1.5h3.944c0 .328.033.648.092.96.278 1.44 1.17 2.677 2.406 3.45a5.62 5.62 0 002.987.853v3.781H22z"/></symbol><symbol id="icon-question"><path d="M11 17a1 1 0 100-2 1 1 0 000 2z"/><path fill-rule="evenodd" clip-rule="evenodd" d="M11.356 7.56c-.486.021-.744.217-.834.407a1 1 0 11-1.81-.851c.523-1.11 1.648-1.514 2.556-1.554.875-.038 1.963.24 2.565 1.025.463.604.723 1.37.618 2.175-.107.816-.572 1.549-1.328 2.104-1.009.743-1.007 1.121-1.006 1.177v.002a1 1 0 11-2 0c0-.957.556-1.859 1.821-2.79.39-.286.505-.56.53-.752.027-.204-.031-.45-.222-.699-.014-.017-.087-.09-.27-.156a1.663 1.663 0 00-.62-.088z"/><path d="M11 22C4.9 22 0 17.1 0 11S4.9 0 11 0s11 4.9 11 11-4.9 11-11 11zm0-20c-5 0-9 4-9 9s4 9 9 9 9-4 9-9-4-9-9-9z"/></symbol><symbol id="icon-open"><path fill-rule="evenodd" clip-rule="evenodd" d="M15.427.33c.44.44.44 1.152 0 1.591L8.674 8.674c-.44.44-1.152.44-1.591 0L.33 1.921A1.125 1.125 0 011.922.33l5.957 5.957L13.836.33c.44-.44 1.152-.44 1.591 0z"/></symbol><symbol id="logo-big"><path d="M0 58.234C0 26.477 25.744.734 57.5.734h7c31.756 0 57.5 25.743 57.5 57.5v66.782c0 31.756-25.744 57.5-57.5 57.5h-7c-31.756 0-57.5-25.744-57.5-57.5V58.234z" fill="#B59C93"/><path d="M5 61.376c0-31.204 25.296-56.5 56.5-56.5s56.5 25.296 56.5 56.5v60.141c0 31.204-25.296 56.5-56.5 56.5S5 152.721 5 121.517v-60.14z" stroke="#fff" stroke-width="2"/><path d="M33.545 147.749l1.245 3.964h4.029l-3.26 2.45 1.245 3.965-3.26-2.45-3.258 2.45 1.245-3.965-3.26-2.45H32.3l1.245-3.964zm28 0l1.245 3.964h4.029l-3.26 2.45 1.245 3.965-3.26-2.45-3.258 2.45 1.245-3.965-3.26-2.45H60.3l1.245-3.964zm-14 0l1.245 3.964h4.029l-3.26 2.45 1.245 3.965-3.26-2.45-3.258 2.45 1.245-3.965-3.26-2.45H46.3l1.245-3.964zm28 0l1.245 3.964h4.028l-3.259 2.45 1.245 3.965-3.26-2.45-3.258 2.45 1.245-3.965-3.26-2.45H74.3l1.245-3.964zm14 0l1.245 3.964h4.028l-3.259 2.45 1.245 3.965-3.26-2.45-3.258 2.45 1.245-3.965-3.26-2.45H88.3l1.245-3.964z" fill="#fff"/><path fill-rule="evenodd" clip-rule="evenodd" d="M57.605 50.036l.129-.099c.248-.191.493-.357.733-.491a4.62 4.62 0 01.766-.349c1.158-.402 2.309-.265 3.354.538a4.23 4.23 0 01.86-.594c2.24-.68 3.19.534 3.564.869-1.111-.19-2.76-.024-3.647.757-.088.076.14.289.064.389-.126.168-.125.456-.255.671-.342-.339-.496-.585-.983-.66-.354-.055-.796-.086-.904-.158-.373-.244-.361-.737-.898-.762-1.076-.053-1.716.567-2.782-.111zM53.82 53.55l.09-.069c.174-.134.347-.25.515-.344.173-.098.353-.18.537-.244.813-.282 1.621-.186 2.354.376.173-.157.381-.297.604-.416 1.573-.476 2.239.375 2.502.609-.78-.133-1.938-.017-2.56.53-.061.054.099.203.045.273-.089.118-.088.32-.179.47-.24-.237-.348-.41-.69-.462-.249-.039-.559-.06-.635-.11-.262-.171-.253-.517-.63-.535-.755-.037-1.204.397-1.953-.078zm40.036 20.803a8.683 8.683 0 00-2.048-.255c-3.095 0-5.843 1.763-8.59 3.525-4.13 2.21-6.2 2.673-9.527 1.402-.932-.353-1.963-.848-3.163-1.476-7.04-4.458-9.791-4.407-16.843.033-1.799.876-3.177 1.499-4.358 1.868-3.012.946-4.718.25-8.801-2.024-2.75-1.69-5.406-3.323-8.02-3.328H32.5c-.679 0-1.348.108-2.01.295-1.227.347-1.882-.85-2.23-2.167-.308-1.164-.458-2.402.588-3.036 1.42-.859 2.702-1.516 3.652-1.516h.007c1.381.001 3.524 1.32 5.738 2.681 2.932 1.802 5.979 3.674 9.079 3.674h.008c1.705-.001 3.348-.566 4.958-1.375 9.694-4.86 9.768-5.06 19.499-.082 1.667.853 3.383 1.457 5.193 1.457 3.093 0 5.842-1.764 8.587-3.527 2.2-1.413 4.407-2.828 6.24-2.828 1.252 0 2.676.676 4.156 1.557.95.567.545 1.853-.03 3.11-.507 1.112-1.068 2.258-2.078 2.012zm-1.986 5.715a37.232 37.232 0 01-3.51 4.196c-2.219 2.286-4.656 3.963-7.398 5.542-1.414.818-2.779 1.427-3.98 1.427-1.876 0-4.183-1.462-6.454-2.903-2.736-1.733-5.441-3.45-8.37-3.45h-.007c-2.932 0-5.69 1.735-8.466 3.483-2.267 1.427-4.556 2.867-6.354 2.87h-.008c-1.227 0-2.731-.666-4.302-1.54-2.92-1.63-5.252-3.465-7.576-5.956a37.234 37.234 0 01-3.08-3.768c-.617-.866-1.448-1.511.134-1.511h.007c.085 0 .176.008.268.016 1.38.15 3.395 1.388 5.47 2.662 6.454 3.679 9.547 4.453 15.138 1.515 8.41-4.426 9.219-4.242 17.39-.079 5.222 2.66 8.854 2.057 14.796-1.29 2.2-1.41 4.405-2.824 6.24-2.824 1.677 0 .749.65.062 1.61zM69.992 94.53c-2.535.514-5.149.854-7.84.854-2.496 0-4.932-.267-7.288-.739-1.61-.318-1.178-1.149 1.137-2.606 2.231-1.404 4.451-2.801 6.15-2.801h.008c1.668.001 3.84 1.377 6.036 2.768 1.77 1.122 3.05 2.271 1.797 2.524z" fill="#fff"/><path d="M80.095 71.548c3.697-.88 10.21-4.195 12.103-3.828 1.893.366-.088 1.584-.088 1.584l-7.702 5.545-12.323-.396-8.67-3.3-12.542 4.796-14.524-2.772-6.337-4.357c.322-.294 1.012-.933 2.244-1.144 2.333-.4 4.401 2.42 9.066 2.64 4.665.22 7.702-1.936 21.17-1.496 5.265.172 12.982 3.829 17.603 2.728z" fill="#fff"/><path fill-rule="evenodd" clip-rule="evenodd" d="M64.863 44.973c.608.065.617.095 1.204.21 1.021.196 1.245.274 1.554-.738l7.372-24.06c.592-1.933-.304-1.873-1.837-2.351a36.424 36.424 0 00-6.436-1.384c-1.459-.176-1.485.51-1.562 1.958l-1.283 25.475c-.031.624.089.791.988.89zm6.338 1.817c.514.238 1.012.494 1.502.766.924.518.987.143 1.64-.722l13.324-17.642c.965-1.285.865-1.662-.31-2.792-1.692-1.63-2.94-2.578-4.858-3.81-1.399-.897-1.72-.875-2.351.611l-9.219 21.61c-.48 1.125-.82 1.475.272 1.98zm5.346 3.523c.559.505.885.869 1.39 1.429.587.653.683.76 1.431.273l15.898-10.287c1.116-.725 1.502-1.028 1.004-2.275a36.799 36.799 0 00-3.144-6.123c-.875-1.371-1.278-.431-2.327.693L76.894 48.852c-.6.642-.997.877-.347 1.461zm4.462 5.62c.352.637.56 1.07.847 1.745.343.815.4.908 1.27.705l14.456-3.346c1.547-.356 1.28-.486 1.28-2.088 0-1.758-.128-3.487-.372-5.181-.24-1.682-1.128-1.254-2.657-.478l-14.065 7.114c-.993.508-1.288.569-.759 1.53zm-21.25-10.96c-.606.065-.615.095-1.205.21-1.021.196-1.243.274-1.552-.738l-7.375-24.06c-.589-1.933.304-1.873 1.838-2.351a36.44 36.44 0 016.436-1.384c1.458-.176 1.485.51 1.563 1.958l1.282 25.475c.031.624-.09.791-.987.89zm-6.338 1.817a22.49 22.49 0 00-1.501.766c-.926.518-.988.143-1.64-.722L36.955 29.192c-.966-1.285-.866-1.662.309-2.792 1.691-1.63 2.94-2.578 4.857-3.81 1.398-.897 1.72-.875 2.352.611l9.219 21.61c.48 1.125.82 1.475-.272 1.98zm-5.347 3.523c-.56.505-.885.869-1.389 1.429-.589.653-.684.76-1.432.273L29.355 41.728c-1.116-.725-1.502-1.028-1.003-2.275a36.877 36.877 0 013.142-6.123c.876-1.371 1.28-.431 2.329.693l13.906 14.829c.598.642.995.877.345 1.461zm-4.463 5.62c-.35.637-.56 1.07-.845 1.745-.344.815-.398.908-1.27.705L27.04 55.037c-1.548-.356-1.281-.486-1.281-2.088 0-1.758.128-3.487.37-5.181.24-1.682 1.13-1.254 2.659-.478l14.064 7.114c.994.508 1.288.569.758 1.53zm30.103-5.07s.4 1.827.839 2.254c0 0-.46-.233-.28.194.18.428.44 1.808 1.238 2.43 0 0-.74-.292-.6-.04.14.253-.719-.622-.538-.233.179.389.609 1.363 1.168 1.849 0 0-.6-.077-.24.389s1.009 1.607 1.409 1.918c.399.311-.69-.264-.53.182.16.447-.786-.69-.666-.38.12.312-.382.032-.203.362.18.331-.759-.512-.739-.201.02.31 1.099 1.2 1.578 1.84 0 0-.879-.116-.18.486.7.603.82 1.56 1.878 2.143 0 0-.699-.408-.519.155.18.564-.679-.116-.639.137.04.252-.4-.428-.42-.059-.02.37-.738-.816-.738-.408s-.34-.233-.34.098c0 .33.82 1.478 1.758 2.216.939.739-1.338-.578-.04.56 1.298 1.139 1.598 1.476 2.297 1.942.7.467-1.378-.317-1.238.187.14.504-.939-.206-.819.094.12.298-.68-.56-.699-.094-.02.467-.799-.485-.739-.168.06.317-.42-.187-.44.13-.02.318-.598-.187-.538-.037.06.15-.02 1.998.519 3.007h-3.076c.54-1.009.46-2.858.52-3.007.06-.15-.52.355-.54.038-.02-.318-.5.186-.44-.131s-.718.635-.738.168c-.02-.467-.82.392-.7.094.12-.3-.958.41-.818-.094s-1.938.28-1.239-.187c.7-.466 1-.803 2.298-1.942 1.298-1.138-.979.178-.04-.56.938-.738 1.757-1.887 1.757-2.216 0-.33-.339.31-.339-.098 0-.408-.719.778-.739.408-.02-.369-.46.311-.42.059.04-.253-.818.427-.639-.137.18-.563-.519-.155-.519-.155 1.059-.583 1.178-1.54 1.877-2.143.7-.602-.179-.485-.179-.485.48-.642 1.558-1.53 1.578-1.841.02-.31-.919.532-.739.201.18-.33-.322-.05-.203-.361.12-.311-.825.826-.666.38.16-.447-.929.128-.53-.183.4-.311 1.05-1.452 1.409-1.918.36-.466-.24-.39-.24-.39.56-.485.989-1.46 1.168-1.848.18-.389-.678.486-.538.233.14-.252-.6.04-.6.04.8-.622 1.058-2.002 1.239-2.43.18-.427-.28-.194-.28-.194.438-.427.837-2.254.837-2.254zm7.783 12.764s.153.697.32.86c0 0-.175-.089-.106.074.068.163.167.69.472.927 0 0-.282-.11-.229-.015.054.096-.274-.237-.205-.09.068.15.232.521.446.706 0 0-.23-.029-.092.149.137.178.385.613.537.732.153.118-.263-.101-.202.07.061.17-.3-.264-.254-.146.046.12-.146.013-.077.138.068.127-.29-.195-.282-.076.007.118.419.457.602.702 0 0-.335-.044-.069.186.267.23.313.595.717.817 0 0-.267-.156-.198.06.069.214-.26-.045-.244.052.015.096-.152-.164-.16-.023-.007.141-.282-.311-.282-.156 0 .156-.13-.089-.13.037s.313.564.671.846c.359.282-.51-.22-.015.214.496.435.61.563.877.74.267.18-.526-.12-.473.072.053.193-.358-.078-.312.036.045.114-.26-.213-.267-.036-.008.178-.305-.185-.282-.064.023.12-.16-.071-.168.05-.007.121-.228-.072-.206-.015.023.057-.007.763.199 1.147H80.91c.207-.384.176-1.09.199-1.147.023-.057-.198.136-.206.015-.008-.121-.19.07-.168-.05.023-.121-.274.242-.281.064-.008-.177-.313.15-.267.036.045-.114-.366.157-.313-.036.054-.192-.739.107-.472-.071.266-.178.38-.306.876-.741.495-.435-.373.068-.015-.214.358-.282.67-.72.67-.846s-.129.119-.129-.037c0-.155-.274.297-.282.156-.007-.14-.175.119-.16.023.016-.097-.312.162-.243-.053.068-.215-.198-.059-.198-.059.404-.222.45-.588.716-.817.267-.23-.068-.186-.068-.186.183-.245.595-.584.602-.703.007-.118-.35.203-.282.077.069-.125-.123-.019-.077-.138.045-.118-.315.316-.255.146.062-.171-.354.048-.201-.07.152-.119.4-.555.537-.732.137-.178-.092-.149-.092-.149.214-.185.378-.556.446-.705.069-.148-.259.185-.206.09.054-.097-.228.014-.228.014.305-.237.404-.764.473-.927.068-.163-.107-.074-.107-.074.165-.163.317-.86.317-.86zm-38.722.351s.122.56.255.692c0 0-.14-.072-.085.06.055.13.134.554.377.744 0 0-.224-.089-.182-.012.042.077-.22-.19-.164-.072.055.12.185.419.356.567 0 0-.183-.023-.073.12.109.143.307.493.428.588.122.095-.21-.081-.161.056.049.137-.24-.212-.203-.117.037.096-.117.01-.062.11.055.102-.23-.156-.224-.06.006.095.334.367.48.563 0 0-.267-.035-.055.15.213.184.25.478.572.656 0 0-.213-.124-.158.048.055.173-.207-.035-.195.042.013.078-.121-.131-.128-.017-.005.112-.224-.251-.224-.126 0 .126-.104-.071-.104.03 0 .101.25.453.536.68.285.227-.408-.178-.013.171.396.35.487.453.7.597.212.143-.42-.098-.378.057.043.154-.286-.063-.249.029.036.091-.207-.172-.213-.029-.006.143-.243-.15-.225-.051.018.097-.128-.058-.134.04-.006.097-.182-.058-.163-.012.017.046-.007.613.157.922h-.936c.164-.31.14-.876.158-.922.018-.046-.158.109-.164.012-.006-.098-.152.056-.134-.04.018-.098-.219.194-.225.051-.006-.143-.25.12-.212.029.036-.093-.293.125-.25-.029.042-.155-.59.086-.378-.057.214-.143.305-.246.7-.596.395-.35-.298.055-.012-.172.286-.227.535-.579.535-.68 0-.101-.103.096-.103-.03 0-.125-.22.238-.225.126-.006-.114-.14.095-.128.017.012-.077-.25.131-.195-.042.055-.172-.158-.047-.158-.047.322-.179.359-.473.572-.658.213-.184-.055-.149-.055-.149.146-.196.474-.469.48-.564.006-.095-.28.163-.225.062.055-.1-.098-.016-.061-.11.036-.096-.252.253-.203.116.049-.137-.283.04-.161-.056.121-.096.32-.445.428-.588.11-.143-.073-.12-.073-.12.17-.148.301-.447.356-.567.055-.119-.207.15-.164.072.043-.077-.182.012-.182.012.243-.19.322-.614.377-.745.055-.13-.085-.06-.085-.06.134-.13.255-.69.255-.69z" fill="#fff"/><path d="M46.25 62.808c.051-.358.09-.718.155-1.073.178-.962.504-1.864 1.076-2.671.518-.732 1.206-1.235 2.027-1.57 1.108-.454 2.27-.675 3.452-.814a30.439 30.439 0 014.227-.174c1.558.035 3.113.128 4.63.527.738.194 1.448.457 2.05.95.452.371.753.841.936 1.392.35 1.048.573 2.126.758 3.212.114.665.21 1.334.292 2.004.057.471.019.943-.119 1.4-.261.87-.864 1.36-1.744 1.516a4.935 4.935 0 01-.838.068c-1.59.007-3.18 0-4.771.008-.2 0-.262-.07-.287-.256-.123-.925-.89-1.64-1.861-1.748-.863-.095-1.778.477-2.085 1.309-.053.142-.103.29-.118.44-.02.189-.091.256-.29.254-1.347-.009-2.695-.004-4.042-.004-.377 0-.755-.022-1.13.004-.776.054-1.264-.346-1.615-.974-.416-.743-.582-1.557-.664-2.394-.007-.074-.025-.148-.038-.222l-.001-1.184zm13.1-.458v3.212c0 .276.075.35.353.35.798.001 1.596.002 2.394 0 .268 0 .352-.083.352-.357v-6.406c0-.281-.085-.36-.37-.36h-2.336c-.33 0-.393.062-.394.388v3.173zm-7.532-3.567h-1.742c-.258 0-.315.058-.316.316a257.84 257.84 0 000 1.759c.001.267.057.323.33.323h3.446c.267 0 .328-.063.329-.328v-1.739c0-.273-.06-.33-.342-.33h-1.705zm6.4 1.213c0-.312.003-.624-.001-.936-.003-.208-.069-.27-.28-.272-.618-.002-1.237-.002-1.855 0-.213 0-.285.073-.285.29-.003.61-.003 1.221 0 1.833 0 .218.072.291.283.292.618.002 1.237.002 1.856 0 .216 0 .28-.067.281-.29.003-.306.001-.612 0-.917z" fill="#fff"/><path d="M56.02 66.268c.771-.001 1.4.624 1.41 1.4a1.425 1.425 0 01-1.417 1.416 1.424 1.424 0 01-1.4-1.414 1.413 1.413 0 011.408-1.402zm-28.489 56.477c0-1.348.219-2.619.656-3.811.437-1.219 1.08-2.268 1.929-3.15.848-.907 1.89-1.62 3.124-2.138 1.235-.519 2.636-.778 4.205-.778 1.466 0 2.79.233 3.973.7 1.183.466 2.186 1.127 3.009 1.983.848.855 1.504 1.905 1.967 3.15.489 1.218.759 2.579.81 4.083.026.492.039 1.101.039 1.827 0 .7.038 1.478.115 2.333.078.856.219 1.763.425 2.722.205.933.527 1.88.964 2.839h-4.629a13.553 13.553 0 01-.964-2.994 7.35 7.35 0 01-2.546 2.333c-1.029.57-2.263.855-3.703.855-1.363 0-2.623-.259-3.78-.777a9.118 9.118 0 01-2.97-2.1 10.072 10.072 0 01-1.93-3.15c-.462-1.218-.694-2.528-.694-3.927zm9.914-5.522c-.952 0-1.762.143-2.43.428a4.377 4.377 0 00-1.66 1.205 4.95 4.95 0 00-.925 1.75c-.18.674-.27 1.4-.27 2.178 0 .777.09 1.503.27 2.177.206.674.514 1.27.926 1.789.437.492.99.881 1.659 1.166.668.285 1.478.428 2.43.428 1.594 0 2.841-.441 3.742-1.322.925-.907 1.388-2.32 1.388-4.238-.077-1.711-.514-3.059-1.311-4.045-.798-1.011-2.07-1.516-3.82-1.516zm19.001 15.282h-4.63v-27.22h4.63v27.22zm9.267-18.782h5.323v4.355h-5.323v14.427h-4.63v-19.404c0-1.374.22-2.67.657-3.888.437-1.219 1.08-2.269 1.928-3.15.849-.907 1.89-1.62 3.125-2.139 1.234-.518 2.648-.777 4.243-.777.283 0 .566.025.849.077.282.026.565.065.848.117v4.511a8.482 8.482 0 00-.733-.117 3.335 3.335 0 00-.733-.078c-1.054 0-1.941.143-2.661.428-.695.285-1.26.674-1.698 1.167a3.935 3.935 0 00-.925 1.71 7.822 7.822 0 00-.27 2.1v.661zm7.776 9.022c0-1.348.218-2.619.655-3.811.438-1.219 1.08-2.268 1.93-3.15.848-.907 1.89-1.62 3.124-2.138 1.234-.519 2.636-.778 4.204-.778 1.466 0 2.79.233 3.973.7 1.183.466 2.186 1.127 3.01 1.983.848.855 1.503 1.905 1.966 3.15.489 1.218.759 2.579.81 4.083.026.492.039 1.101.039 1.827 0 .7.038 1.478.116 2.333.077.856.218 1.763.424 2.722.206.933.527 1.88.964 2.839h-4.628a13.548 13.548 0 01-.965-2.994 7.35 7.35 0 01-2.546 2.333c-1.028.57-2.263.855-3.703.855-1.363 0-2.623-.259-3.78-.777a9.117 9.117 0 01-2.97-2.1 10.068 10.068 0 01-1.929-3.15c-.463-1.218-.694-2.528-.694-3.927zm9.913-5.522c-.951 0-1.761.143-2.43.428a4.377 4.377 0 00-1.659 1.205 4.952 4.952 0 00-.925 1.75c-.18.674-.27 1.4-.27 2.178 0 .777.09 1.503.27 2.177.205.674.514 1.27.925 1.789.438.492.99.881 1.659 1.166.669.285 1.479.428 2.43.428 1.595 0 2.842-.441 3.742-1.322.926-.907 1.388-2.32 1.388-4.238-.077-1.711-.514-3.059-1.311-4.045-.797-1.011-2.07-1.516-3.819-1.516zm-51.974 24.299h2.72v3.658a8.206 8.206 0 01-1.185.294 8.302 8.302 0 01-1.376.104c-.74 0-1.368-.146-1.883-.438a2.86 2.86 0 01-1.166-1.281c-.266-.561-.399-1.237-.399-2.028 0-.761.148-1.42.444-1.978a3.084 3.084 0 011.29-1.301c.565-.309 1.25-.463 2.053-.463.396 0 .778.039 1.146.119.373.077.713.183 1.022.319l-.419.987a4.605 4.605 0 00-.827-.294 3.744 3.744 0 00-.951-.12c-.522 0-.972.113-1.351.339a2.245 2.245 0 00-.867.957c-.203.408-.304.892-.304 1.45 0 .541.081 1.016.244 1.425.163.409.417.728.763.957.348.226.799.339 1.35.339.276 0 .51-.015.703-.045.192-.03.37-.063.533-.1v-1.879h-1.54v-1.021zm6.404 3.957v-7.286h1.196v6.269h3.095v1.017h-4.29zm12.005 0l-.712-2.024h-2.786l-.713 2.024h-1.26l2.71-7.316h1.326l2.706 7.316h-1.27zm-1.021-3.05l-.693-1.993a87.197 87.197 0 01-.389-1.266 10.97 10.97 0 01-.124.458 86.751 86.751 0 00-.24.808l-.697 1.993h2.143zm8.337 3.05l-2.098-6.085h-.045a34.7 34.7 0 01.07 1.316c.01.269.015.526.015.772v3.997H54.01v-7.286h1.68l2.017 5.816h.03l2.088-5.816H61.5v7.286h-1.142v-4.057a28.05 28.05 0 01.04-1.46c.014-.232.023-.418.03-.558h-.04l-2.177 6.075h-1.057zm10.321-7.286c.94 0 1.626.193 2.058.578.432.386.648.925.648 1.62 0 .315-.05.616-.15.902a1.912 1.912 0 01-.478.752c-.223.216-.517.387-.882.513-.362.127-.809.19-1.34.19h-.778v2.731h-1.196v-7.286h2.118zm-.08.992h-.842v2.566h.653c.375 0 .694-.043.957-.129.262-.09.461-.231.598-.424.136-.193.204-.447.204-.762 0-.422-.128-.736-.384-.942-.252-.206-.648-.309-1.186-.309zm6.18 6.294v-7.286h1.196v7.286h-1.196zm11.138 0h-1.47l-3.568-5.816h-.045c.013.196.025.404.035.623.013.219.023.445.03.678.01.232.018.468.025.707v3.808h-1.087v-7.286h1.46l3.564 5.776h.034a357.985 357.985 0 01-.055-1.261 53.106 53.106 0 01-.014-.683v-3.832h1.091v7.286zm6.793-3.957h2.72v3.658a8.202 8.202 0 01-1.185.294 8.302 8.302 0 01-1.376.104c-.74 0-1.369-.146-1.883-.438a2.86 2.86 0 01-1.167-1.281c-.265-.561-.398-1.237-.398-2.028 0-.761.148-1.42.443-1.978a3.085 3.085 0 011.29-1.301c.566-.309 1.25-.463 2.054-.463.395 0 .777.039 1.146.119.372.077.713.183 1.022.319l-.419.987a4.605 4.605 0 00-.827-.294 3.743 3.743 0 00-.952-.12c-.522 0-.972.113-1.35.339a2.245 2.245 0 00-.867.957c-.203.408-.304.892-.304 1.45 0 .541.081 1.016.244 1.425.163.409.417.728.762.957.349.226.8.339 1.35.339.276 0 .51-.015.703-.045.193-.03.37-.063.534-.1v-1.879h-1.54v-1.021z" fill="#fff"/></symbol></defs></svg>