<svg aria-hidden="true" xmlns="http://www.w3.org/2000/svg" overflow="hidden">version=&quot;1.1&quot; xmlns=&quot;http://www.w3.org/2000/svg&quot; xmlns:xlink=&quot;http://www.w3.org/1999/xlink&quot;&gt;<defs><symbol id="burger-close"><svg width="16" height="16" fill="none" xmlns="http://www.w3.org/2000/svg"><path d="M15.53 1.53A.75.75 0 0014.47.47L8 6.94 1.53.47A.75.75 0 00.47 1.53L6.94 8 .47 14.47a.75.75 0 101.06 1.06L8 9.06l6.47 6.47a.75.75 0 101.06-1.06L9.06 8l6.47-6.47z" fill="#B59C93"/></svg></symbol><symbol id="header__burger"><svg width="15" height="18" fill="none" xmlns="http://www.w3.org/2000/svg"><path d="M15 9.372v2.459H.54V9.372H15zM6.352 4.019H15v2.459H6.022a6.07 6.07 0 01-2.066-.349 4.636 4.636 0 01-1.673-1.024 4.764 4.764 0 01-1.136-1.66C.87 2.789.734 2.038.734 1.19c0-.15.013-.3.04-.45C.79.59.81.44.838.288h2.396a4.522 4.522 0 00-.062.39 1.777 1.777 0 00-.041.389c0 .56.075 1.031.227 1.414.151.369.358.67.62.901.247.233.55.397.908.492.345.096.717.144 1.116.144h.351zm8.648 11v2.459H.54v-2.46H15z" fill="#B59C93"/></svg></symbol><symbol id="logo--burger"><svg width="54" height="54" fill="none" xmlns="http://www.w3.org/2000/svg"><circle cx="27" cy="27" r="27" fill="#B59C93"/><circle cx="27" cy="27" r="25.347" stroke="#fff" stroke-width="1.102"/><path fill-rule="evenodd" clip-rule="evenodd" d="M24.235 23.743l.075-.054a3.51 3.51 0 01.431-.268c.145-.076.296-.14.45-.19.68-.22 1.357-.145 1.971.293.145-.123.319-.232.505-.324 1.317-.37 1.875.292 2.095.474-.653-.103-1.622-.013-2.143.413-.052.042.082.158.037.212-.074.092-.073.25-.15.367-.2-.185-.29-.32-.577-.36-.208-.03-.468-.047-.531-.087-.22-.133-.212-.402-.528-.416-.632-.029-1.008.31-1.635-.06zm-2.225 1.918l.053-.038c.103-.073.204-.136.303-.188a1.98 1.98 0 01.316-.133c.478-.154.952-.101 1.383.206.102-.086.224-.163.355-.227.924-.26 1.315.204 1.47.332-.459-.073-1.139-.01-1.504.29-.037.029.058.11.026.148-.052.064-.052.174-.105.257-.141-.13-.205-.224-.406-.253-.146-.02-.328-.033-.373-.06-.153-.093-.148-.282-.37-.292-.444-.02-.708.217-1.148-.042zm23.528 11.352a5.47 5.47 0 00-1.204-.14c-1.819 0-3.433.963-5.047 1.924-2.428 1.207-3.644 1.459-5.6.765-.547-.192-1.153-.462-1.858-.805-4.137-2.433-5.754-2.405-9.898.018-1.057.478-1.867.818-2.56 1.019-1.771.516-2.774.136-5.173-1.104-1.616-.922-3.177-1.814-4.713-1.816h-.004c-.4 0-.792.059-1.181.16-.721.19-1.106-.463-1.311-1.182-.18-.635-.269-1.31.346-1.656.834-.47 1.588-.828 2.146-.828h.004c.812.001 2.071.72 3.372 1.463 1.723.983 3.513 2.005 5.335 2.005h.005c1.002 0 1.968-.309 2.913-.75 5.697-2.652 5.741-2.761 11.46-.045.98.465 1.987.795 3.051.795 1.817 0 3.433-.963 5.046-1.925 1.293-.77 2.59-1.543 3.667-1.543.736 0 1.572.37 2.442.85.56.309.32 1.011-.017 1.697-.298.607-.628 1.232-1.221 1.098zm-1.167 3.119a20.76 20.76 0 01-2.063 2.29c-1.304 1.247-2.736 2.162-4.347 3.023-.832.447-1.634.779-2.34.779-1.102 0-2.457-.797-3.792-1.584-1.608-.946-3.198-1.882-4.918-1.882h-.005c-1.723 0-3.344.946-4.975 1.9-1.332.779-2.677 1.564-3.734 1.566h-.005c-.72 0-1.605-.363-2.528-.84a17.404 17.404 0 01-4.452-3.25 20.697 20.697 0 01-1.81-2.056c-.362-.473-.85-.825.08-.825h.003c.05 0 .104.004.158.008.81.083 1.995.758 3.214 1.453 3.793 2.008 5.61 2.43 8.896.827 4.942-2.415 5.417-2.315 10.22-.043 3.068 1.451 5.202 1.122 8.694-.704 1.293-.77 2.589-1.541 3.667-1.541.985 0 .44.354.037.879zm-12.857 7.892c-1.49.28-3.026.466-4.608.466-1.466 0-2.898-.146-4.282-.403-.946-.174-.693-.627.668-1.422 1.311-.767 2.616-1.53 3.614-1.53h.005c.98.002 2.256.752 3.547 1.512 1.04.611 1.792 1.239 1.056 1.377z" fill="#fff"/><path d="M37.451 35.482c2.173-.48 6-2.29 7.112-2.089 1.113.2-.051.864-.051.864l-4.526 3.026-7.242-.216-5.095-1.8-7.37 2.617-8.536-1.513-3.724-2.378c.19-.16.595-.509 1.32-.624 1.37-.218 2.586 1.32 5.327 1.44 2.741.121 4.526-1.056 12.44-.816 3.094.094 7.63 2.09 10.345 1.49z" fill="#fff"/><path fill-rule="evenodd" clip-rule="evenodd" d="M28.5 20.98c.357.036.362.052.707.115.6.107.732.15.913-.403l4.333-13.129c.348-1.055-.18-1.022-1.08-1.283a22.834 22.834 0 00-3.782-.755c-.857-.096-.873.278-.918 1.068l-.754 13.902c-.018.34.052.432.58.485zm3.724.992c.302.13.595.27.883.418.543.283.58.078.963-.394l7.83-9.627c.568-.701.509-.907-.181-1.524-.995-.889-1.728-1.407-2.855-2.079-.822-.49-1.011-.477-1.382.334l-5.417 11.792c-.283.614-.483.805.16 1.08zm3.142 1.923c.328.275.52.474.816.78.345.355.402.414.842.148l9.342-5.613c.656-.396.883-.561.59-1.242a19.587 19.587 0 00-1.848-3.341c-.514-.748-.75-.235-1.367.378l-8.171 8.092c-.353.35-.586.479-.204.798zm2.622 3.066c.207.348.33.584.498.952.201.445.234.496.746.385l8.495-1.826c.91-.194.752-.265.752-1.139 0-.96-.075-1.903-.218-2.827-.141-.918-.663-.685-1.562-.261l-8.265 3.882c-.583.277-.757.31-.446.834zM25.5 20.981c-.356.035-.361.051-.708.114-.6.107-.73.15-.912-.403L19.546 7.563c-.346-1.055.179-1.022 1.08-1.283a22.844 22.844 0 013.783-.755c.857-.096.872.278.918 1.068l.753 13.902c.019.34-.052.432-.58.485zm-3.724.991c-.302.13-.596.27-.883.418-.543.283-.58.078-.963-.394L12.1 12.37c-.568-.701-.509-.907.181-1.524.994-.889 1.728-1.407 2.855-2.079.822-.49 1.011-.477 1.382.334l5.417 11.792c.283.614.483.805-.16 1.08zm-3.142 1.923c-.33.275-.52.474-.817.78-.346.355-.402.414-.841.148L7.633 19.21c-.656-.396-.882-.561-.589-1.242a19.624 19.624 0 011.847-3.341c.514-.748.751-.235 1.368.378l8.172 8.092c.351.35.584.479.203.798zM16.01 26.96a8.807 8.807 0 00-.497.952c-.202.445-.234.496-.747.385l-8.494-1.826c-.91-.194-.753-.265-.753-1.139 0-.96.076-1.903.218-2.827.141-.918.664-.685 1.563-.261l8.264 3.882c.584.277.757.31.446.834zm17.691-2.765s.235.996.493 1.23c0 0-.27-.128-.165.106.106.233.259.986.728 1.325 0 0-.434-.16-.352-.021.082.137-.423-.34-.317-.128.105.213.358.744.687 1.01 0 0-.352-.043-.141.212.211.254.593.877.828 1.046.234.17-.406-.144-.312.1.094.244-.462-.377-.391-.207.07.17-.225.017-.12.197.106.18-.445-.28-.433-.11.011.17.645.655.927 1.005 0 0-.517-.064-.106.264.411.33.481.852 1.104 1.17 0 0-.411-.223-.306.085.106.307-.398-.064-.375.074.023.138-.235-.233-.247-.032-.012.202-.434-.445-.434-.223 0 .223-.2-.127-.2.054 0 .18.482.806 1.033 1.21.552.402-.786-.317-.023.305.763.621.94.805 1.35 1.06.411.254-.81-.174-.727.101.082.275-.552-.112-.482.052.07.163-.399-.306-.41-.052-.012.255-.47-.264-.435-.091.035.173-.246-.102-.258.07-.012.174-.352-.101-.317-.02.035.082-.012 1.091.305 1.641h-1.807c.317-.55.27-1.559.305-1.64.035-.082-.305.193-.317.02-.012-.173-.293.102-.258-.072.035-.172-.423.347-.434.092-.012-.254-.482.215-.411.052.07-.164-.564.224-.482-.052.083-.275-1.138.153-.727-.102.41-.254.587-.438 1.35-1.06.763-.62-.575.098-.024-.305.552-.403 1.033-1.03 1.033-1.21 0-.18-.199.17-.199-.053 0-.222-.423.425-.434.223-.012-.201-.27.17-.247.032.023-.138-.481.233-.375-.074.105-.308-.306-.085-.306-.085.622-.318.693-.84 1.104-1.17.41-.328-.106-.265-.106-.265.282-.35.916-.834.927-1.004.012-.17-.54.29-.434.11.106-.18-.19-.028-.119-.197.07-.17-.485.45-.391.207.093-.244-.546.07-.311-.1.234-.17.616-.792.827-1.047.211-.254-.14-.212-.14-.212.328-.265.58-.797.686-1.009.105-.212-.4.265-.317.128.082-.138-.352.02-.352.02.47-.338.622-1.091.728-1.324.105-.234-.165-.106-.165-.106.257-.234.492-1.23.492-1.23zm4.574 6.965s.09.38.188.469c0 0-.103-.049-.063.04.04.09.099.377.278.506 0 0-.165-.06-.134-.008s-.161-.13-.121-.049c.04.081.136.284.262.386 0 0-.135-.016-.054.08.08.097.226.335.316.4s-.155-.055-.119.038c.036.093-.176-.144-.15-.08.027.066-.085.007-.045.076.04.069-.17-.107-.166-.042.005.065.247.25.355.383 0 0-.198-.024-.041.102.157.125.184.325.421.446 0 0-.157-.085-.116.032.04.117-.153-.024-.143.029.008.052-.09-.09-.094-.013-.005.077-.166-.17-.166-.085s-.076-.048-.076.02c0 .07.183.308.394.462.21.154-.3-.12-.01.117.292.237.36.307.516.404.157.098-.309-.066-.278.039.032.105-.21-.043-.183.02.026.062-.153-.117-.157-.02-.005.097-.18-.101-.166-.035.014.066-.094-.039-.098.027-.005.066-.135-.039-.121-.008.013.031-.005.416.116.626h-.689c.12-.21.103-.595.116-.626.014-.03-.116.074-.12.008-.005-.066-.112.039-.1-.027.014-.066-.16.132-.165.035-.004-.097-.183.082-.157.02.027-.063-.215.085-.183-.02.031-.105-.434.058-.278-.039.157-.097.224-.167.515-.404.291-.238-.22.037-.009-.117.21-.154.394-.393.394-.461 0-.07-.076.064-.076-.02 0-.086-.16.161-.165.084-.005-.077-.103.065-.094.013.009-.053-.184.088-.144-.029.04-.117-.116-.032-.116-.032.237-.121.264-.321.421-.446.157-.126-.04-.102-.04-.102.107-.133.35-.318.354-.383.004-.065-.206.11-.166.042.04-.069-.072-.01-.045-.075.026-.065-.185.172-.15.079.036-.093-.208.027-.118-.038s.235-.303.316-.4c.08-.096-.054-.08-.054-.08.125-.102.221-.304.262-.386.04-.08-.152.101-.121.05.031-.053-.135.007-.135.007.18-.13.238-.416.278-.506.04-.089-.063-.04-.063-.04.097-.089.187-.47.187-.47zm-22.755.191s.071.306.15.378c0 0-.083-.04-.05.032.032.072.078.302.221.407 0 0-.132-.05-.107-.007.025.042-.129-.104-.096-.04.032.066.109.23.209.31 0 0-.107-.013-.043.065s.18.27.252.321c.071.052-.124-.044-.095.03.029.076-.14-.115-.12-.063.022.052-.068.005-.036.06.033.056-.135-.085-.132-.033.004.052.197.2.283.308 0 0-.157-.02-.032.081.125.1.146.261.336.359 0 0-.126-.069-.093.026.032.094-.122-.02-.115.022.008.043-.071-.071-.075-.009-.003.062-.132-.137-.132-.069 0 .069-.06-.039-.06.017 0 .055.146.247.314.371s-.24-.097-.007.093c.232.191.286.248.41.326.126.078-.246-.054-.221.031.025.084-.168-.034-.147.016.022.05-.121-.094-.125-.016-.003.078-.143-.081-.132-.028.01.053-.075-.031-.079.022-.003.053-.107-.031-.096-.007.01.026-.004.335.093.504h-.55c.096-.169.082-.478.093-.504.01-.024-.093.06-.097.007-.003-.053-.09.03-.079-.022.011-.053-.128.106-.132.028-.003-.078-.146.066-.125.016.022-.05-.172.068-.146-.016.024-.084-.347.047-.222-.031.125-.078.179-.134.411-.326.232-.19-.175.03-.007-.093.168-.124.314-.316.314-.371 0-.055-.06.052-.06-.017 0-.068-.13.13-.133.069-.003-.062-.082.052-.075.01.007-.043-.146.071-.114-.023.032-.095-.093-.026-.093-.026.19-.098.21-.258.336-.359.125-.1-.032-.081-.032-.081.085-.107.278-.256.282-.308.003-.052-.164.089-.132.033.032-.055-.058-.008-.037-.06.022-.052-.147.139-.119.064.029-.075-.166.021-.094-.03.07-.053.187-.244.251-.322.065-.078-.043-.065-.043-.065.1-.08.177-.244.21-.31.032-.064-.122.082-.097.04.025-.042-.107.007-.107.007.143-.105.19-.335.222-.407.032-.071-.05-.032-.05-.032.078-.072.15-.378.15-.378z" fill="#fff"/><path d="M17.562 30.713c.03-.196.052-.392.091-.586.105-.524.296-1.017.632-1.457.305-.4.709-.674 1.192-.858.65-.247 1.333-.368 2.028-.443a19.08 19.08 0 012.484-.095c.916.019 1.83.07 2.721.288.434.105.85.249 1.204.518.266.202.443.459.55.76.206.571.338 1.16.446 1.752.067.363.123.728.172 1.094.033.257.01.514-.07.764-.154.474-.508.741-1.025.827a3.12 3.12 0 01-.493.037c-.934.004-1.869 0-2.803.004-.118 0-.154-.038-.169-.14-.072-.504-.523-.894-1.094-.953-.507-.052-1.044.26-1.225.714a.96.96 0 00-.07.24c-.011.103-.053.14-.17.139-.791-.005-1.583-.003-2.375-.003-.222 0-.444-.011-.664.003-.456.03-.743-.19-.95-.532-.244-.405-.341-.85-.389-1.306-.004-.04-.015-.08-.023-.121v-.646zm7.698-.25v1.752c0 .151.044.192.207.192h1.408c.157 0 .206-.046.206-.195v-3.496c0-.153-.05-.197-.217-.197h-1.373c-.194 0-.231.034-.231.212v1.732zm-4.426-1.947H19.81c-.151 0-.185.032-.185.173a76.8 76.8 0 000 .96c0 .145.033.176.194.176h2.025c.156 0 .192-.035.193-.179v-.949c0-.149-.036-.18-.201-.18h-1.002zm3.76.662c0-.17.002-.34 0-.51-.001-.114-.04-.148-.164-.149h-1.09c-.125 0-.168.04-.168.158-.002.333-.002.667 0 1 0 .12.042.16.166.16h1.091c.127 0 .164-.037.165-.158.002-.167.001-.334 0-.5z" fill="#fff"/><path d="M23.304 32.6c.453 0 .822.341.828.765.005.418-.381.777-.833.773-.45-.005-.826-.356-.822-.772.003-.423.373-.765.827-.765z" fill="#fff"/></svg></symbol><symbol id="logo-small"><svg width="76" height="34" fill="none" xmlns="http://www.w3.org/2000/svg"><path d="M0 15.547C0 7.07 6.872.197 15.35.197c8.477 0 15.349 6.873 15.349 15.35v2.627c0 8.477-6.872 15.35-15.35 15.35C6.872 33.523 0 26.65 0 18.173v-2.627z" fill="#B59C93"/><path d="M1.153 15.132C1.153 7.292 7.51.936 15.35.936c7.84 0 14.196 6.356 14.196 14.196v3.455c0 7.84-6.356 14.197-14.196 14.197S1.153 26.428 1.153 18.587v-3.455z" stroke="#fff" stroke-width=".601"/><path fill-rule="evenodd" clip-rule="evenodd" d="M13.838 14.316l.039-.03c.074-.057.148-.107.22-.147.074-.042.151-.078.23-.105.348-.12.694-.08 1.008.162a1.27 1.27 0 01.259-.179c.673-.204.959.16 1.071.261-.334-.057-.83-.007-1.096.228-.026.023.042.087.02.117-.039.05-.038.137-.077.202-.103-.102-.15-.176-.296-.199-.106-.016-.24-.026-.272-.047-.112-.074-.108-.222-.27-.23-.323-.015-.515.17-.836-.033zM12.7 15.373l.028-.021c.052-.04.104-.075.155-.104a.973.973 0 01.16-.073.72.72 0 01.708.113.898.898 0 01.182-.125c.473-.143.673.112.752.183-.235-.04-.583-.005-.77.16-.018.015.03.06.014.081-.027.036-.026.096-.054.142-.072-.072-.104-.124-.207-.14-.075-.01-.168-.018-.191-.033-.079-.05-.076-.155-.19-.16-.226-.011-.361.12-.586-.024zm12.034 6.252a2.61 2.61 0 00-.616-.077c-.93 0-1.756.53-2.582 1.06-1.24.664-1.863.803-2.863.42a8.953 8.953 0 01-.95-.443c-2.117-1.34-2.944-1.324-5.063.01-.54.263-.955.45-1.31.561-.905.285-1.418.076-2.645-.608-.827-.508-1.625-.999-2.41-1h-.003c-.204 0-.405.032-.604.089-.369.104-.566-.256-.67-.652-.093-.35-.138-.721.177-.912.426-.258.812-.456 1.097-.456h.002c.415 0 1.06.397 1.725.806.881.542 1.797 1.104 2.729 1.104h.002c.512 0 1.006-.17 1.49-.413 2.914-1.46 2.936-1.52 5.86-.024.502.256 1.018.437 1.562.437.93 0 1.756-.53 2.58-1.06.662-.425 1.325-.85 1.876-.85.376 0 .804.203 1.249.468.286.17.164.557-.009.935-.152.334-.32.679-.624.605zm-.597 1.717c-.32.446-.674.868-1.055 1.261-.667.688-1.4 1.192-2.224 1.666-.425.246-.835.429-1.196.429-.564 0-1.257-.44-1.94-.872-.822-.521-1.635-1.037-2.515-1.037h-.003c-.88 0-1.71.521-2.544 1.046-.682.43-1.37.862-1.91.863h-.002c-.37 0-.821-.2-1.293-.463a8.967 8.967 0 01-2.277-1.79 11.199 11.199 0 01-.926-1.132c-.185-.26-.435-.455.04-.455h.002c.026 0 .053.003.08.005.416.046 1.021.417 1.645.8 1.94 1.106 2.87 1.339 4.55.456 2.527-1.33 2.77-1.275 5.227-.024 1.57.8 2.66.618 4.447-.388.66-.424 1.324-.849 1.875-.849.504 0 .225.196.019.484zM17.56 27.69c-.762.155-1.547.257-2.357.257-.75 0-1.482-.08-2.19-.222-.484-.096-.354-.346.342-.783.67-.422 1.338-.842 1.848-.842h.003c.501 0 1.154.414 1.814.832.532.337.916.682.54.758z" fill="#fff"/><path d="M20.597 20.782c1.111-.265 3.069-1.261 3.638-1.15.568.11-.027.475-.027.475l-2.315 1.667-3.703-.119-2.606-.992-3.77 1.442-4.365-.834-1.905-1.31c.097-.087.304-.28.675-.343.7-.12 1.322.728 2.724.794 1.403.066 2.315-.582 6.363-.45 1.583.052 3.902 1.15 5.291.82z" fill="#fff"/><path fill-rule="evenodd" clip-rule="evenodd" d="M16.02 12.794c.182.02.185.029.361.063.308.06.375.083.468-.221l2.215-7.232c.178-.58-.091-.563-.552-.706a10.946 10.946 0 00-1.934-.416c-.439-.053-.447.153-.47.588l-.385 7.657c-.01.188.026.238.297.267zm1.904.547a6.9 6.9 0 01.452.23c.278.155.296.043.493-.217l4.005-5.303c.29-.386.26-.5-.093-.839a8.474 8.474 0 00-1.46-1.145c-.421-.27-.518-.263-.708.184l-2.77 6.494c-.145.339-.247.444.081.596zm1.607 1.058c.168.152.266.261.418.43.176.196.205.228.43.082l4.778-3.092c.336-.218.452-.309.302-.684a11.057 11.057 0 00-.945-1.84c-.263-.412-.384-.13-.7.208l-4.178 4.457c-.18.193-.3.264-.105.44zm1.341 1.69c.106.191.169.321.255.524.103.245.12.273.382.212l4.345-1.006c.464-.107.384-.146.384-.627 0-.529-.038-1.048-.111-1.558-.073-.505-.34-.377-.8-.143l-4.226 2.138c-.299.153-.388.17-.229.46zm-6.386-3.295c-.183.02-.185.029-.363.063-.307.06-.373.083-.466-.221L11.44 5.404c-.177-.58.092-.563.553-.706a10.95 10.95 0 011.934-.416c.439-.053.447.153.47.588l.385 7.657c.01.188-.027.238-.296.267zm-1.905.547a6.796 6.796 0 00-.452.23c-.278.155-.296.043-.493-.217L7.632 8.05c-.29-.386-.26-.5.093-.839a8.47 8.47 0 011.46-1.145c.42-.27.517-.263.706.184l2.771 6.494c.145.339.247.444-.081.596zm-1.607 1.058a4.847 4.847 0 00-.418.43c-.177.196-.205.228-.43.082l-4.779-3.092c-.335-.218-.451-.309-.3-.684.256-.644.575-1.26.943-1.84.264-.412.385-.13.7.208l4.18 4.457c.18.193.299.264.104.44zm-1.342 1.69a5 5 0 00-.254.524c-.103.245-.12.273-.382.212l-4.344-1.006c-.465-.107-.385-.146-.385-.627 0-.529.038-1.048.111-1.558.072-.505.34-.377.8-.143l4.226 2.138c.299.153.387.17.228.46zm9.048-1.524s.12.55.253.678c0 0-.139-.07-.084.058.054.128.132.543.372.73 0 0-.222-.088-.18-.012.042.076-.216-.187-.162-.07.053.117.183.41.35.556 0 0-.18-.023-.071.117.108.14.303.483.423.576.12.094-.207-.08-.16.055.049.134-.235-.207-.2-.114.037.093-.114.01-.06.109.054.099-.228-.154-.222-.06.006.093.33.36.474.552 0 0-.264-.035-.054.146.21.181.246.47.564.644 0 0-.21-.122-.156.047.054.17-.204-.035-.192.04.012.077-.12-.128-.126-.017-.006.111-.222-.245-.222-.122 0 .122-.102-.07-.102.03 0 .098.246.443.528.665.282.222-.402-.174-.012.169.39.342.48.443.69.583.21.14-.414-.095-.371.056.041.152-.283-.061-.247.028.036.09-.204-.168-.21-.028-.006.14-.24-.145-.222-.05.018.095-.126-.056-.132.04-.006.095-.18-.057-.162-.012.018.045-.006.6.156.904h-.924c.162-.303.138-.86.156-.904.018-.045-.156.107-.162.011-.006-.095-.15.056-.132-.04.018-.095-.216.192-.223.051-.005-.14-.246.118-.21.028.037-.09-.288.124-.246-.028.042-.151-.582.084-.372-.056.21-.14.3-.241.69-.584.39-.342-.294.054-.011-.168.282-.222.528-.567.528-.666 0-.1-.102.093-.102-.03 0-.122-.216.234-.222.123-.006-.11-.138.094-.126.018.012-.076-.246.128-.192-.041.054-.17-.157-.047-.157-.047.319-.175.355-.463.565-.644.21-.18-.054-.146-.054-.146.144-.192.468-.46.474-.553.006-.093-.276.16-.222.06.054-.099-.097-.015-.06-.108.035-.093-.25.248-.201.114.048-.134-.28.039-.16-.055.12-.093.316-.436.424-.576.108-.14-.072-.117-.072-.117.168-.146.297-.44.351-.556.054-.117-.204.146-.162.07.042-.076-.18.012-.18.012.24-.187.318-.602.372-.73.054-.129-.084-.058-.084-.058.132-.129.252-.678.252-.678zm2.34 3.836s.046.21.097.259c0 0-.053-.027-.032.022.02.05.05.207.142.279 0 0-.085-.034-.07-.005.017.029-.081-.071-.06-.027.02.045.069.157.133.212 0 0-.069-.008-.027.045.04.053.115.184.161.22.046.036-.079-.03-.06.021.018.051-.09-.08-.077-.044.014.036-.044.004-.023.042.02.038-.087-.059-.085-.023.002.035.126.137.181.21 0 0-.1-.013-.02.057.08.069.093.178.215.245 0 0-.08-.047-.06.018.02.065-.078-.013-.073.016.005.029-.046-.05-.048-.007-.002.042-.085-.093-.085-.047 0 .047-.039-.027-.039.011s.094.17.202.255c.108.084-.154-.067-.005.064.15.13.183.169.264.223.08.053-.158-.037-.142.02.016.059-.108-.022-.094.012.013.034-.078-.064-.08-.011-.003.053-.092-.056-.085-.02.007.037-.048-.02-.05.016-.003.036-.07-.022-.063-.005.007.017-.002.23.06.345h-.353c.062-.116.053-.328.06-.345.007-.017-.06.041-.062.005-.002-.037-.057.021-.05-.015.007-.037-.083.072-.085.019-.002-.053-.094.045-.08.01.014-.034-.11.048-.094-.01s-.222.032-.142-.021c.08-.054.115-.092.263-.223.15-.13-.112.02-.004-.064.108-.085.201-.217.201-.255 0-.038-.038.036-.038-.01 0-.048-.083.088-.085.046-.002-.042-.053.036-.048.007.004-.03-.094.049-.074-.016.021-.065-.06-.018-.06-.018.122-.067.136-.176.216-.245.08-.07-.02-.056-.02-.056.055-.074.178-.176.18-.211.003-.036-.105.06-.084.023.02-.038-.037-.006-.023-.042.013-.035-.095.095-.077.044.019-.051-.106.015-.06-.021.046-.036.12-.167.161-.22.041-.053-.027-.045-.027-.045.064-.055.113-.167.134-.212.02-.044-.078.056-.062.027s-.069.005-.069.005c.092-.072.122-.23.142-.28.02-.048-.032-.021-.032-.021.05-.05.095-.259.095-.259zm-11.638.106s.036.168.076.208c0 0-.042-.022-.025.018.016.04.04.166.113.224 0 0-.067-.027-.055-.004.013.023-.066-.057-.049-.022.016.036.056.126.107.17 0 0-.055-.006-.022.037s.092.148.129.176c.036.03-.063-.024-.049.017.015.041-.072-.063-.06-.035.01.029-.036.003-.02.033.017.03-.069-.047-.067-.018.002.029.1.11.145.17 0 0-.08-.011-.017.044.064.056.075.144.172.198 0 0-.064-.038-.047.014.016.052-.063-.01-.059.013.004.023-.036-.04-.038-.006-.002.034-.068-.075-.068-.037 0 .037-.031-.022-.031.009 0 .03.075.136.16.204.087.068-.122-.053-.003.052s.146.136.21.179c.064.043-.126-.03-.113.017.013.047-.086-.019-.075.009.01.027-.062-.052-.064-.009-.002.043-.073-.045-.068-.015.006.029-.038-.018-.04.012-.002.029-.055-.018-.049-.004.005.014-.002.184.047.277h-.281c.05-.093.042-.263.047-.277.006-.014-.047.033-.049.004-.002-.03-.046.017-.04-.012.005-.03-.066.058-.068.015-.001-.043-.075.036-.064.009.011-.028-.087.038-.075-.009.013-.046-.177.026-.113-.017.064-.043.091-.074.21-.18.119-.104-.09.017-.003-.05.085-.07.16-.175.16-.205s-.03.028-.03-.01c0-.037-.066.072-.068.038-.002-.034-.042.03-.039.006.004-.024-.075.04-.058-.013.016-.052-.048-.014-.048-.014.097-.054.108-.142.172-.198.064-.055-.016-.045-.016-.045.043-.058.142-.14.144-.17.002-.028-.084.05-.068.02.017-.03-.03-.005-.018-.034.01-.029-.076.076-.061.035.015-.04-.085.012-.049-.017.037-.028.096-.133.13-.176.032-.043-.023-.036-.023-.036.051-.045.09-.135.107-.17.017-.037-.062.044-.049.021.013-.023-.055.004-.055.004.073-.058.097-.185.114-.224.016-.04-.026-.018-.026-.018.04-.04.077-.208.077-.208z" fill="#fff"/><path d="M10.426 18.155c.016-.107.027-.216.047-.322a1.99 1.99 0 01.323-.803 1.35 1.35 0 01.61-.472 3.908 3.908 0 011.037-.245c.422-.05.846-.061 1.27-.052.469.01.936.039 1.392.159.222.058.435.137.616.285a.89.89 0 01.282.418c.105.315.172.64.228.966.034.2.063.4.087.602a1.01 1.01 0 01-.036.42c-.078.262-.26.41-.524.456-.082.015-.168.02-.252.021-.478.002-.956 0-1.434.002-.06 0-.078-.02-.086-.077a.622.622 0 00-.56-.525.622.622 0 00-.662.526c-.005.056-.027.076-.086.076-.405-.003-.81-.001-1.215-.001-.114 0-.227-.007-.34.001-.233.016-.38-.104-.486-.293-.125-.223-.174-.468-.199-.72-.002-.022-.008-.044-.011-.066v-.356zm3.938-.138v.966c0 .083.022.105.106.105h.72c.08 0 .105-.025.105-.107v-1.925c0-.085-.025-.109-.11-.109h-.703c-.1 0-.118.019-.118.117v.953zM12.1 16.945h-.524c-.077 0-.095.018-.095.095v.529c0 .08.017.097.1.097h1.035c.08 0 .099-.019.099-.098v-.523c0-.082-.018-.1-.103-.1H12.1zm1.923.365v-.281c0-.063-.02-.082-.084-.082h-.558c-.064 0-.085.022-.085.087v.551c0 .066.021.088.085.088h.558c.065 0 .084-.02.084-.087v-.276z" fill="#fff"/><path d="M13.363 19.195c.231 0 .42.188.423.42a.428.428 0 01-.426.426.428.428 0 01-.42-.425.425.425 0 01.423-.421z" fill="#fff"/><path d="M42.858 26.292l.662 2.18h2.14l-1.732 1.348.662 2.18-1.732-1.347L41.127 32l.661-2.181-1.731-1.348h2.14l.661-2.18zm14.875 0l.661 2.18h2.14l-1.731 1.348.661 2.18-1.731-1.347L56.002 32l.66-2.181-1.73-1.348h2.14l.66-2.18zm-7.439 0l.662 2.18h2.14l-1.732 1.348.662 2.18-1.732-1.347L48.563 32l.661-2.181-1.731-1.348h2.14l.661-2.18zm14.875 0l.661 2.18h2.14l-1.731 1.348L66.9 32l-1.731-1.347L63.437 32l.662-2.181-1.732-1.348h2.14l.662-2.18zm7.439 0l.66 2.18h2.14l-1.73 1.348.66 2.18-1.73-1.347L70.876 32l.661-2.181-1.73-1.348h2.14l.66-2.18zM39.663 11.635c0-.716.116-1.391.348-2.024a4.637 4.637 0 011.024-1.674 4.764 4.764 0 011.66-1.136c.656-.275 1.4-.413 2.234-.413.779 0 1.482.124 2.11.372a4.45 4.45 0 011.599 1.053c.45.455.799 1.013 1.045 1.674.26.647.403 1.37.43 2.168.014.262.02.586.02.971 0 .372.021.785.062 1.24.041.454.116.936.225 1.446.11.495.28.998.513 1.508h-2.46a7.199 7.199 0 01-.511-1.59 3.9 3.9 0 01-1.353 1.238c-.546.303-1.202.455-1.967.455a4.855 4.855 0 01-3.586-1.529 5.343 5.343 0 01-1.025-1.673 5.825 5.825 0 01-.368-2.086zm5.266-2.933c-.506 0-.936.075-1.291.227a2.323 2.323 0 00-.881.64 2.626 2.626 0 00-.492.93 4.47 4.47 0 00-.144 1.156c0 .414.048.8.144 1.157.11.358.273.675.492.95.232.262.526.469.88.62.356.152.786.227 1.292.227.847 0 1.51-.234 1.987-.702.492-.482.738-1.232.738-2.252-.04-.908-.273-1.624-.697-2.148-.423-.537-1.1-.805-2.028-.805zm10.094 8.118h-2.46V2.36h2.46v14.46zm4.922-9.977h2.828v2.313h-2.828v7.664h-2.459V6.512c0-.73.116-1.418.349-2.066a4.637 4.637 0 011.024-1.673 4.764 4.764 0 011.66-1.136c.656-.275 1.407-.413 2.254-.413.15 0 .3.014.45.041.151.014.301.035.452.062v2.396a4.526 4.526 0 00-.39-.062 1.777 1.777 0 00-.389-.04c-.56 0-1.031.075-1.414.226a2.4 2.4 0 00-.901.62c-.233.248-.397.55-.492.909a4.155 4.155 0 00-.144 1.115v.352zm4.131 4.792c0-.716.116-1.391.348-2.024a4.637 4.637 0 011.025-1.674 4.764 4.764 0 011.66-1.136c.655-.275 1.4-.413 2.233-.413.779 0 1.482.124 2.11.372a4.45 4.45 0 011.6 1.053c.45.455.798 1.013 1.044 1.674.26.647.403 1.37.43 2.168.014.262.021.586.021.971 0 .372.02.785.062 1.24.04.454.116.936.225 1.446.11.495.28.998.512 1.508h-2.459a7.204 7.204 0 01-.512-1.59 3.9 3.9 0 01-1.353 1.238c-.546.303-1.202.455-1.967.455a4.855 4.855 0 01-3.586-1.529 5.343 5.343 0 01-1.024-1.673 5.825 5.825 0 01-.369-2.086zm5.266-2.933c-.505 0-.936.075-1.29.227a2.323 2.323 0 00-.882.64 2.626 2.626 0 00-.492.93 4.47 4.47 0 00-.143 1.156c0 .414.048.8.143 1.157.11.358.274.675.492.95.232.262.526.469.881.62.355.152.786.227 1.291.227.847 0 1.51-.234 1.988-.702.492-.482.738-1.232.738-2.252-.041-.908-.274-1.624-.697-2.148-.424-.537-1.1-.805-2.029-.805zM41.733 21.61h1.446v1.943c-.203.067-.413.12-.63.156a4.37 4.37 0 01-.73.056c-.394 0-.728-.078-1.001-.233a1.516 1.516 0 01-.62-.68c-.141-.299-.212-.658-.212-1.078 0-.404.079-.754.236-1.05.157-.299.386-.53.686-.692.3-.164.663-.246 1.09-.246.21 0 .413.021.61.064.197.04.378.097.542.17l-.223.523a2.502 2.502 0 00-.439-.156 1.993 1.993 0 00-.506-.063c-.277 0-.516.06-.717.18-.2.12-.353.29-.46.508a1.715 1.715 0 00-.162.77c0 .288.043.54.13.757.086.217.221.387.405.509.185.12.424.18.717.18.146 0 .27-.008.373-.024a4.54 4.54 0 00.283-.053v-.998h-.818v-.543zm3.402 2.102v-3.87h.636v3.33h1.644v.54h-2.28zm6.378 0l-.379-1.075h-1.48l-.378 1.075h-.67l1.44-3.886h.704l1.438 3.886h-.675zm-.543-1.62l-.368-1.059-.06-.193a40.293 40.293 0 01-.146-.48 7.49 7.49 0 01-.14.492l-.054.181-.37 1.059h1.138zm4.43 1.62l-1.115-3.232h-.024a19.291 19.291 0 01.045 1.109v2.123h-.577v-3.87h.892l1.072 3.09h.016l1.109-3.09h.89v3.87H57.1v-2.155a14.725 14.725 0 01.021-.775 12.6 12.6 0 00.016-.297h-.02l-1.158 3.227h-.56zm5.482-3.87c.5 0 .864.102 1.093.307.23.205.344.491.344.86 0 .168-.026.328-.08.48-.05.15-.135.283-.253.4a1.246 1.246 0 01-.469.272c-.192.067-.43.1-.712.1h-.413v1.451h-.635v-3.87h1.125zm-.043.527h-.447v1.363h.347c.2 0 .369-.023.508-.069a.62.62 0 00.318-.225.687.687 0 00.108-.405c0-.224-.068-.39-.204-.5-.134-.11-.344-.164-.63-.164zm3.283 3.343v-3.87h.635v3.87h-.635zm5.917 0h-.781l-1.895-3.09h-.024c.007.105.013.215.018.332a25.822 25.822 0 01.03.736v2.022h-.578v-3.87h.776l1.893 3.068h.018a47.614 47.614 0 00-.029-.67 29.084 29.084 0 01-.008-.362v-2.036h.58v3.87zm3.608-2.102h1.446v1.943c-.203.067-.413.12-.63.156a4.37 4.37 0 01-.731.056c-.394 0-.727-.078-1-.233a1.516 1.516 0 01-.62-.68c-.141-.299-.212-.658-.212-1.078 0-.404.079-.754.236-1.05.157-.299.385-.53.685-.692.3-.164.664-.246 1.091-.246.21 0 .413.021.609.064.198.04.378.097.543.17l-.223.523a2.502 2.502 0 00-.44-.156 1.993 1.993 0 00-.505-.063c-.277 0-.516.06-.717.18-.2.12-.353.29-.46.508a1.715 1.715 0 00-.162.77c0 .288.043.54.13.757.086.217.22.387.404.509.186.12.425.18.718.18.146 0 .27-.008.373-.024.102-.016.197-.034.283-.053v-.998h-.818v-.543z" fill="#B59C93"/></svg></symbol><symbol id="icon-footer-open"><path fill-rule="evenodd" clip-rule="evenodd" d="M23.555 1.375a1.648 1.648 0 010 2.33l-9.887 9.887a1.648 1.648 0 01-2.33 0L1.45 3.705a1.648 1.648 0 112.33-2.33l8.722 8.722 8.721-8.722a1.648 1.648 0 012.33 0z"/></symbol><symbol id="icon-caravan"><path d="M388.5 98.593l-89.572-97.36H.788" stroke="#B59C93" stroke-linecap="round"/></symbol><symbol id="icon-move"><path d="M10.633 5.5v7.333a5.133 5.133 0 11-10.266 0V5.5a5.133 5.133 0 0110.266 0z" stroke="#767676" stroke-width=".733"/><path d="M4.4 4.767a1.1 1.1 0 112.2 0V7.7a1.1 1.1 0 01-2.2 0V4.767zM.982 21.73a.367.367 0 10-.497.54l.497-.54zM5.5 26.4l-.249.27c.14.13.357.13.498 0l-.25-.27zm5.015-4.13a.367.367 0 10-.497-.54l.497.54zm-10.03 0l4.766 4.4.498-.54-4.767-4.4-.497.54zm5.264 4.4l4.766-4.4-.497-.54-4.767 4.4.498.54z" fill="#767676"/></symbol><symbol id="icon-spinner-desk"><path fill-rule="evenodd" clip-rule="evenodd" d="M28.45 34.883c.066-.623.096-.633.21-1.235.198-1.047.276-1.276-.74-1.593l-24.144-7.56c-1.941-.607-1.88.312-2.36 1.884a38.055 38.055 0 00-1.389 6.6C-.15 34.474.54 34.5 1.992 34.58l25.565 1.316c.627.032.795-.091.893-1.013zm1.824-6.5c.238-.526.495-1.037.768-1.54.52-.948.144-1.012-.724-1.68L12.613 11.497c-1.29-.99-1.667-.887-2.802.317-1.635 1.736-2.587 3.015-3.823 4.983-.9 1.434-.879 1.764.613 2.411l21.686 9.453c1.13.493 1.481.842 1.987-.278zm3.536-5.481c.506-.574.871-.908 1.433-1.426.655-.601.764-.7.275-1.468L25.194 3.705c-.727-1.144-1.031-1.54-2.283-1.03a36.64 36.64 0 00-6.145 3.226c-1.376.896-.432 1.31.696 2.385l14.88 14.26c.645.615.882 1.022 1.468.356zm5.64-4.576c.639-.36 1.073-.575 1.75-.869.818-.352.912-.41.708-1.303L38.55 1.331C38.193-.256 38.063.018 36.455.018c-1.765 0-3.5.131-5.2.381-1.688.247-1.258 1.158-.48 2.725l7.14 14.423c.51 1.018.57 1.321 1.535.779zm-11 21.79c.066.622.096.631.21 1.237.198 1.047.276 1.274-.74 1.591L3.777 50.507c-1.941.604-1.88-.312-2.36-1.885a38.07 38.07 0 01-1.389-6.6c-.177-1.495.512-1.523 1.965-1.603l25.565-1.314c.627-.032.795.091.893 1.012zm1.824 6.5c.238.526.495 1.04.768 1.54.52.949.144 1.013-.724 1.682L12.613 63.501c-1.29.99-1.667.888-2.802-.317-1.635-1.735-2.587-3.015-3.823-4.981-.9-1.434-.879-1.765.613-2.411l21.686-9.454c1.13-.493 1.481-.842 1.987.278zM33.81 52.1c.506.575.871.908 1.433 1.425.655.603.764.701.275 1.468L25.194 71.296c-.727 1.144-1.031 1.54-2.283 1.028a36.709 36.709 0 01-6.145-3.222c-1.376-.897-.432-1.311.696-2.387l14.88-14.26c.645-.614.882-1.02 1.468-.355zm5.64 4.577c.639.36 1.073.575 1.75.866.818.354.912.409.708 1.304L38.55 73.668c-.357 1.588-.487 1.314-2.095 1.314-1.765 0-3.5-.131-5.2-.38-1.688-.246-1.258-1.159-.48-2.726l7.14-14.422c.51-1.02.57-1.321 1.535-.778z"/></symbol><symbol id="icon-spinner-mob"><path fill-rule="evenodd" clip-rule="evenodd" d="M16.515 20.312c.038-.362.055-.367.121-.717.115-.607.16-.74-.429-.924L2.192 14.282c-1.127-.352-1.092.181-1.37 1.094a22.09 22.09 0 00-.806 3.83c-.103.87.297.885 1.14.93l14.84.764c.364.019.461-.053.519-.588zm1.058-3.773c.139-.305.288-.602.446-.894.302-.55.084-.587-.42-.975L7.322 6.738c-.749-.574-.968-.515-1.627.184-.949 1.008-1.502 1.75-2.22 2.892-.522.833-.51 1.024.357 1.4l12.588 5.487c.656.286.86.489 1.153-.162zm2.052-3.182c.294-.332.506-.527.833-.827.38-.35.443-.407.159-.852l-5.993-9.463c-.422-.665-.598-.895-1.325-.598a21.267 21.267 0 00-3.567 1.872c-.799.52-.25.76.404 1.385l8.638 8.277c.374.357.511.593.851.206zm3.274-2.656a9.41 9.41 0 011.016-.504c.475-.204.53-.238.412-.756L22.377.836c-.207-.92-.283-.762-1.216-.762-1.024 0-2.031.076-3.018.221-.98.143-.73.672-.279 1.582l4.145 8.372c.295.591.33.767.89.452zm-6.384 12.65c.038.36.055.365.121.717.115.607.16.74-.429.923l-14.015 4.39c-1.127.35-1.092-.18-1.37-1.094a22.097 22.097 0 01-.806-3.83c-.103-.869.297-.885 1.14-.931l14.84-.763c.364-.019.461.053.519.587zm1.058 3.772c.139.305.288.603.446.894.302.55.084.588-.42.976L7.322 36.924c-.749.575-.968.516-1.627-.184-.949-1.007-1.502-1.75-2.22-2.891-.522-.833-.51-1.024.357-1.4l12.588-5.488c.656-.285.86-.488 1.153.162zm2.052 3.183c.294.333.506.527.833.826.38.351.443.408.159.853l-5.993 9.464c-.422.664-.598.894-1.325.596a21.305 21.305 0 01-3.567-1.87c-.799-.521-.25-.761.404-1.386l8.638-8.278c.374-.356.511-.592.851-.205zm3.274 2.657a9.59 9.59 0 001.016.502c.475.205.53.237.412.757l-1.95 8.604c-.207.922-.283.763-1.216.763-1.024 0-2.031-.077-3.018-.22-.98-.144-.73-.674-.279-1.584l4.145-8.371c.295-.592.33-.767.89-.451z"/></symbol><symbol id="icon-count-desk"><path d="M0 20.5C0 9.178 9.178 0 20.5 0S41 9.178 41 20.5v18C41 49.822 31.822 59 20.5 59S0 49.822 0 38.5v-18z"/></symbol><symbol id="icon-count-mob"><path d="M9.05 9.427a9.427 9.427 0 0118.855 0v9.05a9.427 9.427 0 01-18.854 0v-9.05z"/><path d="M7.275 21.735c-1.187 0-2.242-.307-3.165-.923-.923-.63-1.648-1.524-2.176-2.681-.527-1.172-.791-2.58-.791-4.22 0-1.641.264-3.04.791-4.198C2.462 8.54 3.187 7.647 4.11 7.03c.923-.63 1.978-.945 3.165-.945s2.242.315 3.165.945c.923.616 1.649 1.51 2.176 2.682.542 1.157.813 2.557.813 4.198 0 1.64-.27 3.048-.813 4.22-.527 1.157-1.253 2.051-2.176 2.681-.923.616-1.978.923-3.165.923zm0-1.45c.909 0 1.7-.242 2.374-.726.674-.498 1.201-1.216 1.582-2.154.381-.952.572-2.117.572-3.494 0-1.378-.19-2.535-.572-3.473-.38-.952-.908-1.67-1.582-2.154-.674-.498-1.465-.747-2.374-.747-.879 0-1.663.249-2.352.747-.688.484-1.223 1.202-1.604 2.154-.381.938-.572 2.095-.572 3.473 0 1.377.19 2.542.572 3.495.38.937.916 1.655 1.604 2.153.689.484 1.473.726 2.352.726zm11.102 1.319V6.877l.703.748h-4.33V6.218h5.21v15.386h-1.583z" fill="#fff"/></symbol><symbol id="icon-facebook"><path fill-rule="evenodd" clip-rule="evenodd" d="M10.757 3.257A6 6 0 0115 1.5h3a1 1 0 011 1v4a1 1 0 01-1 1h-3v2h3a1 1 0 01.97 1.242l-1 4a1 1 0 01-.97.758h-2v7a1 1 0 01-1 1h-4a1 1 0 01-1-1v-7H7a1 1 0 01-1-1v-4a1 1 0 011-1h2v-2a6 6 0 011.757-4.243zM15 3.5a4 4 0 00-4 4v3a1 1 0 01-1 1H8v2h2a1 1 0 011 1v7h2v-7a1 1 0 011-1h2.22l.5-2H14a1 1 0 01-1-1v-3a2 2 0 012-2h2v-2h-2z"/></symbol><symbol id="icon-instagram"><path fill-rule="evenodd" clip-rule="evenodd" d="M7 3.5a4 4 0 00-4 4v10a4 4 0 004 4h10a4 4 0 004-4v-10a4 4 0 00-4-4H7zm-6 4a6 6 0 016-6h10a6 6 0 016 6v10a6 6 0 01-6 6H7a6 6 0 01-6-6v-10z"/><path fill-rule="evenodd" clip-rule="evenodd" d="M12.483 9.49a3 3 0 10-.88 5.935 3 3 0 00.88-5.936zM9.74 8.018a5 5 0 114.606 8.876A5 5 0 019.74 8.019z"/></symbol><symbol id="icon-youtube"><path fill-rule="evenodd" clip-rule="evenodd" d="M12 3.5v2h-.075a86.587 86.587 0 00-1.016.007c-.668.007-1.575.022-2.534.05-.961.029-1.966.071-2.833.134-.888.065-1.548.147-1.877.233a1.78 1.78 0 00-1.227 1.25A28 28 0 002 12.245v.011a28 28 0 00.435 5.093 1.78 1.78 0 001.226 1.186c.328.087.99.168 1.881.234.867.063 1.872.105 2.833.134a136.722 136.722 0 003.55.057h.37a140.447 140.447 0 003.33-.057 69.785 69.785 0 002.833-.134c.888-.065 1.548-.147 1.877-.233a1.78 1.78 0 001.227-1.25c.298-1.66.444-3.345.438-5.032v-.01a28.004 28.004 0 00-.438-5.11 1.78 1.78 0 00-1.217-1.247c-.34-.08-1.002-.154-1.88-.212a75.155 75.155 0 00-2.837-.123 149.278 149.278 0 00-3.333-.051h-.22L12 5.5v-2h.08a106.602 106.602 0 011.032.007c.675.006 1.595.02 2.57.046.974.026 2.01.066 2.915.126.88.059 1.715.141 2.24.27a3.78 3.78 0 012.673 2.729l-.97.242.984-.178c.328 1.818.487 3.662.476 5.51a29.997 29.997 0 01-.49 5.49 3.78 3.78 0 01-2.638 2.72l-.014.004c-.533.143-1.375.233-2.255.297-.907.066-1.944.11-2.918.14a138.67 138.67 0 01-3.605.057h-.16a117.262 117.262 0 01-1.033-.007 138.66 138.66 0 01-2.572-.05 70.549 70.549 0 01-2.918-.14c-.88-.064-1.722-.154-2.255-.297l-.006-.001a3.78 3.78 0 01-2.638-2.611.996.996 0 01-.022-.096A30 30 0 010 12.248a30 30 0 01.49-5.532 3.78 3.78 0 012.638-2.72l.014-.003c.533-.143 1.375-.233 2.255-.297.907-.066 1.944-.11 2.918-.14A138.223 138.223 0 0111.92 3.5H12z"/><path fill-rule="evenodd" clip-rule="evenodd" d="M9.247 8.116a1 1 0 01.997-.005l5.75 3.27a1 1 0 010 1.738l-5.75 3.27a1 1 0 01-1.494-.869V8.98a1 1 0 01.497-.864zm1.503 2.583v3.102l2.727-1.551-2.727-1.55z" stroke-linecap="round" stroke-linejoin="round"/></symbol><symbol id="icon-tiktok"><svg width="24" height="25" fill="none" xmlns="http://www.w3.org/2000/svg"><path d="M21.167 10.707a8.843 8.843 0 01-5.029-1.551v7.046c0 3.52-2.984 6.381-6.652 6.381a6.807 6.807 0 01-3.813-1.156c-1.715-1.155-2.84-3.066-2.84-5.225 0-3.52 2.84-6.382 5.737-6.382.305 0 .603.024.896.062v3.539c-.105-.033-.574-.17-.896-.134-1.153.13-2.121 1.307-2.121 2.915 0 1.12.662 2.091 1.629 2.58.421.212.9.334 1.41.334 1.636 0 2.971-1.248 3.032-2.805l.003-13.894h3.614c0 .3.031.594.085.88.255 1.32 1.073 2.454 2.205 3.162a5.15 5.15 0 002.739.782v3.466z" stroke="#0A2936" stroke-width="2" stroke-linejoin="round"/></svg></symbol><symbol id="icon-question"><path d="M11 17a1 1 0 100-2 1 1 0 000 2z"/><path fill-rule="evenodd" clip-rule="evenodd" d="M11.356 7.56c-.486.021-.744.217-.834.407a1 1 0 11-1.81-.851c.523-1.11 1.648-1.514 2.556-1.554.875-.038 1.963.24 2.565 1.025.463.604.723 1.37.618 2.175-.107.816-.572 1.549-1.328 2.104-1.009.743-1.007 1.121-1.006 1.177v.002a1 1 0 11-2 0c0-.957.556-1.859 1.821-2.79.39-.286.505-.56.53-.752.027-.204-.031-.45-.222-.699-.014-.017-.087-.09-.27-.156a1.663 1.663 0 00-.62-.088z"/><path d="M11 22C4.9 22 0 17.1 0 11S4.9 0 11 0s11 4.9 11 11-4.9 11-11 11zm0-20c-5 0-9 4-9 9s4 9 9 9 9-4 9-9-4-9-9-9z"/></symbol><symbol id="icon-open"><path fill-rule="evenodd" clip-rule="evenodd" d="M15.427.33c.44.44.44 1.152 0 1.591L8.674 8.674c-.44.44-1.152.44-1.591 0L.33 1.921A1.125 1.125 0 011.922.33l5.957 5.957L13.836.33c.44-.44 1.152-.44 1.591 0z"/></symbol><symbol id="logo-big"><svg width="122" height="183" fill="none" xmlns="http://www.w3.org/2000/svg"><path d="M0 57.5C0 25.744 25.744 0 57.5 0h7C96.256 0 122 25.744 122 57.5v68c0 31.756-25.744 57.5-57.5 57.5h-7C25.744 183 0 157.256 0 125.5v-68z" fill="#B59C93"/><path d="M6 59.358C6 29.86 29.213 6 57.787 6h6.426C92.787 6 116 29.861 116 59.358v64.284C116 153.139 92.787 177 64.213 177h-6.426C29.213 177 6 153.139 6 123.642V59.358z" stroke="#fff" stroke-width="2"/><path d="M33.545 148l1.245 3.991h4.029l-3.26 2.467 1.245 3.991-3.26-2.467-3.258 2.467 1.245-3.991-3.26-2.467H32.3L33.545 148zm28 0l1.245 3.991h4.029l-3.26 2.467 1.245 3.991-3.26-2.467-3.258 2.467 1.245-3.991-3.26-2.467H60.3L61.545 148zm-14 0l1.245 3.991h4.029l-3.26 2.467 1.245 3.991-3.26-2.467-3.258 2.467 1.245-3.991-3.26-2.467H46.3L47.545 148zm28 0l1.245 3.991h4.028l-3.259 2.467 1.245 3.991-3.26-2.467-3.258 2.467 1.245-3.991-3.26-2.467H74.3L75.545 148zm14 0l1.245 3.991h4.028l-3.259 2.467 1.245 3.991-3.26-2.467-3.258 2.467 1.245-3.991-3.26-2.467H88.3L89.545 148z" fill="#fff"/><path fill-rule="evenodd" clip-rule="evenodd" d="M57.605 49.413l.129-.099c.248-.192.493-.357.733-.491a4.62 4.62 0 01.766-.349c1.158-.402 2.309-.265 3.354.538a4.23 4.23 0 01.86-.594c2.24-.68 3.19.534 3.564.868-1.111-.189-2.76-.023-3.647.758-.088.076.14.289.064.389-.126.168-.125.456-.255.67-.342-.338-.496-.584-.983-.66-.354-.054-.796-.085-.904-.157-.373-.244-.361-.737-.898-.762-1.076-.053-1.716.566-2.782-.111zm-3.785 3.514l.09-.069c.174-.134.347-.25.515-.344.173-.098.353-.18.537-.244.813-.283 1.621-.186 2.354.376.173-.157.381-.297.604-.416 1.573-.476 2.239.375 2.502.609-.78-.133-1.938-.017-2.56.53-.061.054.099.203.045.273-.089.118-.088.32-.179.47-.24-.237-.348-.41-.69-.462-.249-.039-.559-.06-.635-.111-.262-.17-.253-.516-.63-.534-.755-.037-1.204.397-1.953-.078zM93.856 73.73a8.683 8.683 0 00-2.048-.255c-3.095 0-5.843 1.763-8.59 3.524-4.13 2.212-6.2 2.674-9.527 1.403-.932-.353-1.963-.848-3.163-1.476-7.04-4.458-9.791-4.407-16.843.033-1.799.876-3.177 1.499-4.358 1.867-3.012.947-4.718.25-8.801-2.023-2.75-1.69-5.406-3.323-8.02-3.328H32.5c-.679 0-1.348.108-2.01.295-1.227.347-1.882-.85-2.23-2.167-.308-1.164-.458-2.402.588-3.036 1.42-.859 2.702-1.516 3.652-1.516h.007c1.381.001 3.524 1.32 5.738 2.68 2.932 1.803 5.979 3.675 9.079 3.675h.008c1.705-.001 3.348-.567 4.958-1.376 9.694-4.859 9.768-5.059 19.499-.08 1.667.852 3.383 1.456 5.193 1.456 3.093 0 5.842-1.764 8.587-3.527 2.2-1.413 4.407-2.828 6.24-2.828 1.252 0 2.676.676 4.156 1.556.95.567.545 1.854-.03 3.111-.507 1.112-1.068 2.258-2.078 2.011zm-1.986 5.715a37.232 37.232 0 01-3.51 4.196c-2.219 2.286-4.656 3.963-7.398 5.541-1.414.819-2.779 1.428-3.98 1.428-1.876 0-4.183-1.462-6.454-2.903-2.736-1.733-5.441-3.45-8.37-3.45h-.007c-2.932 0-5.69 1.735-8.466 3.483-2.267 1.427-4.556 2.867-6.354 2.87h-.008c-1.227 0-2.731-.666-4.302-1.54-2.92-1.63-5.252-3.465-7.576-5.956a37.245 37.245 0 01-3.08-3.768c-.617-.866-1.448-1.511.134-1.511h.007c.085 0 .176.008.268.015 1.38.152 3.395 1.389 5.47 2.663 6.454 3.679 9.547 4.453 15.138 1.514 8.41-4.425 9.219-4.24 17.39-.078 5.222 2.66 8.854 2.057 14.796-1.29 2.2-1.411 4.405-2.824 6.24-2.824 1.677 0 .749.65.062 1.61zM69.992 93.908c-2.535.514-5.149.854-7.84.854-2.496 0-4.932-.267-7.288-.739-1.61-.318-1.178-1.149 1.137-2.606 2.231-1.404 4.451-2.801 6.15-2.801h.008c1.668.001 3.84 1.377 6.036 2.768 1.77 1.121 3.05 2.27 1.797 2.524z" fill="#fff"/><path d="M80.095 70.925c3.697-.88 10.21-4.195 12.103-3.828 1.893.366-.088 1.584-.088 1.584l-7.702 5.545-12.323-.396-8.67-3.3-12.542 4.796-14.524-2.772-6.337-4.357c.322-.294 1.012-.933 2.244-1.145 2.333-.4 4.401 2.421 9.066 2.641 4.665.22 7.702-1.936 21.17-1.496 5.265.172 12.982 3.829 17.603 2.728z" fill="#fff"/><path fill-rule="evenodd" clip-rule="evenodd" d="M64.863 44.35c.608.065.617.095 1.204.209 1.021.197 1.245.275 1.554-.737l7.372-24.06c.592-1.934-.304-1.873-1.837-2.351a36.415 36.415 0 00-6.436-1.384c-1.459-.176-1.485.51-1.562 1.958L63.875 43.46c-.031.624.089.791.988.89zm6.338 1.817a23.51 23.51 0 011.502.765c.924.519.987.144 1.64-.72l13.324-17.643c.965-1.285.865-1.662-.31-2.792-1.692-1.63-2.94-2.578-4.858-3.81-1.399-.897-1.72-.876-2.351.61l-9.219 21.61c-.48 1.126-.82 1.476.272 1.98zm5.346 3.523c.559.505.885.869 1.39 1.429.587.653.683.76 1.431.273l15.898-10.287c1.116-.725 1.502-1.028 1.004-2.275a36.799 36.799 0 00-3.144-6.123c-.875-1.371-1.278-.431-2.327.693L76.894 48.23c-.6.641-.997.877-.347 1.461zm4.462 5.62c.352.637.56 1.07.847 1.744.343.816.4.91 1.27.706l14.456-3.346c1.547-.356 1.28-.486 1.28-2.088 0-1.758-.128-3.487-.372-5.181-.24-1.682-1.128-1.254-2.657-.478l-14.065 7.114c-.993.508-1.288.569-.759 1.53zM59.76 44.35c-.606.065-.615.095-1.205.209-1.021.197-1.243.275-1.552-.737l-7.375-24.06c-.589-1.934.304-1.873 1.838-2.351a36.43 36.43 0 016.436-1.384c1.458-.176 1.485.51 1.563 1.958l1.282 25.475c.031.624-.09.791-.987.89zm-6.338 1.817c-.513.238-1.014.494-1.501.765-.926.519-.988.144-1.64-.72L36.955 28.568c-.966-1.285-.866-1.662.309-2.792 1.691-1.63 2.94-2.578 4.857-3.81 1.398-.897 1.72-.876 2.352.61l9.219 21.61c.48 1.126.82 1.476-.272 1.98zm-5.347 3.523c-.56.505-.885.869-1.389 1.429-.589.653-.684.76-1.432.273L29.355 41.105c-1.116-.725-1.502-1.028-1.003-2.275a36.877 36.877 0 013.142-6.123c.876-1.371 1.28-.431 2.329.693l13.906 14.83c.598.641.995.877.345 1.461zm-4.463 5.62c-.35.637-.56 1.07-.845 1.744-.344.816-.398.91-1.27.706L27.04 54.414c-1.548-.356-1.281-.486-1.281-2.088 0-1.758.128-3.487.37-5.181.24-1.682 1.13-1.254 2.659-.478l14.064 7.114c.994.508 1.288.569.758 1.53zm30.102-5.07s.4 1.827.839 2.254c0 0-.46-.233-.28.194.18.428.44 1.808 1.238 2.429 0 0-.74-.292-.6-.039s-.719-.622-.538-.233c.179.389.609 1.363 1.168 1.849 0 0-.6-.078-.24.389.36.466 1.009 1.607 1.409 1.918.399.311-.69-.264-.53.182.16.447-.786-.69-.666-.38.12.312-.382.032-.203.362.18.33-.759-.512-.739-.201.02.31 1.099 1.2 1.578 1.84 0 0-.879-.116-.18.486.7.603.82 1.56 1.878 2.143 0 0-.699-.408-.519.155.18.564-.679-.116-.639.136.04.253-.4-.427-.42-.058-.02.37-.738-.816-.738-.408s-.34-.233-.34.098c0 .33.82 1.477 1.758 2.216.939.739-1.338-.579-.04.56s1.598 1.475 2.297 1.942c.7.467-1.378-.317-1.238.187.14.504-.939-.206-.819.094.12.298-.68-.56-.699-.094-.02.467-.799-.485-.739-.169.06.318-.42-.186-.44.131-.02.318-.598-.187-.538-.037.06.15-.02 1.998.519 3.006h-3.076c.54-1.008.46-2.857.52-3.006.06-.15-.52.355-.54.037-.02-.317-.5.187-.44-.13s-.718.635-.738.168c-.02-.467-.82.392-.7.094.12-.3-.958.41-.818-.094s-1.938.28-1.239-.187c.7-.466 1-.803 2.298-1.942 1.298-1.139-.979.178-.04-.56.938-.739 1.757-1.887 1.757-2.216 0-.33-.339.31-.339-.098 0-.408-.719.777-.739.408-.02-.369-.46.311-.42.059.04-.253-.818.427-.639-.137.18-.563-.519-.155-.519-.155 1.059-.583 1.178-1.54 1.877-2.143.7-.602-.179-.486-.179-.486.48-.64 1.558-1.53 1.578-1.84.02-.31-.919.532-.739.201.18-.33-.322-.05-.203-.361.12-.311-.825.826-.666.38.16-.447-.929.128-.53-.183.4-.311 1.05-1.452 1.409-1.918.36-.466-.24-.39-.24-.39.56-.485.989-1.46 1.168-1.848.18-.389-.678.486-.538.233s-.6.039-.6.039c.8-.621 1.058-2.002 1.239-2.429.18-.427-.28-.194-.28-.194.438-.427.837-2.254.837-2.254zm7.783 12.764s.153.697.32.86c0 0-.175-.09-.106.074.068.163.167.69.472.927 0 0-.282-.111-.229-.015.054.096-.274-.237-.205-.09.068.15.232.521.446.706 0 0-.23-.029-.092.149.137.178.385.613.537.732.153.118-.263-.101-.202.07.061.17-.3-.264-.254-.146.046.119-.146.013-.077.138.068.127-.29-.195-.282-.077.007.119.419.458.602.703 0 0-.335-.045-.069.186.267.23.313.595.717.817 0 0-.267-.156-.198.06.069.214-.26-.045-.244.052.015.096-.152-.164-.16-.023-.007.141-.282-.311-.282-.156 0 .156-.13-.089-.13.037s.313.564.671.846c.359.282-.51-.22-.015.214.496.435.61.562.877.74.267.18-.526-.12-.473.072.053.193-.358-.078-.312.036.045.114-.26-.214-.267-.036-.008.178-.305-.185-.282-.064.023.12-.16-.071-.168.05-.007.12-.228-.072-.206-.015.023.057-.007.763.199 1.147H80.91c.207-.384.176-1.09.199-1.147.023-.057-.198.136-.206.014-.008-.12-.19.072-.168-.049.023-.121-.274.242-.281.064-.008-.178-.313.15-.267.036.045-.114-.366.157-.313-.036.054-.192-.739.107-.472-.071.266-.179.38-.306.876-.741.495-.435-.373.068-.015-.214.358-.282.67-.72.67-.846s-.129.119-.129-.037-.274.297-.282.156c-.007-.141-.175.119-.16.023.016-.097-.312.162-.243-.053.068-.215-.198-.059-.198-.059.404-.222.45-.588.716-.817.267-.23-.068-.186-.068-.186.183-.245.595-.584.602-.703.007-.118-.35.203-.282.077.069-.125-.123-.019-.077-.138.045-.118-.315.316-.255.146.062-.171-.354.048-.201-.07.152-.119.4-.555.537-.732.137-.178-.092-.149-.092-.149.214-.185.378-.557.446-.705.069-.148-.259.185-.206.09.054-.097-.228.014-.228.014.305-.237.404-.764.473-.927.068-.163-.107-.074-.107-.074.165-.163.317-.86.317-.86zm-38.722.351s.122.56.255.691c0 0-.14-.07-.085.06.055.131.134.555.377.745 0 0-.224-.089-.182-.012.042.077-.22-.19-.164-.072.055.12.185.419.356.567 0 0-.183-.023-.073.12.109.143.307.493.428.588.122.095-.21-.081-.161.056.049.137-.24-.212-.203-.117.037.096-.117.01-.062.11.055.102-.23-.156-.224-.06.006.095.334.367.48.563 0 0-.267-.036-.055.15.213.184.25.478.572.656 0 0-.213-.125-.158.048.055.173-.207-.035-.195.042.013.078-.121-.131-.128-.018-.005.113-.224-.25-.224-.125s-.104-.072-.104.03c0 .1.25.453.536.68.285.227-.408-.178-.013.171.396.35.487.453.7.596.212.143-.42-.098-.378.058.043.154-.286-.064-.249.028.036.092-.207-.171-.213-.028-.006.143-.243-.15-.225-.051.018.096-.128-.058-.134.04-.006.097-.182-.058-.163-.013.017.047-.007.614.157.923h-.936c.164-.31.14-.876.158-.923.018-.045-.158.11-.164.013-.006-.098-.152.056-.134-.04.018-.098-.219.194-.225.05-.006-.142-.25.121-.212.03.036-.093-.293.125-.25-.03.042-.154-.59.086-.378-.057.214-.143.305-.246.7-.596.395-.349-.298.056-.012-.17.286-.228.535-.58.535-.68 0-.102-.103.094-.103-.031s-.22.238-.225.125c-.006-.113-.14.096-.128.018.012-.078-.25.13-.195-.042.055-.172-.158-.048-.158-.048.322-.178.359-.472.572-.657.213-.185-.055-.149-.055-.149.146-.196.474-.469.48-.564.006-.096-.28.163-.225.061.055-.1-.098-.015-.061-.11.036-.095-.252.254-.203.117.049-.137-.283.04-.161-.056.121-.096.32-.445.428-.588.11-.143-.073-.12-.073-.12.17-.148.301-.448.356-.567.055-.119-.207.15-.164.072.043-.077-.182.012-.182.012.243-.19.322-.614.377-.745.055-.13-.085-.06-.085-.06.134-.13.255-.69.255-.69z" fill="#fff"/><path d="M46.25 62.185c.051-.358.09-.718.155-1.073.178-.962.504-1.864 1.076-2.672.518-.73 1.206-1.234 2.027-1.57 1.108-.453 2.27-.674 3.452-.813a30.439 30.439 0 014.227-.174c1.558.034 3.113.128 4.63.527.738.194 1.448.457 2.05.95.452.37.753.841.936 1.392.35 1.048.573 2.126.758 3.212.114.665.21 1.334.292 2.004.057.471.019.943-.119 1.4-.261.87-.864 1.36-1.744 1.515a4.935 4.935 0 01-.838.07c-1.59.006-3.18-.001-4.771.007-.2 0-.262-.07-.287-.256-.123-.925-.89-1.64-1.861-1.748-.863-.096-1.778.477-2.085 1.309-.053.142-.103.29-.118.44-.02.189-.091.255-.29.254-1.347-.009-2.695-.005-4.042-.005-.377 0-.755-.021-1.13.005-.776.054-1.264-.347-1.615-.974-.416-.743-.582-1.558-.664-2.394-.007-.075-.025-.148-.038-.222l-.001-1.184zm13.1-.459v3.213c0 .276.075.35.353.35.798.001 1.596.002 2.394 0 .268 0 .352-.083.352-.357v-6.406c0-.281-.085-.36-.37-.36h-2.336c-.33 0-.393.062-.394.388v3.172zm-7.532-3.566h-1.742c-.258 0-.315.058-.316.316-.002.586-.002 1.172 0 1.758.001.268.057.324.33.324h3.446c.267 0 .328-.063.329-.328v-1.739c0-.273-.06-.33-.342-.33-.57-.002-1.137-.001-1.705-.001zm6.4 1.213c0-.312.003-.624-.001-.936-.003-.208-.069-.271-.28-.272-.618-.002-1.237-.002-1.855 0-.213 0-.285.073-.285.29-.003.61-.003 1.221 0 1.833 0 .218.072.291.283.292.618.002 1.237.002 1.856 0 .216 0 .28-.067.281-.29.003-.306.001-.612 0-.917z" fill="#fff"/><path d="M56.02 65.644c.771 0 1.4.625 1.41 1.4a1.425 1.425 0 01-1.417 1.417 1.424 1.424 0 01-1.4-1.414 1.413 1.413 0 011.408-1.403zm-28.489 56.478c0-1.348.219-2.619.656-3.811.437-1.219 1.08-2.269 1.929-3.15.848-.907 1.89-1.62 3.124-2.139 1.235-.518 2.636-.777 4.205-.777 1.466 0 2.79.233 3.973.7 1.183.466 2.186 1.127 3.009 1.983.848.855 1.504 1.905 1.967 3.149.489 1.219.759 2.58.81 4.083.026.493.039 1.102.039 1.828 0 .7.038 1.478.115 2.333.078.856.219 1.763.425 2.722.205.933.527 1.88.964 2.839h-4.629a13.57 13.57 0 01-.964-2.994 7.35 7.35 0 01-2.546 2.333c-1.029.57-2.263.855-3.703.855-1.363 0-2.623-.259-3.78-.778a9.1 9.1 0 01-2.97-2.099 10.072 10.072 0 01-1.93-3.15c-.462-1.218-.694-2.528-.694-3.927zm9.914-5.522c-.952 0-1.762.142-2.43.428a4.377 4.377 0 00-1.66 1.205 4.95 4.95 0 00-.925 1.75 8.41 8.41 0 00-.27 2.177c0 .778.09 1.504.27 2.178.206.674.514 1.27.926 1.789.437.492.99.881 1.659 1.166.668.285 1.478.428 2.43.428 1.594 0 2.841-.441 3.742-1.322.925-.907 1.388-2.32 1.388-4.239-.077-1.711-.514-3.059-1.311-4.044-.798-1.011-2.07-1.516-3.82-1.516zm19.001 15.282h-4.63v-27.22h4.63v27.22zm9.267-18.782h5.323v4.355h-5.323v14.427h-4.63v-19.404c0-1.374.22-2.67.657-3.888.437-1.219 1.08-2.269 1.928-3.15.849-.907 1.89-1.62 3.125-2.139 1.234-.518 2.648-.778 4.243-.778.283 0 .566.026.849.078.282.026.565.065.848.117v4.511a8.482 8.482 0 00-.733-.117 3.335 3.335 0 00-.733-.078c-1.054 0-1.941.143-2.661.428-.695.285-1.26.674-1.698 1.166a3.945 3.945 0 00-.925 1.711 7.817 7.817 0 00-.27 2.1v.661zm7.776 9.022c0-1.348.218-2.619.655-3.811.438-1.219 1.08-2.269 1.93-3.15.848-.907 1.89-1.62 3.124-2.139 1.234-.518 2.636-.777 4.204-.777 1.466 0 2.79.233 3.973.7 1.183.466 2.186 1.127 3.01 1.983.848.855 1.503 1.905 1.966 3.149.489 1.219.759 2.58.81 4.083.026.493.039 1.102.039 1.828 0 .7.038 1.478.116 2.333.077.856.218 1.763.424 2.722.206.933.527 1.88.964 2.839h-4.628a13.565 13.565 0 01-.965-2.994 7.35 7.35 0 01-2.546 2.333c-1.028.57-2.263.855-3.703.855-1.363 0-2.623-.259-3.78-.778a9.1 9.1 0 01-2.97-2.099 10.068 10.068 0 01-1.929-3.15c-.463-1.218-.694-2.528-.694-3.927zm9.913-5.522c-.951 0-1.761.142-2.43.428a4.377 4.377 0 00-1.659 1.205 4.952 4.952 0 00-.925 1.75c-.18.674-.27 1.4-.27 2.177 0 .778.09 1.504.27 2.178.205.674.514 1.27.925 1.789.438.492.99.881 1.659 1.166.669.285 1.479.428 2.43.428 1.595 0 2.842-.441 3.742-1.322.926-.907 1.388-2.32 1.388-4.239-.077-1.711-.514-3.059-1.311-4.044-.797-1.011-2.07-1.516-3.819-1.516zm-51.974 24.299h2.721v3.657a7.952 7.952 0 01-1.186.294 8.19 8.19 0 01-1.375.105c-.741 0-1.37-.146-1.884-.438a2.859 2.859 0 01-1.166-1.281c-.266-.562-.399-1.238-.399-2.028 0-.761.148-1.42.444-1.979a3.082 3.082 0 011.29-1.3c.565-.309 1.25-.464 2.053-.464.396 0 .778.04 1.147.12.372.076.712.183 1.021.319l-.418.987a4.606 4.606 0 00-.828-.294 3.743 3.743 0 00-.951-.12c-.522 0-.972.113-1.35.339a2.245 2.245 0 00-.868.957c-.203.408-.304.892-.304 1.45 0 .541.081 1.016.244 1.425.163.408.417.727.763.957.348.226.799.338 1.35.338.276 0 .51-.014.703-.044.192-.03.37-.063.533-.1v-1.879h-1.54v-1.021zm6.404 3.956v-7.285h1.196v6.269h3.095v1.016h-4.29zm12.005 0l-.712-2.023h-2.786l-.712 2.023h-1.261l2.71-7.315h1.326l2.706 7.315h-1.27zm-1.021-3.049l-.693-1.994a108.294 108.294 0 01-.389-1.265 9.61 9.61 0 01-.124.458 164.296 164.296 0 00-.24.807l-.697 1.994h2.143zm8.337 3.049l-2.098-6.084h-.045a34.7 34.7 0 01.07 1.315c.01.27.015.527.015.773v3.996H54.01v-7.285h1.68l2.017 5.815h.03l2.088-5.815H61.5v7.285h-1.142v-4.056a28.487 28.487 0 01.04-1.46c.014-.233.023-.419.03-.558h-.04l-2.177 6.074h-1.057zm10.321-7.285c.94 0 1.626.193 2.058.578.432.385.648.925.648 1.62 0 .315-.05.616-.15.902a1.913 1.913 0 01-.478.752c-.223.216-.517.387-.882.513-.362.127-.809.19-1.34.19h-.778v2.73h-1.196v-7.285h2.118zm-.08.992h-.842v2.566h.653c.375 0 .694-.043.957-.13.262-.089.461-.23.598-.423.136-.193.204-.447.204-.763 0-.421-.128-.735-.384-.941-.252-.206-.648-.309-1.186-.309zm6.18 6.293v-7.285h1.196v7.285h-1.196zm11.138 0h-1.47l-3.568-5.815h-.045c.013.196.025.404.035.623.013.219.023.445.03.678.01.232.018.468.025.707v3.807h-1.086v-7.285h1.46l3.563 5.776h.034a266.815 266.815 0 01-.055-1.261 53.152 53.152 0 01-.014-.683v-3.832h1.091v7.285zm6.793-3.956h2.72v3.657a7.952 7.952 0 01-1.185.294 8.19 8.19 0 01-1.376.105c-.74 0-1.368-.146-1.883-.438a2.86 2.86 0 01-1.166-1.281c-.266-.562-.4-1.238-.4-2.028 0-.761.149-1.42.444-1.979a3.082 3.082 0 011.291-1.3c.565-.309 1.25-.464 2.053-.464.395 0 .777.04 1.146.12.372.076.713.183 1.022.319l-.419.987a4.608 4.608 0 00-.827-.294 3.744 3.744 0 00-.952-.12c-.521 0-.972.113-1.35.339a2.245 2.245 0 00-.867.957c-.203.408-.304.892-.304 1.45 0 .541.081 1.016.244 1.425.163.408.417.727.762.957.35.226.8.338 1.35.338.276 0 .51-.014.703-.044.193-.03.37-.063.534-.1v-1.879h-1.54v-1.021z" fill="#fff"/></svg></symbol></defs></svg>