<svg aria-hidden="true" xmlns="http://www.w3.org/2000/svg" overflow="hidden">version=&quot;1.1&quot; xmlns=&quot;http://www.w3.org/2000/svg&quot; xmlns:xlink=&quot;http://www.w3.org/1999/xlink&quot;&gt;<defs><symbol id="icon-spinner-desk"><path fill-rule="evenodd" clip-rule="evenodd" d="M28.45 34.883c.066-.623.096-.633.21-1.235.198-1.047.276-1.276-.74-1.593l-24.144-7.56c-1.941-.607-1.88.312-2.36 1.884a38.055 38.055 0 00-1.389 6.6C-.15 34.474.54 34.5 1.992 34.58l25.565 1.316c.627.032.795-.091.893-1.013zm1.824-6.5c.238-.526.495-1.037.768-1.54.52-.948.144-1.012-.724-1.68L12.613 11.497c-1.29-.99-1.667-.887-2.802.317-1.635 1.736-2.587 3.015-3.823 4.983-.9 1.434-.879 1.764.613 2.411l21.686 9.453c1.13.493 1.481.842 1.987-.278zm3.536-5.481c.506-.574.871-.908 1.433-1.426.655-.601.764-.7.275-1.468L25.194 3.705c-.727-1.144-1.031-1.54-2.283-1.03a36.64 36.64 0 00-6.145 3.226c-1.376.896-.432 1.31.696 2.385l14.88 14.26c.645.615.882 1.022 1.468.356zm5.64-4.576c.639-.36 1.073-.575 1.75-.869.818-.352.912-.41.708-1.303L38.55 1.331C38.193-.256 38.063.018 36.455.018c-1.765 0-3.5.131-5.2.381-1.688.247-1.258 1.158-.48 2.725l7.14 14.423c.51 1.018.57 1.321 1.535.779zm-11 21.79c.066.622.096.631.21 1.237.198 1.047.276 1.274-.74 1.591L3.777 50.507c-1.941.604-1.88-.312-2.36-1.885a38.07 38.07 0 01-1.389-6.6c-.177-1.495.512-1.523 1.965-1.603l25.565-1.314c.627-.032.795.091.893 1.012zm1.824 6.5c.238.526.495 1.04.768 1.54.52.949.144 1.013-.724 1.682L12.613 63.501c-1.29.99-1.667.888-2.802-.317-1.635-1.735-2.587-3.015-3.823-4.981-.9-1.434-.879-1.765.613-2.411l21.686-9.454c1.13-.493 1.481-.842 1.987.278zM33.81 52.1c.506.575.871.908 1.433 1.425.655.603.764.701.275 1.468L25.194 71.296c-.727 1.144-1.031 1.54-2.283 1.028a36.709 36.709 0 01-6.145-3.222c-1.376-.897-.432-1.311.696-2.387l14.88-14.26c.645-.614.882-1.02 1.468-.355zm5.64 4.577c.639.36 1.073.575 1.75.866.818.354.912.409.708 1.304L38.55 73.668c-.357 1.588-.487 1.314-2.095 1.314-1.765 0-3.5-.131-5.2-.38-1.688-.246-1.258-1.159-.48-2.726l7.14-14.422c.51-1.02.57-1.321 1.535-.778z"/></symbol><symbol id="icon-spinner-mob"><path fill-rule="evenodd" clip-rule="evenodd" d="M16.515 20.312c.038-.362.055-.367.121-.717.115-.607.16-.74-.429-.924L2.192 14.282c-1.127-.352-1.092.181-1.37 1.094a22.09 22.09 0 00-.806 3.83c-.103.87.297.885 1.14.93l14.84.764c.364.019.461-.053.519-.588zm1.058-3.773c.139-.305.288-.602.446-.894.302-.55.084-.587-.42-.975L7.322 6.738c-.749-.574-.968-.515-1.627.184-.949 1.008-1.502 1.75-2.22 2.892-.522.833-.51 1.024.357 1.4l12.588 5.487c.656.286.86.489 1.153-.162zm2.052-3.182c.294-.332.506-.527.833-.827.38-.35.443-.407.159-.852l-5.993-9.463c-.422-.665-.598-.895-1.325-.598a21.267 21.267 0 00-3.567 1.872c-.799.52-.25.76.404 1.385l8.638 8.277c.374.357.511.593.851.206zm3.274-2.656a9.41 9.41 0 011.016-.504c.475-.204.53-.238.412-.756L22.377.836c-.207-.92-.283-.762-1.216-.762-1.024 0-2.031.076-3.018.221-.98.143-.73.672-.279 1.582l4.145 8.372c.295.591.33.767.89.452zm-6.384 12.65c.038.36.055.365.121.717.115.607.16.74-.429.923l-14.015 4.39c-1.127.35-1.092-.18-1.37-1.094a22.097 22.097 0 01-.806-3.83c-.103-.869.297-.885 1.14-.931l14.84-.763c.364-.019.461.053.519.587zm1.058 3.772c.139.305.288.603.446.894.302.55.084.588-.42.976L7.322 36.924c-.749.575-.968.516-1.627-.184-.949-1.007-1.502-1.75-2.22-2.891-.522-.833-.51-1.024.357-1.4l12.588-5.488c.656-.285.86-.488 1.153.162zm2.052 3.183c.294.333.506.527.833.826.38.351.443.408.159.853l-5.993 9.464c-.422.664-.598.894-1.325.596a21.305 21.305 0 01-3.567-1.87c-.799-.521-.25-.761.404-1.386l8.638-8.278c.374-.356.511-.592.851-.205zm3.274 2.657a9.59 9.59 0 001.016.502c.475.205.53.237.412.757l-1.95 8.604c-.207.922-.283.763-1.216.763-1.024 0-2.031-.077-3.018-.22-.98-.144-.73-.674-.279-1.584l4.145-8.371c.295-.592.33-.767.89-.451z"/></symbol><symbol id="icon-count-desk"><path d="M0 20.5C0 9.178 9.178 0 20.5 0S41 9.178 41 20.5v18C41 49.822 31.822 59 20.5 59S0 49.822 0 38.5v-18z"/></symbol><symbol id="icon-count-mob"><path d="M9.05 9.427a9.427 9.427 0 0118.855 0v9.05a9.427 9.427 0 01-18.854 0v-9.05z"/><path d="M7.275 21.735c-1.187 0-2.242-.307-3.165-.923-.923-.63-1.648-1.524-2.176-2.681-.527-1.172-.791-2.58-.791-4.22 0-1.641.264-3.04.791-4.198C2.462 8.54 3.187 7.647 4.11 7.03c.923-.63 1.978-.945 3.165-.945s2.242.315 3.165.945c.923.616 1.649 1.51 2.176 2.682.542 1.157.813 2.557.813 4.198 0 1.64-.27 3.048-.813 4.22-.527 1.157-1.253 2.051-2.176 2.681-.923.616-1.978.923-3.165.923zm0-1.45c.909 0 1.7-.242 2.374-.726.674-.498 1.201-1.216 1.582-2.154.381-.952.572-2.117.572-3.494 0-1.378-.19-2.535-.572-3.473-.38-.952-.908-1.67-1.582-2.154-.674-.498-1.465-.747-2.374-.747-.879 0-1.663.249-2.352.747-.688.484-1.223 1.202-1.604 2.154-.381.938-.572 2.095-.572 3.473 0 1.377.19 2.542.572 3.495.38.937.916 1.655 1.604 2.153.689.484 1.473.726 2.352.726zm11.102 1.319V6.877l.703.748h-4.33V6.218h5.21v15.386h-1.583z" fill="#fff"/></symbol><symbol id="icon-facebook"><path fill-rule="evenodd" clip-rule="evenodd" d="M10.757 3.257A6 6 0 0115 1.5h3a1 1 0 011 1v4a1 1 0 01-1 1h-3v2h3a1 1 0 01.97 1.242l-1 4a1 1 0 01-.97.758h-2v7a1 1 0 01-1 1h-4a1 1 0 01-1-1v-7H7a1 1 0 01-1-1v-4a1 1 0 011-1h2v-2a6 6 0 011.757-4.243zM15 3.5a4 4 0 00-4 4v3a1 1 0 01-1 1H8v2h2a1 1 0 011 1v7h2v-7a1 1 0 011-1h2.22l.5-2H14a1 1 0 01-1-1v-3a2 2 0 012-2h2v-2h-2z"/></symbol><symbol id="icon-instagram"><path fill-rule="evenodd" clip-rule="evenodd" d="M7 3.5a4 4 0 00-4 4v10a4 4 0 004 4h10a4 4 0 004-4v-10a4 4 0 00-4-4H7zm-6 4a6 6 0 016-6h10a6 6 0 016 6v10a6 6 0 01-6 6H7a6 6 0 01-6-6v-10z"/><path fill-rule="evenodd" clip-rule="evenodd" d="M12.483 9.49a3 3 0 10-.88 5.935 3 3 0 00.88-5.936zM9.74 8.018a5 5 0 114.606 8.876A5 5 0 019.74 8.019z"/></symbol><symbol id="icon-youtube"><path fill-rule="evenodd" clip-rule="evenodd" d="M12 3.5v2h-.075a86.587 86.587 0 00-1.016.007c-.668.007-1.575.022-2.534.05-.961.029-1.966.071-2.833.134-.888.065-1.548.147-1.877.233a1.78 1.78 0 00-1.227 1.25A28 28 0 002 12.245v.011a28 28 0 00.435 5.093 1.78 1.78 0 001.226 1.186c.328.087.99.168 1.881.234.867.063 1.872.105 2.833.134a136.722 136.722 0 003.55.057h.37a140.447 140.447 0 003.33-.057 69.785 69.785 0 002.833-.134c.888-.065 1.548-.147 1.877-.233a1.78 1.78 0 001.227-1.25c.298-1.66.444-3.345.438-5.032v-.01a28.004 28.004 0 00-.438-5.11 1.78 1.78 0 00-1.217-1.247c-.34-.08-1.002-.154-1.88-.212a75.155 75.155 0 00-2.837-.123 149.278 149.278 0 00-3.333-.051h-.22L12 5.5v-2h.08a106.602 106.602 0 011.032.007c.675.006 1.595.02 2.57.046.974.026 2.01.066 2.915.126.88.059 1.715.141 2.24.27a3.78 3.78 0 012.673 2.729l-.97.242.984-.178c.328 1.818.487 3.662.476 5.51a29.997 29.997 0 01-.49 5.49 3.78 3.78 0 01-2.638 2.72l-.014.004c-.533.143-1.375.233-2.255.297-.907.066-1.944.11-2.918.14a138.67 138.67 0 01-3.605.057h-.16a117.262 117.262 0 01-1.033-.007 138.66 138.66 0 01-2.572-.05 70.549 70.549 0 01-2.918-.14c-.88-.064-1.722-.154-2.255-.297l-.006-.001a3.78 3.78 0 01-2.638-2.611.996.996 0 01-.022-.096A30 30 0 010 12.248a30 30 0 01.49-5.532 3.78 3.78 0 012.638-2.72l.014-.003c.533-.143 1.375-.233 2.255-.297.907-.066 1.944-.11 2.918-.14A138.223 138.223 0 0111.92 3.5H12z"/><path fill-rule="evenodd" clip-rule="evenodd" d="M9.247 8.116a1 1 0 01.997-.005l5.75 3.27a1 1 0 010 1.738l-5.75 3.27a1 1 0 01-1.494-.869V8.98a1 1 0 01.497-.864zm1.503 2.583v3.102l2.727-1.551-2.727-1.55z" stroke-linecap="round" stroke-linejoin="round"/></symbol><symbol id="icon-tiktok"><path d="M22 10.544a9.646 9.646 0 01-5.485-1.692v7.686c0 3.84-3.256 6.962-7.258 6.962a7.426 7.426 0 01-4.159-1.261C3.228 20.979 2 18.894 2 16.539c0-3.84 3.256-6.963 7.258-6.963.333 0 .658.027.978.068v3.861a3.402 3.402 0 00-.978-.147c-1.827 0-3.314 1.427-3.314 3.18 0 1.222.722 2.282 1.778 2.815.46.232.982.365 1.537.365 1.785 0 3.242-1.363 3.309-3.06L12.57 1.5h3.944c0 .328.033.648.092.96.278 1.44 1.17 2.677 2.406 3.45a5.62 5.62 0 002.987.853v3.781H22z"/></symbol><symbol id="icon-question"><path d="M11 17a1 1 0 100-2 1 1 0 000 2z"/><path fill-rule="evenodd" clip-rule="evenodd" d="M11.356 7.56c-.486.021-.744.217-.834.407a1 1 0 11-1.81-.851c.523-1.11 1.648-1.514 2.556-1.554.875-.038 1.963.24 2.565 1.025.463.604.723 1.37.618 2.175-.107.816-.572 1.549-1.328 2.104-1.009.743-1.007 1.121-1.006 1.177v.002a1 1 0 11-2 0c0-.957.556-1.859 1.821-2.79.39-.286.505-.56.53-.752.027-.204-.031-.45-.222-.699-.014-.017-.087-.09-.27-.156a1.663 1.663 0 00-.62-.088z"/><path d="M11 22C4.9 22 0 17.1 0 11S4.9 0 11 0s11 4.9 11 11-4.9 11-11 11zm0-20c-5 0-9 4-9 9s4 9 9 9 9-4 9-9-4-9-9-9z"/></symbol><symbol id="icon-open"><path fill-rule="evenodd" clip-rule="evenodd" d="M15.427.33c.44.44.44 1.152 0 1.591L8.674 8.674c-.44.44-1.152.44-1.591 0L.33 1.921A1.125 1.125 0 011.922.33l5.957 5.957L13.836.33c.44-.44 1.152-.44 1.591 0z"/></symbol></defs></svg>