<svg width="24" height="25" fill="none" xmlns="http://www.w3.org/2000/svg"><path d="M21.167 10.707a8.843 8.843 0 01-5.029-1.551v7.046c0 3.52-2.984 6.381-6.652 6.381a6.807 6.807 0 01-3.813-1.156c-1.715-1.155-2.84-3.066-2.84-5.225 0-3.52 2.84-6.382 5.737-6.382.305 0 .603.024.896.062v3.539c-.105-.033-.574-.17-.896-.134-1.153.13-2.121 1.307-2.121 2.915 0 1.12.662 2.091 1.629 2.58.421.212.9.334 1.41.334 1.636 0 2.971-1.248 3.032-2.805l.003-13.894h3.614c0 .3.031.594.085.88.255 1.32 1.073 2.454 2.205 3.162a5.15 5.15 0 002.739.782v3.466z" stroke="#0A2936" stroke-width="2" stroke-linejoin="round"/></svg>