<svg width="17" height="19" fill="none" xmlns="http://www.w3.org/2000/svg"><path d="M9.24.865V3.21l2.343-1.352.582 1.007L9.24 4.553v4.03l3.49-2.015V3.192h1.164v2.704l2.03-1.171.582 1.007-2.03 1.172 2.341 1.353-.581 1.007-2.924-1.688-3.49 2.015 3.49 2.015 2.924-1.688.582 1.008-2.342 1.352 2.03 1.172-.582 1.008-2.03-1.172v2.704H12.73v-3.376l-3.49-2.016v4.031l2.924 1.688-.582 1.008-2.342-1.352v2.344H8.078v-2.345l-2.342 1.353-.582-1.008 2.924-1.688v-4.03l-3.49 2.014v3.377H3.423v-2.705l-2.03 1.173-.582-1.008 2.03-1.172L.5 10.926l.582-1.008 2.923 1.688 3.49-2.015-3.49-2.015-2.923 1.688L.5 8.257l2.342-1.353-2.03-1.172.582-1.007 2.03 1.171V3.192h1.163v3.376l3.49 2.015v-4.03L5.155 2.865l.582-1.007L8.078 3.21V.865H9.24z" fill="#fff"/></svg>