<svg width="17" height="18" fill="none" xmlns="http://www.w3.org/2000/svg"><path d="M6.626.75h1.163c-.001 1.199-.274 1.945-1.027 3.155l-.438.688c-.504.809-.743 1.338-.825 1.974H4.327c.058-.622.22-1.144.526-1.746H2.557a5.817 5.817 0 0011.632.163l.003-.163-2.19.001c-.41.685-.611 1.172-.685 1.745h-1.172c.087-.939.411-1.65 1.11-2.75l.328-.513c.65-1.042.86-1.62.86-2.555h1.163c0 1.116-.237 1.84-.876 2.908l2.625.001v1.163c0 .397-.033.786-.097 1.164h1.26v1.163h-1.56a7.003 7.003 0 01-3.43 3.903l2.612 5.746-1.06.481-1.166-2.568H8.956v2.328H7.793V14.71H4.835l-1.167 2.567-1.059-.482 2.612-5.745a7.004 7.004 0 01-3.43-3.903H.23V5.985h1.26a7.014 7.014 0 01-.095-.986l-.002-.178V3.658H5.54l.226-.354c.65-1.042.86-1.62.86-2.555zM6.3 11.488l-.937 2.058h2.43V11.78a6.95 6.95 0 01-1.493-.29zm2.656.29v1.768h2.429l-.936-2.058a6.902 6.902 0 01-1.237.264l-.256.026zM9.534.749h1.164c-.001 1.2-.274 1.946-1.027 3.156l-.438.688c-.504.81-.743 1.339-.825 1.974H7.236c.087-.938.412-1.65 1.111-2.75l.328-.512c.649-1.042.859-1.62.86-2.556z" fill="#fff"/></svg>