<svg width="16" height="17" fill="none" xmlns="http://www.w3.org/2000/svg"><path d="M13.306.333a.582.582 0 01.545.378l.02.062.581 2.327a.582.582 0 01-.498.72l-.066.003H8.653v1.164H7.489V3.823H1.671v11.634h1.745A2.909 2.909 0 013 12.748l.06-.153L4.521 9.08 3.48 6.992a.582.582 0 01.453-.838L4 6.15h8.144a.582.582 0 01.547.78l-.027.062-.742 1.485h.804a2.909 2.909 0 012.905 2.782l.003.127v2.327H14.47v-2.327a1.745 1.745 0 00-1.643-1.743l-.102-.002h-.873l1.23 2.953a2.907 2.907 0 01-.357 2.864h1.745v1.163H1.09a.582.582 0 01-.578-.513l-.004-.069V.915a.582.582 0 01.514-.578L1.09.333h12.216zM6.12 11.967a3.862 3.862 0 00-1.693.366l-.294.708a1.82 1.82 0 00-.113.397l-.016.137-.005.138a1.745 1.745 0 001.643 1.742l.09.002h4.67l.134-.005a1.746 1.746 0 001.514-1.177c-.985-.07-1.705-.39-2.813-1.099l-.219-.141c-1.242-.812-1.848-1.068-2.898-1.068zm4.471-2.326H5.55l-.531 1.272a5.268 5.268 0 011.101-.109c1.273 0 2.045.303 3.345 1.134l.221.143c1.012.661 1.595.947 2.347 1.024l-.024-.064-1.418-3.4zm.61-2.327H4.94l.582 1.163h5.097l.582-1.163zm1.65-5.818H1.671v1.163h11.471l-.29-1.163z" fill="#fff"/></svg>