<svg width="16" height="18" fill="none" xmlns="http://www.w3.org/2000/svg"><path d="M15.696.167V1.33a7.562 7.562 0 00-.178 15.123l.178.002v1.164a8.726 8.726 0 01-.182-17.45l.182-.002zM.572.167h1.163v3.49H2.9V.167h1.163v3.49h1.163V.167H6.39v5.235a2.91 2.91 0 01-2.326 2.85l-.001 9.367H2.899V8.253A2.915 2.915 0 01.584 5.668l-.01-.135-.002-.13V.166zm15.124 3.49v1.164a4.072 4.072 0 00-.14 8.142l.14.002v1.163a5.236 5.236 0 01-.154-10.468l.154-.003zM5.225 4.821h-3.49v.567l.002.102a1.745 1.745 0 003.485.015l.003-.103v-.581z" fill="#fff"/></svg>