<svg width="18" height="17" fill="none" xmlns="http://www.w3.org/2000/svg"><path d="M16.832 12.352v2.295a1.53 1.53 0 01-1.668 1.53 15.14 15.14 0 01-6.603-2.349 14.918 14.918 0 01-4.59-4.59 15.141 15.141 0 01-2.349-6.633A1.53 1.53 0 013.145.936H5.44a1.53 1.53 0 011.53 1.316c.097.734.277 1.455.536 2.15a1.53 1.53 0 01-.345 1.614l-.971.971a12.242 12.242 0 004.59 4.591l.972-.972a1.53 1.53 0 011.614-.344 9.827 9.827 0 002.15.536 1.53 1.53 0 011.316 1.553z" stroke="#0A2936" stroke-width="1.53" stroke-linecap="round" stroke-linejoin="round"/></svg>