<svg width="19" height="19" fill="none" xmlns="http://www.w3.org/2000/svg"><path fill-rule="evenodd" clip-rule="evenodd" d="M3.06 4.302a.77.77 0 00-.765.765v9.181a.77.77 0 00.765.766h12.242a.77.77 0 00.765-.766v-9.18a.77.77 0 00-.765-.766H3.06zm-2.295.765A2.3 2.3 0 013.06 2.772h12.242a2.3 2.3 0 012.295 2.295v9.181a2.3 2.3 0 01-2.295 2.296H3.06a2.3 2.3 0 01-2.295-2.296v-9.18z" fill="#0A2936"/><path fill-rule="evenodd" clip-rule="evenodd" d="M.903 4.629A.765.765 0 011.97 4.44l7.21 5.049 7.212-5.048a.765.765 0 11.878 1.253L9.62 11.05a.765.765 0 01-.878 0l-7.65-5.356a.765.765 0 01-.19-1.064z" fill="#0A2936"/></svg>