<svg width="83" height="141" fill="none" xmlns="http://www.w3.org/2000/svg"><path d="M1.652 41.293c0-21.893 17.748-39.64 39.641-39.64 21.893 0 39.641 17.747 39.641 39.64v58.414c0 21.893-17.748 39.641-39.64 39.641-21.894 0-39.642-17.748-39.642-39.641V41.293z" stroke="#fff" stroke-width="3.304"/><path d="M7.441 42.232c0-18.691 15.152-33.843 33.844-33.843 18.69 0 33.843 15.152 33.843 33.843v56.542c0 18.691-15.152 33.843-33.843 33.843-18.692 0-33.844-15.152-33.844-33.843V42.232z" fill="#fff"/><path d="M21.388 110.824l.894 2.867h2.894l-2.34 1.772.893 2.867-2.34-1.772-2.342 1.772.894-2.867-2.34-1.772h2.893l.894-2.867zm20.113 0l.895 2.752h2.893l-2.34 1.701.894 2.753-2.342-1.701-2.34 1.701.893-2.753-2.34-1.701h2.893l.894-2.752zm10.061 0l.894 2.752h2.894l-2.341 1.701.894 2.753-2.341-1.701-2.341 1.701.894-2.753-2.341-1.701h2.894l.894-2.752zm10.056 0l.895 2.752h2.893l-2.34 1.701.893 2.753-2.34-1.701-2.342 1.701.895-2.753-2.342-1.701h2.894l.894-2.752zm-30.169 0l.894 2.867h2.894l-2.342 1.772.895 2.867-2.341-1.772-2.342 1.772.895-2.867-2.341-1.772h2.893l.895-2.867z" fill="#B59C93"/><path fill-rule="evenodd" clip-rule="evenodd" d="M38.666 40.012l.092-.07c.178-.138.354-.257.527-.354.177-.1.361-.185.55-.25.832-.29 1.658-.19 2.409.386.177-.161.39-.305.618-.426 1.61-.488 2.29.383 2.56.623-.798-.135-1.983-.016-2.62.545-.063.054.101.207.046.279-.09.12-.09.327-.183.482-.245-.243-.356-.42-.706-.474-.255-.04-.572-.062-.65-.114-.268-.175-.259-.529-.644-.547-.773-.038-1.233.407-2-.08zm-2.723 2.522l.064-.05c.125-.096.25-.18.37-.247.125-.07.254-.13.386-.176.584-.203 1.164-.133 1.691.27.124-.113.274-.213.434-.298 1.13-.342 1.608.269 1.797.437-.56-.095-1.392-.012-1.84.381-.043.039.072.146.033.196-.063.085-.063.23-.128.338-.172-.17-.25-.295-.496-.333-.179-.027-.401-.043-.456-.079-.188-.123-.182-.37-.452-.383-.543-.027-.865.285-1.403-.056zm28.76 14.944a6.234 6.234 0 00-1.471-.183c-2.223 0-4.197 1.267-6.17 2.532-2.966 1.588-4.453 1.92-6.843 1.007-.67-.253-1.41-.609-2.273-1.06-5.057-3.202-7.033-3.165-12.098.024-1.292.629-2.282 1.076-3.13 1.341-2.164.68-3.39.18-6.323-1.453-1.975-1.214-3.883-2.387-5.76-2.39h-.005c-.488 0-.969.077-1.444.211-.881.25-1.352-.61-1.602-1.557-.221-.835-.33-1.725.422-2.18 1.02-.617 1.941-1.09 2.624-1.09h.005c.992.002 2.531.948 4.121 1.926 2.107 1.295 4.295 2.64 6.522 2.64h.006c1.224-.001 2.405-.407 3.56-.988 6.964-3.491 7.018-3.635 14.007-.059 1.198.613 2.43 1.047 3.73 1.047 2.222 0 4.197-1.268 6.169-2.534 1.58-1.015 3.165-2.031 4.482-2.031.9 0 1.922.485 2.985 1.118.683.407.392 1.331-.02 2.234-.365.799-.768 1.622-1.494 1.445zm-1.426 4.105a26.723 26.723 0 01-2.522 3.014c-1.593 1.643-3.344 2.847-5.314 3.981-1.016.588-1.996 1.025-2.86 1.025-1.346 0-3.003-1.05-4.635-2.085-1.965-1.245-3.908-2.478-6.011-2.478h-.006c-2.106 0-4.088 1.247-6.08 2.502-1.63 1.025-3.273 2.06-4.565 2.061h-.006c-.882 0-1.962-.477-3.09-1.105-2.097-1.172-3.773-2.49-5.442-4.279a26.735 26.735 0 01-2.212-2.706c-.444-.623-1.04-1.086.096-1.086h.005c.06 0 .126.006.192.011.992.109 2.439.997 3.93 1.913 4.635 2.642 6.857 3.199 10.873 1.088 6.041-3.18 6.622-3.047 12.492-.056 3.751 1.91 6.36 1.477 10.628-.927 1.58-1.014 3.164-2.03 4.482-2.03 1.204.001.538.468.045 1.157zm-15.715 10.39c-1.822.368-3.7.613-5.633.613-1.792 0-3.542-.192-5.235-.53-1.156-.23-.846-.826.817-1.873 1.603-1.008 3.198-2.012 4.418-2.012h.006c1.198.001 2.758.99 4.336 1.989 1.27.805 2.19 1.63 1.29 1.812z" fill="#B59C93"/><path d="M54.821 55.463c2.656-.632 7.334-3.014 8.694-2.75 1.36.263-.063 1.138-.063 1.138l-5.533 3.983-8.851-.284-6.228-2.371-9.01 3.445-10.432-1.991-4.553-3.13c.232-.21.727-.67 1.613-.822 1.675-.287 3.16 1.739 6.512 1.897 3.35.158 5.532-1.391 15.206-1.075 3.782.124 9.326 2.75 12.645 1.96z" fill="#B59C93"/><path fill-rule="evenodd" clip-rule="evenodd" d="M43.877 36.373c.436.047.443.069.865.15.733.142.894.198 1.116-.529l5.296-17.282c.425-1.39-.22-1.346-1.32-1.69a26.157 26.157 0 00-4.623-.993c-1.048-.127-1.067.366-1.122 1.406l-.922 18.299c-.023.449.064.569.71.64zm4.552 1.306c.37.17.727.354 1.08.55.663.372.708.103 1.177-.519l9.571-12.672c.693-.924.622-1.194-.222-2.006-1.216-1.17-2.112-1.852-3.49-2.737-1.005-.644-1.236-.629-1.69.44l-6.62 15.522c-.346.808-.59 1.06.194 1.422zm3.84 2.53c.402.363.636.624.999 1.027.421.469.49.546 1.028.196l11.42-7.39c.802-.52 1.079-.738.721-1.634a26.435 26.435 0 00-2.259-4.398c-.628-.985-.917-.31-1.67.498l-9.99 10.652c-.43.46-.715.63-.249 1.05zm3.206 4.037c.252.458.402.769.608 1.253.247.586.287.653.913.507l10.383-2.403c1.111-.256.92-.35.92-1.5 0-1.263-.092-2.505-.267-3.722-.173-1.208-.811-.9-1.91-.343l-10.102 5.11c-.713.365-.925.408-.545 1.098zM40.21 36.373c-.436.047-.442.069-.866.15-.734.142-.893.198-1.115-.529l-5.297-17.282c-.423-1.39.218-1.346 1.32-1.69 1.488-.463 3.035-.8 4.623-.993 1.047-.127 1.067.366 1.123 1.406l.92 18.299c.023.449-.064.569-.708.64zm-4.553 1.306c-.369.17-.728.354-1.079.55-.664.372-.709.103-1.178-.519l-9.57-12.672c-.694-.924-.622-1.194.221-2.006 1.216-1.17 2.112-1.852 3.49-2.737 1.004-.644 1.236-.629 1.689.44l6.622 15.522c.345.808.59 1.06-.195 1.422zm-3.841 2.53c-.402.363-.636.624-.998 1.027-.422.469-.491.546-1.029.196l-11.42-7.39c-.8-.52-1.078-.738-.72-1.634a26.487 26.487 0 012.258-4.398c.628-.985.918-.31 1.672.498l9.99 10.652c.429.46.713.63.247 1.05zm-3.206 4.037c-.252.458-.402.769-.607 1.253-.247.586-.286.653-.913.507l-10.383-2.403c-1.112-.256-.92-.35-.92-1.5 0-1.263.092-2.505.266-3.722.173-1.208.812-.9 1.91-.343l10.103 5.11c.713.365.925.408.544 1.098zm21.621-3.642s.287 1.312.603 1.62c0 0-.33-.169-.202.139.13.306.316 1.298.89 1.744 0 0-.53-.21-.43-.028.1.182-.517-.447-.388-.167.13.279.438.979.84 1.328 0 0-.43-.056-.172.279s.724 1.154 1.011 1.378c.287.223-.495-.19-.38.13.114.322-.565-.495-.479-.272.086.224-.274.023-.145.26.129.237-.545-.368-.531-.145.014.224.789.862 1.133 1.322 0 0-.631-.084-.129.35.502.432.589 1.12 1.35 1.538 0 0-.503-.292-.374.112.13.405-.488-.083-.459.098.029.181-.287-.307-.301-.042-.015.265-.531-.586-.531-.293s-.244-.167-.244.07c0 .237.589 1.062 1.263 1.592.674.53-.962-.415-.029.402.933.818 1.148 1.06 1.65 1.395.502.336-.99-.228-.89.134.101.362-.674-.147-.587.068.085.214-.489-.403-.503-.068-.014.336-.574-.348-.53-.12.043.228-.302-.135-.316.094-.014.228-.43-.135-.387-.027.043.107-.015 1.435.373 2.16h-2.21c.388-.725.33-2.053.373-2.16.043-.108-.373.255-.387.027-.014-.229-.359.134-.316-.094.043-.228-.516.456-.53.12-.015-.335-.589.282-.503.068.087-.215-.688.295-.588-.068.1-.361-1.392.202-.89-.134.503-.335.718-.577 1.65-1.395.933-.817-.702.128-.028-.402.674-.53 1.263-1.355 1.263-1.592 0-.237-.244.223-.244-.07 0-.293-.517.558-.53.293-.015-.265-.331.224-.302.042.028-.181-.588.307-.46-.098.13-.404-.372-.111-.372-.111.76-.42.846-1.107 1.348-1.54.503-.432-.129-.349-.129-.349.345-.46 1.12-1.099 1.134-1.322.014-.223-.66.383-.531.145.13-.237-.232-.037-.146-.26.087-.223-.593.594-.478.273.115-.32-.668.092-.38-.131.287-.224.753-1.043 1.011-1.378.258-.335-.172-.28-.172-.28.401-.348.71-1.048.839-1.327.13-.28-.488.349-.387.167.1-.181-.43.028-.43.028.573-.446.76-1.438.89-1.745.128-.307-.202-.139-.202-.139.314-.307.601-1.619.601-1.619zm5.592 9.169s.11.5.23.617c0 0-.126-.063-.077.054.05.117.12.495.34.665 0 0-.203-.079-.164-.01.038.069-.197-.17-.148-.064.049.107.167.374.32.507 0 0-.164-.021-.066.106.099.128.277.441.386.526.11.085-.189-.072-.145.05.044.123-.215-.19-.182-.104.032.085-.105.009-.056.1.05.09-.208-.141-.203-.056.006.085.301.329.433.504 0 0-.24-.032-.05.134.192.165.225.427.515.587 0 0-.191-.112-.142.043.05.154-.186-.032-.175.037.01.07-.11-.117-.115-.016-.005.101-.202-.224-.202-.112s-.093-.064-.093.026c0 .091.224.406.481.608.258.202-.366-.159-.01.154.355.312.437.404.629.532s-.378-.087-.34.051c.039.138-.257-.056-.224.026s-.186-.154-.192-.026c-.005.128-.218-.133-.202-.046.017.087-.115-.051-.12.036-.006.087-.165-.051-.148-.01.016.04-.006.547.142.824h-.843c.148-.277.126-.784.143-.825.016-.04-.143.098-.148.01-.005-.086-.137.052-.12-.035.016-.087-.197.174-.203.046-.005-.128-.224.108-.192.026.033-.082-.262.112-.224-.026.038-.138-.53.077-.34-.051.192-.128.274-.22.63-.532.356-.313-.268.048-.01-.154.257-.202.481-.517.481-.608 0-.09-.093.086-.093-.026 0-.112-.197.213-.202.112-.006-.101-.126.085-.115.016.01-.07-.225.117-.175-.037.049-.155-.143-.043-.143-.043.29-.16.323-.422.515-.587.192-.165-.05-.134-.05-.134.132-.175.428-.419.433-.504.006-.085-.251.146-.202.055.05-.09-.089-.014-.055-.099.032-.085-.227.227-.183.104.044-.122-.255.035-.145-.05.11-.085.287-.398.386-.526.098-.127-.066-.106-.066-.106.153-.133.271-.4.32-.507.05-.106-.186.133-.148.064.039-.07-.164.01-.164.01.22-.17.29-.548.34-.665.049-.117-.077-.053-.077-.053.119-.117.228-.618.228-.618zm-27.815.252s.087.403.183.496c0 0-.1-.05-.061.044.04.093.096.398.27.535 0 0-.16-.065-.13-.01.03.056-.158-.136-.118-.051.04.086.133.3.255.407 0 0-.13-.017-.052.086.078.103.22.354.308.423.087.068-.151-.058-.116.04.035.098-.172-.152-.146-.084.027.069-.083.007-.044.08.04.072-.166-.113-.162-.045.005.069.24.265.346.405 0 0-.192-.025-.04.108.153.132.18.343.411.472 0 0-.153-.09-.113.034.039.124-.15-.026-.14.03.009.056-.088-.094-.092-.013-.005.081-.162-.18-.162-.09s-.074-.051-.074.022c0 .072.179.325.384.488.206.163-.292-.127-.008.123.284.252.35.325.502.428.153.103-.301-.07-.27.042.03.11-.206-.046-.18.02.026.066-.149-.123-.153-.02-.004.102-.175-.107-.162-.037.014.07-.091-.041-.096.029-.004.07-.13-.042-.117-.01.012.034-.005.442.113.663h-.673c.119-.221.101-.629.114-.662.013-.033-.114.078-.118.009-.004-.07-.11.04-.096-.029.013-.07-.157.14-.162.037-.004-.103-.179.086-.152.02.026-.066-.21.09-.18-.02.03-.112-.424.061-.27-.041.152-.103.218-.177.502-.429.284-.25-.214.04-.009-.123s.384-.416.384-.488c0-.073-.074.068-.074-.022s-.157.171-.161.09c-.004-.081-.101.069-.092.013.009-.056-.18.094-.14-.03.04-.124-.114-.034-.114-.034.232-.129.258-.34.41-.472.154-.133-.038-.108-.038-.108.104-.14.34-.336.345-.405.004-.068-.201.117-.162.044.04-.072-.07-.01-.044-.079.026-.069-.18.182-.146.084.035-.098-.203.028-.116-.04.087-.069.23-.32.308-.423.079-.102-.052-.086-.052-.086.122-.106.216-.321.255-.407.04-.086-.148.107-.117.052.03-.056-.132.008-.132.008.175-.136.232-.44.271-.534.04-.095-.06-.044-.06-.044.095-.094.183-.496.183-.496z" fill="#B59C93"/><path d="M30.503 49.184c.037-.257.064-.516.112-.771.127-.69.362-1.34.772-1.919.372-.525.867-.886 1.456-1.128.796-.325 1.63-.484 2.48-.584a21.86 21.86 0 013.036-.125c1.12.025 2.236.092 3.326.379.53.14 1.04.328 1.472.682.325.266.541.604.673 1 .25.753.412 1.527.545 2.307.081.478.15.958.21 1.44.04.338.013.677-.086 1.005-.188.625-.621.977-1.253 1.089a3.56 3.56 0 01-.602.05c-1.142.004-2.285-.001-3.427.005-.144 0-.188-.05-.206-.184-.088-.665-.64-1.178-1.337-1.256-.62-.068-1.277.343-1.498.94a1.332 1.332 0 00-.085.316c-.014.136-.065.184-.208.183-.968-.006-1.936-.003-2.903-.003-.271 0-.543-.016-.812.003-.557.039-.908-.249-1.16-.7-.299-.533-.418-1.118-.477-1.72-.005-.053-.018-.105-.027-.158v-.851zm9.41-.33v2.308c0 .198.054.252.254.252h1.72c.192 0 .252-.06.252-.257v-4.601c0-.202-.06-.26-.265-.26h-1.678c-.238 0-.283.046-.283.28v2.279zm-5.41-2.561H33.25c-.185 0-.226.041-.226.226-.002.421-.002.842 0 1.264 0 .192.04.232.237.232h2.475c.191 0 .235-.045.236-.235v-1.25c0-.196-.043-.236-.246-.237h-1.224zm4.597.87c0-.223.002-.447 0-.671-.003-.15-.05-.195-.202-.196h-1.333c-.152 0-.204.053-.204.208-.002.439-.002.878 0 1.317 0 .157.051.21.203.21h1.333c.155 0 .2-.048.202-.208.003-.22.001-.44 0-.66z" fill="#B59C93"/><path d="M37.523 51.67c.553 0 1.005.448 1.012 1.006a1.024 1.024 0 01-1.018 1.017 1.023 1.023 0 01-1.005-1.016 1.015 1.015 0 011.01-1.007zM17.064 92.24c0-.97.157-1.881.47-2.738a6.27 6.27 0 011.386-2.263 6.442 6.442 0 012.244-1.536c.887-.372 1.894-.558 3.02-.558 1.053 0 2.005.167 2.854.502.85.335 1.57.81 2.162 1.425.61.614 1.08 1.368 1.413 2.262.35.876.545 1.853.582 2.933.018.354.027.792.027 1.313 0 .503.028 1.061.084 1.676.055.614.157 1.266.304 1.955.148.67.379 1.35.693 2.04h-3.325a9.73 9.73 0 01-.693-2.152 5.275 5.275 0 01-1.828 1.676c-.74.41-1.626.615-2.66.615a6.565 6.565 0 01-2.716-.559 6.54 6.54 0 01-2.133-1.508 7.223 7.223 0 01-1.386-2.263 7.877 7.877 0 01-.498-2.82zm7.12-3.967c-.683 0-1.265.102-1.745.307-.48.205-.878.494-1.192.866a3.553 3.553 0 00-.665 1.257 6.044 6.044 0 00-.194 1.564c0 .559.065 1.08.194 1.564.148.484.37.913.665 1.285a3.29 3.29 0 001.192.838c.48.205 1.062.307 1.745.307 1.146 0 2.042-.316 2.688-.95.665-.651.998-1.666.998-3.044-.056-1.229-.37-2.197-.942-2.905-.573-.726-1.487-1.09-2.744-1.09zM37.833 99.25h-3.325V79.698h3.325V99.25zm6.657-13.49h3.823v3.127H44.49V99.25h-3.325V85.312c0-.987.157-1.918.47-2.793a6.268 6.268 0 011.386-2.263 6.442 6.442 0 012.245-1.536c.886-.372 1.902-.558 3.047-.558.204 0 .407.018.61.055.203.02.407.047.61.084v3.24a6.08 6.08 0 00-.527-.083 2.399 2.399 0 00-.526-.056c-.758 0-1.395.102-1.912.307a3.246 3.246 0 00-1.22.838 2.832 2.832 0 00-.664 1.229c-.13.465-.194.968-.194 1.508v.475zm5.585 6.48c0-.97.157-1.881.471-2.738a6.27 6.27 0 011.386-2.263 6.442 6.442 0 012.244-1.536c.887-.372 1.894-.558 3.02-.558 1.053 0 2.005.167 2.854.502.85.335 1.57.81 2.162 1.425.61.614 1.08 1.368 1.413 2.262.35.876.545 1.853.582 2.933.018.354.027.792.027 1.313 0 .503.028 1.061.084 1.676.055.614.157 1.266.304 1.955.148.67.379 1.35.693 2.04H61.99a9.73 9.73 0 01-.693-2.152 5.275 5.275 0 01-1.828 1.676c-.74.41-1.626.615-2.66.615a6.565 6.565 0 01-2.716-.559 6.54 6.54 0 01-2.134-1.508 7.223 7.223 0 01-1.385-2.263 7.877 7.877 0 01-.499-2.82zm7.121-3.967c-.683 0-1.265.102-1.745.307-.48.205-.878.494-1.192.866a3.553 3.553 0 00-.665 1.257 6.044 6.044 0 00-.194 1.564c0 .559.065 1.08.194 1.564.148.484.37.913.665 1.285a3.29 3.29 0 001.192.838c.48.205 1.062.307 1.745.307 1.146 0 2.042-.316 2.688-.95.665-.651.998-1.666.998-3.044-.056-1.229-.37-2.197-.942-2.905-.573-.726-1.487-1.09-2.744-1.09zm-37.33 17.45h1.955v2.627a5.794 5.794 0 01-.852.212 5.92 5.92 0 01-.988.075c-.532 0-.983-.105-1.353-.315a2.055 2.055 0 01-.838-.92c-.19-.403-.286-.889-.286-1.457 0-.546.106-1.02.319-1.421.212-.403.52-.715.927-.934.405-.222.897-.333 1.474-.333.284 0 .559.028.824.086.267.055.512.131.733.229l-.3.709a3.407 3.407 0 00-.595-.212 2.71 2.71 0 00-.683-.086 1.86 1.86 0 00-.97.244 1.61 1.61 0 00-.623.687c-.146.294-.218.641-.218 1.042 0 .389.058.73.175 1.024.117.293.3.522.548.687.25.162.574.243.97.243.198 0 .366-.011.504-.032.139-.021.267-.045.383-.072v-1.349h-1.106v-.734zm4.6 2.842v-5.233h.86v4.503h2.222v.73h-3.081zm8.624 0l-.512-1.453h-2l-.513 1.453h-.905l1.947-5.254h.952l1.944 5.254h-.913zm-.734-2.19l-.497-1.432-.083-.262a49.582 49.582 0 01-.197-.647 7.848 7.848 0 01-.09.329 8.267 8.267 0 01-.1.336l-.07.244-.502 1.432h1.54zm5.989 2.19l-1.507-4.37h-.032a25.13 25.13 0 01.06 1.499v2.871h-.78v-5.233h1.207l1.45 4.177h.02l1.5-4.177h1.203v5.233h-.82v-2.913a20.34 20.34 0 01.03-1.049l.02-.401h-.028l-1.564 4.363h-.759zm7.414-5.233c.675 0 1.168.138 1.478.415.31.277.465.665.465 1.164 0 .226-.035.442-.107.647-.07.203-.184.383-.344.541a1.69 1.69 0 01-.633.369 2.97 2.97 0 01-.963.136h-.559v1.961h-.859v-5.233h1.522zm-.058.712h-.605v1.844h.47c.269 0 .498-.031.687-.093a.84.84 0 00.43-.305c.097-.138.146-.321.146-.547 0-.303-.092-.529-.276-.677-.181-.148-.465-.222-.852-.222zm4.439 4.521v-5.233H51v5.233h-.86zm8.001 0h-1.056l-2.563-4.177h-.032c.01.141.018.29.025.447.01.158.017.32.021.487.008.167.014.337.018.509v2.734h-.78v-5.233h1.049l2.56 4.149h.024a72.63 72.63 0 00-.04-.906 37.492 37.492 0 01-.01-.49v-2.753h.784v5.233zm4.879-2.842h1.955v2.627a5.795 5.795 0 01-.852.212 5.92 5.92 0 01-.988.075c-.532 0-.983-.105-1.353-.315a2.055 2.055 0 01-.838-.92c-.19-.403-.286-.889-.286-1.457 0-.546.106-1.02.319-1.421.212-.403.52-.715.927-.934.405-.222.897-.333 1.474-.333.284 0 .559.028.824.086.267.055.511.131.733.229l-.3.709a3.41 3.41 0 00-.595-.212 2.71 2.71 0 00-.683-.086 1.86 1.86 0 00-.97.244 1.61 1.61 0 00-.623.687c-.146.294-.218.641-.218 1.042 0 .389.058.73.175 1.024.117.293.3.522.548.687.25.162.574.243.97.243.198 0 .366-.011.504-.032.139-.021.267-.045.383-.072v-1.349H63.02v-.734z" fill="#B59C93"/></svg>