<svg width="24" height="43" fill="none" xmlns="http://www.w3.org/2000/svg"><path fill-rule="evenodd" clip-rule="evenodd" d="M15.64 20.024c.036-.342.052-.347.115-.678.109-.576.152-.702-.406-.876L2.076 14.314c-1.067-.334-1.034.171-1.298 1.036a20.92 20.92 0 00-.763 3.628c-.097.822.281.837 1.08.88l14.054.724c.344.017.437-.05.49-.558zm1.003-3.572c.13-.29.272-.57.422-.847.286-.521.079-.556-.398-.924L6.934 7.169c-.71-.543-.917-.487-1.54.175-.9.954-1.423 1.657-2.102 2.739-.495.788-.483.97.337 1.325l11.921 5.197c.621.27.814.463 1.093-.153zm1.943-3.014c.278-.315.48-.499.788-.783.36-.331.42-.386.151-.807L13.85 2.885c-.4-.629-.567-.846-1.255-.566a20.143 20.143 0 00-3.378 1.773c-.757.493-.238.72.382 1.312l8.18 7.839c.355.338.485.561.807.195zm3.1-2.516a9.07 9.07 0 01.963-.477c.45-.193.501-.225.39-.716L21.191 1.58c-.196-.872-.268-.722-1.152-.722-.97 0-1.923.073-2.858.21-.928.135-.692.636-.264 1.498l3.925 7.929c.28.56.314.726.843.428zm-6.046 11.98c.036.341.052.346.115.68.109.575.152.7-.406.874L2.076 28.613c-1.067.332-1.034-.17-1.298-1.036a20.929 20.929 0 01-.763-3.628c-.097-.822.281-.837 1.08-.88l14.054-.724c.344-.017.437.05.49.557zm1.003 3.573c.13.289.272.571.422.846.286.522.079.557-.398.925l-9.733 7.51c-.71.545-.917.489-1.54-.173-.9-.954-1.423-1.658-2.102-2.739-.495-.788-.483-.97.337-1.325l11.921-5.197c.621-.271.814-.463 1.093.153zm1.943 3.014c.278.316.48.5.788.783.36.332.42.386.151.807l-5.675 8.962c-.4.63-.567.847-1.255.566a20.184 20.184 0 01-3.378-1.772c-.757-.493-.238-.72.382-1.312l8.18-7.84c.355-.337.485-.56.807-.194zm3.1 2.516c.352.198.59.316.963.476.45.194.501.225.39.717l-1.847 8.148c-.196.873-.268.722-1.152.722-.97 0-1.923-.072-2.858-.209-.928-.135-.692-.637-.264-1.498l3.925-7.929c.28-.56.314-.726.843-.427z" fill="#0A2936"/></svg>