<svg width="13" height="18" fill="none" xmlns="http://www.w3.org/2000/svg"><path d="M7.94.865a1.745 1.745 0 011.742 1.643l.003.103v5.817h1.164a1.745 1.745 0 011.742 1.643l.003.102v5.236a1.746 1.746 0 01-1.643 1.742l-.102.003H5.613a1.746 1.746 0 01-1.742-1.643l-.003-.102V9.59H2.705A1.745 1.745 0 01.962 7.95L.96 7.846V2.611A1.745 1.745 0 012.602.868l.103-.003H7.94zm2.909 8.726H5.613a.582.582 0 00-.578.514l-.004.068v5.236a.582.582 0 00.514.577l.068.004h5.236a.582.582 0 00.577-.513l.004-.069v-5.235a.581.581 0 00-.513-.578l-.068-.004zm-4.072 4.072a.582.582 0 110 1.164.582.582 0 010-1.164zm2.908 0a.582.582 0 110 1.164.582.582 0 010-1.164zm-2.908-2.908a.582.582 0 110 1.163.582.582 0 010-1.163zm2.908 0a.582.582 0 110 1.163.582.582 0 010-1.163zM7.94 2.029H2.705a.582.582 0 00-.578.514l-.004.068v5.235a.582.582 0 00.513.578l.069.004H7.94a.582.582 0 00.578-.514l.004-.068V2.611a.582.582 0 00-.514-.578l-.068-.004zM6.777 6.1a.582.582 0 110 1.163.582.582 0 010-1.163zM3.868 3.192a.582.582 0 110 1.164.582.582 0 010-1.164z" fill="#fff"/></svg>