<svg width="18" height="17" fill="none" xmlns="http://www.w3.org/2000/svg"><path d="M1.215 16.621H.05V.333h1.164v6.98H16.34V.334h1.163v16.288H16.34l-.001-2.448-.302.044a9.88 9.88 0 01-4.248-.394 9.78 9.78 0 01-3.012.471c-3.082 0-5.824-1.423-7.562-3.632v5.96zm4.743-8.144H1.215v.005l.082.166c1.366 2.656 4.2 4.483 7.48 4.483.42 0 .833-.03 1.237-.087a9.353 9.353 0 01-4.056-4.567zm10.382 2.185a9.463 9.463 0 01-2.777 2.381c.922.133 1.86.117 2.777-.049v-2.332zM7.233 8.477c.908 1.877 2.542 3.361 4.555 4.114 2.01-.752 3.642-2.234 4.552-4.107v-.007H7.233z" fill="#fff"/></svg>