<svg width="25" height="44" fill="none" xmlns="http://www.w3.org/2000/svg"><path fill-rule="evenodd" clip-rule="evenodd" d="M16.515 20.312c.038-.362.055-.367.121-.717.115-.607.16-.74-.429-.924L2.192 14.282c-1.127-.352-1.092.181-1.37 1.094a22.09 22.09 0 00-.806 3.83c-.103.87.297.885 1.14.93l14.84.764c.364.019.461-.053.519-.588zm1.058-3.773c.139-.305.288-.602.446-.894.302-.55.084-.587-.42-.975L7.322 6.738c-.749-.574-.968-.515-1.627.184-.949 1.008-1.502 1.75-2.22 2.892-.522.833-.51 1.024.357 1.4l12.588 5.487c.656.286.86.489 1.153-.162zm2.052-3.182c.294-.332.506-.527.833-.827.38-.35.443-.407.159-.852l-5.993-9.463c-.422-.665-.598-.895-1.325-.598a21.267 21.267 0 00-3.567 1.872c-.799.52-.25.76.404 1.385l8.638 8.277c.374.357.511.593.851.206zm3.274-2.656a9.41 9.41 0 011.016-.504c.475-.204.53-.238.412-.756L22.377.836c-.207-.92-.283-.762-1.216-.762-1.024 0-2.031.076-3.018.221-.98.143-.73.672-.279 1.582l4.145 8.372c.295.591.33.767.89.452zm-6.384 12.65c.038.36.055.365.121.717.115.607.16.74-.429.923l-14.015 4.39c-1.127.35-1.092-.18-1.37-1.094a22.097 22.097 0 01-.806-3.83c-.103-.869.297-.885 1.14-.931l14.84-.763c.364-.019.461.053.519.587zm1.058 3.772c.139.305.288.603.446.894.302.55.084.588-.42.976L7.322 36.924c-.749.575-.968.516-1.627-.184-.949-1.007-1.502-1.75-2.22-2.891-.522-.833-.51-1.024.357-1.4l12.588-5.488c.656-.285.86-.488 1.153.162zm2.052 3.183c.294.333.506.527.833.826.38.351.443.408.159.853l-5.993 9.464c-.422.664-.598.894-1.325.596a21.305 21.305 0 01-3.567-1.87c-.799-.521-.25-.761.404-1.386l8.638-8.278c.374-.356.511-.592.851-.205zm3.274 2.657a9.59 9.59 0 001.016.502c.475.205.53.237.412.757l-1.95 8.604c-.207.922-.283.763-1.216.763-1.024 0-2.031-.077-3.018-.22-.98-.144-.73-.674-.279-1.584l4.145-8.371c.295-.592.33-.767.89-.451z" fill="#0A2936"/></svg>