<svg width="17" height="15" fill="none" xmlns="http://www.w3.org/2000/svg"><path d="M14.192 8.755a.582.582 0 11-1.164 0 .582.582 0 011.164 0zM3.139 8.173a.582.582 0 100 1.164.582.582 0 000-1.164zm12.038-2.908l.244.65a2.894 2.894 0 011.098 2.258v5.236c0 .641-.522 1.163-1.164 1.163h-1.163a1.165 1.165 0 01-1.164-1.163v-1.164H3.721v1.164c0 .641-.522 1.163-1.164 1.163H1.394A1.165 1.165 0 01.23 13.41V8.173c0-.916.434-1.725 1.099-2.258l.244-.65H.23V4.1h1.746v.089l1.058-2.824A1.169 1.169 0 014.124.61h8.501c.482 0 .92.303 1.09.754l1.059 2.824V4.1h1.745v1.164h-1.342zm-12.62 6.98H1.394v1.164h1.163v-1.164zm12.798 0h-1.163v1.164h1.163v-1.164zm0-1.163V8.173c0-.962-.783-1.745-1.745-1.745H3.14c-.963 0-1.746.783-1.746 1.745v2.909h13.961zM13.61 5.265h.324l-1.309-3.49H4.124l-1.309 3.49H13.61zM4.884 9.337h6.98V8.173h-6.98v1.164z" fill="#fff"/></svg>