<svg width="20" height="14" fill="none" xmlns="http://www.w3.org/2000/svg"><path d="M10.132 9.53a2.133 2.133 0 110 4.266 2.133 2.133 0 010-4.266zm0 1.164a.97.97 0 100 1.939.97.97 0 000-1.94zm0-4.266a5.235 5.235 0 014.678 2.884l-.88.88a4.074 4.074 0 00-7.596 0l-.881-.88a5.235 5.235 0 014.679-2.884zm0-3.102a8.33 8.33 0 016.943 3.72l-.841.842a7.17 7.17 0 00-6.102-3.399 7.17 7.17 0 00-6.102 3.4l-.842-.843a8.33 8.33 0 016.944-3.72zm0-3.103c3.752 0 7.083 1.807 9.17 4.598l-.833.832a10.264 10.264 0 00-8.338-4.267c-3.431 0-6.47 1.682-8.337 4.267L.962 4.82a11.424 11.424 0 019.17-4.597z" fill="#fff"/></svg>