<svg width="19" height="19" viewBox="0 0 19 19" fill="none" xmlns="http://www.w3.org/2000/svg">
<path fill-rule="evenodd" clip-rule="evenodd" d="M3.06042 4.30216C2.64137 4.30216 2.29532 4.6482 2.29532 5.06726V14.2484C2.29532 14.6674 2.64137 15.0135 3.06042 15.0135H15.3019C15.721 15.0135 16.067 14.6674 16.067 14.2484V5.06726C16.067 4.6482 15.721 4.30216 15.3019 4.30216H3.06042ZM0.765137 5.06726C0.765137 3.8031 1.79627 2.77197 3.06042 2.77197H15.3019C16.5661 2.77197 17.5972 3.8031 17.5972 5.06726V14.2484C17.5972 15.5125 16.5661 16.5437 15.3019 16.5437H3.06042C1.79627 16.5437 0.765137 15.5125 0.765137 14.2484V5.06726Z" fill="#0A2936"/>
<path fill-rule="evenodd" clip-rule="evenodd" d="M0.903385 4.62865C1.1457 4.28249 1.62276 4.1983 1.96893 4.44062L9.18112 9.48915L16.3933 4.44062C16.7395 4.1983 17.2165 4.28249 17.4588 4.62865C17.7012 4.97482 17.617 5.45188 17.2708 5.6942L9.61987 11.0499C9.35643 11.2343 9.0058 11.2343 8.74236 11.0499L1.09142 5.6942C0.745255 5.45188 0.661069 4.97482 0.903385 4.62865Z" fill="#0A2936"/>
</svg>
