<svg width="18" height="17" viewBox="0 0 18 17" fill="none" xmlns="http://www.w3.org/2000/svg">
<path d="M16.8321 12.3518V14.6471C16.833 14.8602 16.7893 15.0711 16.704 15.2663C16.6186 15.4615 16.4934 15.6368 16.3364 15.7809C16.1794 15.9249 15.994 16.0346 15.7922 16.1028C15.5903 16.1711 15.3764 16.1965 15.1642 16.1773C12.8099 15.9215 10.5484 15.117 8.56146 13.8284C6.71286 12.6538 5.14557 11.0865 3.97089 9.23787C2.67787 7.24189 1.87319 4.9694 1.62205 2.6045C1.60294 2.39293 1.62808 2.17969 1.69589 1.97837C1.76369 1.77704 1.87268 1.59205 2.0159 1.43515C2.15912 1.27825 2.33344 1.1529 2.52777 1.06706C2.72209 0.981229 2.93216 0.936798 3.14459 0.936598H5.43987C5.81118 0.932943 6.17115 1.06443 6.45268 1.30655C6.73421 1.54866 6.9181 1.88489 6.97006 2.25256C7.06694 2.9871 7.24661 3.70832 7.50563 4.40247C7.60857 4.67632 7.63085 4.97393 7.56982 5.26005C7.5088 5.54617 7.36704 5.8088 7.16134 6.01682L6.18967 6.98849C7.27882 8.90394 8.86478 10.4899 10.7802 11.5791L11.7519 10.6074C11.9599 10.4017 12.2226 10.2599 12.5087 10.1989C12.7948 10.1379 13.0924 10.1602 13.3662 10.2631C14.0604 10.5221 14.7816 10.7018 15.5162 10.7987C15.8878 10.8511 16.2272 11.0383 16.4699 11.3247C16.7125 11.611 16.8414 11.9766 16.8321 12.3518Z" stroke="#0A2936" stroke-width="1.53019" stroke-linecap="round" stroke-linejoin="round"/>
</svg>
