<svg width="24" height="43" viewBox="0 0 24 43" fill="none" xmlns="http://www.w3.org/2000/svg">
<path fill-rule="evenodd" clip-rule="evenodd" d="M15.6399 20.0244C15.6761 19.682 15.6924 19.6768 15.7553 19.3457C15.8639 18.7701 15.9069 18.6442 15.3487 18.47L2.07568 14.3138C1.00875 13.9802 1.04191 14.4855 0.778292 15.3496C0.422056 16.5169 0.163607 17.7314 0.0149773 18.9779C-0.0823111 19.8001 0.296249 19.8149 1.09486 19.8582L15.1489 20.5816C15.4934 20.5992 15.5856 20.5315 15.6399 20.0244ZM16.6426 16.4517C16.7735 16.1622 16.9148 15.8814 17.0647 15.605C17.3507 15.084 17.144 15.0487 16.6668 14.6809L6.93391 7.1693C6.2249 6.62551 6.01729 6.68164 5.39356 7.34357C4.49462 8.29786 3.9713 9.00108 3.29158 10.0827C2.7967 10.8713 2.80879 11.0526 3.62887 11.4082L15.5503 16.6049C16.1714 16.8759 16.3644 17.0678 16.6426 16.4517ZM18.5861 13.4381C18.8644 13.123 19.0651 12.9391 19.3743 12.6546C19.7344 12.3238 19.7939 12.2692 19.525 11.8475L13.8497 2.8854C13.45 2.25614 13.2829 2.03869 12.5946 2.31943C11.4118 2.80281 10.2806 3.39869 9.21674 4.09224C8.46037 4.5851 8.97904 4.81226 9.59932 5.40361L17.7798 13.2426C18.1339 13.5805 18.2639 13.8043 18.5861 13.4381ZM21.6865 10.9225C22.038 10.7244 22.2767 10.6065 22.6488 10.4454C23.0984 10.2518 23.1501 10.2201 23.0382 9.729L21.1921 1.58005C20.9956 0.707988 20.9241 0.858352 20.0402 0.858352C19.0703 0.858352 18.1166 0.930625 17.1819 1.06787C16.2541 1.20339 16.4901 1.70422 16.9183 2.56597L20.8431 10.4946C21.1231 11.0544 21.1567 11.2209 21.6865 10.9225ZM15.6399 22.9017C15.6761 23.2433 15.6924 23.2485 15.7553 23.5812C15.8639 24.1569 15.9069 24.2819 15.3487 24.4561L2.07568 28.6133C1.00875 28.9455 1.04191 28.4421 0.778292 27.5773C0.422057 26.4096 0.163607 25.1955 0.0149775 23.9491C-0.082311 23.1271 0.296249 23.1121 1.09486 23.0682L15.1489 22.3454C15.4934 22.3279 15.5856 22.3957 15.6399 22.9017ZM16.6426 26.4748C16.7735 26.7639 16.9148 27.0461 17.0647 27.3211C17.3507 27.8428 17.144 27.8778 16.6668 28.2459L6.93391 35.7568C6.2249 36.3013 6.01729 36.2449 5.39356 35.5825C4.49462 34.6289 3.9713 33.9253 3.29158 32.8443C2.7967 32.0561 2.80879 31.8743 3.62887 31.5187L15.5503 26.3216C16.1714 26.051 16.3644 25.8591 16.6426 26.4748ZM18.5861 29.4891C18.8644 29.8046 19.0651 29.9882 19.3743 30.2719C19.7344 30.6038 19.7939 30.6576 19.525 31.0794L13.8497 40.0415C13.45 40.6705 13.2829 40.8882 12.5946 40.6067C11.4118 40.1244 10.2806 39.5272 9.21675 38.8354C8.46037 38.3419 8.97904 38.1145 9.59932 37.5229L17.7798 29.6835C18.1339 29.3464 18.2639 29.1229 18.5861 29.4891ZM21.6865 32.0051C22.038 32.2026 22.2767 32.3207 22.6488 32.4812C23.0984 32.6754 23.1501 32.7058 23.0382 33.1977L21.1921 41.3461C20.9956 42.2188 20.9241 42.0682 20.0402 42.0682C19.0703 42.0682 18.1166 41.9961 17.1819 41.8595C16.2541 41.724 16.4901 41.2224 16.9183 40.3606L20.8431 32.4324C21.1231 31.8722 21.1567 31.7063 21.6865 32.0051Z" fill="#0A2936"/>
</svg>
