<svg width="83" height="141" viewBox="0 0 83 141" fill="none" xmlns="http://www.w3.org/2000/svg">
<path d="M1.65213 41.2931C1.65213 19.4 19.4 1.65213 41.2931 1.65213C63.1862 1.65213 80.934 19.4 80.934 41.2931V99.7069C80.934 121.6 63.1862 139.348 41.2931 139.348C19.4 139.348 1.65213 121.6 1.65213 99.7069V41.2931Z" stroke="white" stroke-width="3.30425"/>
<path d="M7.44116 42.2321C7.44116 23.5409 22.5934 8.38867 41.2846 8.38867C59.9758 8.38867 75.128 23.5409 75.128 42.2321V98.7737C75.128 117.465 59.9758 132.617 41.2846 132.617C22.5934 132.617 7.44116 117.465 7.44116 98.7737V42.2321Z" fill="white"/>
<path d="M21.3883 110.824L22.2825 113.691H25.1763L22.8352 115.463L23.7294 118.33L21.3883 116.558L19.0471 118.33L19.9414 115.463L17.6002 113.691H20.494L21.3883 110.824Z" fill="#B59C93"/>
<path d="M41.5013 110.824L42.3956 113.576H45.2894L42.9482 115.277L43.8425 118.03L41.5013 116.329L39.1602 118.03L40.0544 115.277L37.7133 113.576H40.6071L41.5013 110.824Z" fill="#B59C93"/>
<path d="M51.5619 110.824L52.4561 113.576H55.3499L53.0088 115.277L53.903 118.03L51.5619 116.329L49.2207 118.03L50.115 115.277L47.7738 113.576H50.6676L51.5619 110.824Z" fill="#B59C93"/>
<path d="M61.6184 110.824L62.5126 113.576H65.4064L63.0653 115.277L63.9595 118.03L61.6184 116.329L59.2772 118.03L60.1715 115.277L57.8303 113.576H60.7241L61.6184 110.824Z" fill="#B59C93"/>
<path d="M31.4486 110.824L32.3428 113.691H35.2366L32.8955 115.463L33.7897 118.33L31.4486 116.558L29.1074 118.33L30.0017 115.463L27.6605 113.691H30.5543L31.4486 110.824Z" fill="#B59C93"/>
<path fill-rule="evenodd" clip-rule="evenodd" d="M38.6658 40.0124C38.6817 40.0001 38.714 39.9754 38.7579 39.9417C38.936 39.8038 39.1123 39.6848 39.285 39.5884C39.4621 39.4885 39.646 39.4032 39.8346 39.3383C40.6668 39.0489 41.4932 39.1476 42.2437 39.7241C42.4208 39.5626 42.6338 39.419 42.8616 39.2979C44.4711 38.8099 45.1529 39.6815 45.422 39.9215C44.6235 39.7858 43.4391 39.9047 42.8021 40.4656C42.7393 40.5205 42.903 40.6731 42.8482 40.7449C42.7574 40.8659 42.7585 41.0724 42.6653 41.2271C42.4197 40.9838 42.3087 40.8066 41.9586 40.7527C41.7043 40.7134 41.3869 40.6911 41.3093 40.6394C41.0412 40.4645 41.0503 40.11 40.6646 40.0921C39.8919 40.0539 39.4319 40.4991 38.6658 40.0124Z" fill="#B59C93"/>
<path fill-rule="evenodd" clip-rule="evenodd" d="M35.9427 42.5337C35.9539 42.525 35.9766 42.5077 36.0074 42.4841C36.1324 42.3875 36.2561 42.3041 36.3774 42.2366C36.5016 42.1666 36.6307 42.1068 36.7631 42.0613C37.3472 41.8585 37.9272 41.9277 38.454 42.3317C38.5783 42.2185 38.7277 42.1179 38.8876 42.033C40.0173 41.691 40.4958 42.3018 40.6847 42.47C40.1243 42.3749 39.293 42.4582 38.8459 42.8512C38.8018 42.8897 38.9167 42.9966 38.8782 43.047C38.8145 43.1318 38.8153 43.2764 38.7499 43.3849C38.5775 43.2144 38.4996 43.0902 38.2539 43.0524C38.0754 43.0249 37.8526 43.0092 37.7981 42.973C37.61 42.8505 37.6164 42.6021 37.3457 42.5895C36.8033 42.5628 36.4805 42.8747 35.9427 42.5337Z" fill="#B59C93"/>
<path fill-rule="evenodd" clip-rule="evenodd" d="M64.7034 57.4781C64.221 57.3614 63.732 57.2952 63.2317 57.2952C61.009 57.2952 59.0352 58.5616 57.0623 59.8269C54.0956 61.4152 52.6086 61.7472 50.2186 60.8341C49.549 60.5807 48.8086 60.2251 47.9463 59.7742C42.8892 56.5718 40.9131 56.6088 35.8481 59.7977C34.5559 60.427 33.5658 60.8745 32.7177 61.1392C30.5539 61.819 29.3284 61.3186 26.3951 59.6856C24.4201 58.4719 22.5123 57.2986 20.6346 57.2952H20.6297C20.1418 57.2952 19.6613 57.3727 19.1857 57.5073C18.3047 57.7563 17.8338 56.897 17.5835 55.9504C17.3626 55.1147 17.2549 54.2252 18.0065 53.7697C19.0259 53.1529 19.9472 52.6807 20.6297 52.6807H20.6346C21.6266 52.6818 23.1661 53.6284 24.7565 54.6065C26.8627 55.9009 29.051 57.2458 31.2778 57.2458H31.2838C32.508 57.2448 33.6886 56.8387 34.8448 56.2577C41.8081 52.767 41.8618 52.6234 48.8513 56.1993C50.0492 56.8117 51.2816 57.2458 52.5817 57.2458C54.8033 57.2458 56.7783 55.9784 58.75 54.7119C60.3302 53.6969 61.9151 52.6807 63.2317 52.6807C64.1313 52.6807 65.154 53.1663 66.2173 53.7989C66.9003 54.2061 66.6087 55.1304 66.1962 56.0333C65.8317 56.832 65.429 57.6553 64.7034 57.4781ZM63.2767 61.5835C62.512 62.6491 61.6674 63.6563 60.7554 64.5974C59.1618 66.2395 57.411 67.4442 55.4415 68.5782C54.4254 69.166 53.4452 69.6034 52.5817 69.6034C51.2348 69.6034 49.578 68.5536 47.9463 67.5182C45.9814 66.2732 44.0377 65.0404 41.9347 65.0404H41.9292C39.823 65.0404 37.8412 66.2866 35.8481 67.5418C34.2191 68.5669 32.5755 69.6012 31.2839 69.6034H31.2779C30.3964 69.6034 29.3161 69.1255 28.1878 68.4975C26.0907 67.3264 24.415 66.0084 22.7457 64.2193C21.9505 63.3669 21.212 62.4628 20.5339 61.5127C20.0904 60.8901 19.4931 60.4269 20.6298 60.4269H20.6348C20.6959 60.4269 20.7611 60.4326 20.8272 60.4382C21.8186 60.5469 23.2659 61.4353 24.7565 62.3506C29.3925 64.9934 31.6142 65.5496 35.63 63.4387C41.6713 60.2597 42.2522 60.3922 48.1223 63.3825C51.873 65.2927 54.4816 64.8599 58.7501 62.456C60.3303 61.4421 61.9141 60.4269 63.2317 60.4269C64.4365 60.427 63.7701 60.8936 63.2767 61.5835ZM47.5616 71.9724C45.7402 72.3415 43.8628 72.586 41.9292 72.586C40.1368 72.586 38.3872 72.3941 36.6943 72.0554C35.5381 71.8266 35.8481 71.2299 37.5114 70.1833C39.1141 69.1749 40.7089 68.1711 41.9292 68.1711H41.9347C43.1326 68.1722 44.6926 69.1603 46.2706 70.1597C47.5414 70.9652 48.461 71.7908 47.5616 71.9724Z" fill="#B59C93"/>
<path d="M54.8212 55.4631C57.4767 54.8309 62.1554 52.4494 63.5148 52.7128C64.8742 52.9762 63.4516 53.8508 63.4516 53.8508L57.9193 57.8341L49.0676 57.5496L42.8398 55.1786L33.83 58.6244L23.3976 56.6328L18.8453 53.5031C19.0772 53.2923 19.5724 52.8329 20.4576 52.6812C22.1331 52.394 23.6189 54.4199 26.9699 54.5779C30.3209 54.736 32.5022 53.187 42.1759 53.5031C45.9582 53.6267 51.5018 56.2534 54.8212 55.4631Z" fill="#B59C93"/>
<path fill-rule="evenodd" clip-rule="evenodd" d="M43.8769 36.3733C44.3133 36.4204 44.3199 36.4417 44.7417 36.5237C45.4753 36.665 45.6356 36.721 45.8576 35.9942L51.1535 18.7119C51.5786 17.3227 50.9347 17.3659 49.8337 17.0227C48.3463 16.5588 46.7987 16.2223 45.2105 16.0288C44.1628 15.9021 44.1439 16.395 44.0888 17.4349L43.167 35.734C43.1445 36.1826 43.2309 36.3027 43.8769 36.3733ZM48.4293 37.6789C48.7983 37.8494 49.156 38.0334 49.5082 38.2285C50.1722 38.601 50.2171 38.3318 50.6858 37.7104L60.2572 25.0376C60.9501 24.1145 60.8786 23.8441 60.0352 23.032C58.8192 21.8615 57.9231 21.1801 56.5449 20.2951C55.5401 19.6507 55.309 19.6665 54.8559 20.7343L48.2342 36.2566C47.8888 37.0653 47.6443 37.3166 48.4293 37.6789ZM52.2693 40.2095C52.6709 40.5718 52.9053 40.8332 53.2677 41.2357C53.6893 41.7047 53.7589 41.7821 54.2962 41.432L65.7159 34.0424C66.5177 33.5219 66.7948 33.3044 66.437 32.4082C65.8211 30.8681 65.0618 29.3953 64.1781 28.01C63.5501 27.0252 63.2606 27.7005 62.5071 28.5081L52.5186 39.1596C52.0879 39.6206 51.8028 39.7899 52.2693 40.2095ZM55.4748 44.2464C55.7273 44.7041 55.8775 45.0148 56.0828 45.4993C56.3295 46.0848 56.3698 46.1521 56.9956 46.0064L67.3792 43.6026C68.4904 43.3468 68.2988 43.2537 68.2988 42.1028C68.2988 40.8399 68.2067 39.5982 68.0318 38.3811C67.8591 37.1731 67.221 37.4804 66.1229 38.0379L56.02 43.1483C55.3068 43.5128 55.0946 43.5565 55.4748 44.2464ZM40.2107 36.3733C39.7754 36.4204 39.7688 36.4417 39.3448 36.5237C38.6113 36.665 38.452 36.721 38.23 35.9942L32.9328 18.7119C32.5095 17.3227 33.151 17.3659 34.2529 17.0227C35.7408 16.5588 37.2878 16.2223 38.876 16.0288C39.9234 15.9021 39.9426 16.395 39.9985 17.4349L40.9195 35.734C40.9418 36.1826 40.8554 36.3027 40.2107 36.3733ZM35.6577 37.6789C35.2894 37.8494 34.9297 38.0334 34.5794 38.2285C33.9146 38.601 33.87 38.3318 33.401 37.7104L23.8304 25.0376C23.1367 24.1145 23.2085 23.8441 24.0525 23.032C25.2676 21.8615 26.1642 21.1801 27.5416 20.2951C28.546 19.6507 28.7776 19.6665 29.2307 20.7343L35.8529 36.2566C36.1977 37.0653 36.4422 37.3166 35.6577 37.6789ZM31.8169 40.2095C31.4148 40.5718 31.1809 40.8332 30.8194 41.2357C30.3965 41.7047 30.3279 41.7821 29.7904 41.432L18.3707 34.0424C17.5692 33.5219 17.2918 33.3044 17.6506 32.4082C18.2651 30.8681 19.0261 29.3953 19.9076 28.01C20.5364 27.0252 20.8262 27.7005 21.58 28.5081L31.5691 39.1596C31.9986 39.6206 32.2834 39.7899 31.8169 40.2095ZM28.6109 44.2464C28.3593 44.7041 28.2088 45.0148 28.0043 45.4993C27.7568 46.0848 27.7181 46.1521 27.0912 46.0064L16.7085 43.6026C15.5964 43.3468 15.7883 43.2537 15.7883 42.1028C15.7883 40.8399 15.8801 39.5982 16.0542 38.3811C16.2268 37.1731 16.866 37.4804 17.9641 38.0379L28.0665 43.1483C28.7803 43.5128 28.9916 43.5565 28.6109 44.2464Z" fill="#B59C93"/>
<path fill-rule="evenodd" clip-rule="evenodd" d="M50.2312 40.604C50.2312 40.604 50.518 41.9161 50.8339 42.2231C50.8339 42.2231 50.5034 42.0554 50.6325 42.3625C50.7618 42.6695 50.9483 43.6609 51.5221 44.1071C51.5221 44.1071 50.9912 43.8976 51.0915 44.0794C51.1918 44.2606 50.575 43.6324 50.7043 43.9117C50.8331 44.191 51.1419 44.8908 51.5435 45.2396C51.5435 45.2396 51.1132 45.1842 51.3716 45.5189C51.6297 45.8537 52.096 46.6734 52.3831 46.8968C52.67 47.1204 51.8878 46.7072 52.0028 47.0279C52.1175 47.349 51.4381 46.5323 51.5241 46.7554C51.61 46.9787 51.2496 46.7778 51.3786 47.015C51.5077 47.2525 50.8336 46.647 50.848 46.8703C50.8621 47.0937 51.637 47.7319 51.9813 48.1924C51.9813 48.1924 51.3499 48.1085 51.8523 48.5413C52.3544 48.9741 52.4406 49.6618 53.2011 50.0805C53.2011 50.0805 52.6987 49.7876 52.8281 50.1922C52.9571 50.5972 52.3405 50.1087 52.369 50.29C52.3978 50.4712 52.0822 49.9829 52.0675 50.2481C52.0532 50.5133 51.5369 49.6618 51.5369 49.9547C51.5369 50.2481 51.2932 49.7876 51.2932 50.025C51.2932 50.262 51.8815 51.0865 52.5556 51.6171C53.2301 52.1475 51.5944 51.2015 52.5271 52.0192C53.4598 52.8374 53.675 53.0792 54.1772 53.4144C54.6793 53.7497 53.187 53.1863 53.2878 53.5485C53.3882 53.9105 52.6133 53.4008 52.6995 53.6158C52.7855 53.8303 52.2115 53.2133 52.1974 53.5485C52.183 53.8838 51.6234 53.2002 51.6665 53.4275C51.7096 53.6557 51.3653 53.2934 51.3509 53.5216C51.3365 53.7497 50.9206 53.3869 50.9637 53.4948C51.0066 53.602 50.9491 54.9301 51.3365 55.6544H50.2319H49.1274C49.5148 54.9301 49.4573 53.602 49.5002 53.4948C49.5433 53.3872 49.1273 53.7497 49.113 53.5216C49.0986 53.2934 48.7543 53.6557 48.7974 53.4275C48.8402 53.1999 48.2809 53.8838 48.2665 53.5485C48.2524 53.2133 47.6782 53.8303 47.7644 53.6158C47.8506 53.4008 47.0757 53.9108 47.176 53.5485C47.2766 53.1865 45.7841 53.7497 46.2867 53.4144C46.7886 53.0792 47.0041 52.8374 47.9368 52.0192C48.8692 51.2015 47.2338 52.1472 47.9081 51.6171C48.5824 51.0865 49.1707 50.2617 49.1707 50.025C49.1707 49.7876 48.9269 50.2481 48.9269 49.9547C48.9269 49.6618 48.4105 50.5133 48.3961 50.2481C48.3817 49.9829 48.0659 50.4715 48.0946 50.29C48.1231 50.1087 47.5065 50.597 47.6356 50.1922C47.7649 49.7876 47.2625 50.0805 47.2625 50.0805C48.023 49.6618 48.109 48.9741 48.6111 48.5413C49.1135 48.1085 48.4823 48.1924 48.4823 48.1924C48.8266 47.7319 49.6015 47.0934 49.6156 46.8703C49.63 46.6472 48.9557 47.2525 49.085 47.015C49.2141 46.7778 48.8533 46.9785 48.9393 46.7554C49.0255 46.532 48.3462 47.349 48.4609 47.0279C48.5756 46.7072 47.7934 47.1204 48.0805 46.8968C48.3676 46.6734 48.8339 45.854 49.0921 45.5189C49.3504 45.1842 48.9199 45.2396 48.9199 45.2396C49.3214 44.8908 49.63 44.1908 49.759 43.9117C49.8881 43.6324 49.2713 44.2606 49.3719 44.0794C49.4722 43.8976 48.9413 44.1071 48.9413 44.1071C49.5153 43.6607 49.7016 42.6692 49.8311 42.3625C49.9602 42.0554 49.63 42.2231 49.63 42.2231C49.9443 41.9161 50.2312 40.604 50.2312 40.604Z" fill="#B59C93"/>
<path fill-rule="evenodd" clip-rule="evenodd" d="M55.8231 49.7729C55.8231 49.7729 55.9325 50.2736 56.053 50.3905C56.053 50.3905 55.927 50.3268 55.9764 50.4437C56.0258 50.5612 56.0969 50.9393 56.3159 51.1094C56.3159 51.1094 56.1135 51.03 56.1516 51.0991C56.1901 51.1679 55.9547 50.9285 56.0038 51.0348C56.053 51.1415 56.1707 51.4087 56.324 51.5418C56.324 51.5418 56.1596 51.5208 56.2582 51.6484C56.3568 51.7762 56.5347 52.089 56.6441 52.1742C56.7538 52.2594 56.4553 52.1016 56.4992 52.2244C56.5428 52.3466 56.2839 52.0348 56.3167 52.12C56.3492 52.2052 56.2118 52.1288 56.261 52.2191C56.3101 52.3098 56.0528 52.0787 56.0583 52.1639C56.0638 52.2491 56.3595 52.4928 56.4911 52.6683C56.4911 52.6683 56.2501 52.6365 56.4417 52.8019C56.6335 52.9667 56.666 53.2294 56.9564 53.3892C56.9564 53.3892 56.7646 53.277 56.8143 53.4316C56.8634 53.5861 56.628 53.3998 56.6391 53.4691C56.6499 53.5384 56.5297 53.3516 56.5241 53.453C56.5188 53.5543 56.3217 53.2294 56.3217 53.3408C56.3217 53.453 56.2287 53.277 56.2287 53.3675C56.2287 53.4583 56.453 53.7726 56.7104 53.9753C56.9678 54.1774 56.3436 53.8165 56.6993 54.1288C57.0553 54.4411 57.1374 54.5329 57.329 54.6609C57.5208 54.7892 56.9514 54.5742 56.9895 54.7121C57.0278 54.8505 56.7321 54.6561 56.7651 54.7381C56.7979 54.82 56.5788 54.5845 56.5733 54.7121C56.568 54.8401 56.3545 54.579 56.3709 54.6662C56.3875 54.7529 56.2562 54.615 56.2506 54.7018C56.2451 54.789 56.0863 54.6506 56.1027 54.6914C56.1193 54.7323 56.0974 55.2392 56.2451 55.5155H55.8239H55.4024C55.5504 55.2392 55.5282 54.7323 55.5448 54.6914C55.5612 54.6506 55.4024 54.789 55.3969 54.7018C55.3916 54.615 55.2602 54.7529 55.2766 54.6662C55.293 54.579 55.0795 54.8401 55.0742 54.7121C55.0687 54.5845 54.8499 54.8197 54.8824 54.7381C54.9151 54.6561 54.6197 54.8505 54.658 54.7121C54.6963 54.5742 54.1272 54.789 54.3185 54.6609C54.5101 54.5329 54.5922 54.4411 54.9482 54.1288C55.3038 53.8165 54.68 54.1774 54.9373 53.9753C55.1947 53.7726 55.419 53.4583 55.419 53.3675C55.419 53.2768 55.326 53.4527 55.326 53.3408C55.326 53.2291 55.1292 53.5543 55.1236 53.453C55.1183 53.3516 54.9976 53.5382 55.0087 53.4691C55.0198 53.3998 54.7843 53.5861 54.8335 53.4316C54.8829 53.277 54.6913 53.3892 54.6913 53.3892C54.9814 53.2294 55.0145 52.9667 55.206 52.8019C55.3979 52.6368 55.1569 52.6683 55.1569 52.6683C55.2882 52.4928 55.5841 52.2491 55.5894 52.1639C55.5947 52.0787 55.3376 52.3096 55.387 52.2191C55.4362 52.1288 55.2985 52.2055 55.3316 52.12C55.3641 52.0348 55.1052 52.3466 55.1488 52.2244C55.1927 52.1016 54.8945 52.2594 55.0039 52.1742C55.1133 52.089 55.2912 51.7759 55.3898 51.6484C55.4884 51.5208 55.324 51.5418 55.324 51.5418C55.4773 51.4087 55.595 51.1417 55.6444 51.0348C55.6935 50.9285 55.4584 51.1679 55.4964 51.0991C55.5347 51.0298 55.3323 51.1094 55.3323 51.1094C55.5514 50.9393 55.6225 50.5612 55.6719 50.4437C55.721 50.3268 55.595 50.3905 55.595 50.3905C55.7135 50.2736 55.8231 49.7729 55.8231 49.7729Z" fill="#B59C93"/>
<path fill-rule="evenodd" clip-rule="evenodd" d="M28.0076 50.0249C28.0076 50.0249 28.095 50.4275 28.191 50.5214C28.191 50.5214 28.0902 50.4702 28.1299 50.5645C28.1693 50.6584 28.226 50.9625 28.4008 51.0995C28.4008 51.0995 28.2394 51.0354 28.2698 51.0908C28.3002 51.1462 28.1123 50.9538 28.1519 51.039C28.1913 51.1248 28.2852 51.3398 28.4075 51.4464C28.4075 51.4464 28.2765 51.4295 28.355 51.5322C28.4335 51.6349 28.5756 51.8864 28.663 51.9547C28.7501 52.0234 28.5119 51.8965 28.5468 51.9949C28.582 52.0934 28.3751 51.8428 28.4013 51.9111C28.4276 51.9798 28.3176 51.9181 28.3569 51.9904C28.3963 52.0633 28.1913 51.8779 28.1955 51.9463C28.2 52.0149 28.4357 52.2107 28.5407 52.3514C28.5407 52.3514 28.3486 52.3258 28.5013 52.4586C28.6544 52.5913 28.6806 52.8023 28.9121 52.9306C28.9121 52.9306 28.7591 52.8409 28.7985 52.9649C28.8378 53.089 28.6499 52.9393 28.6585 52.9947C28.6675 53.0507 28.5714 52.9008 28.5667 52.9824C28.5625 53.0634 28.4052 52.8023 28.4052 52.8921C28.4052 52.9824 28.331 52.8409 28.331 52.914C28.331 52.9863 28.51 53.2392 28.7155 53.4024C28.9208 53.565 28.4228 53.2746 28.7069 53.5253C28.9906 53.7765 29.0562 53.8505 29.209 53.9535C29.3617 54.0561 28.9077 53.8831 28.9381 53.9948C28.9685 54.1057 28.7326 53.9492 28.7591 54.0153C28.7851 54.0812 28.6102 53.8919 28.606 53.9948C28.6019 54.0975 28.4315 53.8876 28.4443 53.958C28.4575 54.0274 28.3527 53.9166 28.3483 53.9867C28.3441 54.0564 28.2173 53.9453 28.2307 53.9779C28.2435 54.0111 28.226 54.4185 28.3441 54.6404H28.0076H27.6713C27.7895 54.4185 27.7721 54.0111 27.785 53.9779C27.7981 53.9453 27.6713 54.0564 27.6669 53.9867C27.6627 53.9163 27.5579 54.0274 27.5708 53.958C27.5839 53.8876 27.4136 54.0978 27.4094 53.9948C27.4052 53.8921 27.2301 54.0812 27.2566 54.0153C27.2826 53.949 27.0466 54.1057 27.0773 53.9948C27.1078 53.8834 26.6534 54.0561 26.8061 53.9535C26.9592 53.8508 27.0248 53.7768 27.3088 53.5253C27.5926 53.2746 27.0946 53.565 27.3002 53.4024C27.5054 53.2392 27.6844 52.9863 27.6844 52.914C27.6844 52.8411 27.6102 52.9824 27.6102 52.8921C27.6102 52.8023 27.4529 53.0634 27.4487 52.9824C27.4446 52.9008 27.3479 53.051 27.3569 52.9947C27.3655 52.9393 27.1776 53.089 27.217 52.9649C27.2563 52.8409 27.1033 52.9306 27.1033 52.9306C27.3348 52.8023 27.3611 52.5913 27.5138 52.4586C27.6669 52.3258 27.4747 52.3514 27.4747 52.3514C27.5794 52.2104 27.8154 52.0146 27.8196 51.9463C27.8238 51.8776 27.6188 52.0633 27.6579 51.9904C27.6973 51.9181 27.5875 51.9795 27.6138 51.9111C27.64 51.8425 27.4331 52.0934 27.468 51.9949C27.5032 51.8965 27.265 52.0234 27.3524 51.9547C27.4395 51.8861 27.5817 51.6349 27.6602 51.5322C27.7389 51.4295 27.6076 51.4464 27.6076 51.4464C27.73 51.3398 27.8238 51.1248 27.8635 51.039C27.9026 50.9535 27.7146 51.1462 27.7456 51.0908C27.776 51.0354 27.6144 51.0995 27.6144 51.0995C27.7895 50.9625 27.8459 50.6584 27.8855 50.5645C27.9249 50.4702 27.8241 50.5214 27.8241 50.5214C27.9204 50.4272 28.0076 50.0249 28.0076 50.0249Z" fill="#B59C93"/>
<path d="M30.5031 49.1836C30.5398 48.9267 30.5675 48.6682 30.6146 48.4129C30.7423 47.7224 30.9766 47.0739 31.3873 46.4942C31.7593 45.9689 32.2537 45.6075 32.8435 45.3661C33.6389 45.0405 34.4736 44.8815 35.3229 44.782C36.3321 44.6638 37.345 44.6343 38.3591 44.657C39.4786 44.6818 40.5955 44.749 41.6854 45.0358C42.2154 45.1751 42.7251 45.3639 43.1572 45.7182C43.4822 45.9844 43.6984 46.3222 43.8302 46.7178C44.0807 47.4708 44.2418 48.2452 44.3748 49.0253C44.4561 49.503 44.5253 49.9832 44.5842 50.4644C44.6253 50.8031 44.5976 51.1421 44.4988 51.4702C44.3112 52.0948 43.8779 52.4465 43.246 52.5588C43.0482 52.5936 42.8447 52.6076 42.6438 52.6083C41.5016 52.6129 40.3594 52.6079 39.2169 52.6135C39.0732 52.6142 39.0287 52.5635 39.0109 52.4297C38.9228 51.7654 38.371 51.2522 37.6737 51.1744C37.0543 51.1057 36.3969 51.5166 36.1763 52.1144C36.1386 52.2164 36.1025 52.3234 36.0913 52.4304C36.0769 52.5663 36.0261 52.6142 35.8834 52.6129C34.9154 52.6067 33.9474 52.6098 32.9797 52.6098C32.7089 52.6098 32.4372 52.5943 32.168 52.6129C31.611 52.6518 31.2602 52.3641 31.0078 51.9134C30.709 51.38 30.59 50.7947 30.5314 50.1938C30.5261 50.1403 30.513 50.0877 30.5037 50.0345C30.5031 49.7518 30.5031 49.4676 30.5031 49.1836ZM39.9126 48.8545C39.9126 49.6237 39.9123 50.3928 39.9129 51.162C39.9132 51.3604 39.9668 51.4136 40.1665 51.4139C40.7398 51.4146 41.3131 51.4149 41.8863 51.4139C42.0786 51.4136 42.1387 51.3539 42.1387 51.157C42.1393 49.6231 42.1393 48.0894 42.1387 46.5558C42.1387 46.3536 42.0783 46.2967 41.8739 46.2967C41.3143 46.2961 40.7547 46.2964 40.1955 46.2967C39.9584 46.2967 39.9129 46.3415 39.9126 46.5754C39.9123 47.3342 39.9126 48.0941 39.9126 48.8545ZM34.5026 46.2926C34.0857 46.2926 33.6682 46.292 33.2514 46.2929C33.0663 46.2933 33.0248 46.334 33.0245 46.5194C33.023 46.9402 33.023 47.3613 33.0245 47.7827C33.0252 47.975 33.0654 48.0151 33.2616 48.0151C34.0867 48.016 34.912 48.016 35.737 48.0151C35.9283 48.0148 35.9722 47.9697 35.9729 47.7796C35.9738 47.3635 35.9738 46.9467 35.9729 46.5306C35.9726 46.3343 35.9296 46.2936 35.727 46.2933C35.3186 46.2923 34.9107 46.2926 34.5026 46.2926ZM39.0997 47.1638C39.0997 46.9399 39.1019 46.7156 39.0991 46.4917C39.0972 46.3424 39.0499 46.297 38.8984 46.2964C38.4542 46.2948 38.0096 46.2948 37.5653 46.2964C37.4126 46.2967 37.3612 46.3486 37.3606 46.5041C37.3587 46.943 37.3587 47.3818 37.3606 47.8213C37.3612 47.9778 37.4123 48.0303 37.564 48.0306C38.0083 48.0322 38.4529 48.0322 38.8972 48.0306C39.0524 48.0303 39.0979 47.9827 39.0991 47.8226C39.1016 47.6027 39.1 47.3831 39.0997 47.1638Z" fill="#B59C93"/>
<path d="M37.5226 51.6699C38.0763 51.6693 38.5282 52.1183 38.5348 52.6757C38.5413 53.2263 38.0691 53.6984 37.517 53.6931C36.9658 53.6878 36.5073 53.2245 36.5116 52.6773C36.5163 52.1211 36.9683 51.6705 37.5226 51.6699Z" fill="#B59C93"/>
<path d="M17.0635 92.2392C17.0635 91.2709 17.2205 90.3585 17.5345 89.5019C17.8485 88.6267 18.3104 87.8726 18.9199 87.2394C19.5295 86.5877 20.2776 86.0756 21.1643 85.7032C22.051 85.3308 23.0577 85.1446 24.1845 85.1446C25.2374 85.1446 26.1888 85.3122 27.0385 85.6473C27.8882 85.9825 28.6086 86.4574 29.1997 87.0719C29.8093 87.6864 30.2804 88.4405 30.6129 89.3343C30.9638 90.2095 31.1578 91.1871 31.1947 92.2672C31.2132 92.621 31.2224 93.0586 31.2224 93.58C31.2224 94.0827 31.2502 94.6414 31.3056 95.2559C31.361 95.8704 31.4626 96.5221 31.6104 97.2111C31.7581 97.8814 31.989 98.5611 32.3031 99.2501H28.9781C28.664 98.5611 28.4331 97.8442 28.2854 97.0994C27.8051 97.807 27.1955 98.3656 26.4566 98.7753C25.7177 99.1849 24.831 99.3898 23.7966 99.3898C22.8176 99.3898 21.9124 99.2035 21.0812 98.8311C20.2499 98.4587 19.5388 97.9559 18.9476 97.3228C18.3565 96.6711 17.8947 95.9169 17.5622 95.0603C17.2297 94.1851 17.0635 93.2448 17.0635 92.2392ZM24.1845 88.2729C23.501 88.2729 22.9192 88.3753 22.4389 88.5802C21.9586 88.785 21.5615 89.0736 21.2474 89.4461C20.9519 89.7999 20.7302 90.2188 20.5824 90.703C20.4531 91.1871 20.3885 91.7085 20.3885 92.2672C20.3885 92.8258 20.4531 93.3472 20.5824 93.8313C20.7302 94.3155 20.9519 94.7438 21.2474 95.1162C21.5615 95.47 21.9586 95.7493 22.4389 95.9541C22.9192 96.159 23.501 96.2614 24.1845 96.2614C25.3298 96.2614 26.2257 95.9448 26.8722 95.3117C27.5372 94.66 27.8697 93.6451 27.8697 92.2672C27.8143 91.0382 27.5003 90.0699 26.9276 89.3623C26.355 88.636 25.4406 88.2729 24.1845 88.2729Z" fill="#B59C93"/>
<path d="M37.8333 99.2501H34.5083V79.6979H37.8333V99.2501Z" fill="#B59C93"/>
<path d="M44.4898 85.7591H48.3135V88.8874H44.4898V99.2501H41.1648V85.3122C41.1648 84.3252 41.3218 83.3942 41.6358 82.519C41.9498 81.6438 42.4116 80.8896 43.0212 80.2565C43.6308 79.6048 44.3789 79.0927 45.2656 78.7203C46.1523 78.3478 47.1682 78.1616 48.3135 78.1616C48.5167 78.1616 48.7199 78.1802 48.9231 78.2175C49.1263 78.2361 49.3295 78.264 49.5327 78.3013V81.5414C49.348 81.5041 49.1725 81.4762 49.0062 81.4576C48.84 81.4203 48.6645 81.4017 48.4798 81.4017C47.7224 81.4017 47.0851 81.5041 46.5679 81.709C46.0691 81.9138 45.6627 82.1931 45.3487 82.5469C45.0347 82.8821 44.813 83.2918 44.6837 83.7759C44.5544 84.2414 44.4898 84.7442 44.4898 85.2842V85.7591Z" fill="#B59C93"/>
<path d="M50.0754 92.2392C50.0754 91.2709 50.2324 90.3585 50.5464 89.5019C50.8604 88.6267 51.3223 87.8726 51.9318 87.2394C52.5414 86.5877 53.2895 86.0756 54.1762 85.7032C55.0629 85.3308 56.0696 85.1446 57.1964 85.1446C58.2493 85.1446 59.2007 85.3122 60.0504 85.6473C60.9001 85.9825 61.6205 86.4574 62.2116 87.0719C62.8212 87.6864 63.2923 88.4405 63.6248 89.3343C63.9757 90.2095 64.1697 91.1871 64.2066 92.2672C64.2251 92.621 64.2343 93.0586 64.2343 93.58C64.2343 94.0827 64.2621 94.6414 64.3175 95.2559C64.3729 95.8704 64.4745 96.5221 64.6223 97.2111C64.77 97.8814 65.0009 98.5611 65.315 99.2501H61.99C61.6759 98.5611 61.445 97.8442 61.2973 97.0994C60.817 97.807 60.2074 98.3656 59.4685 98.7753C58.7296 99.1849 57.8429 99.3898 56.8085 99.3898C55.8295 99.3898 54.9243 99.2035 54.0931 98.8311C53.2618 98.4587 52.5507 97.9559 51.9595 97.3228C51.3684 96.6711 50.9066 95.9169 50.5741 95.0603C50.2416 94.1851 50.0754 93.2448 50.0754 92.2392ZM57.1964 88.2729C56.5129 88.2729 55.9311 88.3753 55.4508 88.5802C54.9705 88.785 54.5734 89.0736 54.2593 89.4461C53.9638 89.7999 53.7421 90.2188 53.5943 90.703C53.465 91.1871 53.4004 91.7085 53.4004 92.2672C53.4004 92.8258 53.465 93.3472 53.5943 93.8313C53.7421 94.3155 53.9638 94.7438 54.2593 95.1162C54.5734 95.47 54.9705 95.7493 55.4508 95.9541C55.9311 96.159 56.5129 96.2614 57.1964 96.2614C58.3417 96.2614 59.2376 95.9448 59.8841 95.3117C60.5491 94.66 60.8816 93.6451 60.8816 92.2672C60.8262 91.0382 60.5122 90.0699 59.9395 89.3623C59.3669 88.636 58.4525 88.2729 57.1964 88.2729Z" fill="#B59C93"/>
<path d="M19.8664 105.723H21.8208V108.35C21.5464 108.441 21.2624 108.512 20.9689 108.562C20.6754 108.612 20.346 108.637 19.9809 108.637C19.4488 108.637 18.9978 108.532 18.6279 108.322C18.2604 108.109 17.9812 107.803 17.7903 107.402C17.5994 106.999 17.5039 106.513 17.5039 105.945C17.5039 105.399 17.6101 104.925 17.8225 104.524C18.0349 104.121 18.3439 103.809 18.7496 103.59C19.1553 103.368 19.6468 103.257 20.2243 103.257C20.5083 103.257 20.7827 103.285 21.0476 103.343C21.3149 103.398 21.5595 103.474 21.7814 103.572L21.4807 104.281C21.3042 104.197 21.1061 104.127 20.8865 104.069C20.667 104.012 20.4391 103.983 20.2029 103.983C19.8282 103.983 19.5049 104.065 19.2328 104.227C18.9632 104.389 18.7555 104.618 18.61 104.914C18.4644 105.208 18.3916 105.555 18.3916 105.956C18.3916 106.345 18.4501 106.686 18.567 106.98C18.684 107.273 18.8665 107.502 19.1147 107.667C19.3653 107.829 19.6886 107.91 20.0847 107.91C20.2828 107.91 20.451 107.899 20.5894 107.878C20.7278 107.857 20.8555 107.833 20.9724 107.806V106.457H19.8664V105.723Z" fill="#B59C93"/>
<path d="M24.4665 108.565V103.332H25.3256V107.835H27.5484V108.565H24.4665Z" fill="#B59C93"/>
<path d="M33.0899 108.565L32.5781 107.112H30.5771L30.0653 108.565H29.1596L31.1069 103.311H32.059L34.0027 108.565H33.0899ZM32.3561 106.375L31.8586 104.943C31.8395 104.881 31.8121 104.794 31.7763 104.681C31.7405 104.567 31.7047 104.451 31.6689 104.334C31.6331 104.215 31.6033 104.115 31.5794 104.034C31.5555 104.131 31.5257 104.241 31.4899 104.363C31.4565 104.482 31.4231 104.594 31.3897 104.699C31.3587 104.804 31.3348 104.886 31.3181 104.943L30.817 106.375H32.3561Z" fill="#B59C93"/>
<path d="M38.3451 108.565L36.8381 104.195H36.8059C36.8131 104.293 36.8214 104.426 36.831 104.596C36.8405 104.765 36.8489 104.946 36.856 105.14C36.8632 105.333 36.8668 105.518 36.8668 105.694V108.565H36.0864V103.332H37.2927L38.7424 107.509H38.7639L40.2637 103.332H41.4664V108.565H40.6467V105.652C40.6467 105.492 40.6491 105.319 40.6539 105.132C40.661 104.946 40.6682 104.77 40.6754 104.603C40.6849 104.436 40.6921 104.302 40.6968 104.202H40.6682L39.1039 108.565H38.3451Z" fill="#B59C93"/>
<path d="M45.7587 103.332C46.434 103.332 46.9268 103.47 47.237 103.747C47.5472 104.024 47.7024 104.412 47.7024 104.911C47.7024 105.137 47.6666 105.353 47.595 105.558C47.5258 105.761 47.4112 105.941 47.2513 106.099C47.0915 106.254 46.8803 106.377 46.6178 106.468C46.3577 106.558 46.0367 106.604 45.6549 106.604H45.0965V108.565H44.2374V103.332H45.7587ZM45.7014 104.044H45.0965V105.888H45.5654C45.835 105.888 46.0641 105.857 46.2527 105.795C46.4412 105.73 46.5844 105.629 46.6822 105.49C46.78 105.352 46.829 105.169 46.829 104.943C46.829 104.64 46.7371 104.414 46.5533 104.266C46.372 104.118 46.088 104.044 45.7014 104.044Z" fill="#B59C93"/>
<path d="M50.1404 108.565V103.332H50.9995V108.565H50.1404Z" fill="#B59C93"/>
<path d="M58.1411 108.565H57.0851L54.5222 104.388H54.49C54.4995 104.529 54.5079 104.678 54.515 104.835C54.5246 104.993 54.5317 105.155 54.5365 105.322C54.5437 105.489 54.5496 105.659 54.5544 105.831V108.565H53.7741V103.332H54.8229L57.3822 107.481H57.4073C57.4025 107.359 57.3965 107.219 57.3894 107.062C57.3822 106.904 57.375 106.742 57.3679 106.575C57.3631 106.406 57.3595 106.242 57.3571 106.085V103.332H58.1411V108.565Z" fill="#B59C93"/>
<path d="M63.0204 105.723L64.9748 105.723V108.35C64.7003 108.441 64.4164 108.512 64.1228 108.562C63.8293 108.612 63.5 108.637 63.1349 108.637C62.6027 108.637 62.1517 108.532 61.7818 108.322C61.4143 108.109 61.1351 107.803 60.9442 107.402C60.7533 106.999 60.6579 106.513 60.6579 105.945C60.6579 105.399 60.7641 104.925 60.9765 104.524C61.1888 104.121 61.4979 103.809 61.9035 103.59C62.3092 103.368 62.8008 103.257 63.3783 103.257C63.6623 103.257 63.9367 103.285 64.2016 103.343C64.4689 103.398 64.7135 103.474 64.9354 103.572L64.6347 104.281C64.4581 104.197 64.2601 104.127 64.0405 104.069C63.821 104.012 63.5931 103.983 63.3568 103.983C62.9822 103.983 62.6588 104.065 62.3868 104.227C62.1171 104.389 61.9095 104.618 61.7639 104.914C61.6184 105.208 61.5456 105.555 61.5456 105.956C61.5456 106.345 61.6041 106.686 61.721 106.98C61.8379 107.273 62.0205 107.502 62.2687 107.667C62.5192 107.829 62.8426 107.91 63.2387 107.91C63.4368 107.91 63.605 107.899 63.7434 107.878C63.8818 107.857 64.0095 107.833 64.1264 107.806V106.457L63.0204 106.457V105.723Z" fill="#B59C93"/>
</svg>
