<svg width="25" height="44" viewBox="0 0 25 44" fill="none" xmlns="http://www.w3.org/2000/svg">
<path fill-rule="evenodd" clip-rule="evenodd" d="M16.5145 20.312C16.5527 19.9504 16.5699 19.9449 16.6364 19.5953C16.751 18.9875 16.7965 18.8546 16.207 18.6706L2.19176 14.282C1.06516 13.9297 1.10018 14.4633 0.821815 15.3758C0.445658 16.6083 0.172756 17.8908 0.0158149 19.2069C-0.086914 20.0751 0.312815 20.0907 1.15609 20.1364L15.996 20.9003C16.3598 20.9189 16.4572 20.8474 16.5145 20.312ZM17.5733 16.5395C17.7115 16.2337 17.8607 15.9373 18.019 15.6454C18.321 15.0953 18.1027 15.058 17.5988 14.6696L7.32166 6.73798C6.573 6.16378 6.35378 6.22305 5.69517 6.92199C4.74596 7.92964 4.19338 8.67219 3.47565 9.81428C2.9531 10.647 2.96586 10.8385 3.8318 11.214L16.4198 16.7012C17.0757 16.9874 17.2795 17.19 17.5733 16.5395ZM19.6255 13.3574C19.9193 13.0246 20.1313 12.8304 20.4577 12.5301C20.838 12.1807 20.9008 12.123 20.6169 11.6778L14.6242 2.21451C14.2021 1.55007 14.0257 1.32045 13.2989 1.61689C12.0499 2.12731 10.8555 2.7565 9.73216 3.48884C8.93349 4.00926 9.48116 4.24912 10.1361 4.87354L18.774 13.1509C19.1479 13.5077 19.2852 13.744 19.6255 13.3574ZM22.8992 10.7011C23.2704 10.4919 23.5224 10.3674 23.9154 10.1972C24.3901 9.99281 24.4447 9.95941 24.3265 9.44081L22.3771 0.836169C22.1697 -0.0846605 22.0942 0.074111 21.1609 0.074111C20.1367 0.0741111 19.1297 0.150424 18.1427 0.295345C17.163 0.438445 17.4123 0.967277 17.8644 1.87722L22.0087 10.2493C22.3043 10.8403 22.3398 11.0161 22.8992 10.7011ZM16.5145 23.3501C16.5527 23.7109 16.5699 23.7163 16.6364 24.0677C16.751 24.6755 16.7965 24.8075 16.207 24.9915L2.19176 29.3812C1.06516 29.7319 1.10018 29.2004 0.821815 28.2872C0.445658 27.0543 0.172756 25.7722 0.0158151 24.4561C-0.0869139 23.5882 0.312815 23.5723 1.15609 23.5259L15.996 22.7627C16.3598 22.7443 16.4572 22.8159 16.5145 23.3501ZM17.5733 27.1231C17.7115 27.4283 17.8607 27.7263 18.019 28.0167C18.321 28.5675 18.1027 28.6045 17.5988 28.9932L7.32166 36.9241C6.573 37.499 6.35379 37.4395 5.69518 36.7401C4.74596 35.7332 4.19338 34.9902 3.47565 33.8487C2.9531 33.0164 2.96586 32.8245 3.8318 32.449L16.4198 26.9613C17.0757 26.6756 17.2795 26.473 17.5733 27.1231ZM19.6255 30.3059C19.9193 30.6391 20.1313 30.8329 20.4577 31.1325C20.838 31.483 20.9008 31.5398 20.6169 31.9852L14.6242 41.4485C14.2021 42.1126 14.0257 42.3425 13.2989 42.0452C12.0499 41.5359 10.8555 40.9054 9.73216 40.1748C8.93349 39.6538 9.48116 39.4137 10.1361 38.789L18.774 30.5112C19.1479 30.1553 19.2852 29.9193 19.6255 30.3059ZM22.8992 32.9626C23.2704 33.1711 23.5224 33.2959 23.9154 33.4653C24.3901 33.6704 24.4447 33.7025 24.3265 34.222L22.3771 42.8259C22.1697 43.7475 22.0942 43.5885 21.1609 43.5885C20.1367 43.5885 19.1297 43.5124 18.1427 43.3681C17.163 43.225 17.4123 42.6953 17.8644 41.7854L22.0087 33.4138C22.3043 32.8222 22.3398 32.6471 22.8992 32.9626Z" fill="#0A2936"/>
</svg>
